<svg width="119" height="62" viewBox="0 0 119 62" fill="none" xmlns="http://www.w3.org/2000/svg">
<mask id="mask0_720_2289" style="mask-type:luminance" maskUnits="userSpaceOnUse" x="0" y="0" width="119" height="62">
<path d="M118.631 0H0.630737V62H118.631V0Z" fill="white"/>
</mask>
<g mask="url(#mask0_720_2289)">
<path d="M57.848 4.2032C58.836 2.5932 60.426 2.5762 61.478 4.1632C60.806 1.6052 58.48 1.7802 57.848 4.2032Z" fill="#523333"/>
<path d="M57.848 4.2032C58.836 2.5932 60.426 2.5762 61.478 4.1632C60.806 1.6052 58.48 1.7802 57.848 4.2032Z" stroke="#523333" stroke-width="0.273489" stroke-miterlimit="10"/>
<path d="M59.635 2.5325C59.641 2.3275 59.649 2.3625 59.657 2.3605L59.679 2.3635C59.691 2.3685 59.705 2.3735 59.719 2.3885L59.803 2.4725C59.863 2.5275 59.909 2.5085 59.973 2.4925L60.075 2.5245C60.161 2.5415 60.278 2.5195 60.342 2.5645C60.382 2.5765 60.402 2.6175 60.432 2.6445C60.462 2.6775 60.492 2.7025 60.512 2.7445L60.642 2.9705C60.664 3.0065 60.694 3.0335 60.722 3.0635L60.764 3.1105C60.778 3.1305 60.852 3.0505 60.874 3.0335L60.894 3.0195C60.894 3.0195 60.922 2.9895 60.872 3.0615L60.88 3.0515C62.644 5.2495 62.267 8.4655 61.107 10.8145C60.149 13.8615 57.191 16.2415 53.93 16.3545C51.786 16.4215 49.64 16.1745 47.55 15.7215C43.39 14.8055 39.354 13.3215 35.277 12.1255C24.753 9.0315 26.122 15.6695 31.819 16.1455C33.905 16.2905 35.959 15.4915 37.693 14.3785L41.31 12.5315C44.236 10.9235 49.537 8.0735 52.9 9.0255C54.382 9.5175 54.22 10.9915 53.056 11.7635C51.124 13.0455 48.656 12.5995 46.614 11.8775C38.974 8.7575 26.729 6.0275 18.731 8.5675C15.361 9.7475 14.319 12.5505 15.144 15.8435C16.209 17.2385 18.204 17.5415 20.074 16.6435C20.694 16.3415 21.529 15.7555 21.564 15.0935C21.624 14.6535 21.067 14.2135 20.826 13.7815C20.701 13.5715 20.559 13.3575 20.451 13.0415L20.581 12.8015C21.597 12.5975 22.444 13.2285 22.851 14.1145C23.351 15.0805 22.881 16.3085 22.074 16.9405C20.299 18.3435 17.607 18.4855 15.734 17.2405C15.2693 16.9151 14.877 16.497 14.582 16.0125C14.4011 15.2031 14.3129 14.3758 14.319 13.5465C14.309 8.7385 19.032 6.8625 23.219 6.7165C28.085 6.5295 32.892 7.5365 37.579 8.6465C40.671 9.4115 43.862 10.3365 46.729 11.5835C48.667 12.2735 51.064 12.7015 52.866 11.4955C53.786 10.8715 54.046 9.7335 52.789 9.3285C51.792 9.0145 50.677 9.1785 49.661 9.3885C46.501 10.1055 43.631 11.7465 40.811 13.2885C40.843 13.2645 37.831 14.8505 37.945 14.7825C36.131 15.9625 34.013 16.8165 31.793 16.7565C25.229 16.4105 24.33 9.2725 32.339 10.6465C34.457 10.9665 36.509 11.7965 38.526 12.4635C42.548 13.8365 46.503 15.4885 50.749 16.0195C52.829 16.2435 55.056 16.4295 56.966 15.4095C58.853 14.4695 60.346 12.7535 60.946 10.7515C62.042 8.4215 62.358 5.4415 60.621 3.3415L60.661 3.3815L60.649 3.3915C60.646 3.3915 60.646 3.3835 60.646 3.3815L60.654 3.3715C60.598 3.4415 60.621 3.4085 60.618 3.4055C60.618 3.3995 60.621 3.3955 60.624 3.3825L60.649 3.3225C60.665 3.2825 60.676 3.2525 60.662 3.2525L60.605 3.2275C60.433 3.1345 60.15 3.1645 60.005 3.0325C59.939 2.9895 59.925 2.8745 59.881 2.7975L59.981 2.8305L59.896 2.8105C59.802 2.8145 59.756 2.9565 59.663 2.9645C59.658 2.9605 59.649 2.9965 59.641 2.7915V2.5305L59.635 2.5325Z" fill="#523333"/>
<path d="M59.68 2.80632C59.67 3.01132 59.666 2.97632 59.657 2.97832L59.635 2.97532C59.621 2.97032 59.607 2.96532 59.593 2.95132L59.51 2.86832C59.482 2.84132 59.455 2.83532 59.424 2.82832L59.338 2.84832L59.441 2.81332C59.385 2.94332 59.354 3.07332 59.211 3.11032C59.081 3.17432 58.849 3.17032 58.716 3.24332L58.656 3.26832C58.636 3.27832 58.696 3.38832 58.702 3.41832C58.7 3.41832 58.722 3.45432 58.667 3.38332C58.672 3.38932 58.677 3.39932 58.669 3.40332L58.656 3.39332C57.04 5.38832 57.224 8.35832 58.376 10.7653C58.972 12.7673 60.466 14.4813 62.356 15.4223C64.264 16.4423 66.49 16.2553 68.572 16.0323C72.814 15.5003 76.772 13.8483 80.792 12.4763C82.812 11.8063 84.86 10.9763 86.98 10.6563C94.99 9.28432 94.09 16.4223 87.527 16.7693C85.307 16.8263 83.189 15.9753 81.374 14.7943C81.494 14.8623 78.478 13.2793 78.511 13.3013C75.693 11.7583 72.821 10.1173 69.661 9.40132C68.644 9.19132 67.528 9.02632 66.531 9.34132C65.285 9.74132 65.521 10.8773 66.453 11.5063C68.255 12.7103 70.653 12.2833 72.59 11.5943C75.456 10.3473 78.645 9.42232 81.74 8.65732C86.427 7.54932 91.234 6.54332 96.1 6.72732C100.276 6.86732 105.02 8.75732 105 13.5553C105.013 14.3893 104.91 15.2153 104.736 16.0223C104.439 16.5061 104.047 16.9246 103.584 17.2523C101.714 18.4943 99.016 18.3523 97.242 16.9493C96.432 16.3143 95.972 15.0893 96.465 14.1243C96.873 13.2383 97.717 12.6063 98.735 12.8083L98.865 13.0483C98.758 13.3623 98.615 13.5783 98.491 13.7883C98.251 14.2203 97.695 14.6633 97.751 15.1013C97.784 15.7633 98.616 16.3453 99.241 16.6513C101.088 17.5433 103.111 17.2483 104.171 15.8513C104.991 12.5663 103.961 9.75432 100.586 8.57332C92.582 6.03332 80.359 8.75632 72.702 11.8833C70.662 12.6033 68.194 13.0503 66.262 11.7673C65.112 10.9973 64.925 9.52332 66.418 9.02732C67.506 8.67732 68.648 8.83432 69.738 9.04732C72.973 9.75332 75.854 11.3673 78.728 12.9073L81.621 14.3833C82.508 14.9493 83.451 15.4283 84.448 15.7513C86.785 16.5213 89.818 16.3113 91.4 14.2793C92.4 12.9433 91.724 11.7373 90.13 11.4553C88.136 11.0783 85.99 11.5973 84.04 12.1353C83.18 12.4053 81.877 12.8153 80.99 13.0723C75.924 14.6253 70.78 16.5583 65.386 16.3703C62.131 16.2703 59.146 13.8363 58.212 10.8403C57.37 9.03332 56.882 6.92032 57.469 4.95332C57.674 4.28532 57.989 3.63332 58.426 3.08332L58.423 3.06632C58.426 3.06232 58.429 3.06232 58.433 3.06632L58.443 3.07632C58.393 3.00232 58.418 3.03632 58.42 3.03232C58.4436 3.04865 58.466 3.0667 58.487 3.08632C58.52 3.11432 58.545 3.13332 58.551 3.12232L58.594 3.07632C58.621 3.04332 58.649 3.01832 58.674 2.98332C58.752 2.85732 58.841 2.64632 58.974 2.57832C59.038 2.53032 59.154 2.55232 59.24 2.53632L59.342 2.50332L59.429 2.52332C59.456 2.51332 59.483 2.51132 59.514 2.48132L59.597 2.39632C59.6142 2.37964 59.637 2.37001 59.661 2.36932C59.667 2.37332 59.675 2.33732 59.683 2.54232V2.80532H59.681L59.68 2.80632Z" fill="#523333"/>
<path d="M57.848 3.98503C58.836 2.37503 60.426 2.35703 61.478 3.94503C60.806 1.38903 58.48 1.56103 57.848 3.98503Z" fill="#523333"/>
<path d="M57.848 3.98503C58.836 2.37503 60.426 2.35703 61.478 3.94503C60.806 1.38903 58.48 1.56103 57.848 3.98503Z" stroke="#523333" stroke-width="0.273489" stroke-miterlimit="10"/>
<path d="M59.635 2.3142C59.641 2.1092 59.649 2.1442 59.657 2.1412L59.679 2.1462C59.691 2.1522 59.705 2.1562 59.719 2.1712L59.803 2.2552C59.863 2.3092 59.909 2.2902 59.973 2.2752L60.075 2.3072C60.161 2.3232 60.278 2.3012 60.342 2.3472C60.382 2.3572 60.402 2.4002 60.432 2.4272C60.462 2.4602 60.492 2.4842 60.512 2.5252L60.642 2.7522C60.664 2.7902 60.694 2.8172 60.722 2.8472L60.764 2.8942C60.766 2.9062 60.794 2.8872 60.827 2.8592L60.877 2.8192C60.887 2.8132 60.891 2.8072 60.897 2.8052C60.897 2.8082 60.925 2.7752 60.875 2.8522L60.883 2.8422C62.645 5.0402 62.268 8.2562 61.108 10.6052C60.148 13.6522 57.19 16.0322 53.928 16.1452C51.786 16.2132 49.641 15.9652 47.551 15.5132C43.388 14.5982 39.353 13.1132 35.276 11.9172C24.748 8.8242 26.116 15.4592 31.814 15.9352C33.901 16.0802 35.954 15.2812 37.689 14.1682C38.246 13.8882 40.815 12.5752 41.307 12.3232C44.229 10.7152 49.533 7.8652 52.897 8.8172C54.377 9.3072 54.215 10.7822 53.052 11.5542C51.12 12.8372 48.652 12.3922 46.61 11.6702C38.97 8.55021 26.726 5.8202 18.728 8.3602C15.358 9.5402 14.315 12.3422 15.14 15.6382C16.205 17.0332 18.2 17.3362 20.07 16.4382C20.69 16.1382 21.525 15.5512 21.56 14.8882C21.62 14.4482 21.063 14.0082 20.822 13.5782C20.697 13.3682 20.555 13.1532 20.447 12.8362L20.577 12.5962C21.593 12.3932 22.44 13.0242 22.847 13.9102C23.347 14.8772 22.877 16.1052 22.07 16.7372C20.295 18.1402 17.603 18.2822 15.73 17.0372C15.2654 16.7121 14.8732 16.2943 14.578 15.8102C14.3967 15.0005 14.3082 14.1729 14.314 13.3432C14.304 8.53621 19.027 6.6602 23.214 6.5132C28.08 6.3272 32.887 7.3332 37.574 8.4432C40.666 9.2092 43.857 10.1332 46.724 11.3812C48.662 12.0712 51.059 12.4992 52.861 11.2932C53.781 10.6702 54.041 9.5332 52.785 9.1272C51.788 8.8132 50.673 8.9772 49.657 9.1872C46.497 9.9042 43.627 11.5452 40.807 13.0872C40.84 13.0632 37.829 14.6492 37.942 14.5802C36.129 15.7632 34.012 16.6162 31.792 16.5562C25.227 16.2092 24.328 9.07121 32.337 10.4442C34.455 10.7642 36.507 11.5942 38.524 12.2642C42.546 13.6362 46.501 15.2882 50.747 15.8192C52.827 16.0432 55.054 16.2292 56.964 15.2092C58.851 14.2692 60.344 12.5532 60.944 10.5512C62.04 8.2212 62.356 5.2412 60.619 3.1412L60.659 3.1812L60.647 3.1882C60.644 3.1882 60.644 3.1822 60.644 3.1802L60.652 3.1702C60.596 3.2402 60.619 3.2062 60.616 3.2032C60.616 3.1972 60.619 3.1932 60.622 3.1802L60.647 3.1202C60.663 3.0802 60.674 3.0502 60.66 3.0502L60.602 3.0252C60.43 2.9322 60.147 2.9622 60.002 2.8302C59.936 2.7872 59.922 2.6722 59.878 2.5952L59.98 2.6282L59.894 2.6082C59.8 2.6122 59.754 2.7542 59.661 2.7622C59.655 2.7582 59.646 2.7942 59.638 2.5892V2.3202L59.635 2.3142Z" fill="#523333"/>
<path d="M59.68 2.58715C59.67 2.79215 59.666 2.75715 59.657 2.75915L59.635 2.75515C59.621 2.74915 59.607 2.74515 59.593 2.73015L59.51 2.64615C59.482 2.61915 59.455 2.61315 59.424 2.60615L59.338 2.62415L59.441 2.59215C59.385 2.72015 59.354 2.85215 59.211 2.88715C59.081 2.95315 58.849 2.95015 58.716 3.02115L58.656 3.04715C58.636 3.05715 58.696 3.16715 58.702 3.19715C58.7 3.19715 58.722 3.23315 58.667 3.16115C58.672 3.16815 58.677 3.17915 58.669 3.18115L58.656 3.17315C57.04 5.16715 57.224 8.13715 58.376 10.5432C58.972 12.5462 60.466 14.2612 62.356 15.2012C64.264 16.2212 66.49 16.0362 68.572 15.8112C72.814 15.2812 76.772 13.6292 80.792 12.2562C82.812 11.5862 84.86 10.7562 86.98 10.4362C94.99 9.06415 94.09 16.2021 87.527 16.5501C85.307 16.6081 83.189 15.7552 81.374 14.5732C81.494 14.6412 78.478 13.0582 78.511 13.0802C75.693 11.5382 72.821 9.89715 69.661 9.18015C68.644 8.97015 67.528 8.80615 66.531 9.12015C65.285 9.52015 65.521 10.6582 66.453 11.2872C68.255 12.4902 70.653 12.0642 72.59 11.3742C75.456 10.1272 78.645 9.20415 81.74 8.43415C86.427 7.32715 91.234 6.32015 96.1 6.50415C100.276 6.64615 105.02 8.53415 105 13.3342C105.013 14.1672 104.91 14.9942 104.736 15.7992C104.439 16.2817 104.047 16.6988 103.584 17.0252C101.714 18.2702 99.016 18.1272 97.242 16.7252C96.432 16.0902 95.972 14.8652 96.465 13.8992C96.873 13.0142 97.717 12.3832 98.735 12.5852L98.865 12.8252C98.758 13.1402 98.615 13.3552 98.491 13.5672C98.251 13.9992 97.695 14.4422 97.751 14.8792C97.784 15.5412 98.616 16.1242 99.241 16.4292C101.088 17.3232 103.111 17.0272 104.171 15.6292C104.991 12.3452 103.961 9.53415 100.586 8.35215C92.582 5.81215 80.359 8.53515 72.702 11.6622C70.662 12.3842 68.194 12.8292 66.262 11.5472C65.112 10.7772 64.925 9.30415 66.418 8.80915C67.506 8.45515 68.648 8.61415 69.738 8.82715C72.973 9.53315 75.854 11.1472 78.728 12.6872L81.621 14.1632C82.508 14.7292 83.451 15.2082 84.448 15.5302C86.785 16.3042 89.818 16.0932 91.4 14.0602C92.4 12.7242 91.724 11.5182 90.13 11.2362C88.136 10.8582 85.99 11.3782 84.04 11.9162C83.18 12.1862 81.877 12.5962 80.99 12.8522C75.924 14.4072 70.78 16.3402 65.386 16.1522C62.131 16.0502 59.146 13.6162 58.212 10.6222C57.37 8.81415 56.882 6.70015 57.469 4.73215C57.674 4.06715 57.989 3.41215 58.426 2.86215L58.423 2.84715C58.426 2.84415 58.429 2.84415 58.433 2.84715L58.443 2.85715C58.393 2.78415 58.418 2.81415 58.42 2.81215C58.4441 2.82748 58.4665 2.84524 58.487 2.86515C58.52 2.89315 58.545 2.91215 58.551 2.90115L58.594 2.85415C58.621 2.82215 58.649 2.79715 58.674 2.76115C58.752 2.63515 58.841 2.42415 58.974 2.35615C59.038 2.30915 59.154 2.33115 59.24 2.31615L59.342 2.28215L59.429 2.30215C59.456 2.29515 59.483 2.29215 59.514 2.26215L59.597 2.17615C59.6142 2.15948 59.637 2.14985 59.661 2.14915C59.667 2.15215 59.675 2.11615 59.683 2.32115V2.58715H59.68Z" fill="#523333"/>
<path d="M57.395 58.1738C58.678 60.2658 60.74 60.2838 62.102 58.2258C61.234 61.5428 58.214 61.3188 57.395 58.1738Z" fill="#523333"/>
<path d="M57.395 58.1738C58.678 60.2658 60.74 60.2838 62.102 58.2258C61.234 61.5428 58.214 61.3188 57.395 58.1738Z" stroke="#523333" stroke-width="0.273489" stroke-miterlimit="10"/>
<path d="M59.71 60.0282C59.718 59.8232 59.73 59.8562 59.738 59.8582L59.766 59.8682C59.786 59.8752 59.802 59.8722 59.821 59.8882L59.934 59.9712C59.97 60.0012 60.006 60.0062 60.044 60.0142L60.156 59.9942L60.053 60.0282C60.118 59.9402 60.151 59.8082 60.238 59.7512C60.3219 59.687 60.4167 59.6385 60.518 59.6082L60.838 59.5182C60.89 59.5012 60.934 59.4742 60.981 59.4522L61.053 59.4222C61.067 59.4192 61.063 59.3892 61.048 59.3452C61.04 59.3172 61.026 59.2872 61.023 59.2602C61.026 59.2602 61.003 59.2252 61.063 59.2962L61.053 59.2862C61.053 59.2792 61.055 59.2762 61.058 59.2742L61.072 59.2842L61.032 59.3242C63.285 56.5742 62.855 52.6992 61.425 49.6642C60.651 47.0602 58.705 44.8362 56.252 43.6112C55.027 43.0012 53.672 42.6282 52.302 42.5952C45.312 42.4072 38.784 45.1582 32.292 47.3652C29.678 48.2182 27.019 49.2882 24.277 49.6952C13.959 51.4212 15.363 42.4052 23.592 41.9722C26.414 41.8662 29.286 43.0222 31.507 44.4922C32.227 44.8622 35.557 46.5962 36.189 46.9302C38.306 48.1532 40.499 49.2962 42.766 50.2152C44.706 50.9832 46.724 51.6592 48.816 51.7852C49.804 51.8152 50.936 51.7752 51.669 51.0712C52.427 50.2842 51.716 49.1712 50.953 48.6672C48.585 47.0902 45.485 47.6502 42.951 48.5502C34.667 52.0522 18.181 56.1202 9.32295 54.3822C4.84295 53.5222 1.01795 50.9472 1.00295 46.0472C0.988953 44.9772 1.12295 43.9172 1.34695 42.8802C1.72433 42.2702 2.2242 41.7451 2.81495 41.3382C4.59195 40.1462 6.91795 40.0532 8.92695 40.7312C11.411 41.5232 13.24 44.0262 11.092 46.2192C10.522 46.7492 9.81695 47.0392 9.02895 46.9822L8.89895 46.7422C9.07595 46.3952 9.27595 46.1322 9.46395 45.8862C9.87795 45.3162 10.622 44.7022 10.541 44.0292C10.477 43.0642 9.35095 42.2792 8.45895 41.8662C6.06395 40.7562 3.29695 41.1222 1.90595 43.0562C0.851953 47.3862 2.16195 51.0332 6.59095 52.6362C16.691 55.9962 33.134 52.2482 42.834 48.2632C45.457 47.3292 48.679 46.7602 51.144 48.4092C52.607 49.3962 52.862 51.2312 50.954 51.8772C46.932 53.0572 40.438 49.7372 36.888 47.8292C35.67 47.1192 32.57 45.5842 31.282 44.9142C29.022 43.4572 26.349 42.4182 23.622 42.5902C21.202 42.7302 18.114 44.0752 17.82 46.6952C17.91 49.4232 22.16 49.1932 24.153 48.9012C26.18 48.6052 28.159 48.0342 30.103 47.3692C33.403 46.4062 36.701 45.2472 40.01 44.2922C43.995 43.1382 48.13 42.2822 52.304 42.4272C56.521 42.5572 60.381 45.6972 61.591 49.5872C63.096 52.6892 63.578 56.7272 61.301 59.5972L61.303 59.6142C61.299 59.6162 61.293 59.6162 61.291 59.6162L61.281 59.6062C61.331 59.6812 61.307 59.6482 61.304 59.6502C61.28 59.6402 61.258 59.6182 61.234 59.6002C61.197 59.5742 61.17 59.5572 61.164 59.5702L61.108 59.6282C61.072 59.6682 61.034 59.7002 61 59.7432C60.928 59.8412 60.795 60.0532 60.703 60.1312C60.569 60.3092 60.35 60.2712 60.153 60.3472L60.043 60.3272C60.006 60.3372 59.97 60.3392 59.931 60.3692L59.821 60.4532C59.798 60.4692 59.764 60.4732 59.736 60.4802C59.726 60.4802 59.716 60.5152 59.708 60.3102V60.0302H59.716L59.71 60.0282Z" fill="#523333"/>
<path d="M59.77 60.3016C59.764 60.5066 59.753 60.4736 59.744 60.4716L59.717 60.4616C59.697 60.4546 59.681 60.4576 59.661 60.4436L59.551 60.3586C59.515 60.3286 59.479 60.3236 59.441 60.3156L59.331 60.3356L59.226 60.3016C59.121 60.2716 58.986 60.2816 58.902 60.2176C58.812 60.1646 58.744 60.0796 58.675 59.9976L58.485 59.7276C58.453 59.6876 58.415 59.6506 58.378 59.6116L58.323 59.5546C58.318 59.5406 58.288 59.5576 58.253 59.5846C58.229 59.6046 58.203 59.6246 58.183 59.6346C58.179 59.6306 58.153 59.6606 58.203 59.5876C55.913 56.7776 56.386 52.6746 57.896 49.5706C58.704 46.9906 60.691 44.6936 63.169 43.4606C64.407 42.8346 65.784 42.4536 67.182 42.4106C71.355 42.2656 75.492 43.1206 79.476 44.2756C82.784 45.2296 86.081 46.3896 89.381 47.3526C91.325 48.0166 93.304 48.5886 95.331 48.8826C97.345 49.1726 101.563 49.4126 101.663 46.6796C101.373 44.0596 98.278 42.7166 95.861 42.5746C93.136 42.4016 90.461 43.4386 88.201 44.8996C86.891 45.5826 83.825 47.0996 82.595 47.8146C79.048 49.7206 72.555 53.0406 68.527 51.8616C66.635 51.2216 66.859 49.3866 68.339 48.3946C70.803 46.7426 74.023 47.3146 76.649 48.2496C86.345 52.2346 102.779 55.9796 112.889 52.6226C117.309 51.0226 118.635 47.3826 117.575 43.0426C116.182 41.1126 113.437 40.7396 111.023 41.8526C110.135 42.2626 109.005 43.0506 108.941 44.0156C108.861 44.6886 109.601 45.3006 110.021 45.8726C110.211 46.1186 110.411 46.3826 110.587 46.7286L110.457 46.9716C109.667 47.0286 108.963 46.7386 108.397 46.2086C106.235 44.0116 108.107 41.4946 110.562 40.7216C112.572 40.0416 114.897 40.1356 116.672 41.3286C117.264 41.7347 117.765 42.2599 118.142 42.8706C118.376 43.9098 118.49 44.9724 118.482 46.0376C118.466 50.9336 114.656 53.5076 110.165 54.3716C101.32 56.1086 84.829 52.0446 76.537 48.5386C74.003 47.6386 70.903 47.0756 68.533 48.6566C67.771 49.1586 67.057 50.2726 67.818 51.0566C68.553 51.7596 69.683 51.7986 70.671 51.7706C72.766 51.6456 74.784 50.9706 76.721 50.2006C78.988 49.2826 81.181 48.1386 83.298 46.9166C83.926 46.5866 87.284 44.8406 87.98 44.4766C90.2 43.0086 93.073 41.8516 95.896 41.9566C104.126 42.3916 105.529 51.4066 95.21 49.6826C92.47 49.2746 89.81 48.2026 87.195 47.3526C80.705 45.1456 74.177 42.3926 67.185 42.5826C65.815 42.6156 64.462 42.9876 63.238 43.5976C60.788 44.8216 58.838 47.0446 58.065 49.6476C56.637 52.6846 56.205 56.5596 58.458 59.3076L58.416 59.2676L58.431 59.2596C58.434 59.2596 58.437 59.2656 58.437 59.2696L58.429 59.2816C58.485 59.2116 58.463 59.2466 58.469 59.2466C58.469 59.2686 58.451 59.3016 58.443 59.3286C58.429 59.3706 58.421 59.4026 58.438 59.4056L58.511 59.4376C58.669 59.5336 58.963 59.5636 59.124 59.6576C59.297 59.7076 59.354 59.8676 59.444 60.0116L59.342 59.9786L59.452 59.9986C59.489 59.9886 59.525 59.9886 59.564 59.9566L59.674 59.8736C59.7 59.8536 59.73 59.8566 59.758 59.8456C59.788 59.7956 59.776 60.2496 59.778 60.2956L59.77 60.3016Z" fill="#523333"/>
<path d="M57.395 58.4561C58.678 60.5481 60.74 60.5661 62.102 58.5061C61.234 61.8261 58.214 61.6011 57.395 58.4561Z" fill="#523333"/>
<path d="M57.395 58.4561C58.678 60.5481 60.74 60.5661 62.102 58.5061C61.234 61.8261 58.214 61.6011 57.395 58.4561Z" stroke="#523333" stroke-width="0.273489" stroke-miterlimit="10"/>
<path d="M59.71 60.3102C59.718 60.1052 59.73 60.1372 59.738 60.1402L59.766 60.1482C59.786 60.1582 59.802 60.1542 59.821 60.1682L59.934 60.2522C59.97 60.2802 60.006 60.2852 60.044 60.2922L60.156 60.2742L60.053 60.3072C60.118 60.2172 60.151 60.0872 60.238 60.0312C60.3221 59.968 60.417 59.9206 60.518 59.8912L60.838 59.7992C60.89 59.7832 60.934 59.7562 60.981 59.7342L61.053 59.7012C61.067 59.6982 61.063 59.6682 61.048 59.6242C61.04 59.5972 61.026 59.5672 61.023 59.5402C61.026 59.5382 61.003 59.5022 61.063 59.5732L61.053 59.5632C61.053 59.5572 61.055 59.5532 61.058 59.5512L61.072 59.5612L61.032 59.6012C63.285 56.8542 62.855 52.9792 61.425 49.9432C60.651 47.3392 58.705 45.1162 56.252 43.8902C55.027 43.2802 53.672 42.9072 52.302 42.8742C45.312 42.6842 38.784 45.4342 32.292 47.6442C29.678 48.4972 27.019 49.5662 24.277 49.9742C13.959 51.6992 15.363 42.6822 23.592 42.2502C26.414 42.1452 29.286 43.3002 31.507 44.7702C32.227 45.1422 35.557 46.8762 36.189 47.2102C38.306 48.4322 40.499 49.5752 42.766 50.4942C44.706 51.2642 46.724 51.9382 48.816 52.0642C49.804 52.0942 50.936 52.0562 51.669 51.3502C52.427 50.5652 51.716 49.4522 50.953 48.9502C48.585 47.3682 45.485 47.9322 42.951 48.8302C34.667 52.3362 18.181 56.4032 9.32297 54.6662C4.83997 53.8032 1.01397 51.2302 0.999971 46.3302C0.992549 45.2652 1.10764 44.2029 1.34297 43.1642C1.71984 42.5535 2.21938 42.0277 2.80997 41.6202C4.58797 40.4302 6.91397 40.3362 8.92297 41.0142C11.407 41.8022 13.236 44.3072 11.088 46.5002C10.518 47.0322 9.81397 47.3222 9.02597 47.2642L8.89597 47.0242C9.05667 46.7215 9.24586 46.4349 9.46097 46.1682C9.87597 45.5962 10.621 44.9832 10.539 44.3112C10.476 43.3472 9.34897 42.5612 8.45897 42.1492C6.06297 41.0422 3.29597 41.4092 1.90497 43.3392C0.850971 47.6692 2.16097 51.3142 6.58997 52.9192C16.69 56.2792 33.132 52.5342 42.832 48.5462C45.455 47.6112 48.677 47.0422 51.142 48.6912C52.605 49.6772 52.86 51.5132 50.952 52.1582C46.93 53.3382 40.436 50.0182 36.886 48.1102C35.668 47.3972 32.568 45.8632 31.28 45.1932C29.02 43.7352 26.346 42.6962 23.62 42.8682C21.2 43.0082 18.11 44.3522 17.817 46.9722C17.907 49.6992 22.157 49.4692 24.15 49.1772C26.176 48.8802 28.155 48.3092 30.1 47.6442C33.4 46.6822 36.697 45.5222 40.006 44.5672C43.991 43.4172 48.126 42.5572 52.3 42.7022C56.516 42.8322 60.376 45.9702 61.586 49.8622C63.091 52.9622 63.573 57.0002 61.296 59.8722L61.298 59.8882C61.295 59.8922 61.288 59.8922 61.288 59.8922L61.278 59.8822C61.328 59.9582 61.303 59.9252 61.3 59.9282C61.275 59.9182 61.253 59.8952 61.228 59.8782C61.192 59.8512 61.165 59.8352 61.158 59.8482L61.103 59.9062C61.067 59.9442 61.029 59.9762 60.995 60.0212C60.923 60.1212 60.79 60.3332 60.698 60.4112C60.565 60.5892 60.346 60.5512 60.148 60.6272L60.038 60.6072C60.002 60.6172 59.966 60.6192 59.928 60.6492L59.816 60.7332C59.794 60.7492 59.76 60.7532 59.732 60.7602C59.704 60.8072 59.712 60.3582 59.712 60.3102H59.71Z" fill="#523333"/>
<path d="M59.77 60.5827C59.764 60.7887 59.753 60.7557 59.744 60.7527L59.717 60.7447C59.697 60.7367 59.681 60.7387 59.661 60.7247L59.551 60.6407C59.515 60.6147 59.479 60.6107 59.441 60.6007L59.331 60.6207L59.226 60.5877C59.121 60.5577 58.986 60.5657 58.902 60.5027C58.812 60.4527 58.744 60.3677 58.675 60.2857L58.485 60.0157C58.453 59.9737 58.415 59.9377 58.378 59.8997L58.323 59.8417C58.318 59.8277 58.288 59.8437 58.253 59.8717C58.229 59.8917 58.203 59.9117 58.183 59.9217C58.179 59.9167 58.153 59.9467 58.203 59.8717C55.913 57.0617 56.386 52.9587 57.896 49.8547C58.704 47.2747 60.691 44.9787 63.169 43.7447C64.407 43.1187 65.784 42.7387 67.182 42.6947C71.355 42.5497 75.492 43.4047 79.476 44.5607C82.784 45.5157 86.081 46.6757 89.381 47.6377C91.325 48.3027 93.304 48.8747 95.331 49.1697C97.345 49.4597 101.563 49.6967 101.663 46.9647C101.373 44.3447 98.278 43.0017 95.861 42.8597C93.136 42.6857 90.461 43.7227 88.201 45.1827C86.891 45.8667 83.825 47.3847 82.595 48.0987C79.048 50.0027 72.555 53.3227 68.527 52.1437C66.635 51.5037 66.859 49.6687 68.339 48.6757C70.803 47.0237 74.023 47.5957 76.649 48.5307C86.345 52.5157 102.779 56.2627 112.889 52.9047C117.309 51.3047 118.635 47.6647 117.575 43.3247C116.182 41.3947 113.437 41.0207 111.023 42.1347C110.135 42.5447 109.005 43.3317 108.941 44.2977C108.861 44.9697 109.601 45.5817 110.021 46.1537C110.211 46.3997 110.411 46.6617 110.587 47.0097L110.457 47.2497C109.667 47.3077 108.963 47.0177 108.397 46.4877C106.235 44.2917 108.107 41.7757 110.562 41.0017C112.572 40.3237 114.897 40.4167 116.672 41.6087C117.27 42.0187 117.767 42.5517 118.142 43.1537C118.376 44.1919 118.49 45.2535 118.482 46.3177C118.466 51.2147 114.656 53.7877 110.165 54.6527C101.32 56.3897 84.829 52.3257 76.537 48.8197C74.003 47.9197 70.903 47.3567 68.533 48.9377C67.771 49.4417 67.057 50.5547 67.818 51.3397C68.553 52.0417 69.683 52.0797 70.671 52.0527C72.766 51.9277 74.784 51.2527 76.721 50.4827C78.988 49.5627 81.181 48.4207 83.298 47.1987C83.926 46.8687 87.284 45.1227 87.98 44.7587C90.2 43.2887 93.073 42.1337 95.896 42.2387C104.126 42.6727 105.529 51.6887 95.21 49.9637C92.47 49.5557 89.81 48.4837 87.195 47.6337C80.705 45.4267 74.177 42.6737 67.185 42.8637C65.815 42.8967 64.462 43.2687 63.238 43.8787C60.788 45.1027 58.838 47.3257 58.065 49.9287C56.637 52.9657 56.205 56.8407 58.458 59.5887L58.416 59.5487L58.431 59.5387C58.434 59.5407 58.437 59.5467 58.437 59.5517L58.429 59.5617C58.485 59.4917 58.463 59.5277 58.469 59.5277C58.469 59.5507 58.451 59.5837 58.443 59.6107C58.429 59.6527 58.421 59.6847 58.438 59.6877L58.511 59.7197C58.669 59.8157 58.963 59.8457 59.124 59.9397C59.297 59.9917 59.354 60.1497 59.444 60.2947L59.342 60.2617L59.452 60.2817C59.489 60.2717 59.525 60.2717 59.564 60.2397L59.674 60.1567C59.7 60.1367 59.73 60.1387 59.758 60.1267C59.788 60.0807 59.776 60.5367 59.778 60.5807L59.77 60.5827Z" fill="#523333"/>
<path d="M13.3899 22.2951L13.8719 25.1581L13.8899 25.2911C13.8899 25.4761 13.8249 25.5671 13.6919 25.5671C13.6039 25.5671 13.5149 25.4971 13.4269 25.3591C12.9399 24.5991 12.3899 24.0131 11.7769 23.5951C11.1639 23.1721 10.1749 22.9601 8.80894 22.9601C7.86594 22.9601 7.33894 23.0601 7.22394 23.2631C7.10994 23.4591 7.05394 25.0131 7.05394 27.9271C7.75394 27.9271 8.29194 27.8801 8.66394 27.7851C9.04394 27.6851 9.33394 27.5101 9.53794 27.2651C9.74494 27.0171 9.93494 26.5621 10.1049 25.8981C10.1499 25.7211 10.2219 25.6331 10.3249 25.6331C10.5149 25.6331 10.6079 25.7531 10.6079 25.9931L10.5429 29.0181C10.5229 30.0681 10.4949 30.6331 10.4569 30.7151C10.4169 30.7911 10.3469 30.8291 10.2469 30.8291C10.0889 30.8291 9.99394 30.7011 9.96194 30.4491C9.89194 29.8611 9.68994 29.3991 9.35494 29.0641C9.02494 28.7241 8.25794 28.5521 7.04994 28.5521L7.03994 32.0701C7.03994 32.7601 7.08794 33.2501 7.18294 33.5401C7.28294 33.8301 7.43294 34.0301 7.62894 34.1381C7.82494 34.2381 8.13094 34.2961 8.54894 34.3081C8.85194 34.3151 9.04494 34.3381 9.12694 34.3751C9.20894 34.4051 9.24994 34.4821 9.24994 34.6021C9.24994 34.8061 9.10794 34.9071 8.82294 34.9071C8.56294 34.9071 8.07094 34.8851 7.34294 34.8401C6.88224 34.808 6.42072 34.789 5.95894 34.7831L2.96294 34.8891C2.65894 34.8891 2.50694 34.7961 2.50694 34.6131C2.50694 34.4431 2.69294 34.3511 3.06694 34.3391C3.71094 34.3141 4.09694 34.0261 4.22294 33.4761C4.34894 32.9261 4.41294 30.9291 4.41294 27.4841C4.41294 25.2471 4.32994 23.9141 4.16594 23.4841C4.00594 23.0541 3.61594 22.8391 2.98894 22.8391L2.73294 22.8491C2.50694 22.8491 2.39294 22.7541 2.39294 22.5641C2.39294 22.3871 2.57594 22.2991 2.94294 22.2991H13.3899V22.2951ZM18.0339 21.7921L18.0619 29.7471C18.0689 32.2871 18.1349 33.6751 18.2619 33.9091C18.3879 34.1411 18.6419 34.2691 19.0199 34.2861C19.4629 34.3061 19.6839 34.3941 19.6839 34.5521C19.6839 34.7481 19.5489 34.8461 19.2769 34.8461C19.2009 34.8461 19.0899 34.8391 18.9449 34.8261C18.3522 34.7766 17.7577 34.7516 17.1629 34.7511C16.2269 34.7511 15.5349 34.7731 15.0859 34.8171C14.9599 34.8291 14.8459 34.8351 14.7459 34.8351C14.4599 34.8351 14.3179 34.7501 14.3179 34.5791C14.3179 34.4151 14.4779 34.3231 14.8019 34.3041C15.1489 34.2841 15.4019 34.2221 15.5599 34.1141C15.6382 34.0655 15.7049 34.0006 15.7557 33.9238C15.8064 33.8469 15.8399 33.7601 15.8539 33.6691C15.8919 33.4731 15.9109 33.0211 15.9109 32.3131L15.8749 28.5871L15.9029 25.6291C15.9049 24.4031 15.8429 23.6591 15.7229 23.4011C15.6109 23.1351 15.2669 22.9551 14.6929 22.8611C14.3429 22.8111 14.1699 22.7091 14.1699 22.5571C14.1699 22.4621 14.2069 22.3991 14.2829 22.3671C14.3649 22.3291 14.5609 22.2971 14.8709 22.2721C16.1679 22.1651 17.2229 22.0041 18.0389 21.7891L18.0339 21.7921ZM23.8639 23.2141C23.8639 23.5871 23.7289 23.9091 23.4569 24.1811C23.3331 24.3097 23.1842 24.4115 23.0194 24.4803C22.8546 24.5491 22.6775 24.5834 22.4989 24.5811C22.1189 24.5811 21.7969 24.4491 21.5309 24.1831C21.4032 24.057 21.3021 23.9065 21.2337 23.7405C21.1653 23.5746 21.131 23.3966 21.1329 23.2171C21.1329 22.8371 21.2659 22.5171 21.5309 22.2501C21.6563 22.121 21.8068 22.0189 21.9731 21.9501C22.1394 21.8814 22.318 21.8473 22.4979 21.8501C22.8699 21.8501 23.1899 21.9831 23.4549 22.2481C23.5864 22.372 23.6906 22.5221 23.7609 22.6886C23.8311 22.8551 23.8659 23.0344 23.8629 23.2151L23.8639 23.2141ZM23.9999 26.4201C24.0239 27.3041 24.0359 28.8801 24.0359 31.1501L24.0079 33.1881C24.0079 33.5981 24.0739 33.8741 24.2079 34.0131C24.3459 34.1531 24.5699 34.2431 24.8799 34.2881C25.2339 34.3331 25.4099 34.4341 25.4099 34.5921C25.4119 34.7621 25.2729 34.8481 24.9949 34.8481C24.8619 34.8481 24.6319 34.8381 24.3029 34.8181C23.6148 34.7742 22.9255 34.7522 22.2359 34.7521C21.9009 34.7521 21.5599 34.7681 21.2119 34.7991C21.0707 34.8189 20.9285 34.8312 20.7859 34.8361C20.5079 34.8361 20.3689 34.7511 20.3689 34.5801C20.3689 34.4171 20.5519 34.3201 20.9189 34.2871C21.4049 34.2431 21.6769 34.0821 21.7339 33.8041C21.7899 33.5191 21.8189 32.9471 21.8189 32.0881C21.8189 30.9741 21.7989 29.9531 21.7619 29.0241C21.7319 28.0891 21.6679 27.5541 21.5719 27.4221C21.4789 27.2891 21.2319 27.2021 20.8349 27.1561C20.5249 27.1261 20.3699 27.0331 20.3699 26.8811C20.3699 26.7311 20.5299 26.6411 20.8449 26.6171L21.0449 26.5971L24.0029 26.4171L23.9999 26.4201ZM33.3659 27.2901C34.1119 26.6351 34.7629 26.3061 35.3189 26.3061C35.6889 26.3061 35.9929 26.4141 36.2289 26.6281C36.4689 26.8431 36.5889 27.0901 36.5889 27.3681C36.5873 27.606 36.4992 27.8353 36.3409 28.0131C36.1769 28.2031 35.9509 28.2971 35.6679 28.2971C35.2679 28.2971 34.9809 28.0821 34.8039 27.6521C34.6839 27.3691 34.5669 27.2271 34.4539 27.2271C34.3209 27.2271 34.0709 27.3771 33.7039 27.6821C34.0389 28.1871 34.2069 28.7321 34.2069 29.3121C34.2069 29.9071 34.0369 30.4541 33.6939 30.9521C33.3539 31.4461 32.9389 31.7971 32.4519 32.0051C31.9719 32.2151 31.2859 32.3591 30.3939 32.4421C29.6299 32.5121 29.1639 32.6281 29.0009 32.7921C28.9218 32.8647 28.8582 32.9527 28.8142 33.0507C28.7702 33.1487 28.7466 33.2546 28.7449 33.3621C28.7449 33.6141 28.9179 33.7781 29.2649 33.8541C29.6049 33.9301 30.5509 33.9901 32.0999 34.0341C34.4769 34.1101 35.6649 34.8911 35.6649 36.3761C35.6649 37.3881 35.2189 38.2261 34.3279 38.8891C33.4439 39.5591 32.1039 39.8931 30.3079 39.8931C28.9559 39.8931 27.9779 39.6931 27.3779 39.2961C26.7779 38.9041 26.4779 38.4421 26.4779 37.9111C26.4779 37.3491 26.7219 36.8711 27.2079 36.4811C27.7019 36.0931 28.4379 35.7911 29.4179 35.5681C28.6719 35.4911 28.1129 35.3281 27.7399 35.0741C27.3669 34.8281 27.1799 34.4901 27.1799 34.0601C27.1799 33.6061 27.3539 33.2231 27.7019 32.9141C28.0489 32.6041 28.5679 32.3671 29.2569 32.2021C28.5369 31.9821 27.9919 31.6591 27.6269 31.2351C27.2669 30.8121 27.0869 30.2851 27.0869 29.6521C27.0869 28.7351 27.4519 27.9681 28.1869 27.3481C28.9189 26.7221 29.8219 26.4081 30.8969 26.4081C31.4089 26.4081 31.8699 26.4811 32.2809 26.6261C32.6909 26.7721 33.0509 26.9931 33.3609 27.2901H33.3659ZM29.3659 29.2741C29.3659 30.0891 29.5009 30.7211 29.7729 31.1701C30.0509 31.6101 30.3789 31.8331 30.7589 31.8331C31.1489 31.8331 31.4419 31.6431 31.6389 31.2631C31.8339 30.8781 31.9319 30.3031 31.9319 29.5381C31.9319 28.7281 31.8119 28.0941 31.5719 27.6321C31.3379 27.1721 31.0349 26.9401 30.6619 26.9401C30.2819 26.9401 29.9699 27.1501 29.7219 27.5661C29.4819 27.9831 29.3619 28.5521 29.3619 29.2731L29.3659 29.2741ZM28.3499 37.6641C28.3499 38.0941 28.5619 38.4711 28.9859 38.7941C29.4159 39.1141 30.0189 39.2771 30.7959 39.2771C31.7379 39.2771 32.5189 39.0621 33.1389 38.6321C33.7619 38.2021 34.0749 37.6941 34.0749 37.1061C34.0749 36.6321 33.8249 36.2811 33.3249 36.0541C32.8249 35.8341 32.1849 35.7221 31.4009 35.7221C30.4709 35.7221 29.7309 35.9051 29.1729 36.2721C28.6229 36.6451 28.3479 37.1091 28.3479 37.6661L28.3499 37.6641ZM40.7419 21.8201C40.719 22.3631 40.7066 22.9065 40.7049 23.4501L40.7149 25.9841C40.7149 27.0711 40.7249 27.7381 40.7429 27.9841C41.1149 27.4721 41.5289 27.0901 41.9849 26.8371C42.4449 26.5771 42.9519 26.4471 43.5019 26.4471C43.9439 26.4471 44.3639 26.5531 44.7619 26.7611C45.1619 26.9641 45.4669 27.3061 45.6819 27.7861C45.9039 28.2601 46.0139 29.0911 46.0139 30.2801L45.9859 33.2561C45.9859 33.9061 46.2419 34.2581 46.7539 34.3081C46.9559 34.3281 47.0569 34.4131 47.0569 34.5641C47.0569 34.7481 46.9499 34.8391 46.7349 34.8391C46.6779 34.8391 46.5919 34.8321 46.4789 34.8191C46.0289 34.7691 45.3739 34.7421 44.5139 34.7421C44.3689 34.7421 44.1059 34.7621 43.7269 34.7991C43.4967 34.8225 43.2654 34.8352 43.0339 34.8371C42.7739 34.8371 42.6439 34.7521 42.6439 34.5811C42.6439 34.4361 42.7909 34.3411 43.0809 34.2971C43.3709 34.2531 43.5589 34.0721 43.6409 33.7571C43.7229 33.4401 43.7639 32.4831 43.7639 30.8841C43.7639 29.4241 43.6879 28.4691 43.5369 28.0201C43.3909 27.5731 43.0909 27.3501 42.6369 27.3501C42.2569 27.3501 41.8829 27.5421 41.5169 27.9271C41.1489 28.3071 40.9089 28.8371 40.7969 29.5201C40.6819 30.2021 40.6249 31.0431 40.6249 32.0401C40.6249 32.5541 40.6489 33.0031 40.6999 33.3901C40.7499 33.7681 40.8199 34.0051 40.9099 34.1001C41.0039 34.1951 41.1619 34.2581 41.3829 34.2901C41.6229 34.3151 41.7429 34.4161 41.7429 34.5931C41.7429 34.7571 41.6079 34.8391 41.3359 34.8391C41.0412 34.8331 40.7469 34.8137 40.4539 34.7811C40.1735 34.7519 39.8919 34.7365 39.6099 34.7351C39.1099 34.7351 38.6459 34.7601 38.2169 34.8111C37.9369 34.8395 37.6554 34.8522 37.3739 34.8491C37.1899 34.8491 37.0989 34.7591 37.0989 34.5831C37.0989 34.4381 37.2289 34.3461 37.4859 34.3081C37.8089 34.2681 38.0299 34.1381 38.1499 33.9081C38.2769 33.6741 38.3629 32.8381 38.4069 31.4051C38.4509 29.9701 38.4739 27.7771 38.4739 24.8251C38.4739 23.9211 38.4039 23.3351 38.2639 23.0711C38.1259 22.7991 37.8919 22.6091 37.5639 22.5011C37.2469 22.4011 37.0889 22.2841 37.0889 22.1511C37.0889 21.9811 37.2239 21.8951 37.4959 21.8951C38.4629 21.8951 39.5439 21.8701 40.7389 21.8191L40.7419 21.8201ZM51.7499 26.5801C52.1359 26.5601 52.7269 26.5521 53.5229 26.5521C53.8829 26.5521 54.1809 26.5821 54.4149 26.6461C54.3199 27.1211 54.2349 27.3731 54.1589 27.4061C54.0889 27.4361 53.2839 27.4961 51.7489 27.5861L51.6439 31.7661C51.6439 32.3601 51.6719 32.7961 51.7289 33.0761C51.7939 33.3531 51.9329 33.5861 52.1469 33.7761C52.3619 33.9661 52.6409 34.0611 52.9819 34.0611C53.2719 34.0611 53.6869 33.9081 54.2239 33.5981C54.287 33.5598 54.3583 33.5372 54.4319 33.5321C54.5519 33.5321 54.6119 33.5961 54.6119 33.7221C54.6119 33.9061 54.3569 34.1551 53.8449 34.4721C53.3329 34.7881 52.7319 34.9461 52.0429 34.9461C51.2279 34.9461 50.5859 34.7461 50.1189 34.3481C49.6569 33.9501 49.4259 33.1081 49.4259 31.8261C49.4259 30.4101 49.4519 28.9981 49.5019 27.5881C48.8769 27.5881 48.4339 27.5721 48.1749 27.5411C47.9149 27.5081 47.7849 27.4161 47.7849 27.2651C47.7849 27.1381 47.9349 27.0371 48.2319 26.9611C48.8021 26.8366 49.3389 26.591 49.8059 26.2411C50.2729 25.8911 50.6719 25.3381 50.9999 24.5811C51.1349 24.2711 51.2229 24.0831 51.2679 24.0211C51.2908 23.9873 51.322 23.96 51.3583 23.9416C51.3947 23.9233 51.4352 23.9145 51.4759 23.9161C51.6599 23.9161 51.7509 24.0661 51.7509 24.3711V26.5811L51.7499 26.5801ZM64.3979 26.5801C64.7839 26.5601 65.3749 26.5521 66.1709 26.5521C66.5339 26.5521 66.8309 26.5821 67.0649 26.6461C66.9699 27.1211 66.8849 27.3731 66.8089 27.4061C66.7389 27.4361 65.9359 27.4961 64.3989 27.5861L64.2959 31.7661C64.2959 32.3601 64.3259 32.7961 64.3809 33.0761C64.4439 33.3531 64.5829 33.5861 64.7979 33.7761C65.0129 33.9661 65.2909 34.0611 65.6319 34.0611C65.9249 34.0611 66.3389 33.9081 66.8759 33.5981C66.9396 33.5595 67.0117 33.5369 67.0859 33.5321C67.2059 33.5321 67.2659 33.5961 67.2659 33.7221C67.2659 33.9061 67.0089 34.1551 66.4959 34.4721C65.9859 34.7881 65.3839 34.9461 64.6959 34.9461C63.8799 34.9461 63.2379 34.7461 62.7709 34.3481C62.3079 33.9501 62.0769 33.1081 62.0769 31.8261C62.0769 30.4101 62.1029 28.9981 62.1529 27.5881C61.5289 27.5881 61.0859 27.5721 60.8269 27.5411C60.5669 27.5081 60.4369 27.4161 60.4369 27.2651C60.4369 27.1381 60.5869 27.0371 60.8839 26.9611C61.4545 26.8367 61.9916 26.5912 62.4589 26.2411C62.9259 25.8911 63.3249 25.3381 63.6529 24.5811C63.7849 24.2711 63.8729 24.0831 63.9179 24.0211C63.9408 23.9873 63.972 23.96 64.0083 23.9416C64.0447 23.9233 64.0852 23.9145 64.1259 23.9161C64.3099 23.9161 64.4009 24.0661 64.4009 24.3711V26.5811L64.3979 26.5801ZM77.3399 30.4671C77.3399 31.6301 76.9069 32.6641 76.0399 33.5671C75.1759 34.4721 74.0769 34.9241 72.7429 34.9241C71.5169 34.9241 70.4859 34.5441 69.6529 33.7861C68.8179 33.0261 68.3999 32.0161 68.3999 30.7521C68.3999 29.4691 68.8399 28.4321 69.7169 27.6421C70.6019 26.8461 71.6769 26.4471 72.9409 26.4471C74.2259 26.4471 75.2789 26.8231 76.1009 27.5771C76.9279 28.3211 77.341 29.2871 77.341 30.4671H77.3399ZM74.7239 31.1121C74.7239 30.0761 74.55 29.1401 74.202 28.3061C73.862 27.4661 73.3679 27.0461 72.7219 27.0461C72.1539 27.0461 71.7149 27.3381 71.4049 27.9261C71.0949 28.5081 70.9399 29.3261 70.9399 30.3821C70.9399 31.5321 71.1139 32.4771 71.4619 33.2171C71.8159 33.9501 72.2999 34.3171 72.9119 34.3171C73.5119 34.3171 73.9649 34.0231 74.2679 33.4351C74.5719 32.8471 74.7239 32.0731 74.7239 31.1121ZM87.2669 21.7921L87.2969 29.7471C87.3019 32.2871 87.3689 33.6751 87.4949 33.9091C87.6209 34.1411 87.8749 34.2691 88.2529 34.2861C88.6959 34.3061 88.9169 34.3941 88.9169 34.5521C88.9169 34.7481 88.7809 34.8461 88.5089 34.8461C88.3974 34.8439 88.286 34.8372 88.1749 34.8261C87.5822 34.7766 86.9877 34.7516 86.3929 34.7511C85.4579 34.7511 84.7649 34.7731 84.3169 34.8171C84.203 34.8284 84.0885 34.8344 83.9739 34.8351C83.6899 34.8351 83.5479 34.7501 83.5479 34.5791C83.5479 34.4151 83.7079 34.3231 84.0309 34.3041C84.3789 34.2841 84.6309 34.2221 84.7909 34.1141C84.869 34.0654 84.9355 34.0004 84.9861 33.9236C85.0367 33.8468 85.0701 33.76 85.0839 33.6691C85.1219 33.4731 85.1409 33.0211 85.1409 32.3131L85.1029 28.5871L85.1309 25.6291C85.1309 24.4031 85.0709 23.6591 84.9509 23.4011C84.8369 23.1351 84.4929 22.9551 83.9169 22.8611C83.5689 22.8111 83.3969 22.7091 83.3969 22.5571C83.3969 22.4621 83.4329 22.3991 83.5089 22.3671C83.5909 22.3291 83.7869 22.2971 84.0969 22.2721C85.3929 22.1651 86.4489 22.0041 87.2639 21.7891L87.2669 21.7921ZM98.8999 30.4671C98.8999 31.6301 98.4699 32.6641 97.6029 33.5671C96.7369 34.4721 95.6369 34.9241 94.3029 34.9241C93.0769 34.9241 92.0469 34.5441 91.2129 33.7861C90.3779 33.0261 89.9609 32.0161 89.9609 30.7521C89.9609 29.4691 90.4009 28.4321 91.2809 27.6421C92.1649 26.8461 93.2409 26.4471 94.5039 26.4471C95.7869 26.4471 96.8389 26.8231 97.6609 27.5771C98.4879 28.3211 98.8999 29.2871 98.8999 30.4671ZM96.285 31.1121C96.285 30.0761 96.1109 29.1401 95.7649 28.3061C95.4219 27.4661 94.929 27.0461 94.285 27.0461C93.715 27.0461 93.2749 27.3381 92.9669 27.9261C92.6569 28.5081 92.5019 29.3261 92.5019 30.3821C92.5019 31.5321 92.6769 32.4771 93.0239 33.2171C93.3779 33.9501 93.8619 34.3171 94.4739 34.3171C95.0739 34.3171 95.5279 34.0231 95.8309 33.4351C96.1339 32.8471 96.285 32.0731 96.285 31.1121ZM105.215 32.2321C105.627 31.3521 106.01 30.4321 106.365 29.4621C106.718 28.4901 106.895 27.8861 106.895 27.6521C106.895 27.4001 106.749 27.2351 106.459 27.1591C106.179 27.0821 106.039 26.9791 106.039 26.8461C106.039 26.6861 106.154 26.6081 106.382 26.6081C106.495 26.6081 106.729 26.6231 107.082 26.6551C107.406 26.6801 107.63 26.6931 107.756 26.6931C108.036 26.6931 108.294 26.6731 108.534 26.6361C108.667 26.6161 108.771 26.6081 108.847 26.6081C109.043 26.6061 109.141 26.6951 109.141 26.8721C109.141 27.0051 109.009 27.0921 108.744 27.1371C108.144 27.2301 107.644 27.7871 107.244 28.8041C106.822 29.881 106.387 30.9525 105.937 32.0181C105.527 33.0051 105.21 33.7181 104.989 34.1621C104.769 34.5981 104.632 34.8321 104.581 34.8641C104.533 34.9033 104.473 34.9235 104.411 34.9211C104.328 34.9211 104.249 34.8611 104.174 34.7411C104.098 34.6211 103.772 33.9851 103.197 32.8351L101.007 28.4731C100.691 27.8481 100.451 27.4751 100.287 27.3551C100.161 27.2493 100.016 27.1688 99.8589 27.1181C99.6129 27.0621 99.4889 26.9731 99.4889 26.8531C99.4889 26.6761 99.6089 26.5881 99.8489 26.5881C99.9509 26.5881 100.109 26.5981 100.324 26.6161C100.822 26.6657 101.322 26.6911 101.822 26.6921C102.019 26.6921 102.24 26.6821 102.487 26.6621C102.937 26.6191 103.204 26.5971 103.293 26.5971C103.711 26.5971 103.92 26.6671 103.92 26.8131C103.92 26.9901 103.804 27.0911 103.57 27.1171C103.24 27.1491 103.077 27.3041 103.077 27.5821C103.077 27.7461 103.342 28.3971 103.873 29.5351C104.291 30.4476 104.739 31.3458 105.218 32.2281L105.215 32.2321ZM111.607 30.4321C111.601 30.6141 111.597 30.7471 111.597 30.8291C111.597 31.7251 111.815 32.4871 112.252 33.1131C112.695 33.7331 113.289 34.0431 114.035 34.0431C114.8 34.0431 115.552 33.7101 116.292 33.0461C116.442 32.9141 116.552 32.8461 116.614 32.8461C116.778 32.8461 116.861 32.9361 116.861 33.1131C116.861 33.2531 116.671 33.5011 116.291 33.8631C115.911 34.2231 115.448 34.4931 114.898 34.6771C114.348 34.8601 113.778 34.9521 113.191 34.9521C111.901 34.9521 110.889 34.5601 110.156 33.7761C109.444 33.0241 109.053 32.0244 109.066 30.9891C109.066 29.7051 109.483 28.6291 110.316 27.7641C111.158 26.8921 112.204 26.4561 113.456 26.4561C114.631 26.4561 115.526 26.8511 116.139 27.6411C116.759 28.4311 117.069 29.1831 117.069 29.8981C117.069 30.1231 117.009 30.2581 116.889 30.3031C116.769 30.3471 116.379 30.3701 115.722 30.3701L111.609 30.4261L111.607 30.4321ZM111.664 29.7381C112.599 29.7511 113.14 29.7581 113.284 29.7581C113.999 29.7581 114.434 29.7081 114.594 29.6061C114.758 29.5041 114.84 29.2991 114.84 28.9891C114.84 28.4691 114.69 28.0121 114.393 27.6131C114.096 27.2151 113.743 27.0161 113.331 27.0161C112.361 27.0161 111.804 27.9231 111.665 29.7361L111.664 29.7381Z" fill="#523333"/>
</g>
</svg>
