<!--version="1.0" encoding="utf-8"--><!-- Generator: Adobe Illustrator 25.2.1, SVG Export Plug-In . SVG Version: 6.00 Build 0)  --><svg version="1.1" xmlns="http://www.w3.org/2000/svg" x="0" y="0" viewBox="0 0 100 106" xml:space="preserve"><style type="text/css">.st0 { fill: rgb(238, 221, 224); }.st1 { fill: rgb(82, 51, 51); }</style><g id="Слой_3"><path class="st0" d="M5.4 64.5C4.7 60.2 1.5 57.7 3 53c1.1-3.2 3.5-5.7 6.2-7.6-.2-.1-.1-7.5 3.2-10.8-.9.2-1.7-.3-2.1-1.1-.3.5-.8.9-1.3.9-.7 0-1.2-.4-1.5-1-.3.5-.8.8-1.4 1-1.2.3-2.2-.5-2.5-1.6-.3-1.1.3-2.4 1.4-2.7 1-.2 2.2.3 2.6 1.2-.1-1.1.9-2.3 2-2.1.5.1.8.4 1.1.8.3-.5.9-.9 1.5-.8.5.1.9.4 1.1.9.1.1.1.3.1.4.3-.8 1.1-1.5 2.1-1.2.4.1.7.3.9.6 2.2-2.3 5.2-4.1 8.4-4.6-3-2-6.1-3.8-9.4-5.4-.1 1-1.3 1.8-2.3 1.6-1-.2-1.5-1.1-1.6-2.1-.5.5-1.3.8-2 .4-.5-.2-.8-.8-.8-1.4-.4.4-1 .6-1.6.4-1.3-.3-1.9-1.8-1.5-3 .3-1.3 1.7-2.1 2.9-1.5.5.2.9.7 1 1.3.4-.5 1.2-.8 1.8-.6.6.2 1 .8 1.1 1.5.5-.6 1.3-.9 2.1-.6.9.3 1.7 1.6 1.3 2.5 4.1 1.3 8 3.3 11.7 5.6 3.2-.4 5.8.4 9.2 3.7 0 0 .1.2.1.3 0-.3-.1-.6-.1-.9-1.8-2.6-3.8-5-5.9-7.3-.3.3-.7.5-1 .5-.6.1-1.2 0-1.6-.4-.7-.6-.9-1.8-.3-2.6-.7.6-1.8.8-2.5.1-.4-.4-.5-1.3-.2-1.9-.6 0-1.2-.2-1.5-.5-.8-.8-.6-1.9.1-2.7.7-.7 1.8-.7 2.5-.1.4.4.6.9.6 1.5.5-.3 1.1-.4 1.6-.1.7.4 1 1.3.8 2 .7-.3 1.7-.2 2.2.3s.7 1.2.6 1.8c-.1.4-.2.9-.6 1.1 2.1 1.9 4.1 4 6.1 6.2-.5-8.3 5.5-15.1 12.1-19.4 3-2 6.4-3.8 10.1-3.9 3.8-.2 6.2 1.8 8.7 4.4 2.2 2.2 4.2 3.1 7.1 4 1.5.4 3.3.9 4.3 2.3 1.4 2 .6 4.1-.9 5.7-.4.4-.8.8-1.2 1.1 9.8.7 17.8 9.6 19 19.1.3 2.2 1 8.2-2.7 7.9-2.4-.2-4.8-2.3-7.1-3.1-4.4-1.5-8.9-1.8-13.1.4h-.1c6.2 5.7 10.5 13.8 11.1 22.1.8 9.7-4.4 21.9-14.2 25.2 0 0-.1 0-.1-.1-.1 0-.3.1-.5 0-.1 0-.2-.1-.3-.2-.1-.8 0-1.7.1-2.6-1-6.2-10.4-9.3-15.4-11.1-2.2-.8-4.4-1.6-6.5-2.6-2.5 9.1 2.2 16.6 8.4 23 .3.3.1.8-.3.9-15.7 5-34.5-5-36.3-22.2-1.1 2.7-2.6 5.4-5.1 6.1-2.9.8-5.7-1.2-7.3-3.5-1.3-1.8-2.4-4-2.7-6.2-.1-2.5 1.1-5.1.7-7.8z"/><path class="st1" d="M4.9 72.5c-.3-2.7 1-5.3.5-8C4.7 60.2 1.5 57.7 3 53c1.1-3.2 3.5-5.7 6.2-7.6-.2 0-.1-7.4 3.2-10.7-.9.2-1.7-.3-2.1-1.1-.2.4-.7.8-1.3.8-.7 0-1.2-.4-1.6-1-.3.5-.8.8-1.4 1-1.2.3-2.2-.5-2.5-1.6-.3-1.1.3-2.4 1.4-2.7 1-.2 2.2.3 2.6 1.2-.1-1.1.9-2.3 2-2.1.5.1.8.4 1.1.8.3-.5.9-.9 1.5-.8.5.1.9.4 1.2.9.1.1.1.3.1.4.3-.8 1.1-1.5 2.1-1.2.4.1.7.3.9.6 2.2-2.3 5.2-4.1 8.4-4.6-3-2-6.1-3.8-9.4-5.4-.1 1-1.3 1.8-2.3 1.6-1-.2-1.5-1.1-1.6-2.1-.5.5-1.3.8-2 .4-.5-.2-.8-.8-.8-1.4-.4.4-1 .6-1.6.4-1.3-.3-1.9-1.8-1.5-3 .3-1.2 1.7-2.1 2.9-1.5.5.2.9.7 1 1.3.4-.5 1.1-.8 1.8-.6.6.2 1 .8 1.2 1.5.5-.6 1.3-.9 2.1-.6.9.3 1.7 1.6 1.3 2.5 4.1 1.3 8 3.3 11.7 5.6 3.1-.4 5.8.4 9.2 3.7 0 0 .1.2.1.3 0-.3-.1-.6-.1-.9-1.8-2.6-3.8-5-5.9-7.4-.3.3-.7.5-1 .5-.6.1-1.2 0-1.6-.4-.8-.6-.9-1.8-.3-2.6-.7.6-1.8.8-2.4.1-.4-.4-.5-1.3-.2-1.9-.5 0-1.2-.2-1.5-.6-.8-.8-.6-1.9.1-2.7.7-.7 1.8-.8 2.5-.1.4.4.6.9.6 1.5.5-.3 1.1-.4 1.6-.1.7.4 1 1.3.8 2 .7-.3 1.7-.2 2.2.3s.7 1.2.6 1.8c-.1.4-.2.9-.6 1.1 2.1 1.9 4.1 4 6.1 6.2-.5-8.3 5.5-15.1 12.1-19.4 3-2 6.4-3.8 10.1-3.9 3.8-.1 6.2 1.8 8.7 4.4 2.2 2.2 4.2 3.2 7.1 4 1.5.4 3.3.9 4.3 2.3 1.4 2 .6 4.1-.9 5.7-.4.4-.8.8-1.2 1.1 9.8.7 17.8 9.6 19 19.1.3 2.2 1 8.1-2.7 7.9-2.4-.2-4.8-2.3-7.1-3.1-4.4-1.5-8.9-1.8-13.1.4H74c6.2 5.7 10.5 13.8 11.1 22.1.8 9.7-4.4 21.9-14.2 25.2 0 0-.1 0-.1-.1-.1 0-.3.1-.5 0-.1 0-.3-.1-.3-.2-.1-.8 0-1.7.1-2.6-1-6.2-10.4-9.3-15.4-11.1-2.2-.8-4.4-1.6-6.5-2.6-2.5 9.1 2.2 16.6 8.4 23 .3.3.1.8-.3.9-15.7 5-34.5-5-36.3-22.2-1.1 2.7-2.6 5.4-5.1 6.1-2.9.8-5.7-1.2-7.3-3.5-1.3-1.4-2.5-3.6-2.7-5.8zm.2-41.7c-.8.3-1.1 1.2-.9 1.9.5 1.9 3.2 1.1 3-.6v-.2c-.3-.8-1.2-1.3-2.1-1.1zm8-9.8c.8.2 1.8-.5 1.7-1.4-.9-.4-1.8-.9-2.7-1.3l-.3.6c0 1 .4 1.9 1.3 2.1zm-3.4-1.5c.9.4 1.8-.5 1.9-1.3-.7-.3-1.4-.7-2.2-1 .2.1-.4 1.9.3 2.3zm-1.9-4.7c-1-.3-1.7.8-1.7 1.7 0 .8.5 1.8 1.4 1.8.7.1 2.9-2.7.3-3.5zm3.3.8c-1.2-.4-1.6 1-1.6 1.1v.2c.8.1 1.5.3 2.3.5.1-.3-.3-1.7-.7-1.8zm3.3.9c-.7-.3-1.6.2-2 .9v.2c1 .2 1.9.5 2.9.8 0-.3.1-.5 0-.8-.2-.6-.5-1-.9-1.1zm14.2 3.2c.3.2.8.3 1.2.2.2-.1.4-.2.6-.4-.6-.7-1.3-1.4-2-2.1-.5.6-.6 1.7.2 2.3zM26 17.3c.6.4 1.4 0 1.8-.5-.5-.5-1-1-1.6-1.5-.7.4-1 1.5-.2 2zm-.1-4.3c-.4-.5-1-.5-1.5-.1s-.7 1.1-.3 1.6c.5.5 1.5.4 1.7.2.6-.6.5-1.2.1-1.7zm2.3 1.3c-.3-.1-.7-.1-1 .1-.2.1-.3.2-.4.4 0 0-.1.1-.1.2.6.4 1.2.9 1.7 1.3v-.1c.5-.6.7-1.6-.2-1.9zm3.3 3.6c.1-.5 0-1-.3-1.4-.7-.7-1.7-.4-2.3.1.8.6 1.5 1.3 2.2 1.9.2-.1.3-.3.4-.6zM9.9 45c7.5-5 17.2-6.8 25.9-4.7-1.8-1.2-3.6-2.4-5.5-3.4-4.5-2.4-9-3.8-13.7-4.4.1.3 0 .6 0 .8-.2.6-.7 1.2-1.4 1.3-.7.1-1.3-.3-1.6-.8C11 37.9 9.7 41.6 9.9 45zm27.6-4.1c3 2.2 5.7 4.5 8.2 6.9.2-.1.4-.3.6-.4-4.8-5.7-10.7-10.1-17.6-12.7-2.4-.9-4.7-1.5-7.1-1.9 3.8 1.1 7.4 2.8 10.8 4.8 1.6 1 3.2 2.1 4.8 3.2h.1c.2 0 .2.1.2.1zM8.1 32c0 .1-.7 1.8.7 1.9 1.7.1 1-1.6.9-1.9-.4-.1-1 0-1.6 0zm1.4-2.1c-1.4-.3-1.4 1.5-1.3 1.9.7-.2 1.4-.3 2.2-.4-.1-.1.2-1.3-.9-1.5zm1.1 2.1s-.1 0 0 0v.9c.1.3.2.6.5.8.4.4 1.1.5 1.6.2.7-.4.6-1.1.6-1.8-1 0-1.8 0-2.7-.1zm1.4-2.3c-.6-.1-1 .3-1.2.8.1.2.1.5.1.8.7-.1 1.4-.1 2-.2 0-.2.1-.4 0-.7-.2-.3-.5-.7-.9-.7zm1.8 2.5c0 .4 0 .8-.1 1.1.3.4.7.8 1.2.8.5 0 .8-.4 1-.9.1-.3 0-.6-.1-.8-.6-.1-1.3-.1-2-.2zm1.5-2.4c-.8-.2-1.5.5-1.8 1.3h2.7c0-.6-.3-1.1-.9-1.3zm1.4.8c0 .1 0 .1 0 0v.5c10.7.6 21.4 6.2 28.4 13.9-5.6-7.8-12.3-14.2-19.9-19.3-3.2 1.1-6.1 2.4-8.5 4.9zm.9-10.4C29.5 26.1 39.8 35.7 47 46.8l.4-.4C40.2 34 30 25.7 17.6 20.2zm19.3 8.5c-1.3-.9-2.8-2.7-4.3-3.3-1.3-.5-2.8-.8-4.2-.7 3.5 2.3 6.8 5.1 9.7 8.1-.6-1.2-.9-2.7-1.2-4.1zm1 1.7c.3 1.1.8 2.1 1 3.2 3.5 3.8 6.6 8 8.9 12.4-3.3-6.3-10.2-16.4-9.9-15.6zM36 24.8c4.9 6.3 8.7 13.6 12.3 20.6.3-.4.5-.8.8-1.2-3.7-7.3-8-13.6-13.1-19.4zm42.1-6.9c3.7-4.8-1.1-6.2-2.2-6.7-1.2-.6-2.8-.6-4.1-1.2C69 8.8 67.5 5.9 65 4.2c-3.8-2.7-8.5-1.3-12.3.8-8 4.3-14.5 11.3-14.5 20.8v.1c4.6 5.4 8.4 11.5 11.2 17.8.7-1.1 3.1-5.7 4.3-6.3-.1-.1-1.6-5 10.6-12.3 3.5-2.2 13.4-6.6 13.8-7.2zm-4.5 25.2c3.2-1.7 6.5-2.1 10-1.5 2.3.4 7.9 2.7 8.4 3 4.6 3.1 4.3-2.8 4.1-5.3-1.2-10.9-9.2-17-19.1-19.3-3.3 2.3-7.6 3.5-11 5.2-5.2 2.5-10 6-11.4 11.8 4-1.3 9 .2 12.6 2.1 2.2 1.2 4.3 2.6 6.2 4.3 0-.1.1-.2.2-.3zm-23 31.2c5.6 2.4 18.5 5.7 20.1 13.2.1.1.1.1.1.3v.4c.1.6.1 1.3 0 2 5.2-3.3 9.3-7.3 11.5-13.4 2.5-6.9 1.7-14.4-1.3-21-2.8-6.2-7.5-11.9-13.4-15.3-3.1-1.8-6.7-3-10.3-2.9-5.1.2-5 3.9-7.2 7.2-1.3 1.9-2.9 3.4-4.9 4.6-3.9 2.2-9 2.6-10.1 7.8-2 9 8.9 14.2 15.5 17.1zM34 95.5c6.5 3.5 14.1 4.1 21.1 2-5.8-6.1-11.2-14.8-7.5-23.3-3.2-1.5-6.2-3.2-8.8-5.4-3.2-2.7-5.4-6.7-4.9-11-5.9 2.8-9.5 8.1-12.2 13.9-.5 1-1 2.3-1.5 3.7l.1.1c1.9 8.3 6 15.8 13.7 20zM7.5 76.8c.6 1.1 5 8.2 9.6 2.5 5.7-13.6 10-19.3 16.8-22.4h.2c1.2-5.4 6.4-6.1 10.7-8.4.2-.1.5-.3.7-.4-2.8-2.4-5.7-4.8-8.7-6.9-8.4-1.5-17-.7-24.5 3.6-3.5 2-7.3 5-8.4 9.1-1.2 4.3 2.5 7.4 2.6 11.6.2 4.1-1.3 7.2 1 11.3z"/><path class="st1" d="M70.4 89.5c2.4-3.5 4.9-6.6 5-11.1.1-4-1.4-7.8-3.3-11.3-.1-.1.1-.2.2-.1 5.3 8 5.3 15.8-1.2 23.1-.3.5-1-.1-.7-.6z"/><path class="st1" d="M48.4 47.5c4.3 7.1 13.2 7.7 18.8 13.3 0 0 0 .1 0 0-5.8-5.3-15.5-5.5-19.4-13-.4-.3.3-.7.6-.3z"/><path class="st1" d="M54.4 35.8c0-.1 0-.2.1-.2 7.2-8.2 18.8-11.1 29.1-7.5-9.7-3.1-20.1-.4-27.2 6.7 10.7-5.2 23.9-3.9 33.8 2.7.1.1 0 .2-.1.1-8.9-5.6-19.5-6.5-29.2-3.3 4.7-.4 9.9.9 13.6 3 .1 0 0 .1-.1.1-4.5-2.4-10.9-3.6-16-2.2-1.2.5-2.3 1-3.4 1.6-.7.4-1.2-.6-.6-1z"/><path class="st1" d="M49.2 43.1c-.3-5.5-1-10.9 1.1-16.2 1.7-4.5 4.8-8.2 8.7-11 0 0 .1 0 .1.1-4 3.2-6.8 7.3-8.3 12.3s-.5 9.8-.6 14.9c0 .6-1 .5-1-.1z"/><path class="st1" d="M33.5 57.5c.4-.6 1.2 0 .9.5-6 9.2-1.9 19.9 4.1 27.9.1.1-.1.2-.2.1-6.4-8-11-18.9-4.8-28.5z"/><path class="st1" d="M13 59.5c3.6-5.1 9.1-8.6 14.8-11.1 5.4-2.3 10.4-1.8 15.8-.5-8-5.1-17.8-5.9-26.6-2.2-.2.1-.3-.2-.1-.2 9.5-4.6 20.8-3.2 29.1 3.3.3.2 0 .7-.3.5-.1-.1-.2-.1-.3-.2-.1.2-.3.3-.6.2-6.6-1.6-11.9-2.1-18.2.9-5 2.3-9.6 5.3-13.2 9.5-.3.1-.5-.1-.4-.2z"/><path class="st1" d="M24.1 30.7c8.1 1.8 15.3 6.6 20.5 13.1.3.3-.2.8-.5.4-5.3-6.6-12-10.9-20-13.4-.1 0-.1-.2 0-.1z"/><path class="st1" d="M93.2 40.6s0-.1 0 0c1.2 1.4 2.1 3 2.5 4.8 0 .1-.2.2-.2.1-.4-1.9-1.1-3.5-2.3-4.9z"/><path class="st1" d="M50.5 42c.6-4.9 1.5-9.8 4.7-13.7 3.2-3.9 7.6-6.4 12-8.5-4.4 2.1-8.7 4.7-11.7 8.8-2.9 4-3.5 8.7-4.2 13.5 13.5 1.7 24.1 11.2 27.5 24.4 0 .1-.1.1-.1 0-3.5-12.9-14.1-22.2-27.4-23.7-.2 0-.4-.2-.3-.4-.3.1-.6-.1-.5-.4z"/><path class="st1" d="M42.4 32.3c-1.2-6.9 1.2-12.5 5.1-18.1 0 0 .1 0 0 0-3.7 5.5-5.9 11.2-4.7 17.9.2.4-.3.5-.4.2z"/><path class="st1" d="M37.7 52.4c0-.5.7-.4.7 0-.5 8.1 9.3 9.3 14.8 11.9 4.5 2.1 8.4 5.2 11.7 8.9.1.1-.1.2-.1.1C59.2 67.5 53 65 45.7 62.1c-4.4-1.7-8.3-4.6-8-9.7z"/><path class="st1" d="M38.4 68.4c0-.2.2-.2.3-.1.5 3.4 1.4 6.8 2.4 10 0 0-.1.1-.1 0-1.2-3.2-1.9-6.5-2.6-9.9z"/><path class="st1" d="M27.5 61.8c.2-.4.8 0 .6.4-3.7 7.3-3 16 1.8 22.6.1.1-.1.2-.1.1-5.1-6.8-6.1-15.5-2.3-23.1z"/><path class="st1" d="M15.3 69.9c3.5-9.4 12.2-16.7 22-18.3.5-.1.7.7.2.8-9.9 2.3-17.6 8.3-22.1 17.6-.1 0-.2-.1-.1-.1z"/><path class="st1" d="M15.9 38.3C22.3 36.6 30 37.1 36 40c.2.1 0 .3-.1.3-6.8-2-12.9-2.8-20-1.8-.1 0-.1-.1 0-.2z"/><path class="st1" d="M76.9 29.9c5.8-.1 11.4 1.8 15.9 5.4-4.7-3.5-10.1-5.3-15.9-5.3v-.1z"/><path class="st1" d="M67.1 26.4c6.6-2.6 14.3-4.5 20.7-.5-6.8-3.9-13.8-1.3-20.6.8-.2 0-.3-.3-.1-.3z"/><path class="st1" d="M71.1 34c3.9.2 7.5 1.4 10.9 3.4.1.1 0 .2-.1.1-3.4-1.9-7-2.9-10.8-3.3-.2 0-.2-.2 0-.2z"/><path class="st1" d="M66.9 38.2c2.9-.1 5.9.7 8.5 2 .1 0 0 .2-.1.1-2.7-1.2-5.5-1.7-8.4-1.8-.2-.1-.1-.3 0-.3z"/><path class="st1" d="M63.3 12.3c2-1.5 4.3-2.5 6.7-3.3-2.3.9-4.5 2-6.7 3.3 0 .1 0 0 0 0z"/><path class="st1" d="M46.6 25.8c2.4-9 9.9-15.9 18.5-18.9-9 3.3-14.8 10.1-18.2 18.9-.1.3-.3.2-.3 0z"/><path class="st1" d="M43 15.4c1.8-2.8 4.3-5.1 7.2-6.8 0 0 .1 0 0 .1-2.9 1.8-5.2 4.1-7.1 6.9 0 0-.2-.1-.1-.2z"/><path class="st1" d="M56.3 21.6c4.6-3.5 9.9-5.8 15.5-6.8-5.7 1.2-10.7 3.5-15.5 6.9 0 0-.1-.1 0-.1z"/><path class="st1" d="M63.5 50.8c7.2 5.3 12.2 12.8 14.7 21.4-2.7-8.5-7.8-15.7-14.8-21.1-.2-.2-.1-.4.1-.3z"/><path class="st1" d="M64.3 41.7c6.5 4.1 11.4 9.8 14.7 16.7-3.4-6.9-8.4-12.4-14.8-16.6-.1 0 0-.2.1-.1z"/><path class="st1" d="M48.9 57.2c10.1 3.5 20.8 9.5 22.5 21.1 0 .1-.1.1-.1 0-1.9-11.7-12.6-16.9-22.4-21-.1.1-.1-.1 0-.1z"/><path class="st1" d="M42.4 63.8c4.1 4.1 8.9 7.1 14.3 8.8.1 0 0 .2 0 .1-5.5-1.7-10.4-4.7-14.4-8.8-.2 0 0-.2.1-.1z"/><path class="st1" d="M40.8 89c4.1 3.5 9 7.7 14.5 8.5.5.1.5.9 0 .8-5.8-1-10.4-5.4-14.5-9.3-.1.1 0 0 0 0z"/><path class="st1" d="M39.9 82.1c2.5 3.2 5.1 6.1 8 8.9-3-2.7-5.7-5.6-8-8.9-.1 0 0-.1 0 0z"/><path class="st1" d="M34.6 69.1c0-.1.1-.2.2-.1 1.1 2.6 1.9 5.3 2.5 8.1-.8-2.7-1.7-5.4-2.7-8z"/><path class="st1" d="M29.1 76.2c.8 3.8 2 6.8 4.5 9.7 2.2 2.6 4.6 5.2 7 7.7 0 0 0 .1-.1 0-5.2-5.1-10.3-9.8-11.4-17.4z"/><path class="st1" d="M22.2 75c0-.1.2-.2.2 0 1.1 5.5 3.4 10.3 7.2 14.6 0 .1 0 .1-.1.1-3.8-4.2-6.3-9.1-7.3-14.7z"/><path class="st1" d="M6.1 67c-.1-.7.5-1.7.9-2.3.5-.9 1.2-1.7 2-2.3.1-.1.3.1.2.2-.6.8-1.2 1.5-1.7 2.4-.3.6-.5 1.7-1 2.1-.1.1-.3.1-.4-.1z"/><path class="st1" d="M7.2 58.7c1.9-5.1 8.5-9.8 13.7-10.8.1 0 .1.1 0 .1-5 1.1-11.4 5.9-13.4 10.8-.1.1-.4 0-.3-.1z"/><path class="st1" d="m6.7 51.5 3.3-3.3c.1-.1.2 0 .1.1-1.1 1.1-2.2 2.3-3.3 3.3-.1.1-.2 0-.1-.1z"/><path class="st1" d="M7.6 75.2c1.7-9.4 8.1-17.5 16.4-22.1.1 0 .1.1 0 .1-8.5 4.9-13.7 12.7-16.1 22.1-.1.2-.3.1-.3-.1z"/><path class="st1" d="M16.6 71.3c1.2-2.3 2.9-4.4 4.8-6.3 0 0 .1 0 .1.1-1.9 1.9-3.3 4-4.7 6.3-.2.1-.3 0-.2-.1z"/><path class="st1" d="M16 36c1.9-.5 3.9-.7 5.9-.6.1 0 .1.1 0 .1-2-.1-3.9.1-5.9.5 0 .1 0 0 0 0z"/><path class="st1" d="M20.4 29.8c.8.1 1.7.4 2.5.7v.1c-.8-.3-1.6-.5-2.5-.7v-.1z"/><path class="st1" d="M24.3 28.2c1.8.2 3.5.9 4.9 2 .1.1 0 .2-.1.1-1.4-1.1-3.1-1.7-4.8-2-.2 0-.2-.1 0-.1z"/></g><g id="Слой_4"><path class="st0" d="M88.1 44.1c-2.7 2.3-6.9 2.5-10.1 1.6v.4c3 .3 5.9 2.4 7.7 4.8 1.5 1.9 3.9 6.2 1.6 8.3-2.1 1.9-5.5.6-7.3-1-2-1.8-2.9-4.3-3.4-6.9.1 2.4.2 4.9-1.5 6.9-1.6 1.9-4.9 3.1-7 1.3-3.4-3 .3-8.3 3.8-11.4-3.8 2-9.9 4.4-10.6-.5-.3-2.2 1.2-4.1 3.3-4.7 1.6-.5 3.3-.4 4.9 0-1.2-.6-2.2-1.4-2.9-2.9-1-2-1.1-5.3 1.2-6.5 2.2-1.2 4.9.5 6.3 2.1 2 2.2 2.8 5.3 2.3 8.2h.1v-.1c1-3 2.8-6.1 5.8-7.5 2.4-1.1 5.4-.8 7 1.5 1.5 2 .7 4.8-1.2 6.4z"/><path class="st1" d="M64.5 42.7c1.6-.5 3.3-.4 4.9 0-1.2-.6-2.2-1.4-2.9-2.9-1-2-1.1-5.3 1.2-6.5 2.2-1.2 4.9.5 6.3 2.1 2 2.2 2.8 5.3 2.3 8.2h.1v-.1c1-3 2.8-6.1 5.8-7.5 2.4-1.1 5.4-.8 7 1.5 1.6 2.1.8 4.9-1.1 6.5-2.7 2.3-6.9 2.5-10.1 1.6v.4c3 .3 5.9 2.4 7.7 4.8 1.5 1.9 3.9 6.2 1.6 8.3-2.1 1.9-5.5.6-7.3-1-2-1.8-2.9-4.3-3.4-6.9.1 2.5.2 4.9-1.5 6.9-1.6 1.8-4.9 3.1-7 1.3-3.4-3 .3-8.3 3.8-11.4-3.8 2-9.9 4.4-10.6-.5-.4-2.3 1.1-4.1 3.2-4.8zm9.8-5.8c-1.5-2.3-6.6-5.6-7.7-.9-.7 2.8 1.3 5.6 3.7 6.7.9.4 1.7.7 2.5 1.1.6.2 1.1.4 1.7.5.4-.5.8-.6 1.4-.6.1-2.4-.3-4.7-1.6-6.8zm3.7 8.5c2.3.1 4.5.2 6.7-.5 3-.8 6.7-4.3 3.6-7.4-1.9-2-5-1.5-7 0-2.1 1.5-3.1 4-4.2 6.3v.1c.4.3.8.9.9 1.5zm.8 10.6c1.8 2.7 9.1 6.5 8.2-.7-.6-4.6-5.6-7.1-9.2-8.7-.2.5-.7.8-1.2 1 .4 2.8.6 5.9 2.2 8.4zm-2.9-11.9c-.7.1-1.2 1-1.2 1.7 0 .9.8 1.1 1.3 1.1 1.7 0 2.2-2.8-.1-2.8zM68 58.4c1.3 2 4.1 1.3 5.6.2 1.7-1.3 2.4-3.2 2.5-5.2.1-1.9-.2-3.8 0-5.7 0 0 0-.1.1-.1h-.1c-.7 0-1.4-.3-1.8-.9-3 2.6-8.9 7.7-6.3 11.7zm5.8-12c.1-.1.2-.1.2-.1-.1-.2-.1-.3-.1-.5 0-.2 0-.4.1-.7-.3-.2-.6-.4-1-.6-3.9-1.2-10.8-3.4-11.1 2.1-.4 6.2 9.1 1.3 11.9-.2z"/><path class="st1" d="M77.6 44.4s0-.1 0 0c.8-1.8 1.8-3.4 3.3-4.7.1-.1.2 0 .1.1-1.3 1.2-2.3 2.7-2.9 4.4 2.6-1.6 5.2-3 7.5-5.1-2 2.1-4.3 4.2-7 5.3 2.3.2 4.5-.2 6.6-1.3.1-.1.2.1.1.2-2.3 1.4-4.9 2-7.6 1.6-.3 0-.3-.4-.1-.5z"/><path class="st1" d="M77.9 46.6c1 3.5 3 6.5 5.9 8.8.1 0 0 .2-.1.1-3.1-2.1-5.4-5.1-6.4-8.7 0-.4.5-.6.6-.2z"/><path class="st1" d="M77.4 47.2c.1 2 .6 3.9 1.5 5.7 0 .1-.1.1-.1.1-1.1-1.7-1.7-3.7-1.8-5.7-.1-.4.4-.5.4-.1z"/><path class="st1" d="M78.5 46.3c1.4 1.8 3.1 3.1 5.2 4.1.1 0 0 .2-.1.2-2.1-.9-4-2.3-5.5-4-.2-.3.2-.5.4-.3z"/><path class="st1" d="M69.7 56.5c2.5-2.6 4.4-5.8 5.4-9.2.1-.3.6-.2.5.1-1.1 3.6-3 6.7-5.7 9.3-.1 0-.3-.1-.2-.2z"/><path class="st1" d="M73.4 55.6c1.4-2.6 2.3-5.4 2.4-8.4 0-.3.5-.4.5 0-.1 3.1-1 6-2.7 8.5-.1.2-.3.1-.2-.1z"/><path class="st1" d="M64.6 45.7c3-.8 6-.8 9 0-1.6-.9-3.3-1.5-5.2-1.7-.2 0-.2-.3 0-.3 2.2.1 4.2.6 6.1 1.9.3.2.1.6-.1.6 0 .2-.1.4-.4.3h-.3c-1.9-.2-3.8 0-5.6.6-.1 0-.2-.1-.1-.2 1.1-.5 2.3-.8 3.5-.9-2.3-.4-4.7-.4-7 .1 0-.1-.1-.3.1-.4z"/><path class="st1" d="M69.6 40c1.7 1.2 3.5 2.4 5.1 3.7-.5-1.2-.9-2.4-1.6-3.5-.9-1.3-2-2.2-3.2-3.2-.1-.1 0-.3.2-.2 2.1 1 4.4 3.4 5 5.8-.1-1.5-.3-2.9-1-4.4 0-.1.1-.2.1-.1 1.1 1.8 1.8 4.2 1.2 6.3 0 .1-.1.1-.2.1-.1.2-.4.3-.6.2-1.8-1.4-3.6-2.9-5.3-4.4 0-.2.1-.4.3-.3z"/><path class="st1" d="M70.6 50.8c1.7-1 2.9-2.3 4.1-3.9.2-.2.5 0 .4.3-.9 1.8-2.6 3.1-4.3 3.9-.2.1-.3-.2-.2-.3z"/></g><g id="Слой_5"><path class="st0" d="M17.8 82.6c2 1.9 2.5 5.2 2.1 7.7h.3c-.1-2.4 1.3-4.8 3-6.4 1.4-1.3 4.4-3.6 6.3-1.9 1.6 1.5.9 4.2-.2 5.8-1.2 1.7-3.1 2.6-5 3.2 1.9-.3 3.8-.5 5.4.6 1.6 1.1 2.8 3.5 1.6 5.3-2 2.9-6.5.5-9.1-2 1.9 2.8 4.2 7.3.5 8.3-1.7.4-3.3-.6-3.9-2.1-.5-1.2-.6-2.5-.4-3.8-.4 1-.9 1.8-2 2.5-1.5.9-4 1.3-5.1-.4-1.1-1.6 0-3.8 1.1-5.1 1.6-1.7 3.8-2.6 6.1-2.5v-.1h-.1c-2.4-.5-5-1.7-6.3-3.9-1-1.8-1.1-4.1.5-5.6 1.6-1.3 3.8-.9 5.2.4z"/><path class="st1" d="M18.8 101.1c-.5-1.2-.6-2.5-.4-3.8-.4 1-.9 1.8-2 2.5-1.5.9-4 1.3-5.1-.4-1.1-1.6 0-3.8 1.1-5.1 1.6-1.7 3.8-2.6 6.1-2.5v-.1h-.1c-2.4-.5-5-1.7-6.3-3.9-1-1.8-1-4.1.5-5.6 1.5-1.4 3.7-1 5.1.3 2 1.9 2.5 5.2 2.1 7.7h.3c-.1-2.4 1.3-4.8 3-6.4 1.4-1.3 4.4-3.6 6.3-1.9 1.7 1.5 1 4.2-.1 5.8-1.2 1.7-3.1 2.6-5.1 3.2 1.9-.3 3.8-.6 5.4.6 1.6 1.1 2.8 3.5 1.6 5.3-2 2.9-6.5.5-9.1-2 1.9 2.8 4.2 7.4.5 8.3-1.6.6-3.2-.4-3.8-2zM13.4 94c-1.7 1.4-3.7 5.6 0 6.1 2.2.3 4.2-1.5 4.9-3.4l.6-2.1c.1-.4.2-.9.2-1.3-.4-.3-.5-.6-.6-1-1.8 0-3.6.5-5.1 1.7zm6.3-3.6c-.1-1.8-.3-3.5-.9-5.2-.9-2.2-3.9-4.8-6-2.1-1.4 1.7-.7 4 .6 5.5 1.4 1.5 3.3 2.1 5.2 2.8.1-.5.6-.9 1.1-1zm8-1.6c1.9-1.6 4.2-7.7-1.2-6.3-3.5.8-5 4.9-5.9 7.9.4.1.7.4.9.8 2.1-.5 4.5-.9 6.2-2.4zm-8.9 3.4c.2.5.9.8 1.4.8.7-.1.8-.7.7-1.1-.1-1.4-2.2-1.5-2.1.3zm11.7 4.9c1.5-1.2.7-3.3-.3-4.4-1.1-1.2-2.6-1.6-4.2-1.5-1.5.1-2.9.5-4.4.5h-.1v.1c.1.6-.1 1.1-.5 1.4 2.2 2.1 6.7 6.2 9.5 3.9zm-9.7-3.5c0-.1-.1-.1-.1-.2-.1.1-.2.1-.4.1h-.5c-.2.3-.3.5-.4.8-.6 3.1-1.7 8.7 2.6 8.5 4.7-.2.2-7.2-1.2-9.2z"/><path class="st1" d="M18.9 90.8c-1.5-.5-2.8-1.2-3.9-2.1-.1 0 0-.1.1-.1 1.1.9 2.3 1.6 3.6 1.9-1.5-1.9-2.8-3.8-4.6-5.4 1.8 1.4 3.6 3 4.7 5-.1-1.8-.6-3.5-1.6-5.1-.1-.1.1-.2.1-.1 1.3 1.7 2 3.6 1.9 5.8.1.2-.2.2-.3.1z"/><path class="st1" d="M20.6 90.3c2.6-1.1 4.8-2.9 6.3-5.3 0-.1.1 0 .1.1-1.4 2.6-3.5 4.6-6.2 5.7-.3 0-.5-.4-.2-.5z"/><path class="st1" d="M21.1 90.7c1.6-.3 2.9-.8 4.3-1.6.1 0 .1.1.1.1-1.2 1-2.7 1.7-4.3 1.9-.3 0-.4-.4-.1-.4z"/><path class="st1" d="M20.3 89.9c1.2-1.3 2.2-2.7 2.8-4.4 0-.1.2 0 .1 0-.5 1.7-1.4 3.3-2.7 4.6-.1.3-.3 0-.2-.2z"/><path class="st1" d="M28.9 95.9c-2.2-1.7-4.8-2.9-7.6-3.4-.2 0-.2-.4 0-.4 2.9.5 5.4 1.8 7.7 3.7.1 0 0 .2-.1.1z"/><path class="st1" d="M28 93.1c-2.2-.9-4.4-1.3-6.7-1.2-.2 0-.3-.4-.1-.4 2.4-.2 4.7.3 6.8 1.4.1.1.1.2 0 .2z"/><path class="st1" d="M24.5 95.7c-.9-1.3-2.1-2.1-3.4-2.9-.2-.1 0-.4.2-.3 1.4.6 2.6 1.7 3.4 3 0 .1-.1.3-.2.2z"/><path class="st1" d="M21 100.8c-.9-2.3-1.1-4.6-.8-7-.6 1.3-.9 2.7-.9 4.2 0 .1-.2.1-.3 0-.1-1.7.1-3.3.9-4.9.1-.2.4-.1.5 0 .1 0 .3.1.3.2v.1c0 1.5.3 3 1 4.3 0 .1-.1.2-.1.1-.5-.8-.8-1.7-1-2.7-.1 1.8.1 3.7.6 5.4.1.3-.1.4-.2.3z"/><path class="st1" d="M16.2 97.4c.8-1.5 1.6-2.9 2.4-4.3-.9.5-1.8.9-2.6 1.6-.9.8-1.6 1.7-2.2 2.7-.1.1-.2 0-.2-.1.6-1.7 2.2-3.7 4.1-4.4-1.2.2-2.2.5-3.3 1.1-.1 0-.1-.1-.1-.1 1.3-1 3.1-1.8 4.7-1.5.1 0 .1.1.1.1.2.1.3.3.2.4-.9 1.5-1.9 3-2.9 4.5-.1.2-.3.1-.2 0z"/></g><g id="Слой_2"><path class="st0" d="M42.4 100.8c-2.9-2.8-3.6-7.7-3-11.5H39c0 3.5-2.1 7.1-4.6 9.4-2 1.9-6.6 5.2-9.3 2.8-2.4-2.2-1.3-6.3.3-8.6 1.8-2.5 4.6-3.9 7.5-4.7-2.8.4-5.6.8-8-1-2.3-1.6-4.1-5.3-2.3-7.9 3-4.3 9.6-.6 13.5 3-2.8-4.2-6.1-10.9-.6-12.3 2.5-.6 4.8 1 5.8 3.2.8 1.8.8 3.7.5 5.6.6-1.4 1.4-2.7 3-3.6 2.2-1.3 6-1.8 7.6.7 1.6 2.4 0 5.7-1.7 7.5-2.3 2.5-5.7 3.8-9.1 3.6v.1h.1c3.6.8 7.3 2.5 9.2 5.9 1.5 2.6 1.5 6.1-.9 8.3-2.3 2.1-5.5 1.5-7.6-.5z"/><path class="st1" d="M41.3 73.3c.8 1.8.8 3.7.5 5.6.6-1.4 1.4-2.7 3-3.6 2.2-1.3 6-1.8 7.6.7 1.6 2.4 0 5.7-1.7 7.5-2.3 2.5-5.7 3.8-9.1 3.6v.1h.1c3.6.8 7.3 2.5 9.2 5.9 1.5 2.6 1.5 6.1-.9 8.2-2.3 2.1-5.5 1.5-7.6-.6-2.9-2.8-3.6-7.7-3-11.5H39c0 3.5-2.1 7.1-4.6 9.4-2 1.9-6.6 5.2-9.3 2.8-2.4-2.2-1.4-6.3.3-8.6 1.8-2.5 4.6-3.9 7.5-4.7-2.8.4-5.6.8-8.1-1-2.3-1.6-4.1-5.3-2.2-7.9 3-4.3 9.6-.6 13.5 3.1-2.8-4.2-6.1-11-.6-12.3 2.5-.5 4.8 1.1 5.8 3.3zM49 84c2.5-2 5.6-8.3.2-9-3.3-.4-6.2 2.1-7.3 5-.4 1-.6 2.1-.9 3-.1.7-.3 1.3-.4 2 .6.4.8.9.9 1.5 2.7 0 5.4-.7 7.5-2.5zm-9.3 5.2c.1 0 .1.1 0 0 .1 2.6.3 5.2 1.3 7.7 1.3 3.3 5.6 7.2 8.9 3.3 2-2.4 1.2-5.9-.8-8.1-2-2.3-4.9-3.2-7.7-4.2h-.1c-.2.6-.8 1.2-1.6 1.3zm-11.9 2.2c-2.9 2.4-6.4 11.3 1.7 9.4 5.1-1.2 7.5-7.2 8.9-11.6-.6-.2-1-.7-1.3-1.2-3.2.7-6.6 1.2-9.3 3.4zM41 86.6c-.2-.7-1.3-1.3-2-1.2-1 .1-1.2 1.1-1.1 1.6.2 2.1 3.3 2.3 3.1-.4zm-17.2-7.4c-2.2 1.8-1 4.9.4 6.5 1.6 1.9 3.9 2.4 6.3 2.2 2.2-.1 4.3-.6 6.5-.6.1 0 .1 0 .1.1v-.2c-.1-.8.2-1.6.8-2.1-3.3-3.2-9.8-9.4-14.1-5.9zm14.3 5.3c.1.1.1.2.2.2.2-.1.4-.1.6-.2h.8l.6-1.2c.9-4.6 2.7-12.8-3.7-12.6-7.1.4-.5 10.8 1.5 13.8z"/><path class="st1" d="M40.9 88.7h.1c2.1.8 3.9 1.7 5.6 3.2.1.1 0 .2-.1.1-1.6-1.3-3.4-2.4-5.4-2.9 2.2 2.8 4 5.7 6.7 8-2.6-2.1-5.3-4.5-6.8-7.5.1 2.7.8 5.2 2.3 7.5.1.1-.1.3-.2.2-1.9-2.5-2.9-5.4-2.7-8.6-.1-.2.3-.2.5 0z"/><path class="st1" d="M38.4 89.3c-3.9 1.6-7.1 4.2-9.4 7.8 0 .1-.2 0-.1-.1 2-3.8 5.2-6.8 9.2-8.3.4-.1.7.5.3.6z"/><path class="st1" d="M26.2 81c3.3 2.6 7.1 4.4 11.2 5.2.4.1.3.7-.1.6-4.2-.8-8-2.7-11.3-5.5-.1-.2 0-.4.2-.3z"/><path class="st1" d="M27.5 85.1c3.2 1.4 6.4 2 9.9 1.8.4 0 .5.5.1.6-3.5.2-7-.5-10.1-2.2-.1 0 0-.2.1-.2z"/><path class="st1" d="M32.7 81.4c1.4 1.9 3 3.1 5 4.3.3.2 0 .6-.3.4-2.1-.8-3.8-2.6-5-4.5-.1-.2.2-.4.3-.2z"/><path class="st1" d="M37.9 73.9c1.3 3.4 1.6 6.9 1 10.4.9-2 1.4-4 1.4-6.2 0-.2.3-.2.4 0 .2 2.5-.2 5-1.4 7.2-.2.3-.6.2-.7-.1-.2 0-.5-.1-.4-.4v-.3c0-2.2-.4-4.4-1.4-6.4-.1-.1.1-.2.2-.1.7 1.3 1.2 2.6 1.5 4 .2-2.7-.1-5.4-.9-8.1-.1-.1.2-.2.3 0z"/><path class="st1" d="M45 78.9c-1.2 2.1-2.4 4.3-3.7 6.3 1.3-.8 2.7-1.3 3.9-2.3 1.4-1.1 2.3-2.5 3.3-4 .1-.2.3 0 .3.2-.9 2.5-3.4 5.4-6.1 6.4 1.7-.3 3.3-.7 5-1.6.1-.1.2.1.1.2-1.9 1.4-4.6 2.6-7 2.1-.1 0-.2-.1-.2-.2-.2-.1-.4-.4-.2-.7 1.4-2.2 2.9-4.4 4.4-6.6 0-.1.3.1.2.2z"/><path class="st1" d="M37.7 88.8c-2.3.4-4.3 1.2-6.3 2.4-.1 0-.2-.1-.1-.1 1.8-1.5 4-2.4 6.3-2.8.4-.1.4.4.1.5z"/><path class="st1" d="M38.8 89.9c-1.9 1.8-3.2 3.9-4.1 6.4 0 .1-.2.1-.2-.1.8-2.5 2.1-4.9 4-6.7.2-.2.5.2.3.4z"/></g></svg>