<!--version="1.0" encoding="utf-8"--><!-- Generator: Adobe Illustrator 25.2.1, SVG Export Plug-In . SVG Version: 6.00 Build 0)  --><svg version="1.1" xmlns="http://www.w3.org/2000/svg" x="0" y="0" viewBox="0 0 177 90" xml:space="preserve"><style type="text/css">.st0 { fill: rgb(238, 221, 224); }.st1 { fill: rgb(82, 51, 51); }</style><g id="Слой_2"><path class="st0" d="M83.4 36.7c-3.7.9-7.5 1.6-11.2 2.3 0-.1-.1-.1-.2-.2-5.4-1-10.6-2.8-15.8-4.6-.1 0-.2.1-.1.2 4.9 1.9 9.8 3.8 15 4.8-2.9.5-5.8.9-8.7 1.3-4.4.5-8.9.8-13.3 1h-.2c-.1 0-.1 0-.2.1h-.2c-.8-.7-1.9-1.2-3-1.7-1.8-1.8-2.8-4.1-3.9-6.3-1.2-2.2-2.3-4.5-3.6-6.7 3.7-.5 3.9-5.2 3.8-8.1 0-.1-.2-.2-.3-.1-1.1 1.4-2.2 2.9-3.1 4.5l-.3.6c0-1.4-.4-2.7-1-4-1.3-2.5-3.9-3.3-5.5-5.4-.1-.1-.3-.1-.4.1-.3 2.4-.4 4.9.9 7.1 1.2 2.2 3.4 4 5.5 5.3 0 .1 0 .1.1.1.1.1.2.1.2 0 1.1 2.4 2.4 4.8 3.6 7.2 1 1.9 1.9 3.9 3.4 5.5-.3-.1-.6-.3-.9-.4-1.5-.8-3-1.6-4.4-2.5-2.9-1.7-5.7-3.4-8.5-5.2v-.1c-.4-2.5-1.9-4.5-3.9-6-1.2-.8-2.4-1.5-3.7-2.1-1.2-.5-3.8-1-4.4-2-.1-.2-.4 0-.3.2 1.4 2.8 2.6 6.3 5.2 8.3 1.9 1.5 4.4 2.2 6.8 1.8 0 0 .1 0 .1.1 2.8 2.1 5.8 3.9 8.8 5.7 1.1.6 2.2 1.3 3.4 1.9-3.7-.9-7.4-1.7-11.2-2.6v-.1c-2.6-2.5-6.4-1.6-9.7-2-.2 0-.2.2-.1.3 2.5 2.7 6.5 4.5 9.7 2h.1c4.1 1.1 8.3 2.1 12.4 3.1.1 0 .1.1.2.1.8.5 1.9 1.2 2.9 1.7l-4.8.3c-7.6-.2-15.4-1-22.4-3.6H20c-.7-2.3-1.5-4.7-3.6-6-2-1.3-4.6-1.2-6.8-1.9-.1 0-.2.1-.2.3 2.3 3.5 5.6 8.1 10.3 7.9.1.1.2.1.3 0h.2c3.1 1.4 6.4 2.2 9.8 2.7-1.4.2-2.8.6-4.1 1.1 0 0 0-.1-.1-.1C21 40.4 17 44.3 14 47.7c-.1.1 0 .3.1.3 4.3.6 10-.2 11.3-5.2.1 0 .2.1.2.1.1.1.2 0 .2-.1 1.5-.5 2.9-.9 4.5-1.1.1 0 .1-.1.1-.1 1.5.2 3 .4 4.6.5 5.4.5 10.8.7 16.2.6h2.6c-.8.4-1.5.7-2.3 1.1h-.1c-4 .9-8 2.2-12 3.5 0 0-.1-.1-.1 0h-.1c0-.1 0-.2-.1-.2-1.4-.6-2.8-1.2-4.4-1-2.2.3-4.1 1.8-6.2 2.3-.2 0-.2.3 0 .4 4.2 1.5 7.5 1.8 10.9-1.4 3.7-1 7.3-1.9 11-3-4.2 2.3-8.2 4.9-12.1 7.7 0-.1-.2-.2-.3-.1h-.1c-.2.1-.5.1-.7.2-2.1.1-4.3.5-5.8 2.1-1.8 2-2.5 5.2-2.9 7.8 0 .2.1.3.3.2 2.3-.8 4.5-1.9 6.1-3.3-.4 2.3.1 4.7 1.2 6.7.1.1.2.1.3 0 2.4-4.4 3.3-8.4 1.8-13.2v-.4c5.2-3.6 10.8-6.6 16.4-9.5 3.8-.1 7.6-.3 11.3-.7-1.4 1.1-2.8 2.3-4 3.6h-.1c-2.8.9-5.3 2.3-7.5 4.3v-.1s.1-.1 0-.1c-2-2.4-5.8-2.4-8.2-.6-.1.1-.1.2 0 .3.8.5 1.5.9 2.4 1.3-2 1.5-3.3 4.2-3.6 6.6 0 .1.1.2.2.2 3.8-1.2 8.5-2.9 9.1-7.4 2.2-1.7 4.6-3.1 7.2-3.9-.2.3-.5.5-.7.8-1.6 1.9-2.6 4.6-4.4 6.4h-.1l-.1.1s-.1 0-.1.1c-5.2 1.3-4.4 8-3.6 11.9 0 .1.2.2.3.1 2-1.3 4.1-2.8 4.8-5.2.1-.5.2-1.1.3-1.7 1.3 1 2.8 1.6 4.4 2 .1 0 .2-.1.2-.2-.5-3.2-2-6.9-5.8-7.1 1.5-1.5 2.4-3.7 3.7-5.4 1.8-2.3 3.9-4.2 6.2-5.9 5.8-.6 11.5-1.5 17-2.9.8-.9.2-2.4-.1-2.4zm-57.7.3c-.4-.2-3.3-1.8-3-2.2.2-.2 3.5.1 3.9.1 1.7.1 3.2.4 4.5 1.4-1.1-.5-2.2-.8-3.3-.9-.1 0-.1.1 0 .1.9.2 1.9.4 2.8.8-1.7.1-3.5-.1-5.2-.5 0 0-.1.1 0 .1 1.8.5 3.5.7 5.3.7-1.4.4-2.8.6-4.3.4v.1c1.6.3 3.3.2 4.9-.4.1 0 .1 0 .1-.1h.1l.1.1c-1.8.9-3.9 1.1-5.9.3zm13.2 9.8s0 .1 0 0c-1.5 1.1-2.9 2.1-4.8 2.2 1.7-.3 3.3-1.1 4.8-2.2-.1 0-.1 0 0 0zm-.7 6.4h-.1c0-.1 0-.2.1-.3-.1.1 0 .2 0 .3zm18.6 0s-.1 0 0 0c-.1 0-.1-.1-.1-.1s.1 0 .1.1c0-.1 0-.1 0 0zm-.1-.5s0 .1.1.1h-.1v-.1z"/><path class="st0" d="M22.3 34.6s.6 1.2 3.3 2.4c2.8 1.1 3.8.6 4.2.5.4-.1 1.8-.8 1.8-.8s-.8-1.3-3.6-1.8c-2.8-.7-5.7-.3-5.7-.3z"/><path class="st0" d="M43 28.2c1.7 2.2 3.3 5 5.9 6.4 2.3 1.3 5.1 1.2 7.3-.3.1-.1 0-.2-.1-.2-1.1-2-2.8-3.5-4.9-4.3-2.6-.9-5.4-.6-7.9-1.9-.2-.1-.4.1-.3.3z"/><path class="st1" d="M20.4 24z"/><path class="st1" d="M20.4 24c.1.1.1.2 0 0z"/><path class="st1" d="M83.4 36.7c-3.7.9-7.5 1.6-11.2 2.3 0-.1-.1-.1-.2-.2-5.4-1-10.6-2.8-15.8-4.6-.1 0-.2.1-.1.1 4.9 1.9 9.8 3.8 15 4.8-2.9.5-5.8.9-8.8 1.3-4.4.5-8.9.8-13.3 1h-.2c-.1 0-.1 0-.2.1h-.2c-.8-.7-1.9-1.2-3-1.7-1.8-1.8-2.8-4.1-3.9-6.3-1.2-2.3-2.4-4.6-3.7-6.8 0-.1-.1 0-.1 0 1.1 2.5 2.4 4.9 3.7 7.2 1 1.9 1.9 3.9 3.4 5.5-.3-.1-.6-.3-.9-.4-1.5-.8-3-1.6-4.4-2.5-2.9-1.7-5.7-3.4-8.5-5.2v-.1c-.4-2.5-1.9-4.5-3.9-6-1.2-.8-2.4-1.5-3.7-2.1-1.2-.5-3.8-1-4.4-2-.1-.2-.4 0-.3.2 1.4 2.8 2.6 6.3 5.3 8.3 1.9 1.5 4.4 2.2 6.8 1.8 0 0 .1 0 .1.1 2.8 2.1 5.8 3.9 8.8 5.7 1.1.6 2.2 1.3 3.4 1.9-3.7-.9-7.4-1.7-11.2-2.6v-.1c-2.6-2.5-6.4-1.6-9.7-2-.2 0-.2.2-.1.3 2.5 2.7 6.5 4.5 9.7 2h.1c4.1 1.1 8.3 2.1 12.4 3.1.1 0 .1.1.2.1.8.5 1.9 1.2 2.9 1.7l-4.8.3c-7.6-.2-15.4-1-22.4-3.6H20c-.7-2.3-1.5-4.7-3.6-6-2-1.3-4.6-1.3-6.8-1.9-.1 0-.2.1-.2.3 2.3 3.5 5.6 8.1 10.3 7.9.1.1.2.1.3 0h.2c3.1 1.4 6.4 2.2 9.8 2.7-1.4.2-2.8.6-4.1 1.1 0 0 0-.1-.1-.1C21 40.1 17 44 14 47.3c-.1.1 0 .3.1.3 4.3.6 10-.2 11.3-5.2.1 0 .2.1.2.1.1.1.2 0 .2-.1 1.5-.5 2.9-.9 4.5-1.1.1 0 .1-.1.1-.1 1.5.2 3 .4 4.6.5 5.4.5 10.8.7 16.2.6h2.6c-.8.4-1.6.7-2.3 1.1h-.1c-4 .9-8 2.2-12 3.5 0 0-.1-.1-.1 0h-.1c0-.1 0-.2-.1-.2-1.4-.6-2.8-1.2-4.4-1-2.2.3-4.1 1.8-6.2 2.3-.2 0-.2.3 0 .4 4.2 1.5 7.5 1.8 10.9-1.4 3.7-1 7.3-1.9 11-3-4.2 2.2-8.2 4.9-12.1 7.7 0-.2-.3-.2-.4 0l-.1.1c-2.3.1-4.8.4-6.4 2.1-1.8 2-2.5 5.2-2.9 7.8 0 .2.1.3.3.2 2.3-.8 4.5-1.9 6.1-3.3-.4 2.3.1 4.7 1.2 6.7.1.1.2.1.3 0 2.4-4.4 3.3-8.4 1.8-13.2v-.4c5.2-3.6 10.8-6.6 16.4-9.5 3.8-.1 7.6-.3 11.3-.7-1.4 1.1-2.8 2.3-4 3.6h-.1c-2.8.9-5.4 2.3-7.5 4.3v-.1s.1-.1 0-.1c-2-2.4-5.8-2.4-8.2-.6-.1.1-.1.2 0 .3.8.5 1.5.9 2.4 1.3-2 1.5-3.3 4.2-3.6 6.6 0 .1.1.2.2.2 3.8-1.2 8.5-2.9 9.1-7.4 2.2-1.7 4.6-3.1 7.2-3.9-.2.3-.5.5-.7.8-1.6 2-2.7 4.8-4.6 6.5H56c-5.3 1.2-4.5 8-3.7 11.9 0 .1.2.2.3.1 2-1.3 4.1-2.8 4.7-5.2.1-.5.2-1.1.3-1.7 1.3 1 2.8 1.6 4.4 2 .1 0 .2-.1.2-.2-.5-3.2-2-6.9-5.8-7.1 1.5-1.5 2.4-3.7 3.7-5.4 1.8-2.3 3.9-4.2 6.2-5.9 5.8-.6 11.5-1.5 17-2.9 1-.4.4-1.9.1-1.9zm-52.8-5.6c-.1 0-.1 0-.1.1-2.6 0-5.1-.6-7-2.4-1-.9-1.7-2-2.3-3.1-.3-.5-.5-1-.8-1.6-.2-.4-.9-1.7-1.3-2.2 1.1.6 5 2.1 5.4 2.3 2.9 1.4 5.4 3.6 6.1 6.9zM25.7 37c-.4-.2-3.3-1.8-3-2.2.2-.2 3.5.1 3.9.1 1.8.1 3.5.4 4.9 1.7-1.7 1-3.8 1.2-5.8.4zm-6.1 1c-2.1-.2-4-1-5.6-2.5-.4-.4-4.3-4.4-3.9-4.9.3-.4 4.9 1.1 5.4 1.3 2.5 1.2 3.4 3.7 4.1 6.1zm1.1 8.6c-.7.3-5.9 1.4-6 .2 0-.4 1.6-1.7 1.9-2 .6-.6 1.3-1.2 2.1-1.7 2-1.3 4.2-1.8 6.4-1-.9 2.1-2.3 3.7-4.4 4.5zm18.2.2c-.1 0-.1 0 0 0-1.5 1.1-3 2.1-4.9 2.2-.1 0-4.9-.5-4.8-1 .1-.3 3.3-1.5 3.7-1.7 2.1-.8 3.9-.5 6 .5zM37.6 62c-.2.5-.5 1.4-.8 1.8-.2.8-.5.8-.9-.1-.1-.2-.2-.4-.2-.7-.7-1.5-.5-3.3-.4-4.9 1.5-1.3 2.5-3 2.9-5.3.7 3.2.7 6-.6 9.2zm.2-10.1c-.2 2.1-.9 4.1-2.3 5.7l-.3.3v-.1c0-.1-.1-.1-.1 0s-.1.2-.1.3c-.6.6-1.3 1.1-2.1 1.5-.4.2-3.1 1.8-3.6 1.6-1-.5 1.1-5.1 1.4-5.8 1.6-2.9 4.3-3.2 7.1-3.5zM51 54.1c-.7.5-4.8 2.8-5.4 1.9-.3-.4.7-2.5.9-2.9.4-.7.8-1.4 1.3-2 1.7-1.8 4-2.3 6.3-1.8-.4 2.1-1.5 3.7-3.1 4.8zm3.1-5v.1c-1.9-.8-3.7-.4-5.1.6l-.1-.1c-.6-.2-2.2-.8-1.9-1.3.2-.6 2.1-.8 2.6-.9 1.7-.2 3.3.5 4.6 1.5-.1 0-.1 0-.1.1zm3.4 8.8c-.1 2.3-1.6 4.9-3.8 5.9-1 .5-.9-.2-1.1-1.2-.2-1.1-.3-2.2-.2-3.4.1-2.8 1.4-5.1 4-6.2l.1-.1c.1-.1.2-.2.3-.2 0 .1 0 .1.1.1 0 1.7.6 3.3.6 5.1zm-.7-5.1c2.5.4 4 2.3 4.8 4.6.1.4.3.8.3 1.2.1 1.2-.3.8-1 .5-1.1-.4-2.1-1-3.1-1.7.1-1.6-.3-3.3-1-4.6zm26.8-14.7C78.4 39 73.2 40 68 40.6c-4.9.6-9.9.9-14.8 1.1 3.4-.2 6.8-.6 10.1-1 6.8-.8 13.5-2 20.1-3.5.2.3.2.8.2.9z"/><path class="st1" d="M41.5 18.5c-1.1 1.4-2.2 2.9-3.1 4.5l-.3.6c0-1.4-.4-2.7-1-4-1.3-2.5-3.9-3.3-5.5-5.4-.1-.1-.3-.1-.4.1-.3 2.4-.4 4.9.9 7.1 1.2 2.2 3.4 4 5.5 5.3 0 0 0 .1.1.1.1.1.2.1.3 0 3.8-.4 4-5.1 3.9-8.1-.1-.2-.3-.3-.4-.2zM32.9 22c-.9-1.3-1.4-2.7-1.5-4.2 0-.5-.2-2.6.2-2.8.1 0 1.9 1.6 2.1 1.7.9.7 1.8 1.4 2.5 2.4 1.4 2 1.8 4.4 1.2 6.8 0 .1-.1.1 0 .2v.1c-1.6-1.3-3.3-2.5-4.5-4.2zm5 4.6c0-.2-.1-.3-.1-.5.1-.5.2-1 .3-1.6.3-.7.7-1.5 1.1-2.1.7-1.2 1.5-2.3 2.3-3.4.1 3-.1 6.9-3.6 7.6z"/><path class="st1" d="M56.1 34.1s-.1 0 0 0c-.1 0-.1 0 0 0-1.1-2-2.8-3.5-4.9-4.3-2.6-.9-5.4-.6-7.9-1.9-.1-.1-.3.1-.2.2 1.7 2.2 3.3 5 5.9 6.4 2.3 1.3 5.1 1.2 7.3-.3-.1 0-.1-.2-.2-.1zm-8.2-.8c-.3-.3-4.3-4.8-4.2-4.8.2-.1 2.2.7 2.4.7 1 .2 2.1.3 3.1.5 2.8.5 5.1 2 6.5 4.5-2.7 1.2-5.5 1.1-7.8-.9z"/><path class="st1" d="M19.6 37.9c-.4-1.6-1.6-3.2-2.7-4.4 0 0-.1 0-.1.1 1.1 1.3 1.7 2.7 2.5 4.1-1.2-2.1-3-3.9-4.9-5.4-.1 0-.1 0-.1.1 1.8 1.5 3.2 3.2 4.5 5.2-1.4-.6-2.5-2.1-3.7-3.1-1.4-1.2-2.8-2.3-4.3-3.3 0 0-.1 0-.1.1 1.8 1.4 3.5 2.8 5.1 4.5 1.1 1.1 2 2.3 3.5 2.6h.2c0 .1.2 0 .1-.1.1-.2.1-.3 0-.4.1 0 .1 0 0 0z"/><path class="st1" d="M18.2 37.9c-1.3-1.1-2.8-2-4.1-3.2 0 0-.1 0-.1.1 1.3 1.2 2.6 2.5 4.2 3.1 0 .1.1 0 0 0z"/><path class="st1" d="M25.1 42h-.2s0-.1-.1-.1c-1.9-.1-3.7.8-5.2 1.9v.1c1.5-1.1 3.1-1.6 4.9-1.8-3 1.4-5.5 3.7-8.8 4.6 3.1-.7 5.7-2.7 8.5-4.2-1.5 1.9-3.2 3.4-5.5 4.4v.1c2.5-.8 4.8-2.5 6.1-4.8.1 0 .2-.1.3-.1.2 0 .1-.2 0-.1z"/><path class="st1" d="m31.5 36.2-.1-.1h-.3c-1.1-.5-2.2-.8-3.3-.9-.1 0-.1.1 0 .1.9.2 1.9.4 2.8.8-1.7.1-3.5-.1-5.2-.5 0 0-.1.1 0 .1 1.8.5 3.5.7 5.3.7-1.4.4-2.8.6-4.3.4v.1c1.6.3 3.3.2 4.9-.4.1 0 .1 0 .1-.1.1 0 .1 0 .1-.1v-.1z"/><path class="st1" d="M30.8 30.9c-.1 0-.1 0 0 0-1.1-2.8-3.7-4.4-6.1-5.9-.1 0-.1.1-.1.1 2.2 1.5 4.3 2.9 5.5 5.3-2.8-2.2-5.7-4.2-8.5-6.4-.1-.1-.2 0-.1.1 2.9 2.4 5.7 4.9 8.9 7-.3-.1-1-.3-1.1-.3l-1.8-.6c-1.1-.5-2.1-1.1-2.9-1.8-.1 0-.1 0-.1.1 1 .9 2.2 1.7 3.5 2.2.6.2 1.2.4 1.8.5.3.1.7.3.9.1.1 0 .1-.1 0-.2.1 0 .1-.1.1-.2z"/><path class="st1" d="M38.7 46.6c-.1 0-.1 0 0 0-.2.1-.4.1-.5.1-1.5-.2-3.1-.1-4.6.1v.1c1.4-.1 2.7-.1 4 0-2.5.6-4.9 1.3-7.5 1.1 0 0-.1.1 0 .1 2.7.4 5.4-.5 8.1-1-1.5 1-3.1 1.6-4.8 2.1v.1c2.1-.2 4-1.1 5.6-2.3 0-.3-.2-.5-.3-.4z"/><path class="st1" d="M37.9 51.4c-1.6.4-3.1 1-4.6 1.9v.1c1.4-.7 2.9-1.2 4.4-1.5 0 .1-.1.2-.2.3-2.5 1-4.8 2.8-6.6 4.8 0 0 0 .1 0 0 1.9-1.9 4-3.2 6.4-4.5-1.7 3.2-4.3 5.5-7.3 7.6v.1c3.2-1.6 5.8-4.3 7.6-7.3-.6 1.9-1.6 3.5-3 5.1v.1c1.8-1.3 3.1-3.6 3.4-5.8v-.1s0-.1.1-.1c0-.1 0-.2-.1-.2.2-.2.1-.6-.1-.5z"/><path class="st1" d="M38 53.2c0 .1 0 .1 0 0-.1.1-.1.1-.1.2-.6 2.3-1.3 4.5-2.1 6.7 0 0 0 .1.1 0 .8-1.9 1.5-4 2.1-6-.2 2.3-.6 4.6-1.2 6.8 0 0 0 .1.1 0 .9-2.4 1.5-5.1 1.5-7.7-.1-.1-.4-.1-.4 0z"/><path class="st1" d="M39.4 23c-.4 1.1-1 2-1.7 2.9 0-.1-.1-.1-.1-.2-.7-2.4-1.5-4.8-3-6.8 0 0-.1 0-.1.1 1.1 1.7 1.7 3.6 2.3 5.4-1.6-2.7-3.3-5.3-5-8 1.7 3.1 3.6 6.2 5.4 9.3-1.6-1.4-3-3.1-3.9-5.1h-.1c1 2.2 2.3 4.1 4.1 5.7.1.1.2 0 .3 0h.2c.8-.9 1.4-2 1.8-3.2 0-.1-.1-.2-.2-.1z"/><path class="st1" d="M40.8 21.2c-.2 1-.5 2-1 2.9-.6.9-1.3 1.5-2 2.3-.1.1 0 .3.1.2 1.9-.9 2.9-3.5 3.1-5.4 0 0-.2-.1-.2 0z"/><path class="st1" d="M55.7 34.1c-1.8-1.5-3.9-2.6-6.2-3.3-.1 0-.1.1 0 .1 2 .7 3.8 1.7 5.4 3-3.4-1.2-6.8-2.4-9.8-4.5 0 0-.1 0 0 0 2.8 2.2 6 3.5 9.4 4.7-2.2-.1-4.3-.4-6.3-1.1 0 0-.1.1 0 .1 2.3.9 4.6 1.3 7 1.3.1 0 .3.1.4.1.1 0 .2 0 .2-.1s0-.2-.1-.3z"/><path class="st1" d="M54.3 49c-1.9-.4-3.8-.6-5.7-.6-.1 0-.1.1 0 .1 1.6.1 3.2.3 4.8.6-1.9.2-3.6 1-5 2.3 0 0 0 .1.1.1 1.3-1.1 2.8-1.8 4.4-2-2.6 1.1-4.2 3.7-6.3 5.6v.1c2.3-2 3.9-4.7 7-5.7-1.5 1.4-2.8 2.9-4.3 4.3 0 0 0 .1.1.1 1.5-1.3 3.2-2.6 4.4-4.3v-.1c.1 0 .2-.1.3-.1.1 0 .1-.1.1-.1h.2c0 .1.1-.3-.1-.3z"/><path class="st1" d="M56.8 52.8h-.2v-.2c0-.1-.1-.1-.2 0l-.1.1h-.1c-1.9 1.4-3.1 4.1-3.3 6.4 0 .1.1.1.1 0 .2-1.2.6-2.3 1.2-3.4.4-.8 1-1.4 1.5-2-.3.8-.4 1.9-.5 2.5-.3 2-.8 4-1.3 5.9 1-3 1.5-6.1 2.4-9 .1 1.8.1 3.7.1 5.5 0 .1.1.1.1 0 .3-1.7.3-3.4.2-5.1.9 1.4 1.8 2.7 2.9 4 0 .1.1 0 .1-.1-.8-1.5-1.8-2.9-2.8-4.3 0-.1-.1-.1-.2-.1v-.1c1.7 1.3 3.1 2.8 4.4 4.5 0 .1.1 0 .1-.1-1.2-1.6-2.6-3.2-4.4-4.5z"/></g><g id="Слой_3"><path class="st0" d="M88.8 77.3c.4.1 1 .2 1.2-.4 2.3-6.1 8.2-9.2 13.8-11.9 5.6-2.7 11.4-5 16.8-8 1.4.3 2.9.5 4.3.7 3.8 4.8 9.8 8.6 16.2 6.7 3.3-.9 5.7-3.3 7.8-5.9 2.4-3 4.6-6.3 6.9-9.5.1-.1 0-.2 0-.2v-.1h-.3c-3.1.4-5.8-.9-8.8-1.5-2.4-.6-4.9-.6-7.3.1-2.5.7-4.7 2-6.6 3.7-2.6 2.3-4.9 5.1-8.4 6.1-1-.1-2.1-.3-3.1-.5.1-.1.3-.1.4-.2 5.2-3.1 9.7-6.9 13.2-11.9.6-.9 1.3-1.8 1.9-2.7.1.1.3.2.4 0 2.9-3.7 7.5-4.6 11.7-6.2 3.3-1.3 6.2-3.2 8-6.3 4-6.9 1.9-15-1-21.9v-.1c0-.1-.1-.1-.1-.1-.1-.1-.2 0-.2.1l-.1.1c-.1.2-.3.3-.4.5-6.2 2.8-13.3 5.2-16.1 11.9-2.6 6.3-2.6 13.7-2.3 20.5-1.6 2.2-3.2 4.3-5.1 6.4-4.4 4.8-9.5 8.3-15.5 10.7-.8.3-1.6.6-2.5 1 1.1-1.3 2.1-2.7 2.8-4.1 6.4-3.9 13.4-8.9 14.3-17 .9-8.1-3.1-15.8-2.5-23.9 0-.1 0-.1-.1-.1 0-.1-.2-.2-.3-.1-3.9 3-8.8 3.6-12.4 7.1-2.7 2.7-4.5 6.2-5.3 9.9-.8 3.9-.4 7.9.8 11.6.1.4.3.8.4 1.2.6 1.5 1.3 2.9 2.1 4.2 1.3 2.2 2.8 4.4 2.3 7.1 0 .1 0 .2.1.2-.7 1.4-1.6 2.6-2.7 3.9-.1.1-.1.2 0 .3-4.8 1.8-9.7 3.4-14 6.2-.7.4-1.4.9-2 1.4.5-.9 1.5-3 1.5-3.1 2.1-3.3 6.6-3.3 9.5-5.5 1.9-1.5 3.1-3.8 3.5-6.1.5-2.8-.1-5.5-1.1-8-1.6-4-4.4-7.7-6.5-11.1.2-.2-.1-.5-.3-.3V32h-.1v.2c-4.4 3.8-9.1 8-10.2 13.9-1.1 5.8 2.5 11.6 4.9 16.7-.6 1.3-1.9 4-1.9 4.1-3.5 2.6-6.5 5.8-8.9 9.5.1 0 .8.8 1.3.9z"/><path class="st1" d="M88.8 77.3c.4.1 1 .2 1.2-.4 2.3-6.1 8.2-9.2 13.8-11.9 5.6-2.7 11.4-5 16.8-8 1.4.3 2.9.5 4.3.7 3.8 4.8 9.8 8.6 16.2 6.7 3.3-.9 5.7-3.3 7.8-5.9 2.4-3 4.6-6.3 6.9-9.5.1-.1 0-.2 0-.2v-.1h-.3c-3.1.4-5.8-.9-8.8-1.5-2.4-.6-4.9-.5-7.3.1-2.5.7-4.7 2-6.6 3.7-2.6 2.3-4.9 5.1-8.4 6.1-1-.1-2.1-.3-3.1-.5.1-.1.3-.1.4-.2 5.2-3.1 9.7-6.9 13.2-11.9.6-.9 1.3-1.8 1.9-2.7.1.1.3.2.4 0 2.9-3.7 7.5-4.6 11.7-6.2 3.3-1.3 6.2-3.2 8-6.3 4-6.9 1.9-15-1-21.9v-.1c0-.1-.1-.1-.1-.1-.1-.1-.2 0-.2.1l-.1.1c-.1.2-.3.3-.4.5-6.2 2.8-13.3 5.2-16.1 11.9-2.6 6.3-2.6 13.7-2.3 20.5-1.6 2.2-3.2 4.3-5.1 6.4-4.4 4.8-9.5 8.3-15.5 10.7-.8.3-1.6.6-2.5 1 1.1-1.3 2.1-2.7 2.8-4.1 6.4-3.9 13.4-8.9 14.3-17 .9-8.1-3.1-15.8-2.5-23.9 0-.1 0-.1-.1-.1 0-.1-.2-.2-.3-.1-3.9 3-8.8 3.6-12.4 7.1-2.7 2.7-4.5 6.2-5.3 9.9-.8 3.8-.4 7.9.8 11.6.6 1.9 1.5 3.7 2.5 5.4 1.3 2.2 2.8 4.4 2.3 7.1 0 .1 0 .2.1.2-.7 1.4-1.6 2.6-2.7 3.9-.1.1-.1.2 0 .3-4.8 1.8-9.7 3.4-14 6.2-.7.4-1.4.9-2 1.4.5-.9 1.5-3 1.5-3.1 2.1-3.3 6.6-3.3 9.5-5.5 1.9-1.5 3.1-3.8 3.5-6.2 1.2-7.1-4.2-13.5-7.6-19.2.1-.2-.1-.5-.3-.3v-.2h-.1v.2c-4.4 3.8-9.1 8-10.2 13.9-1.1 5.8 2.5 11.6 4.9 16.7-.6 1.3-1.9 4-1.9 4.1-3.5 2.6-6.5 5.8-8.9 9.5.1.2.8 1 1.3 1.1zm42.3-23.9c2.6-2.4 5-4.7 8.5-5.6 3.2-.9 6.3-.4 9.4.5 2 .6 4 1.2 6.2.8-5.2 3.3-10.5 6.6-16.6 8-4.3 1-8.7.7-13.1.1 2.2-.7 3.9-2.2 5.6-3.8zm7.2 4.3c6.2-1.4 11.8-5 17-8.5-1.8 2.5-3.5 5-5.4 7.4-2.1 2.9-4.6 5.9-8 7.2-6.2 2.3-12.3-1.2-16.2-5.9 4.2.6 8.5.8 12.6-.2zm17.6-49.5c2.9 7.4 4.9 17-1.2 23.4-4.6 4.9-12.4 4.3-17 9.1 2.8-4.2 5.5-8.6 8-13 3.6-6.3 6.9-12.8 9.9-19.4.1 0 .2-.1.3-.1zm-16.8 13.2c1.4-3.8 3.8-6.5 7.3-8.5 2.6-1.5 5.4-2.8 8.1-4.1.2 0 .4-.1.6-.3.1 0 .2-.1.3-.1-3.8 8.1-8 15.9-12.7 23.6h-.1c-1.8 2.6-3.6 5.3-5.4 7.9-.2-6.1-.1-12.7 1.9-18.5zM128 13.7c-.8 5.2.9 10.5 1.8 15.6 1.3 6.8.6 13-4.5 18.1-2.3 2.3-5 4.2-7.8 5.9-.3.2-.5.3-.7.4 2.2-4.8 2.8-10.3 3.3-15.5.9-8.7 3.2-16.8 7.6-24.4.2 0 .3 0 .3-.1zm-11.5 39c-.1-1.3-.7-2.6-1.3-3.7-1.6-3-3.3-5.7-4.1-9.1-.9-3.6-.9-7.4.2-11s3.2-7 6.2-9.4c3.1-2.5 7.1-3.3 10.3-5.5-3.8 6.3-6.2 13.2-7.3 20.5-.9 6.4-1.1 13.3-3.8 19.1-.2-.2-.2-.5-.2-.9zm-5.1-2.6c-.1 3.3-1.6 6.3-4.5 8-2.1 1.2-4.6 1.6-6.6 3.1-.5.3-.7.8-1 1 4.1-9.1 5.8-19.7 4.5-29.5 2.9 5.5 7.8 10.7 7.6 17.4zM98.3 61.6c-.8-1.5-1.4-3-2-4.5-1.3-3-2.7-6-2.5-9.4.4-6.4 5.5-11 10-15 .6 10.3-1.1 20-5.1 29.4-.2-.1-.3-.2-.4-.5zM96.7 67s.1 0 .1-.1c1.5-1.1 3-2.1 4.7-3 5.6-3 11.9-4.6 17.7-7.3 7.3-3.4 12.9-9.1 17.6-15.6v.1c-.3.4-.6.9-.9 1.3-4.1 6-9 10.5-15.3 14.1-.1 0-.2 0-.2.1-.1 0-.1.1-.2.1-5.9 3.2-12.1 5.6-18.1 8.5C97 67.7 91.6 71 89.7 76.7c0 0-.6.1-.8.1-.4-.1-1-.6-1.1-.6 2.5-3.4 5.5-6.6 8.9-9.2z"/><path class="st1" d="M138.3 57.8c.1-.1.2-.1.4-.2h.1c2.2.2 4.3.5 6.4 1.1-1.9-.8-4.1-1.3-6.2-1.3 3.7-2.1 7.3-4.5 10.6-7.2 0 0 0-.1 0 0-3.6 2.7-7.4 5.1-11.3 7.3-.4.1-.2.4 0 .3z"/><path class="st1" d="M141.6 56.5c2.2 0 4.4.2 6.6.6.1 0 .1-.1 0-.1-2.2-.5-4.4-.7-6.6-.7-.2 0-.2.2 0 .2z"/><path class="st1" d="M131.2 58.5c4 1 7.8 2.4 11.6 3.8 0 0 .1-.1 0-.1-3.7-1.8-7.6-3.1-11.5-4.1-.3-.1-.4.3-.1.4z"/><path class="st1" d="M127.2 57.9c5.2-1.3 10.1-4.4 13.8-8.2 0 0 0-.1 0 0-4 3.9-8.6 6.3-13.8 8.1-.2-.1-.1.1 0 .1z"/><path class="st1" d="M127.1 56.9c2.3-.6 4.3-1.8 5.9-3.5-1.7 1.6-3.6 2.7-5.9 3.5z"/><path class="st1" d="M125.1 57.9c3.6 1.3 6.9 3 10 5.2 0 0 .1 0 0-.1-3-2.3-6.3-4.1-9.9-5.4-.2 0-.2.3-.1.3z"/><path class="st1" d="M134.6 57.4c2.1-1.2 3.9-2.6 5.7-4.2 0 0 0-.1 0 0-1.9 1.5-3.8 2.9-5.7 4.2-.2 0-.1 0 0 0z"/><path class="st1" d="M138.4 58.9c2.2.4 4.2.9 6.3 1.7 0 0 .1-.1 0-.1-2-.8-4.1-1.5-6.3-1.7 0 0-.1.1 0 .1z"/><path class="st1" d="M147.4 55h2.6v-.1c-.8.1-1.7 0-2.6.1z"/><path class="st1" d="M147.7 53.1c1.3-1 2.5-2.1 3.7-3.2-1.2 1-2.5 2.1-3.7 3.2-.1 0 0 0 0 0z"/><path class="st1" d="M142.9 53.4c.7-.6 1.3-1.2 1.9-1.9l-1.9 1.9c-.1 0-.1 0 0 0z"/><path class="st1" d="M146.7 25.5c.1 0 .1 0 .2-.1 3.4-1.7 6.9-2.5 10.6-2.5.1 0 .1-.1 0-.1-3.7-.2-7.3.5-10.6 2.2-.3-2.8-.7-5.6-1-8.4h-.1c.3 2.8.5 5.7.8 8.5-.2.2-.1.4.1.4z"/><path class="st1" d="M140.3 36.7c4.2-3.7 9.2-6.3 14.7-7.5.1 0 0-.1 0-.1-5.6 1.1-10.7 3.6-14.9 7.4-.1.1.1.4.2.2z"/><path class="st1" d="M142.4 32.8c.1-3.9 0-7.8-.6-11.6h-.1c.5 3.9.7 7.7.5 11.6-.1.1.2.1.2 0z"/><path class="st1" d="M150.3 18.8c.3-2.5.2-5-.3-7.4.3 2.5.3 4.9.2 7.4-.1.1.1.1.1 0z"/><path class="st1" d="M152 15.8c1.6-1.1 3.3-1.7 5.2-1.9v-.1c-1.9.1-3.7.7-5.3 1.8-.1.1 0 .3.1.2z"/><path class="st1" d="M151.6 21c2.2-.8 4.3-1.6 6.5-2.3-2.2.5-4.4 1.2-6.5 2.3 0-.1 0 0 0 0z"/><path class="st1" d="M149.5 28.2c2-.7 3.9-1.3 6-1.8-2.1.5-4.1 1.1-6 1.8-.1 0 0 0 0 0z"/><path class="st1" d="M144.3 35.3c1.7-1 3.5-1.8 5.3-2.5 0 0 0-.1 0 0-1.8.6-3.6 1.4-5.3 2.5-.1-.1 0 0 0 0z"/><path class="st1" d="M144.2 25.4c-.2-2.7-.6-5.3-1.2-8 0 0-.1 0 0 0 .6 2.7.9 5.4 1.2 8 0 .1 0 .1 0 0z"/><path class="st1" d="M139.3 34.4c.2-3.2.2-6.4.1-9.6.1 3.3 0 6.4-.1 9.6-.1.1 0 .1 0 0z"/><path class="st1" d="M148.4 18.1c0-1.3-.2-2.6-.5-3.9 0-.1-.1 0-.1 0 .3 1.3.4 2.6.5 3.9 0 .1.1.1.1 0z"/><path class="st1" d="M122.7 25.8c1.5-1.7 3.2-3.3 4.9-4.9.1-.1 0-.2-.1-.1-1.9 1.3-3.6 2.9-5.1 4.7-.2.2.1.5.3.3z"/><path class="st1" d="M120.9 33c2.4-1.9 4.5-3.7 7.2-5.2.1 0 0-.2 0-.1-2.3.9-4.9 2.3-6.7 4.2-.2-4-1.4-8.2-3.3-11.8h-.1c1.4 3.9 2.3 7.7 3 11.8 0 .1.1.1.2.1-.2.2-.4.5-.6.7-.1.2.2.4.3.3z"/><path class="st1" d="M119.9 43.1c2.6-2.5 5.5-4.4 8.7-5.9.1 0 0-.1-.1-.1-3.3 1.3-6.2 3.4-8.8 5.8-.1.1.1.3.2.2z"/><path class="st1" d="M122.1 47.4c1.5-1.9 3.3-3.3 5.5-4.3V43c-2.3.9-4.2 2.4-5.5 4.4-.2-.1-.1 0 0 0z"/><path class="st1" d="M121.7 36.2c2.3-1.7 4.8-3 7.4-4.1.1 0 0-.1 0-.1-2.6 1-5.2 2.3-7.4 4.2-.1-.1 0 0 0 0z"/><path class="st1" d="M123.2 27.3c1.5-1.2 3-2.1 4.6-3v-.1c-1.6.8-3.3 1.8-4.6 3.1-.1 0 0 0 0 0z"/><path class="st1" d="M118.7 47.6c-1.1-3.9-2.8-7.6-5.1-10.9h-.1c2.2 3.4 3.8 7 4.9 10.9.1.2.3.1.3 0z"/><path class="st1" d="M118.5 39c0 .1.1 0 .1 0-1-4.3-2.9-8.3-5.4-11.9h-.1c2.5 3.6 4.2 7.6 5.4 11.9z"/><path class="st1" d="M115.9 45.9c0 .1.1 0 .1-.1-.7-1.5-1.7-2.9-2.7-4.2 0-.1-.1 0-.1.1 1 1.3 1.9 2.7 2.7 4.2z"/><path class="st1" d="M121.1 45.4c.7-1 1.6-1.7 2.7-2.3.1 0 0-.1 0-.1-1.1.6-2 1.3-2.8 2.3 0 .1.1.2.1.1z"/><path class="st1" d="M122.9 37.5c.9-.6 1.9-1.2 2.8-1.8v-.1c-.9.6-1.9 1.1-2.8 1.8-.1.1-.1.2 0 .1z"/><path class="st1" d="M122.1 22.8c-.3-1.6-.6-3.3-.9-4.9 0-.1-.1 0-.1 0 .3 1.7.5 3.3 1 4.9-.1.1 0 .1 0 0z"/><path class="st1" d="M117.7 29.8c-.2-2.5-.7-5-1.6-7.3 0-.1-.2 0-.1 0 .8 2.4 1.3 4.8 1.6 7.3 0 .1.2.1.1 0z"/></g><g id="Слой_1"><path class="st0" d="M67 54.5c-3 3.3-5.2 7.5-6.1 11.8-.1.2.2.4.4.3 2.7-1.6 5.6-3 8.3-4.6-2.4 3.1-2.6 7.3-2.7 11.1 0 .2.2.3.4.2 2.4-1.7 5.5-3.5 7.2-6-.4 3.1-.4 6.3.1 9.4 0 .1.1.1.1.2.1.1.2.1.2 0h.1c1.7-1.4 3.1-3.1 4.4-4.9-.1 1.2.2 2.2.7 3.4.6 1.4 1.1 3 2.2 4.1.1.1.3.1.4-.1C83.9 76 85 72.5 85.8 69c1.2 3.7 3 7.3 5.3 10.3.1.2.3.2.5 0 1.9-3.1 2.5-6.7 2.3-10.3 2 4.1 5.8 6.6 9.6 8.9.2.1.4 0 .4-.2-.3-2.9-.4-6.1-1.7-8.7 2.5 1.7 5.3 2.8 8.1 2.2.1 0 .1-.1.1-.1.1 0 .1-.1.1-.2-.2-2-.6-4.1-1.4-6 2.1.4 4.1.6 6.2.6.2 0 .3-.2.2-.3-1.8-3.5-4.7-7.3-8.2-9.3 4 .9 8.1 1 12.2.5.2 0 .2-.3.2-.4-2-3-5-5.4-8.4-6.5 3.8-.1 8-1.5 10.9-4.3.1-.1-6.1-2.3-8.8-2.8 3.3-.4 7.6-3 9.1-4.4-4-1.9-9.5-2.9-13.8-1.4.5-.3.9-.6 1.4-1 3.5-2.5 7.3-5.7 8.2-10.1.1-.1 0-.3-.2-.3-3 .3-6.1.8-9.1 1.7 1.9-2.1 2.2-5.6 2.4-8.3 0-.2-.2-.3-.4-.2-2.4 1.1-4.8 2.4-6.7 4.2.8-2.6 1.1-5.4 1.4-8.1 0-.2-.2-.3-.4-.2-2.5 1.3-4.9 2.9-7 4.9.8-2.5-.1-5.8-.7-8.2-.1-.2-.3-.2-.4-.1-2.2 1.8-4.1 4.2-5 6.9-.4-2.9-1.3-5.7-2.7-8.3-.1-.2-.4-.2-.5 0-2 3.2-3.6 6.8-4.3 10.6-.5-4.1-3.4-7.6-5.6-10.9-.1-.2-.4-.2-.5.1-.8 2.6-1.2 5.4-.8 8.1-1.4-2.2-3-4.3-4.7-6.2-.1-.1-.4-.1-.4.1-.5 3.5-.6 7-.2 10.5-2.6-2.3-5.5-4.1-8.7-5.3-.1-.1-.3.1-.3.2.6 4.4 2.1 8.5 4.6 12.2.6.8 1.2 1.6 1.8 2.3-4.3-2.7-9.4-3.8-14.4-3.5-.2 0-.3.3-.2.4 3.1 3.4 6.7 7.9 11.4 9.3-3.7-.3-7.4.2-10.8 1.2-.2.1-.2.3-.1.4 3 2.3 6.4 4 10.1 4.9-4.7-.2-9.4 1.3-13.2 4.1-.2.1-.2.4.1.5 3.1.9 6.3 1.3 9.6 1.3-3.7 1-5.9 4.7-7.5 8-.1.2.1.4.3.3 3.6-1.7 8-1.8 11.8-3.6z"/><path class="st1" d="M80.1 75.1c.6 1.4 1.1 3 2.2 4.1.1.1.3.1.4-.1 1.2-3.4 2.3-6.9 3.1-10.4 1.2 3.7 3 7.3 5.3 10.3.1.2.3.2.5 0 1.9-3.1 2.5-6.7 2.3-10.3 2 4.1 5.8 6.6 9.6 8.9.2.1.4 0 .4-.2-.3-2.9-.4-6.1-1.7-8.7 2.5 1.7 5.3 2.8 8.1 2.2.1 0 .1-.1.1-.1.1 0 .1-.1.1-.2-.2-2-.6-4.1-1.4-6 2.1.4 4.1.6 6.2.6.2 0 .3-.2.2-.3-1.8-3.5-4.7-7.3-8.2-9.3 4 .9 8.1 1 12.2.5.2 0 .2-.3.2-.4-2-3-5-5.4-8.4-6.5 3.8-.1 8-1.5 10.9-4.3.1-.1-6.1-2.3-8.8-2.8 3.3-.4 7.6-3 9.1-4.4-4-1.9-9.5-2.9-13.8-1.4.5-.3.9-.6 1.4-.9 3.5-2.5 7.3-5.7 8.2-10.1.1-.1 0-.3-.2-.3-3 .3-6.1.8-9.1 1.7 1.9-2.1 2.2-5.6 2.4-8.3 0-.2-.2-.3-.4-.2-2.4 1.1-4.8 2.4-6.7 4.2.8-2.6 1.1-5.4 1.4-8.1 0-.2-.2-.3-.4-.2-2.5 1.3-4.9 2.9-7 4.9.8-2.5-.1-5.8-.7-8.2-.1-.2-.3-.2-.4-.1-2.2 1.8-4.1 4.2-5 6.9-.4-2.9-1.3-5.7-2.7-8.3-.1-.2-.4-.2-.5 0-2 3.2-3.6 6.8-4.3 10.6-.5-4.1-3.4-7.6-5.6-10.9-.1-.2-.4-.2-.5.1-.8 2.6-1.2 5.4-.8 8.1-1.4-2.2-3-4.3-4.7-6.1-.1-.1-.4-.1-.4.1-.5 3.5-.6 7-.2 10.5-2.6-2.3-5.5-4.1-8.7-5.3-.1-.1-.3.1-.3.2.6 4.4 2.1 8.5 4.6 12.2.6.8 1.2 1.6 1.8 2.3-4.3-2.7-9.4-3.8-14.4-3.5-.2 0-.3.3-.2.4 3.1 3.4 6.7 7.9 11.4 9.3-3.7-.3-7.4.2-10.8 1.2-.2.1-.2.3-.1.4 3 2.3 6.4 4 10.1 4.9-4.7-.2-9.4 1.3-13.2 4.1-.2.1-.2.4.1.5 3.1.9 6.3 1.3 9.6 1.3-3.7 1-5.9 4.7-7.5 8-.1.2.1.4.3.3 4-1 8.4-1.2 12.2-3-3 3.3-5.2 7.5-6.1 11.8-.1.2.2.4.4.3 2.7-1.6 5.6-3 8.3-4.6-2.4 3.1-2.6 7.3-2.7 11.1 0 .2.2.3.4.2 2.4-1.8 5.5-3.5 7.2-6-.4 3.1-.4 6.3.1 9.4 0 .1.1.1.1.2.1.1.2.1.2 0h.1c1.7-1.4 3.1-3.1 4.4-4.9-.5.4-.2 1.5.3 2.6zm11 3.1c-1.2-1.3-2.3-3.6-3-5.2-.8-1.7-3.5-6.6-3.1-16.5.1-.7.2-1.3.2-2 1.1 0 2.1-.2 3.1-.5.4-.1.9-.3 1.3-.5 2.1 3.7 2.9 8.3 3.5 12.5.3 2.4 1 8.4-2 12.2zM78.4 51.8c-.1 0-.1-.1-.2-.1-2.2-2-3-4.9-2.9-7.8.1-2.8.8-6.2 3-8.2 2-1.8 4.9-2.4 7.6-2.3 5.8.2 10 4 10.9 9.7 0 0 0 .1.1.1-.7 5.2-4.6 9.5-9.9 10.5-2.7.5-5.8.2-8.1-1.5-.1-.3-.3-.4-.5-.4zm10.9-18.5s0-.1 0 0c.6-1.1 1.1-2.2 1.5-3.3-.2 1.2-.2 2.5-.3 3.8-.4-.2-.8-.4-1.2-.5zm14 43.3c-2.1-.5-7.5-5.4-9.4-8.7 0-.4-.1-.8-.1-1.3-.5-4.3-1.3-9.5-3.7-13.3.1-.1.3-.1.4-.2 1.5 4.6 4.1 8.7 7.6 12.1 1 .9 2.1 1.9 3.3 2.9.9 1.7 2.2 4.1 1.9 8.5zm6.7-6.1c-9.2-.5-16.2-9.6-19.1-17.7.9-.5 1.8-1.1 2.5-1.9h.1c4.2 1.6 7.9 3.4 10.9 6.8 3.2 3.7 5 8.1 5.6 12.8zm5-5.7c-1.8-.1-5-.5-6.2-.8-2.7-6.5-8.4-12-15.3-13.2.3-.3.6-.7.9-1 3.6 2.7 7.7 4.5 12 5.6 2.3 1.9 5.9 4 8.6 9.4zm3.8-9.4c-2.6.3-5.1.5-6.6.4-6.3-.5-12.3-2.7-17.5-6.3.8-1 1.4-2.2 1.8-3.4 3.9 1.3 8.7 2.8 13.3 3 2.9.9 6.4 2.7 9 6.3zm2.2-10.5h.1c-7.6 5.5-16.1 3.2-24.4.7.3-.9.5-1.9.6-2.9 8.1-1.8 16.2-1.3 23.7 2.2zm.2-7.1c-2.7 2-9.2 3.8-9.3 3.9-4.8-.8-9.8-.6-14.5.8 0-.1-.2-.2-.3-.2 0-.7-.1-1.4-.3-2 3.7-.2 7.1-1.4 10.2-3.2 4-1.1 11.5-1.7 14.2.7zm-3.4-12.6c-1.4 4.3-4.9 7.4-8.6 9.9-3.7 2.6-8 4.4-12.5 4.7-.3-1-.9-2-1.6-2.8 5.2-7.6 13.7-10.9 22.7-11.8zm-7-6.7c-.2 3-.9 5.4-2.5 8v.1c-5.5 1.8-10.5 5-13.4 10.1-.5-.6-1.2-1.2-1.9-1.7 3.3-2.3 6.7-4.8 9-8.2.9-1.4 1.6-2.8 2.1-4.3 2.2-1.4 4.3-2.8 6.7-4zm-5.7-4c-.5 4.2-1 8.6-3.5 12.2-2.3 3.4-5.7 5.8-8.9 8.2-.5-.3-1.1-.6-1.6-.9.1-1 0-2 .1-3 .1-1.2.5-2.3 1-3.4 3-5.6 7.3-10.1 12.9-13.1zm-8-3.6c.7 2.5 1.4 5.7.4 8.1v.2c-2.4 2.4-4.5 5.1-5.9 8.3-.1.1-.1.2-.2.4.9-3.3 1.1-6.8.7-10.2.1 0 .1 0 .1-.1 1.4-2.5 2.8-4.8 4.9-6.7zm-8-1.3c3.8 7.3 3.7 16.1-.3 23.4v.2c-.8-.2-1.6-.4-2.4-.5-3.1-8-1.6-16 2.7-23.1zm-10.3-.3c1.1 1.6 2.2 3.1 3.2 4.8 1.3 2.1 1.8 4.2 2.3 6.5v.1c-.6 4.1-.3 8.2 1.6 12-.9-.1-1.8 0-2.6.1-.4-5.4-2.5-10.7-5.4-15.4 0-2.9.1-5.5.9-8.1zm-5.9 2c.5.6 3.9 5.1 4.5 6.2 2.9 4.8 4.3 9.9 5.5 15.2-.9.1-1.8.4-2.6.7-.9-3.9-3.6-7.7-6.3-10.6-.4-.5-.9-.9-1.3-1.3-.2-2.9 0-7.5.2-10.2zm-4.7 16.6c-.8-1.1-4.5-6.5-4.5-11.4 3.5 1.1 8.8 5.7 8.9 5.7.5.4.9.9 1.4 1.4 2.8 3.1 4.4 6.5 6.2 10.2-1.1.6-2.1 1.3-3 2.4-1.4-1.3-3.2-2.1-4.6-3.4-1.7-1.6-3.2-3.2-4.4-4.9zm-7.5 4.6c-1.8-1.6-3.4-3.3-5-5.1 5.2-.2 10 1.2 14.5 3.9h.1c.6.6 1.1 1.2 1.8 1.7 1.4 1.2 3.1 2.7 4.8 3.2l-.1.1c-.6.8-1.1 1.8-1.4 2.8-2.5-1.3-5.2-2.1-8-2.4-2.4-1.2-4.6-2.4-6.7-4.2zm4.7 10.2c-1.6-.4-3.2-1-4.7-1.8-.9-.5-3-1.8-4.3-2.7 1.4-.4 3.5-.9 4.6-1.1 1.6-.2 3.2-.2 4.7-.1 3.4.2 6.5 1.2 9.6 2.3-.4 1.3-.6 2.6-.7 4-3.1.4-6.2.2-9.2-.6zm-12.2 4.7c4.1-2.8 8.7-4 13.6-3.9 2.5.5 5.2.7 7.8.5 0 .8.1 1.7.2 2.5-7 2.3-14.4 2.7-21.6.9zm1.9 9.4c.5-1 1.9-3.3 2.6-4.1 1.5-1.8 3.3-3 5.6-3.6 3.9-.1 7.9-.8 11.6-2.2.1.6.3 1.2.5 1.7-2.9 1.1-5.5 2.8-7.7 5h-.1c-3.5 1.7-9.9 2.6-12.5 3.2zm6.4 9c1.9-7.7 7.1-13.3 14.1-16.9.2.4.3.8.6 1.1.5.9 1.2 1.6 1.9 2.2-1.8 3.3-3.8 6.1-7.1 8.1-3.1 2-6.3 3.7-9.5 5.5zm9.5 4.1c-.8.6-3 2.3-3.4 2.6-.2 0 .2-5 .4-6 .4-1.8 1.2-3.4 2.3-4.9.7-.4 1.4-.9 2.1-1.3 2.9-2 4.6-4.6 6.2-7.6.4.3.9.6 1.4.8-2.9 2.4-4.1 6.8-4.9 10.2-.2.8-.3 1.6-.5 2.4-.1 0-.1 0-.2.1-.8 1.6-2.1 2.6-3.4 3.7zm4 6.2c-.8-7.7.2-16.4 5.2-22.6 1.4.6 2.9.9 4.4.9-.4 4.2-1.4 8.3-3.2 12.1-1.6 3.7-4 6.6-6.4 9.6zM84.3 60c.1 2.6.5 5.2 1.2 7.8-.7 2.9-2.2 8-3.3 10.4-1.9-2.3-2.6-4.9-2.5-6.9 2.2-3.4 3.8-7.4 4.6-11.3z"/><path class="st1" d="M68.5 69.9c4.7-4.9 8.3-10.9 10.9-17v-.2c0-.3.1-.6.1-1 .3-.2.6-.4.9-.5-.2.7-.4 1.5-.5 2.2 0 .1.1.1.1 0 .2-.8.5-1.6.7-2.4.1-.1.2-.1.3-.2.3-.2.7-.3 1-.5-.3.5-.6 1-.8 1.5-.4.3-.7.5-1 .8-.1.1 0 .2.1.1.3-.1.5-.3.7-.5-.1.4-.2.7-.2 1.1 0 .1.2.1.2 0 .1-.4.1-.9.2-1.3.2-.2.5-.4.7-.5.2-.1.4-.3.6-.4-.2.4-.3.9-.4 1.3l-.9.6c-.1.1 0 .2.1.2.3-.1.5-.2.7-.4v.6c0 .1.2.1.2 0 0-.3.1-.5.1-.8.2-.1.3-.2.5-.3.2-.1.3-.2.5-.3-.1.3-.2.7-.2 1-.2.1-.5.3-.5.5 0 0 0 .1.1.1h.2v-.1c.1 0 .2 0 .2-.1 0 .1 0 .3.1.4 0 .1.1.1.2 0v-.5c.1 0 .2-.1.3-.1.2-.1.3-.2.5-.2-.1.3 0 .5.1.8-.1 0-.1.1-.2.1-.1.1 0 .2.1.2.3-.1.6-.2 1-.4v.1c0 .1.2.1.2 0v-.1c.2-.1.5-.2.7-.3-.1.2-.1.5-.1.7 0 .1.1.1.1 0 .1-.3.1-.6.3-.9.2-.1.5-.2.7-.4.1-.1 0-.3-.1-.2-.1.1-.3.1-.4.2 0-.1-.1-.1-.2 0v.1c-.3.1-.6.2-.8.4 0-.2.1-.5.2-.7 0-.1-.1-.2-.1-.1-.2.3-.2.6-.3.9-.2.1-.5.2-.7.4 0-.3-.1-.5 0-.8.1 0 .1-.1.2-.1.6-.3 1.2-.6 1.9-1 .1-.1 0-.3-.1-.2l-1.8.9c.1-.2.2-.3.3-.5.1-.1 0-.2-.1-.1-.2.2-.3.4-.4.7-.1.1-.2.1-.3.2-.1.1-.3.1-.5.2 0-.4.1-.7.1-1l.9-.6c.1-.1 0-.3-.1-.2-.2.1-.5.3-.7.4 0-.1.1-.3.2-.4 0-.1-.1-.1-.1-.1l-.3.6-.9.5c-.1.1-.2.1-.3.2.1-.4.2-.9.3-1.3.3-.2.6-.4 1-.5.1 0 0-.1-.1-.1-.3.1-.5.2-.8.4v-.1c0-.1-.1-.1-.1-.1 0 .1-.1.1-.1.2-.5.2-.9.5-1.4.7.2-.5.3-1 .6-1.4.4-.2.7-.4 1.1-.6.1 0 0-.2-.1-.1l-2.4 1.2c.2-.5.3-1 .6-1.6.2-.1.4-.1.6-.2.1 0 0-.2 0-.1-.1 0-.3.1-.4.1.1-.3.2-.6.4-.9 0 0 0-.1-.1 0-.2.3-.3.6-.5.9-.4.1-.8.3-1.3.4.3-.9.6-1.8 1-2.6 0 0-.1-.1-.1 0-.4.9-.9 1.8-1.2 2.8-.3.1-.6.3-.9.5.1-.7.2-1.3.4-1.9.4-.2.7-.4 1.1-.6.1 0 0-.1 0-.1-.3.1-.7.3-1 .4.1-.6.3-1.1.5-1.7l.2-.1c.1 0 0-.2-.1-.1h-.1c.3-.7.6-1.4 1-2.1 0 0 0-.1-.1 0-.4.7-.8 1.5-1.1 2.3-.3.1-.6.3-.9.4.2-.6.5-1.2.8-1.8.2-.1.5-.2.7-.3.1 0 0-.1 0-.1-.2.1-.4.2-.6.2.3-.5.5-1 .8-1.5.3-.1.6-.2.8-.3.1 0 0-.1 0-.1-.3.1-.5.2-.8.3.3-.5.5-.9.8-1.3.3-.1.7-.1 1-.2.1 0 .1-.2 0-.1-.3 0-.6 0-.9.1l.9-1.2c.6 0 1.3-.1 1.9-.1.1 0 .1-.1 0-.1h-1.7c.5-.7 1.1-1.4 1.7-2 .5-.1 1-.2 1.4-.3l-.3.3s0 .1 0 0c.1-.1.3-.2.4-.4.6-.1 1.3-.2 1.9-.3l-.3.3s0 .1.1.1c.1-.1.2-.3.4-.4 1.1-.1 2.3-.2 3.4-.2 0 0 0 .1.1 0h1.7c-.2.1-.4.3-.5.4-1.9 0-3.8.3-5.7.8v.1c2.9-.7 5.7-.9 8.6-.5.1 0 .1-.1 0-.1-1-.1-1.9-.2-2.9-.2.2-.2.5-.4.7-.5h1.2c.2 0 .2-.2 0-.2h-.5c.1 0 .2 0 .3-.1.1 0 .1-.1 0-.1-.3 0-.5.1-.8.2h-1.6c.6-.4 1.1-.6 1.7-1 .1 0 0-.1 0-.1-.1 0-.2.1-.3.1 0 0 0-.1-.1-.1-.5 0-1-.1-1.5-.1.3-.2.6-.3.9-.5.1 0 0-.2-.1-.1-.4.2-.8.4-1.1.6h-1.5c.3-.2.6-.4.9-.5h1.3c.1 0 .1-.1 0-.1-.4 0-.7-.1-1.1-.1.1-.1.2-.1.3-.2.1 0 0-.2-.1-.1l-.6.3h-1.5c.5-.3.9-.6 1.4-.9h.1c.1 0 .1-.1 0-.1h-.7V34c.9-3.3 1.6-6.6 2.7-9.8 1.1-3.5 2.5-6.8 4.1-10.1-3.1 6.1-6.1 13-7.1 19.9v.2h-1c.2-.1.3-.2.5-.4v-.1c-.2.1-.5.3-.7.4-.5 0-1 .1-1.5.1.3-.2.6-.5 1-.7.1 0 0-.1-.1-.1-.5.3-.9.6-1.4.9-.3 0-.6.1-.8.1l1.2-.9h.4c.1 0 .1-.2 0-.2h-.1s.1 0 .1-.1c.2.1.4.1.4-.2 0-7.3.5-14.5 1.7-21.7 0 0-.1-.1-.1 0-1.3 7.2-2.1 14.5-2.1 21.8 0 .1 0 .1.1.2l-.1.1H86c.1-.1.2-.1.3-.2v-.1c-.2.1-.4.2-.6.2-.6 0-1.2.1-1.7.2l.9-.6c-.4.2-.7.5-1.1.7-1 .2-1.9.4-2.9.8.3-.3.7-.6 1.1-.9 0 0 0-.1 0 0-.4.3-.9.7-1.3 1-1 .4-1.9.8-2.8 1.4 0 0 0 .1 0 0 .8-.4 1.5-.7 2.3-1L79 36.1c-.8.3-1.5.6-2.2.9-.1 0 0 .1 0 .1.6-.3 1.3-.5 1.9-.8-.3.3-.5.6-.8.9-.6.2-1.1.5-1.7.8v.1c.4-.2.8-.3 1.3-.4-.2.3-.5.6-.7.9-.4.2-.7.3-1.1.5-.1 0 0 .1.1.1.3-.1.6-.2.9-.4-.7 1.1-1.4 2.2-1.9 3.3 0 .1.1.2.2.1.1-.2.2-.4.3-.5.4-.1.7-.2 1.1-.3-.3.6-.5 1.1-.8 1.7-.2.1-.3.1-.4.2-.1 0 0 .2.1.1.1 0 .2-.1.3-.1-.2.6-.4 1.2-.5 1.9-.2.1-.3.2-.5.4v.1c.1-.1.3-.2.4-.3 0 .2-.1.4-.1.6 0 .1.1.1.1 0 .1-.2.1-.5.2-.7l.6-.3c-.3.8-.5 1.6-.6 2.4 0 .2.2.2.3.1 0-.1.1-.3.1-.4.1-.2.3-.4.6-.6-.3.7-.5 1.5-.8 2.3 0 .1.2.2.2.1.3-.9.6-1.7 1-2.5.2-.1.5-.2.7-.3-.3.6-.5 1.3-.7 1.9-.3.2-.9.4-.7.8 0 .1.2 0 .1-.1 0-.2.2-.4.5-.6-.2.6-.4 1.2-.5 1.7 0 .2.2.2.2.1.2-.7.4-1.3.6-2 .4-.2.9-.4 1.1-.5.1 0 .2-.1.3-.1-.2.6-.4 1.1-.5 1.7-.5.3-.9.6-1.3.9-.1.1 0 .1.1.1.4-.2.7-.4 1.1-.6-.2.6-.3 1.2-.4 1.8 0 0-.1 0-.1.1-4.5 4.5-9.2 8.7-14 12.8 0 0 0 .1 0 0 5.1-3.8 9.8-8.1 14.3-12.5.1-.1.1-.2 0-.3.1-.7.3-1.4.5-2.1.1-.1.3-.2.4-.2.2-.1.3-.2.5-.3-.2.7-.3 1.3-.4 2-.2.1-.3.2-.5.4-.1.1 0 .2.1.1s.2-.1.3-.2c-.1.6-.1 1.2-.1 1.8 0 .2.3.2.3 0 0-.7 0-1.3.1-2 .3-.2.6-.3.9-.5-.2.5-.3 1-.4 1.6-.2.2-.4.4-.4.7 0 .1.1.1.1 0 .1-.1.1-.2.2-.3v.6c-.1 0-.1 0-.2.1-2.4 6-6.1 11.5-10.3 16.9-.1 0 0 .1 0 0zm10.8-25.1c-.5.2-.9.4-1.4.6.3-.6.5-1.1.8-1.7.4-.1.9-.3 1.3-.4-.2.4-.5 1-.7 1.5zm4.8-9.4c-.4.1-.9.2-1.3.3.3-.3.6-.5 1-.8.4-.1.9-.2 1.3-.2-.4.2-.7.4-1 .7zm1.2-.8c.3 0 .5-.1.8-.1-.3.2-.7.5-1 .8-.2 0-.5.1-.7.1.3-.3.6-.6.9-.8zm-.1 1c.4-.1.9-.1 1.3-.2-.2.2-.5.4-.7.6-.4.1-.9.1-1.3.2.3-.2.5-.4.7-.6zm-1.3.7c-.2 0-.4.1-.6.1.2-.2.4-.4.7-.6.2 0 .5-.1.7-.1-.4.2-.6.4-.8.6zm-2.1-.5-.9.3.8-.8c.3-.1.7-.2 1-.3-.3.3-.6.6-.9.8zm1.7.1c-.2.2-.5.4-.7.6-.5.1-1 .2-1.5.4l.7-.7 1.5-.3zm0 .8c-.5.5-.9.9-1.3 1.4-.2.1-.4.1-.6.2.4-.5.9-1 1.3-1.4.1-.1.4-.1.6-.2zm-3.1.5-.9.3c.2-.3.4-.5.7-.8l.9-.3c-.2.3-.4.6-.7.8zm.5.1c.5-.1 1-.3 1.5-.4-.5.5-.9 1-1.4 1.5-.5.1-1 .3-1.5.5.5-.5.9-1.1 1.4-1.6zm-2 1.8c-.3.1-.6.2-.8.3.4-.5.8-1.1 1.2-1.6.3-.1.6-.2.8-.3-.4.6-.8 1.1-1.2 1.6zm-.2.3c-.3.4-.5.8-.8 1.3-.2.1-.5.1-.7.2.2-.4.5-.8.7-1.2.3-.1.6-.2.8-.3zm-.5 1.4c.4-.1.8-.2 1.2-.2-.3.5-.6.9-.9 1.4-.4.1-.7.2-1.1.3.2-.5.5-1 .8-1.5zm1.6-.3c.2 0 .4 0 .5-.1-.3.4-.6.9-.9 1.3-.2 0-.4.1-.6.1.4-.4.7-.8 1-1.3zm-1.5 1.8c-.3.6-.7 1.2-1 1.8-.3.1-.5.2-.8.3.2-.6.5-1.2.7-1.8.4-.1.7-.2 1.1-.3zm.4-.1c.2-.1.4-.1.6-.1-.3.5-.6 1.1-.9 1.7-.2.1-.4.1-.6.2.2-.6.6-1.2.9-1.8zm1.4.9c-.5.2-.9.3-1.3.5.3-.6.6-1.1 1-1.6.4-.1.8-.2 1.2-.2-.4.4-.6.9-.9 1.3zm1-1.6c-.4.1-.8.1-1.2.2.3-.4.6-.9.9-1.3.4 0 .7-.1 1.1-.1-.3.4-.6.8-.8 1.2zm-1.5-1.2-1.2.3c.3-.5.6-.9.9-1.3.5-.2 1-.3 1.4-.4-.4.4-.8.9-1.1 1.4zm1-.2c-.2 0-.4.1-.5.1.4-.5.8-1.1 1.2-1.6.2-.1.4-.1.6-.2-.5.6-.9 1.2-1.3 1.7zm1.5-.1c-.4 0-.7 0-1.1.1.5-.6.9-1.2 1.4-1.8.4-.1.8-.2 1.3-.3-.5.7-1.1 1.3-1.6 2zm2-2.3c-.4.1-.9.2-1.3.3.4-.5.9-.9 1.4-1.4.4-.1.9-.2 1.3-.2-.6.4-1 .8-1.4 1.3zm.5-.1 1.3-1.3c.5-.1 1-.1 1.5-.2-.5.4-.9.8-1.4 1.2-.4.1-.9.2-1.4.3zm1.6-.3 1.5-1.2c.5 0 1-.1 1.6-.1-.4.3-.8.7-1.2 1.1-.7 0-1.3.1-1.9.2zm4-.6c.4-.3.8-.6 1.2-.8h1.7c-.5.2-1 .6-1.4.9-1.1 0-2.3.1-3.4.2.4-.4.9-.8 1.3-1.1h1.6c-.4.3-.7.5-1 .8-.1 0 0 .1 0 0zm-3.9-.8c.2-.2.5-.4.7-.6.5-.1 1.1-.1 1.6-.1-.3.2-.5.4-.8.6-.5 0-1 .1-1.5.1zm3.3-.2c-.5 0-1 0-1.5.1.3-.2.5-.4.8-.6h1.5c-.2.1-.5.3-.8.5zM87 35c-.4 0-.9.1-1.3.1.3-.3.6-.5.9-.8.5-.1 1-.1 1.5-.2-.3.4-.7.6-1.1.9zm1.5-.8c.6-.1 1.2-.1 1.8-.1-.5.3-.9.6-1.4.9h-1.5c.4-.3.7-.6 1.1-.8zm-1.6-.9c-.5.3-.9.6-1.3.9-.4.1-.8.1-1.3.2.5-.4 1-.7 1.6-1.1.3.1.6 0 1 0zm-1.6.2c-.7.3-1.4.8-2 1.2l-1.2.3c.5-.4 1-.8 1.6-1.2.5-.2 1-.3 1.6-.3zm-4.6 1.1c.9-.3 1.8-.6 2.8-.8-.6.4-1.1.8-1.7 1.3-.8.2-1.5.5-2.3.7l1.2-1.2zm-1.4 1.5c.7-.2 1.4-.5 2.1-.6-.3.3-.6.5-.9.8-.7.2-1.3.4-1.9.7.2-.4.4-.7.7-.9zm-1.1 1.3c.5-.2 1.1-.4 1.6-.5-.3.3-.5.5-.7.8-.5.2-1.1.4-1.6.6.2-.3.4-.6.7-.9zm-.9 1.2c.5-.2 1-.4 1.5-.5-.4.5-.8 1-1.2 1.6-.4.2-.8.3-1.2.5.2-.6.6-1.1.9-1.6zm-1.7 2.8c.2-.4.4-.7.6-1.1.4-.2.8-.3 1.2-.5-.2.4-.5.8-.7 1.2-.4.2-.7.3-1.1.4zm1.5-.3c.2-.1.5-.1.7-.2-.3.5-.6 1-.8 1.6-.2.1-.5.2-.7.3.2-.6.5-1.2.8-1.7zm-1.6 3.8c.2-.6.4-1.3.6-1.9.2-.1.5-.2.7-.2-.3.6-.5 1.2-.7 1.8-.1 0-.4.1-.6.3zm1 1c-.2.1-.4.2-.6.4.2-.6.3-1.2.5-1.8.3-.1.5-.2.8-.3-.2.5-.5 1.1-.7 1.7zm.4-.1c.3-.6.5-1.2.8-1.7.2-.1.4-.2.6-.2-.3.6-.5 1.1-.8 1.7-.2 0-.4.1-.6.2zm.2 1.6c.2-.6.5-1.3.8-1.9.1 0 .1 0 .2-.1.4-.2.8-.3 1.2-.5-.3.6-.5 1.2-.7 1.8-.6.2-1.1.5-1.5.7zm1.1 1.1c.2-.6.4-1.1.6-1.7.3-.1.6-.3.9-.4-.2.5-.4 1.1-.6 1.7-.4.1-.7.2-.9.4zm1.7 1.3c.4-.2.8-.4 1.3-.6-.2.5-.5 1.1-.7 1.6-.2.1-.3.2-.5.2-.2.1-.3.2-.5.2.1-.3.3-.9.4-1.4z"/><path class="st1" d="M96 39.1c.1 0 .1-.1 0-.1-1.3-.5-2.6-.6-4-.3 1.4-.2 2.7 0 4 .4z"/><path class="st1" d="M96 38.4c7.1-3.6 13.9-7.5 20.6-11.7-6.8 4-13.8 7.7-20.9 11.2-.3.2-.1.7.3.5z"/><path class="st1" d="M92.1 34.7c5-5.7 9.2-12.1 12.4-19 0 0 0-.1 0 0-3.5 6.7-7.8 12.9-12.8 18.6-.2.2.2.6.4.4z"/><path class="st1" d="M94.5 36.4c4.8-5.9 11.8-10 15.8-16.6 0 0 0-.1 0 0-4.2 6.6-11.3 10.3-16.1 16.3-.3.2.1.6.3.3z"/><path class="st1" d="M84.2 32.6c.1.2.3.1.3-.1-.5-2.6-.1-5.3-.5-8-.3-2.2-.8-4.3-1.5-6.4 0 0-.1 0 0 0 .8 2.6 1.3 5.2 1.5 7.8.1 1.8 0 3.6.1 5.4-1.1-6.5-2.7-12.8-4.8-19 2 6.7 3.5 13.4 4.6 20.2-.1.3.3.3.3.1z"/><path class="st1" d="M81.8 33.2c-.8-6.7-3.5-13.2-8-18.3 4.2 5.4 6.9 11.5 7.6 18.3 0 .3.4.3.4 0z"/><path class="st1" d="M78.9 34.5C74 29.4 69.5 24 65.3 18.4h-.1c4 5.8 8.5 11.3 13.3 16.4.3.3.6 0 .4-.3z"/><path class="st1" d="M76 38.1c-5.6-3.9-11.6-7.3-18-9.9 0 0-.1 0 0 .1 6.2 3 12.1 6.3 17.8 10.2.2.1.4-.3.2-.4z"/><path class="st1" d="M75 40.9c-5.5.1-10.8-1.2-16.2-2.4-.1 0-.1.1 0 .1 5.3 1.5 10.7 2.7 16.2 2.7.3 0 .3-.4 0-.4z"/><path class="st1" d="M74.7 45.1c.3-.1.2-.5-.1-.4-6.3 1.2-12.6 1.8-19 2.4v.1c6.4 0 12.9-.9 19.1-2.1z"/><path class="st1" d="M75.4 48c.3-.1.2-.6-.1-.4-5.9 2.4-11.8 4.9-17.6 7.6v.1c5.9-2.5 11.8-4.9 17.7-7.3z"/><path class="st1" d="M76 73.5c3.7-5.8 7.3-11.9 7.4-19 0-.3-.5-.3-.5 0-.1 7-3.6 13.1-6.9 19-.1 0 0 0 0 0z"/><path class="st1" d="M82.3 74.4c.6-2.5 1.2-5.1 1.6-7.7.1-.6.2-1.2.4-1.9.1 2.1 0 4.1-.3 6.2 0 .1.1.1.1 0 .4-2.3.6-4.7.3-7 .2-1.2.3-2.5 0-3.7 0-.2-.4-.2-.4 0 .3 2.5-.3 4.9-.8 7.3L82 74.2c.1.2.3.3.3.2z"/><path class="st1" d="M97 42c7.4-2.3 14.8-3.3 22.5-3.6.1 0 .1-.1 0-.1-7.6-.3-15.4 1-22.6 3.3-.2.1-.1.5.1.4z"/><path class="st1" d="M118.4 45.7c.1 0 .1-.1 0-.1-3.5 0-7.1 0-10.6-.3-3.5-.3-7-.9-10.5-1.2-.2 0-.3.3-.1.4 6.8 1.6 14.3 1.5 21.2 1.2z"/><path class="st1" d="M117.3 54.3c-4-.5-7.9-1.2-11.8-2-3.5-.8-7.2-1.6-10.1-4-.2-.2-.5.1-.3.3 2.8 2.2 6.1 3.1 9.5 3.8 4.2.9 8.4 1.6 12.6 2 .2 0 .2-.1.1-.1z"/><path class="st1" d="M113.7 64.8c-5.7-5.7-12.1-11.3-19.5-14.6-.2-.1-.4.2-.2.3 7.6 3.4 13.4 9 19.7 14.3 0 .1.1 0 0 0z"/><path class="st1" d="M108.9 69.7c-5.7-5.9-11.6-11.6-17.2-17.6-.2-.2-.6.1-.3.3 5.5 6 11.2 12.1 17.4 17.4 0 .1.1 0 .1-.1z"/><path class="st1" d="M102.9 75.6c-2.3-3.6-4.9-7-7.1-10.6-.7-1.1-1.2-2.2-1.8-3.3 2.1 2.6 4.3 5.1 6.4 7.7 0 0 .1 0 .1-.1-2.2-2.9-4.5-5.7-6.8-8.5-1.2-2.6-2.2-5.2-3.3-7.9-.1-.2-.4-.1-.3.1.6 2.7 1.6 5.4 2.9 7.9-.3.9.9 2.8 1.2 3.6 1 2.3 2.3 4.4 3.9 6.4 0 .1.2 0 .1-.1-1-1.5-2-3-2.8-4.6-.5-1-1-2-1.4-3.1-.1-.3-.5-1.1-.7-1.6 2.7 5.1 6.3 9.8 9.6 14.1 0 .1.1 0 0 0z"/><path class="st1" d="M90.9 75.7c.5-7.3-.5-15.1-3.3-21.8-.1-.2-.5-.2-.4.1 2.4 7.1 3.8 14.1 3.7 21.7z"/><path class="st1" d="M88.6 32.9c2.1-5.4 2.7-11.1 1.8-16.8.7 5.7 0 11.4-2.1 16.7-.1.2.2.3.3.1z"/><path class="st1" d="M86.8 32.1c-.7-4-1.5-8.8 0-12.7-1.5 3.8-1.1 8.8-.2 12.8.1.1.2.1.2-.1z"/><path class="st1" d="M91.1 33.7c.9-5.4 4.5-9.4 8.1-13.2-3.7 3.7-7.5 7.7-8.3 13.1 0 .2.2.3.2.1z"/><path class="st1" d="M93.4 34.1c3.6-2.6 6.3-6.3 8.1-10.3-2 4-4.8 7.3-8.2 10.2-.1 0 0 .1.1.1z"/><path class="st1" d="M95.1 37.8c3.8-3.9 8.2-6.1 13.3-8.1v-.1c-4.8 1.9-10.2 3.8-13.4 8.1 0 .1.1.2.1.1z"/><path class="st1" d="M114.5 30.1s0-.1 0 0c-5.3 3.8-10.9 6.3-16.8 8.8-.1 0 0 .2.1.2 6-1.7 11.7-5.3 16.7-9z"/><path class="st1" d="M97 41.5c5.8-2.6 12-4 18.4-4.3-6.4.2-12.7 1.6-18.5 4.2-.2 0-.1.2.1.1z"/><path class="st1" d="M115.5 39.4c-6 1.8-12.4 1.2-18.4 2.9-.1 0-.1.2.1.2 6-1.8 12.4-.9 18.3-3.1z"/><path class="st1" d="M115.5 44.8c.1 0 .1-.1 0-.1-6.1-1.5-12.6-3.1-18.8-1.5-.1 0-.1.2.1.2 6.3-1.1 12.4 0 18.7 1.4z"/><path class="st1" d="M112 47.7c.1 0 .1-.1 0-.1-5.1.4-9.9-1-14.9-1.9-.1 0-.2.1 0 .2 4.8 1.3 9.9 2.2 14.9 1.8z"/><path class="st1" d="M102.6 25.9c1.1-1.3 2.4-2.4 3.8-3.3-1.5.8-2.8 1.9-3.9 3.2-.1 0 0 .1.1.1z"/><path class="st1" d="M105.7 27.5c1.1-.9 2-2.2 2.6-3.5-.7 1.3-1.7 2.3-2.7 3.4 0 .1.1.2.1.1z"/><path class="st1" d="M92.3 21.4c.5-2.4 1.4-4.6 2.9-6.6-1.6 1.9-2.6 4.1-3.1 6.5-.1.2.2.3.2.1z"/><path class="st1" d="M95.6 21.2c.5-1.2.8-2.6 1-3.9h-.1c-.2 1.3-.6 2.6-1.1 3.9.1 0 .2.1.2 0z"/><path class="st1" d="M80.7 22.5c-.2-1.5-.7-3-1.4-4.5h-.1c.6 1.5 1.1 3 1.3 4.5.1.1.2.1.2 0z"/><path class="st1" d="M82.7 33c-.7-5.5-2.5-10.7-5.5-15.4h-.1c2.8 4.7 4.6 9.9 5.3 15.4.1.1.4.1.3 0z"/><path class="st1" d="M81.1 33.2c-1.5-4.9-3.6-9.6-6.5-13.9h-.1c2.7 4.3 4.8 9 6.3 13.9 0 .3.3.2.3 0z"/><path class="st1" d="M79.3 33.3c-2.5-4.6-5.9-8.7-9.8-12.2 0 0-.1 0 0 0 3.9 3.6 7.1 7.7 9.7 12.2 0 .2.2.1.1 0z"/><path class="st1" d="M75.7 33.5c-3.6-3.7-6.8-7.6-9.2-12.1h-.1c2.3 4.5 5.4 8.8 9.2 12.2.1.1.2 0 .1-.1z"/><path class="st1" d="M75.8 36.8c-4.3-2.9-8.7-5.5-13.2-7.9 0 0-.1 0 0 .1 4.5 2.5 8.9 5.2 13.2 8 0 0 .1-.1 0-.2z"/><path class="st1" d="M69 36c-2.9-1.4-5.6-2.9-8.3-4.7 0 0-.1 0 0 .1 2.6 1.8 5.3 3.5 8.2 4.8.2 0 .2-.2.1-.2z"/><path class="st1" d="M74.6 40.5c-4-1.6-8.1-2.5-12.4-2.7v.1c4.3.4 8.4 1.3 12.4 2.9.1 0 .1-.2 0-.3z"/><path class="st1" d="M73.7 43c.1 0 .1-.1 0-.2-4.6-.3-8.9-1-13.2-2.7 0 0-.1.1 0 .1 4.2 1.7 8.7 2.9 13.2 2.8z"/><path class="st1" d="M67.4 44.4c.1 0 .1-.1 0-.1-2.6-.1-5.2.5-7.6 1.4-.1 0 0 .1 0 .1 2.5-.9 5-1.2 7.6-1.4z"/><path class="st1" d="M74.7 45.7c.1 0 .1-.3-.1-.2-3.2.9-6.4 1.7-9.7 2.2-.1 0 0 .1 0 .1 3.4-.5 6.6-1.2 9.8-2.1z"/><path class="st1" d="M59.5 53.3c2.4-1.8 5-3.1 7.9-4 .1 0 .1-.2 0-.1-2.9.8-5.6 2.2-7.9 4.1-.1 0 0 .1 0 0z"/><path class="st1" d="M72.6 49.6c.1 0 0-.1 0 0-1.5 1-2.8 2-4.4 2.7-1.4.7-3 1.2-4.4 2.1 0 0 0 .1 0 0 3.1-1.6 6.2-2.4 8.8-4.8z"/><path class="st1" d="M65 61.4c3.3-4.3 6.4-8.2 11.1-11.1.1-.1 0-.2-.1-.2-4.8 2.2-8.3 7-11 11.3-.1 0-.1 0 0 0z"/><path class="st1" d="M70.9 59.1c1.7-1.2 3.4-2.6 4.9-4.1.1-.1 0-.2-.1-.1-1.6 1.4-3.2 2.8-4.9 4.1l.1.1z"/><path class="st1" d="M68.8 67.6c1.8-3.5 3.8-6.7 6.2-9.8 0 0 0-.1-.1-.1-2.5 2.9-4.7 6.2-6.3 9.7 0 .2.2.3.2.2z"/><path class="st1" d="M71.6 67.6c1.5-1.1 2.9-2.7 3.6-4.4 0-.1 0-.1-.1 0-1 1.6-2.1 3-3.5 4.4-.2 0-.1.1 0 0z"/><path class="st1" d="M76.2 69.3c.6-5.7 2.2-10.8 5.6-15.4 0 0 0-.1-.1 0-3.5 4.3-5.7 9.9-5.7 15.5.1 0 .2 0 .2-.1z"/><path class="st1" d="M78.4 65.7C80 62 81.5 58 82.6 54.1c0-.1-.1-.1-.1 0-1.3 3.9-2.7 7.8-4.3 11.6 0 .1.2.1.2 0z"/><path class="st1" d="M80.9 71.9c.4-2.1.8-4.1 1.4-6.2 0 0-.1-.1-.1 0-.6 2-1.2 4.1-1.3 6.2-.1 0 0 0 0 0z"/><path class="st1" d="M90 71.5c-3-5.3-4.1-11-3.8-17 0-.2-.2-.2-.2 0-.8 5.9.8 11.9 4 17 0 .1 0 0 0 0z"/><path class="st1" d="M92.4 68.3c-.5-4.9-.5-10.5-3.6-14.5-.1-.1-.2 0-.2.1 2.9 4.4 2.6 9.4 3.8 14.4z"/><path class="st1" d="M103.3 67c-4.8-4-8.7-8.9-11.8-14.3-.1-.2-.4 0-.3.2 3 5.5 7.1 10.3 12.1 14.1 0 .1 0 .1 0 0z"/><path class="st1" d="M106.8 65.1c-3.6-4.8-7.6-10.3-13.4-12.6-.1 0-.1.1-.1.1 5.7 3.1 9.7 7.6 13.5 12.5 0 .1.1.1 0 0z"/><path class="st1" d="M110.2 60.3c-1.8-2.5-4.4-4.3-7.1-5.8-.1-.1-.2.1-.1.1 2.6 1.6 5.2 3.2 7.2 5.7-.1.1 0 0 0 0z"/><path class="st1" d="M110.5 63.5c-1-.6-1.8-1.3-2.7-2-.1 0-.1 0-.1.1.7.9 1.8 1.5 2.8 1.9 0 .1 0 0 0 0z"/><path class="st1" d="M113.4 52.2c-5.9-1.9-11.8-3.3-17.9-4.4-.1 0-.2.2 0 .2 6 1 12 2.5 17.9 4.2z"/><path class="st1" d="M105.9 53.9c-2.1-.2-3.9-.7-5.8-1.6-.1 0-.1.1-.1.1 1.9 1 3.9 1.5 5.9 1.5.1 0 .1 0 0 0z"/></g></svg>