<svg width="32" height="32" viewBox="0 0 32 32" fill="none" xmlns="http://www.w3.org/2000/svg"><rect width="32" height="32" rx="16" fill="white"/><g clip-path="url(#clip0_283_4174)"><path d="M24.71 12.404c-.04-.927-.19-1.565-.405-2.117a4.26 4.26 0 0 0-1.01-1.548 4.296 4.296 0 0 0-1.545-1.01c-.554-.215-1.19-.365-2.116-.406-.934-.044-1.23-.054-3.6-.054s-2.667.01-3.598.05c-.927.042-1.565.192-2.117.407a4.26 4.26 0 0 0-1.55 1.01 4.298 4.298 0 0 0-1.007 1.542c-.215.555-.365 1.19-.406 2.117-.044.935-.054 1.232-.054 3.602s.01 2.665.05 3.596c.042.925.192 1.563.407 2.115a4.305 4.305 0 0 0 1.01 1.55c.437.443.966.787 1.545 1.005.556.214 1.19.364 2.118.405.93.04 1.228.05 3.597.05 2.37 0 2.666-.01 3.597-.05.927-.04 1.565-.19 2.117-.406a4.464 4.464 0 0 0 2.554-2.555c.215-.556.365-1.19.406-2.118.04-.932.05-1.23.05-3.598 0-2.37-.003-2.667-.043-3.598zm-1.57 7.127c-.04.855-.183 1.315-.302 1.62a2.895 2.895 0 0 1-1.66 1.66c-.305.12-.77.26-1.617.3-.92.04-1.195.05-3.524.05s-2.608-.01-3.526-.05c-.853-.04-1.313-.18-1.62-.3a2.685 2.685 0 0 1-1.003-.652 2.713 2.713 0 0 1-.65-1.002c-.12-.307-.264-.77-.3-1.62-.042-.92-.052-1.197-.052-3.526 0-2.33.01-2.61.05-3.526.038-.853.18-1.313.3-1.62.14-.378.362-.723.656-1.002a2.71 2.71 0 0 1 1.004-.65c.307-.12.77-.263 1.62-.3.92-.042 1.197-.052 3.525-.052 2.33 0 2.607.01 3.524.05.853.038 1.313.18 1.62.3.378.14.723.36 1.002.65.29.285.512.626.652 1.004.118.307.26.77.3 1.62.04.92.05 1.197.05 3.525 0 2.33-.01 2.6-.052 3.52z" fill="#1A232D"/><path d="M16.033 11.518a4.485 4.485 0 0 0 0 8.968 4.485 4.485 0 0 0 0-8.968zm0 7.392a2.91 2.91 0 1 1 0-5.818 2.91 2.91 0 0 1 0 5.818z" fill="#1A232D"/><path d="M21.74 11.34a1.047 1.047 0 1 1-2.093 0 1.047 1.047 0 0 1 2.094 0z" fill="#1A232D"/></g><defs><clipPath id="clip0_283_4174"><rect width="17.455" height="17.455" fill="white" transform="translate(7.27295 7.27271)"/></clipPath></defs></svg>