<svg width="32" height="32" viewBox="0 0 32 32" fill="none" xmlns="http://www.w3.org/2000/svg"><rect width="32" height="32" rx="16" fill="white"/><path fill-rule="evenodd" clip-rule="evenodd" d="M15.78 21.77H17s.366-.04.554-.244c.173-.186.167-.535.167-.535.003 0-.02-1.633.738-1.874.747-.238 1.706 1.58 2.724 2.28.77.53 1.354.413 1.354.413l2.72-.04s1.422-.09.747-1.21c-.054-.09-.39-.826-2.02-2.34-1.707-1.586-1.478-1.33.576-4.07 1.25-1.67 1.75-2.69 1.594-3.128-.147-.415-1.067-.305-1.067-.305l-3.062.02s-.226-.032-.395.07c-.164.098-.27.328-.27.328s-.485 1.293-1.13 2.392c-1.364 2.32-1.91 2.44-2.133 2.297-.517-.334-.388-1.347-.388-2.066 0-2.248.34-3.185-.663-3.427-.333-.08-.578-.134-1.43-.143-1.092-.01-2.016.004-2.54.26-.348.17-.617.552-.453.574.2.028.66.125.902.456.314.428.303 1.388.303 1.388s.18 2.647-.42 2.975c-.415.225-.98-.235-2.196-2.34a19.588 19.588 0 0 1-1.094-2.27s-.09-.22-.252-.34c-.196-.144-.47-.19-.47-.19l-2.91.02s-.437.01-.597.2c-.142.17-.01.52-.01.52s2.277 5.34 4.857 8.03c2.366 2.465 5.052 2.303 5.052 2.303z" fill="#1A232D"/></svg>