<svg width="3444" height="739" viewBox="0 0 3444 739" fill="none" xmlns="http://www.w3.org/2000/svg"><path d="m696.02 581.284 1.483-.577c-27.295 6.244-58.312 12.328-87.312 18.67l1.92-.497c-73.593 15.47-141.325 30.236-214.286 45.88 1.135-.262 1.517-.423 2.65-.697-3.513.835-7.35 1.818-11.34 2.64-1.038.162 1.055-.35 2.36-.648-15.52 2.85-45.214 9.842-54.905 11.56-4.32.96-6.22 1.545-3.74 1.158-57.094 12.196-118.235 25.213-176.365 37.845-2.802.536-3.337.535-2.627.236C104.288 708.04 52.07 718.816 1.14 729.48c-1.9.584 5.22-.912.248.335 16.39-3.24 29.863-6.765 44.792-9.593l-1.842.573c10.842-2.18 2.074-.885 13.338-3.04 4.472-.797-1.036.448 1.017.025 22.934-4.92 46.883-9.83 68.433-14.824 5.432-.76 24.66-5.206 33.218-6.652 5.892-1.395 11.878-2.627 14.105-3.35 80.33-16.793 162.31-34.518 244.6-51.897 38.345-8.856 84.65-17.763 130.268-27.668.345-.05.295-.007-.042.087 14.883-3.332 36.56-8.01 54.345-11.683l14.97-3.487c107.13-22.018 216.37-45.59 325.07-68.33 123.55-25.96 231.8-48.33 351.86-74.72-.15.103.82-.058-2.25.625 34.71-7.492 66.37-13.93 99.02-20.987l-.1.09c80.97-17.75 168.8-35.64 246.85-52.818 95.17-20.07 202.78-42.91 303.47-64.41l-.2.19c80.57-17.358 158.63-33.098 238.99-50.33 82.75-17.18 169.92-36.803 253.43-54.03 51.74-10.227 119.25-26.066 167.86-35.598 99.82-19.994 196.31-41.14 295.77-62.86 91.93-19.055 183.46-39.45 272.57-57.486 42.03-9.42 88.85-18.15 135.74-28.22l-1.69.173c16.97-3.03 37.37-8.684 48.02-10.114l-1.76.406c9.02-1.488 20.53-5.327 26.03-6l1.39-.5c10.8-2.343 1.3-.034 9.69-1.73 3.12-.684 1.11-.613 7.69-1.89 1.59.51 26.38-5.765 27.31-5.014-5.92 1.253 9.3-1.602-3.87 1.39 3.78-.697 21.88-4.583 20.15-4.617 1.45-.743 8.43-2.587-2.62-.578l-2.161.765c-3.771.488-2.831.437-4.241.508-14.361 2.993-16.381 2.976-26.731 4.97.12-.012.23-.026.06.022-6.98 1.855-16.76 3.696-22.35 4.834l-2.261.306c-3.431.361-16.201 4.137-11.941 2.618-29.18 6.335-62.66 13.41-95.29 20.325-4.511 1.192-25.001 5.267-17.741 4.186-8.251 1.22-32.591 6.245-41.581 8.17.329-.116.719-.255 2.089-.522-17.621 3.054-20.601 4.988-37.171 7.66-2.44 1.1-29.82 6.127-38.96 8.747-2.07.314-2.73.327-2.01.071-29.5 6.232-62.17 12.93-87.11 18.185-21.251 5.01-51.701 10.71-69.891 15.27-15.24 3.074-39.9 7.995-61.08 12.763l2.03-.523c-23.9 5.105-53.85 11.476-70.16 15.373-7.2.85-17.53 3.173-27.94 5.158-15.94 3.682-48.19 10.414-72.56 15.857-3.82.5-20.07 4.385-21.42 4.212-68.15 15.302-152.72 32.89-225.86 47.702l1.08-.263c-9.4 2.24-20.22 5.08-29.78 7.422-.98.17-.88.07 1.17-.363-13.31 2.896-25.87 5.108-39.18 8.015.1-.1.1-.1 2.25-.624-12.43 2.836-25.87 5.11-40.55 8.57l-.82.058-9.36 2.152c.199-.19.499-.48 5.519-1.498-114.431 24.066-232.431 49.813-349.931 74.562l4.299-1.047-22.73 5.061c.1-.099 1.17-.36 2.25-.623-29.09 5.906-59.08 12.673-87.39 18.596.1-.09 4.34-1.136.4-.38-20.88 4.827-33.77 6.618-44.07 9.644-.98.172-1.7.13.45-.393-58.2 12.6-117.99 25.23-176.67 37.51-48.701 11.072-103.451 21.96-154.121 33.3l.189-.19c-65.601 14.42-135.411 28.62-203.501 43.13-28.311 5.935-47.351 10.135-75.771 16.16l-.781-.03c-47.681 10.82-100.691 20.656-150.411 31.977l3.36-.973c-7.66 2.02-30.21 6.255-27.11 6.284l-8.861 1.671c-33.701 8.047-61.821 12.66-103.266 22.024l2.705-.73c-11.027 2.457-23.875 5.28-32.105 6.872 1.248-.288.67-.212 3.28-.81-34.755 6.703-73.103 15.538-109.61 23.24l4.096-1.175c-17.58 4.075-49.991 10.601-73.192 15.671l1.392-.442-11.688 2.68-.343-.214c-30.078 6.308-58.441 12.56-87.931 18.836z" fill="#523333"/><path d="m2744.09 159.162-1.5.468c27.27-6.03 58.16-12.3 87.1-18.542l-1.92.46c73.39-15.472 140.99-30.023 213.77-45.537-1.13.255-1.52.383-2.65.642 3.51-.794 7.35-1.7 11.33-2.527 1.03-.186-1.06.297-2.37.586 15.45-3.02 45.12-9.705 54.76-11.555 4.31-.938 6.22-1.447 3.76-1.005 56.96-12.117 117.94-25.07 175.95-37.532 2.79-.558 3.31-.604 2.59-.366 49.5-10.873 101.56-21.732 152.35-32.413 1.91-.51-5.19.985-.22-.18-16.32 3.326-29.82 6.566-44.68 9.52l1.85-.49c-10.8 2.223-2.1.7-13.32 2.945-4.45.856 1.05-.354-.99.073-22.88 4.88-46.75 9.84-68.29 14.644-5.38.917-24.59 5.198-33.09 6.79-5.89 1.33-11.86 2.573-14.1 3.19-80.11 16.834-161.91 34.358-243.98 51.706-38.31 8.53-84.41 17.778-129.93 27.554-.35.06-.29.028.04-.056a6500.515 6500.515 0 0 1-54.21 11.577l-14.96 3.34c-106.79 22.234-215.79 45.552-324.18 68.34-123.21 25.967-231.13 48.496-350.96 74.415.16-.073-.81.106 2.25-.555-34.63 7.412-66.18 13.938-98.76 20.918l.1-.06c-80.8 17.445-168.34 35.58-246.25 52.442-94.91 20.044-202.24 42.796-302.69 64.163l.21-.13c-80.39 17.187-158.17 33.203-238.34 50.304-82.5 17.27-169.55 36.36-252.8 53.722-51.542 10.495-119.006 25.652-167.424 35.473-99.465 20.402-195.762 41.196-295.018 62.584-91.656 19.166-183.034 39.09-271.842 57.412-41.968 9.18-88.562 18.37-135.344 28.353l1.67-.25c-16.876 3.26-37.34 8.346-47.884 10.108l1.757-.392c-8.966 1.657-20.56 4.913-26.012 5.786l-1.395.413c-10.785 2.314-1.276.14-9.636 1.855-3.122.674-1.15.46-7.696 1.772-1.518-.16-26.331 5.676-27.18 5.314 5.907-1.25-9.242 1.75 3.91-1.146-3.757.744-21.813 4.59-20.12 4.46-1.485.556-8.483 2.252 2.516.113l2.18-.637c3.727-.61 2.8-.5 4.19-.664 14.318-3.003 16.3-3.17 26.602-5.244-.115.018-.23.036-.061-.007 7-1.696 16.738-3.626 22.253-4.767l2.234-.375c3.394-.51 16.219-3.836 11.917-2.574 29.118-6.248 62.514-13.315 95.057-20.2 4.517-1.094 24.937-5.265 17.728-4 8.18-1.438 32.448-6.495 41.42-8.406-.337.097-.727.212-2.093.488 17.513-3.32 20.6-4.712 37.052-7.73 2.488-.86 29.724-6.185 38.904-8.512 2.06-.363 2.697-.433 1.97-.22 29.422-6.22 61.99-12.994 86.87-18.24 21.238-4.787 51.538-10.775 69.746-15.025 15.18-3.128 39.75-8.158 60.902-12.797l-2.034.483c23.85-5.071 53.72-11.411 70.026-15.11 7.12-1.121 17.44-3.384 27.803-5.452 15.923-3.546 48.079-10.298 72.41-15.61 3.785-.625 20.034-4.317 21.336-4.332 68.053-14.896 152.373-32.563 225.26-47.614l-1.076.248c9.4-2.133 20.24-4.74 29.803-6.94.968-.185.864-.117-1.18.316 13.28-2.856 25.768-5.25 39.05-8.107-.11.067-.11.067-2.26.56 12.42-2.745 25.77-5.245 40.44-8.551l.81-.107 9.35-2.076c-.21.13-.52.326-5.53 1.352 114.12-24.064 231.88-49.426 349.06-74.157l-4.3.988 22.69-4.944c-.1.068-1.18.315-2.25.562 28.99-5.992 58.93-12.568 87.16-18.504-.1.062-4.34 1.044-.42.26 20.86-4.65 33.63-6.817 43.98-9.49.97-.186 1.68-.224-.47.27 58.06-12.45 117.7-25.057 176.22-37.36 48.64-10.73 103.18-21.875 153.78-32.926l-.21.13c65.48-14.163 135.06-28.562 202.97-42.992 28.24-5.94 47.24-10.06 75.58-16.064l.76-.05c47.63-10.488 100.38-20.868 150.04-31.833l-3.38.864c7.68-1.853 30.12-6.295 27.08-6.044l8.83-1.75c33.69-7.645 61.62-12.797 103.01-21.895l-2.71.664c11-2.401 23.83-5.174 32.02-6.823-1.24.277-.67.182-3.28.76 34.61-6.958 72.92-15.47 109.33-23.16l-4.11 1.04c17.56-3.92 49.86-10.565 73.01-15.556l-1.4.375 11.67-2.588.32.096c30.05-6.357 58.36-12.486 87.77-18.73z" fill="#523333"/></svg>