<svg width="247" height="175" viewBox="0 0 247 175" fill="none" xmlns="http://www.w3.org/2000/svg"><g clip-path="url(#clip0_469_7436)"><path d="M46.064 74.41a25.088 25.088 0 0 1 3.556 1.962c-3.373-4.16-6.747-8.504-9.715-13.06-.07.023-2.352-1.553-3.41-2.306-3.046 1.277-6.62 1.71-9.52-.192-3.25-2.135-4.803-6.336-6.534-9.625 4.713 2.396 7.913.07 11.483 1.786 2.76 1.325 4.138 4.957 5.29 7.7.713.516 1.4 1.05 2.055 1.63-2.063-3.252-3.917-6.608-5.398-10.076a.243.243 0 0 1-.076-.06c-1.533-2.17-2.982-4.4-4.454-6.614-1.254-1.885-2.694-3.795-3.267-6.018-1.025-4 1.525-8.782 2.806-12.058.07 2.596 1.84 4.167 3.193 6.158 1.105 1.626 1.863 3.406 2.208 5.336.637 3.54-.313 7.26-.905 10.76 4.03 8.01 8.96 15.32 14.51 22.378a34.53 34.53 0 0 1-1.5-3.907c-2.346-3.516-4.712-7.394-4.508-11.77.18-3.874 2.406-7.76 4.28-11.057.493 2.83 3.08 9.014 3.684 13.525.226 1.685.163 3.352-.38 4.974-.73 2.203-2.244 4.03-1.752 6.506l.002.004c.417 1.084.87 2.165 1.363 3.227.545.68 1.096 1.36 1.652 2.032 3.345 4.07 6.718 8.103 10.17 12.075a31.47 31.47 0 0 1-1.18-4.122c-2.51-3.16-4.413-7.076-4.203-11.19.22-4.292 3.05-8.46 5.003-12.143-.05 6.203 1.72 9.007 2.184 13.37.366 3.486-.85 6.826-2.125 10.04.387 1.688.812 3.385 1.25 5.104a297.86 297.86 0 0 0 6.934 7.627 16.398 16.398 0 0 0-.565-1.157c-1.612-1.888-2.98-3.772-2.92-6.346.062-2.5 1.304-4.753 2.576-6.835.09-.15.346-.118.35.076.04 2.582 1.35 4.835 1.583 7.372.17 1.93-.406 3.813-1.147 5.575.278.72.585 1.437.926 2.14a206.834 206.834 0 0 0 5.214 5.303c.142.146-.97 1.768-1.402 1.333-1.556-1.57-2.868-3.36-4.327-5.028-.025 0-2.595-.26-2.69-.23-3.344 2.316-7.198 3.684-11.295 3.734-4.442.054-8.758-1.32-13.203-1.308-.248 0-.33-.302-.14-.446 6.744-5.105 18.208-11.014 25.1-2.663.564.095 1.135.2 1.702.305-3.494-3.995-7.03-7.945-10.52-11.942-.09.028-1.77-.5-2.543-.68-.02.007-.035.02-.06.027-2.223.69-4.613 1.39-6.926.696-2.268-.678-4.07-2.47-5.316-4.408-.103-.16 3.466.542 5.138.475 1.092-.04 2.057-.14 3.134.118 1.647.39 3.067 1.322 4.14 2.607.67.18 1.335.4 1.973.634a318.376 318.376 0 0 1-5.958-7.024c-.384-.473-.77-.938-1.157-1.414-.05.016-3.178-1.712-4.726-2.393 0 .006-.008.013-.015.012-3.602 2.247-8.012 2.913-12.1 1.664a15.034 15.034 0 0 1-4.757-2.453c-2.076-1.587-3.39-3.507-4.97-6.027 3.563 1.32 9.862-2.195 14.906-.42 3.216 1.166 5.896 3.588 7.294 6.706z" fill="#EEDDE0"/><path d="M38.745 67.73c3.245 1.136 5.928 3.562 7.315 6.675a25.852 25.852 0 0 1 3.557 1.963c-3.374-4.16-6.744-8.5-9.71-13.057-.06.024-2.35-1.553-3.41-2.305-3.05 1.28-6.623 1.713-9.52-.196-3.248-2.133-4.807-6.34-6.536-9.62 4.717 2.396 7.91.067 11.48 1.785 2.757 1.327 4.134 4.96 5.288 7.702a25.673 25.673 0 0 1 2.05 1.627c-2.063-3.253-3.91-6.608-5.394-10.08a.172.172 0 0 1-.075-.054c-1.534-2.17-2.98-4.405-4.455-6.614-1.255-1.885-2.694-3.795-3.263-6.02-1.025-3.995 1.53-8.78 2.81-12.056.062 2.59 1.844 4.167 3.196 6.158 1.1 1.622 1.86 3.402 2.2 5.336.635 3.545-.314 7.26-.91 10.764 4.03 8.01 8.962 15.316 14.513 22.38a35.197 35.197 0 0 1-1.5-3.91c-2.345-3.52-4.713-7.39-4.507-11.773.18-3.875 2.41-7.757 4.28-11.058.493 2.83 3.08 9.014 3.683 13.525.226 1.685.163 3.35-.375 4.97-.734 2.207-2.245 4.03-1.753 6.507 0 0-.004 0 0 .005a54.622 54.622 0 0 0 1.362 3.227c.544.68 1.095 1.36 1.65 2.04 3.342 4.064 6.72 8.105 10.173 12.07a30.747 30.747 0 0 1-1.18-4.123c-2.51-3.16-4.412-7.077-4.205-11.195.224-4.288 3.055-8.458 5.004-12.144-.048 6.204 1.723 9.013 2.18 13.374.366 3.487-.848 6.83-2.122 10.044a183.5 183.5 0 0 0 1.25 5.104 296.906 296.906 0 0 0 6.93 7.624 18.423 18.423 0 0 0-.568-1.154c-1.61-1.887-2.98-3.77-2.92-6.345.06-2.505 1.305-4.755 2.577-6.836.09-.147.344-.115.347.08.04 2.58 1.347 4.83 1.577 7.37.172 1.93-.403 3.818-1.148 5.583.278.72.59 1.434.926 2.133 1.71 1.795 3.44 3.57 5.21 5.305.146.144-.97 1.77-1.402 1.333-1.555-1.57-2.87-3.358-4.323-5.03-.025 0-2.644-.267-2.693-.234-3.34 2.32-7.198 3.683-11.295 3.734-4.443.054-8.763-1.316-13.208-1.304-.247 0-.33-.3-.14-.445 6.745-5.107 18.213-11.013 25.097-2.663.564.095 1.132.195 1.702.305-3.49-3.99-7.033-7.94-10.517-11.938-.057.04-1.766-.496-2.546-.686a.16.16 0 0 1-.058.03c-2.222.69-4.615 1.387-6.928.693-2.268-.678-4.07-2.47-5.313-4.403-.105-.164 3.468.534 5.14.477 1.09-.04 2.06-.14 3.133.116 1.647.393 3.07 1.324 4.136 2.608.67.18 1.33.396 1.972.634a335.46 335.46 0 0 1-7.113-8.44c-.05.02-3.183-1.715-4.73-2.396-.008.006-.01.013-.02.015-3.6 2.24-8.01 2.914-12.096 1.66a15.044 15.044 0 0 1-4.76-2.45c-2.075-1.586-3.386-3.51-4.968-6.026 3.575 1.336 9.87-2.175 14.92-.406zM29.84 52.81c-2.625-.395-5.393.428-7.92-.66-.372-.156-.797-.52-.81-.427-.06.288 1.21 2.172 1.403 2.532.684 1.282 1.37 2.583 2.243 3.754 2.852 3.802 7.098 4.327 11.288 2.68-2.72-1.918-5.456-3.735-8.583-5.128-.066-.028-.012-.127.055-.1 3.124 1.354 6.398 2.908 9.272 4.913-1.67-3.135-3.022-6.972-6.946-7.562zm3.512-15.864c-1.74-4.21-3.897-4.736-4.592-8.157-.06.114-2.005 4.605-2.17 5.342-.574 2.502-.555 4.842.588 7.19 1.707 3.497 4.25 6.653 6.393 9.925-.15-.327-1.833-4.204-2.346-5.654-.03-.095.108-.136.147-.047.545 1.21 1.11 2.403 1.695 3.584.717-4.035 2.127-8.387.288-12.184zm22.73 57.368c-2.494.196-4.907 1.035-7.13 2.14-1.106.554-6.233 3.916-6.304 4.105.55.004 3.073.222 3.78.32 2.05.28 4.082.68 6.142.865 4.776.434 9.258-.68 13.23-3.337-5.77-.772-11.29-1.12-17.125.5-.095.022-.14-.113-.044-.144 5.78-2.08 11.688-1.866 17.6-.914-2.686-2.7-6.325-3.84-10.146-3.54zm-5.32-11.528c-1.116-.164-2.153.14-3.255.104-.816-.03-2.918-.466-3.713-.644 1.163 1.755 2.84 2.915 4.114 3.452 2.194.927 4.505.39 6.702-.26-1.646-.337-3.312-.507-5.047-.693-.034-.004-.022-.05.007-.055 1.786-.297 3.654-.11 5.45.324-1.164-1.15-2.58-1.98-4.26-2.228zm-1.318-20.48c.745-4.62-3.438-14.383-3.558-15.81-.786 1.286-2.812 5.646-3.267 7.686-1.057 4.708.94 8.702 3.33 12.543-.998-3.694-1.4-7.53-1.285-11.437-.002-.01.015-.012.018 0 .074 4.873 1.033 9.6 2.667 14.14-.19-2.476 1.698-4.667 2.094-7.122zm9.447 8.524c.003-.04.063-.042.065 0-.035 4.285.606 8.305 1.502 12.344 1.14-3.84 2.364-7.267 1.536-11.442-.368-1.856-.942-3.668-1.32-5.52-.296-1.464-.44-4.634-.436-4.7-.025.12-3.336 6.092-4.047 9.36-.92 4.233.92 8.325 3.324 11.75-.72-3.898-.83-7.968-.62-11.79zM69.22 88.413c-.216-1.047-1.293-5.46-1.472-5.47a22.12 22.12 0 0 0-.79 1.415c-.604 1.21-1.056 2.422-1.223 3.76-.334 2.62.777 4.564 2.33 6.465a24.36 24.36 0 0 1-1.227-6.505c-.004-.054.077-.055.086-.005a27.4 27.4 0 0 0 1.556 6.63c.632-2.08 1.21-4.04.74-6.29zm-17.094-9.49c7.03 8.354 14.496 16.33 21.56 24.66.204-.253.688-.814.73-.816-8.922-8.003-16.5-17.623-24.07-26.87-.47-.573-.94-1.153-1.412-1.734a.145.145 0 0 1-.085-.076c-.018-.03-.03-.06-.043-.086-4.138-5.106-8.242-10.45-11.67-16.137 1.542 2.705 3.124 5.38 4.89 7.977 3.095 4.54 6.56 8.87 10.1 13.082zm-24.95-6.847a14.488 14.488 0 0 0 4.796 3.45c4.364 1.94 9.12 1.423 13.26-.78-5.128-2.18-10.52-3.22-16.225-3.957-.073-.014-.066-.14.015-.134 5.485.472 11.393 1.29 16.566 3.544-1.85-3.42-5.03-5.967-8.977-6.596-2.368-.38-4.648.158-6.957.618-.463.09-4.934.702-4.984.52.208.776 2.144 2.942 2.502 3.334z" fill="#523333"/><path d="M45.283 62.646a20.754 20.754 0 0 1 2.367-7.1c.013-.023.046-.005.033.018-1.183 2.258-1.868 4.614-2.124 7.142-.023.18-.3.117-.278-.06z" fill="#523333"/><path d="M48.178 60.008c.027-.053.11-.012.084.04-1.1 2.3-1.418 4.567-1.933 7.01-.038.16-.29.14-.29-.03-.05-2.387 1.014-4.95 2.137-7.02z" fill="#523333"/><path d="M43.315 56.93c0-.056.08-.058.086-.004.21 2.526 1.093 4.528 2.16 6.782.053.104-.08.198-.155.1-1.427-1.95-1.97-4.51-2.09-6.878z" fill="#523333"/><path d="M27.205 39.052a31.94 31.94 0 0 1 2.95 3.554 38.042 38.042 0 0 1-.595-4.32 23.406 23.406 0 0 0-1.91-3.66c-.026-.037.03-.076.06-.04a20.14 20.14 0 0 1 1.81 3.174c-.128-1.692-.175-3.353-.207-4.907 0-.025.04-.03.043-.002.356 2.644.585 5.285 1.068 7.903.135-1.56.805-3.165 1.538-4.485.035-.06.122-.014.094.046-.845 1.71-1.104 3.394-1.475 5.23.02.086.035.176.053.262.284 1.322.678 2.576 1.117 3.814.18-1.812.663-3.572 1.395-5.25.02-.04.08-.013.063.03-.744 1.824-1.154 3.69-1.308 5.63.414 1.138.87 2.268 1.31 3.42.07.192-.205.31-.318.152-1.27-1.847-2.08-4.04-2.6-6.35a37.15 37.15 0 0 0-3.162-4.125c-.04-.044.028-.124.075-.073z" fill="#523333"/><path d="M25.86 58.542c2.603-.884 5.358-.686 7.83.318-.79-.972-1.19-2.304-1.395-3.52-.007-.032.055-.042.062-.01.272 1.3.866 2.352 1.472 3.514.017.03.004.053-.01.07 1.023.427 1.998.987 2.888 1.672.25.193-.077.547-.328.36-3.066-2.3-6.74-2.902-10.465-2.23-.116.023-.176-.13-.058-.174z" fill="#523333"/><path d="M28.404 54.273c.48.877 1.13 1.562 1.698 2.368.048.07-.048.14-.11.095-.757-.58-1.293-1.545-1.702-2.39-.034-.073.073-.146.114-.07z" fill="#523333"/><path d="M59.373 79.233c-.21-2.942.31-5.918 1.368-8.664.012-.03.057-.013.046.014-1.028 2.823-1.32 5.645-1.043 8.634.026.237-.35.25-.37.013z" fill="#523333"/><path d="M56.736 72.91a413.36 413.36 0 0 1 3.05 7.91c.077.21-.252.313-.33.104a423.31 423.31 0 0 1-2.86-7.973c-.035-.082.104-.123.14-.04z" fill="#523333"/><path d="M61.435 76.498c.024-.057.122-.02.105.036-.64 2.12-1.045 4.27-1.588 6.408-.027.11-.213.1-.206-.02.185-2.188.887-4.38 1.69-6.424z" fill="#523333"/><path d="M68.65 87.8c.01-.02.036 0 .03.016-.547 1.394-.856 2.77-.87 4.273-.003.132-.217.143-.216.01 0-1.484.34-2.986 1.055-4.298z" fill="#523333"/><path d="M65.982 89.72c.857 1.594 1.552 3.304 2.275 4.96.07.16-.186.236-.257.084-.73-1.644-1.513-3.303-2.108-4.998-.018-.055.06-.098.09-.046z" fill="#523333"/><path d="M51.165 83.357c.443.514.984.888 1.604 1.148.12.05.025.232-.097.183a3.786 3.786 0 0 1-1.583-1.272c-.03-.04.037-.098.075-.06z" fill="#523333"/><path d="M49.313 85.438c.653-.278 1.435-.563 2.16-.523.083.002.118.133.027.154-.717.18-1.442.25-2.15.483-.075.027-.108-.085-.037-.116z" fill="#523333"/><path d="M36.925 68.732c1.537 1.636 3.224 3.11 5.115 4.34.246.157.033.572-.213.407-1.927-1.284-3.62-2.804-5.016-4.645-.054-.07.056-.163.116-.104z" fill="#523333"/><path d="M30.738 73.433c2.724-.99 5.696-1.337 8.586-1.08.2.018.224.327.013.317-2.94-.12-5.697.194-8.55.902-.097.032-.14-.103-.05-.14z" fill="#523333"/><path d="M31.956 69.363c.777.812 1.688 1.467 2.677 1.997.153.08.03.323-.126.24-1.04-.53-1.897-1.278-2.605-2.195-.022-.027.025-.07.054-.043z" fill="#523333"/><path d="M37.25 75.073c2.194-.994 4.566-1.32 6.958-1.037.247.032.16.398-.084.37-2.35-.24-4.598.037-6.842.78-.073.02-.104-.083-.033-.113z" fill="#523333"/><path d="M58.604 94.797c.68.675 1.38 1.295 2.21 1.786.768.452 1.654.61 2.418 1.032.103.058.073.227-.054.226-.884.015-1.902-.574-2.627-1.03a7.307 7.307 0 0 1-2.06-1.915c-.047-.07.055-.156.115-.097z" fill="#523333"/><path d="M53.44 100.007c2.888-1.714 6.43-2.43 9.776-2.157.19.015.21.302.012.3-3.396 0-6.627.477-9.694 1.998-.094.05-.19-.085-.094-.14z" fill="#523333"/><path d="M51.602 95.474c1.1.978 2.373 1.624 3.792 2.003.216.056.144.378-.074.336-1.503-.293-2.815-1.116-3.785-2.28-.04-.043.03-.1.067-.06z" fill="#523333"/><path d="M50.27 99.188c.732-.353 1.53-.815 2.32-1.018.12-.03.21.132.096.197-.695.425-1.583.68-2.346.956-.086.036-.153-.095-.07-.134z" fill="#523333"/><path d="M33.195 38.075c.017-.027.065-.007.047.026-.76 1.305-1.037 2.624-1.3 4.082-.01.06-.1.05-.1-.007-.007-1.428.61-2.902 1.353-4.098z" fill="#523333"/><path d="M30.817 37.442a8.798 8.798 0 0 1 .707-2.204c.01-.02.036-.002.03.014a8.77 8.77 0 0 0-.65 2.21c-.013.048-.096.03-.087-.02z" fill="#523333"/><path d="M28.156 32.497c-.02-.04.038-.08.058-.04.448.815.82 1.683 1 2.6.01.06-.073.09-.09.03-.256-.9-.54-1.754-.968-2.59z" fill="#523333"/><path d="M28.03 37.72a5.546 5.546 0 0 1 1.207 2.38c.003.005-.008.007-.007 0a5.77 5.77 0 0 0-1.236-2.354c-.015-.02.02-.047.035-.028z" fill="#523333"/><path d="M28.435 41.71c.634.817 1.243 1.648 1.855 2.477.04.05-.044.104-.084.054-.627-.822-1.258-1.635-1.874-2.467-.04-.057.056-.12.103-.062z" fill="#523333"/><path d="M32.753 46.47c.222-.96.49-1.91.732-2.86.012-.04.074-.027.062.014-.225.955-.428 1.925-.68 2.877-.02.067-.133.044-.114-.03z" fill="#523333"/><path d="M45.452 48.474c.006-.023.048-.02.04.012-.534 2.06-.793 4.123-.947 6.247-.005.05-.077.055-.074.002.038-2.12.42-4.222.983-6.26z" fill="#523333"/><path d="M45.816 56.926a37 37 0 0 0 .78-2.73c.008-.03.06-.02.053.01a22.13 22.13 0 0 1-.755 2.733c-.02.052-.096.036-.08-.015z" fill="#523333"/><path d="M46.576 62.455c.298-.97.64-1.923.97-2.88.017-.045.09-.033.077.015-.307.964-.605 1.933-.947 2.887-.02.06-.12.04-.1-.022z" fill="#523333"/><path d="M43.687 61.258c.4.896.782 1.793 1.17 2.692.03.06-.07.087-.095.03-.396-.89-.796-1.786-1.18-2.687-.028-.067.08-.1.106-.034z" fill="#523333"/><path d="M47.337 66.215c.273-1.127.622-2.237.943-3.35.018-.066.114-.04.1.02-.304 1.12-.585 2.252-.94 3.356-.014.063-.118.045-.103-.024z" fill="#523333"/><path d="M59.847 63.37c-.01.002-.013-.01-.005-.016z" fill="#523333"/><path d="M59.836 63.357c.013-.054.092-.035.086.02-.36 2.144-.684 4.3-1.163 6.424-.01.047-.075.03-.07-.013.29-2.158.74-4.294 1.145-6.43z" fill="#523333"/><path d="M57.655 71.685c-.004-.06.085-.06.092-.004a7.48 7.48 0 0 0 .48 1.983c.015.034-.032.046-.05.016-.285-.635-.478-1.297-.522-1.994z" fill="#523333"/><path d="M57.115 76.31c-.028-.064.08-.1.11-.035.284.64.45 1.306.51 2.003.007.07-.107.08-.116.004a7.088 7.088 0 0 0-.506-1.97z" fill="#523333"/><path d="M61.05 75.037c.013-.037.07-.006.054.03-.272.596-.545 1.192-.815 1.79-.016.038-.072.007-.058-.03.27-.6.543-1.195.816-1.79z" fill="#523333"/><path d="M68.1 82.518c.02-.044.087-.008.064.035-.753 1.62-1.16 3.182-1.32 4.957-.007.063-.103.07-.1.003a10.95 10.95 0 0 1 1.354-4.995z" fill="#523333"/><path d="M67.32 88.977c.303-.62.633-1.223.96-1.83.027-.046.1-.01.074.037-.307.616-.604 1.237-.93 1.844-.037.066-.137.012-.105-.05z" fill="#523333"/><path d="M55.784 94.44c1.126.96 2.22 1.87 3.53 2.58.06.034.01.124-.045.093-1.276-.69-2.568-1.535-3.54-2.615-.034-.043.01-.098.053-.06z" fill="#523333"/><path d="M50.76 96.5c.234.405.607.697 1.076.767.063.007.038.103-.02.093a1.417 1.417 0 0 1-1.163-.81c-.03-.06.072-.11.108-.05z" fill="#523333"/><path d="M51.326 99.62c.878-.576 1.863-.933 2.89-1.14.03-.005.042.036.017.043-1.02.25-1.937.675-2.832 1.215-.074.047-.15-.07-.073-.118z" fill="#523333"/><path d="M55.612 101.01c1.22-.64 2.518-1.17 3.775-1.742.037-.017.068.047.03.063-1.243.597-2.477 1.253-3.76 1.776-.053.03-.1-.067-.045-.096z" fill="#523333"/><path d="M45.95 83.02c.903.454 1.743.982 2.69 1.35.004.002 0 .005 0 .005-.93-.313-1.945-.695-2.724-1.303-.03-.028 0-.07.034-.052z" fill="#523333"/><path d="M48.463 83.138c.595.387 1.216.68 1.913.82.014.002.008.026-.006.024-.7-.12-1.37-.372-1.94-.8-.027-.016.006-.06.033-.044z" fill="#523333"/><path d="M47.384 85.13c.405-.018.808-.02 1.208-.03.043 0 .046.066.003.068-.4.015-.806.032-1.206.04-.05-.006-.053-.08-.007-.078z" fill="#523333"/><path d="M38.147 75.934c1.116-.208 2.245-.376 3.368-.56.05-.008.062.078.016.083-1.12.194-2.24.405-3.365.577-.055.012-.075-.086-.017-.1z" fill="#523333"/><path d="M32.74 75.54c1.732-1.088 3.728-1.67 5.743-1.922.05-.01.05.072 0 .08-2.042.312-3.84 1.023-5.662 1.975-.078.044-.163-.08-.08-.132z" fill="#523333"/><path d="M34.03 69.02c.61.786 1.434 1.34 2.413 1.555.072.02.05.125-.024.114-1.014-.205-1.91-.752-2.494-1.602-.042-.07.06-.132.103-.07z" fill="#523333"/><path d="M39.934 69.296c.9.84 1.84 1.618 2.876 2.294.07.046.014.16-.06.116-1.045-.667-2.03-1.42-2.908-2.305-.058-.064.03-.166.094-.103z" fill="#523333"/><path d="M27.048 59.855c1.357-.28 2.782-.22 4.148-.02.056.006.036.09-.02.085-1.396-.19-2.723-.11-4.117.02-.048.006-.063-.077-.013-.085z" fill="#523333"/><path d="M25.112 57.103c.82.057 1.637.093 2.46.042.053-.005.055.076 0 .08-.823.073-1.652.085-2.47-.025-.052-.01-.045-.104.01-.097z" fill="#523333"/><path d="M21.08 51.688c.588.492 1.11 1.04 1.74 1.487.69.49 1.433.896 2.207 1.237.037.014.006.07-.03.056-1.442-.588-3.022-1.476-4.01-2.71-.033-.05.045-.11.09-.07z" fill="#523333"/><path d="M26.84 53.405c.334.442.618.924.918 1.387.02.034-.028.06-.05.033-.318-.454-.656-.9-.94-1.376-.024-.046.044-.088.07-.046z" fill="#523333"/><path d="M29.674 53.393c.622.675 1.103 1.48 1.512 2.294.037.078-.074.153-.114.072-.434-.814-.967-1.535-1.507-2.28-.042-.063.056-.147.11-.088z" fill="#523333"/><path d="M56.914 80.904c-2.106-.68-4.023-1.68-5.714-3.12-2.177-1.856-3.357-4.862-5.776-6.33-1.362-.822-2.934-1.256-3.457-2.932-.617-1.96.837-3.84.994-5.745.172-2.056-1.557-3.56-1.15-5.625.354-1.764 1.727-3.15 2.678-4.617.835-1.28 1.373-2.56 1.113-4.122-.174-1.042-.584-1.88-.372-2.963.57-2.88 4.68-4.676 2.885-8.053-.07-.134.12-.292.226-.16.027.034.06.073.082.11l.086-.06c-.216-.278.177-.66.396-.377 1.044 1.32 2.284 2.283 3.84 2.912.895.364 1.798.533 2.512 1.21 1.796 1.69 1.314 4.562 3.61 5.957 1.673 1.01 3.83 1.175 5.314 2.507 1.523 1.363 1.212 3.1 1.656 4.91C66.482 57 69 58.25 69.91 60.698c.727 1.97.523 4.195-.19 6.144-1.852 5.06-6.51 9.296-9.857 13.408-.005.017-.016.02-.024.025a2.62 2.62 0 0 1-.21.38c-.053.086-.107.186-.163.274.616 1.85 1.206 3.84 2.606 5.407.458.51-1.006 1.916-1.224 1.69-2.054-2.098-3.24-4.524-3.937-7.124z" fill="#EEDDE0"/><path d="M60.845 88.02c-2.055-2.09-3.24-4.517-3.935-7.113-2.106-.68-4.023-1.68-5.717-3.124-2.18-1.86-3.357-4.86-5.78-6.327-1.357-.825-2.93-1.26-3.456-2.932-.618-1.96.837-3.847.993-5.745.167-2.054-1.563-3.557-1.15-5.627.352-1.764 1.722-3.153 2.673-4.614.83-1.285 1.372-2.56 1.112-4.122-.175-1.044-.584-1.88-.37-2.968.573-2.878 4.684-4.67 2.886-8.053-.07-.14.124-.3.23-.168.863 1.07.825 2.212.285 3.48-.43 1.01-1.193 1.816-1.823 2.702-1.333 1.878-.912 3.173-.643 5.246.492 3.766-4 5.798-3.856 9.323.082 2.04 1.643 3.07 1.215 5.246-.23 1.173-.82 2.274-.953 3.458-.233 2.073.9 3.044 2.6 3.946 2.278 1.207 2.98 2.91 4.566 4.844 1.847 2.25 4.282 3.82 7.02 4.758-1.097-4.677-.723-9.85-.967-14.594-.503-9.796-3.998-18.685-6.908-27.912l-.003-.004a9.814 9.814 0 0 1-.37-.44c-.216-.276.177-.657.4-.38 1.04 1.317 2.28 2.287 3.843 2.917.892.36 1.79.533 2.512 1.212 1.796 1.69 1.31 4.557 3.607 5.95 1.67 1.016 3.83 1.18 5.317 2.514 1.52 1.36 1.213 3.1 1.66 4.906.642 2.593 3.166 3.845 4.07 6.292.728 1.97.524 4.197-.185 6.142-1.856 5.058-6.51 9.296-9.858 13.415-.01.014-.02.016-.03.025-.062.13-.126.257-.204.382-.052.085-.103.19-.162.274.61 1.848 1.207 3.84 2.605 5.403.465.51-.997 1.91-1.22 1.687zm-1.493-7.583a2.62 2.62 0 0 1 .206-.265.145.145 0 0 1 .02-.148c1.672-2.108 3.323-4.23 4.994-6.338 1.712-2.166 3.63-4.386 4.592-7.013 1.204-3.285.457-6.122-1.856-8.647-1.332-1.452-1.936-2.603-2.197-4.562-.194-1.475-.386-2.857-1.68-3.808-.85-.623-1.925-.913-2.9-1.29-1.238-.478-2.533-.986-3.363-2.078-.427-.558-.66-1.2-.902-1.85-.72-1.955-1.27-2.966-3.32-3.936-1.503-.71-2.695-1.345-3.78-2.462 3.655 7.09 7.032 14.41 7.976 22.41.804 6.792.21 13.654 2.184 20.023a.143.143 0 0 0 .03-.036zm2.11 6.525c.074-.083.328-.424.355-.438-4.986-6.287-4.395-14.827-4.76-22.364-.424-8.683-3.437-16.5-7.116-24.215 2.88 7.16 5.14 14.82 6.027 22.415.98 8.376-1.075 18.158 5.04 24.99.17-.11.326-.234.457-.388z" fill="#523333"/><path d="M48.278 37.902c-.166-.12-.188-.306-.135-.487-.103-.184-.122-.42.01-.59a.398.398 0 0 1 .398-.144c.082.014.168.035.22.093.03.028.078.072.11.143.03.07.033.17-.037.224.002-.022.002-.022-.003-.005l-.015.03c-.01.02-.03.036-.045.055-.008.006-.015.005-.023.01a.276.276 0 0 1-.063.28.137.137 0 0 1-.035.148c-.006.034-.006.073-.02.103-.05.136-.226.243-.363.143z" fill="#523333"/><path d="M50.572 42.928c-.608-.768-1.33-1.39-2.106-1.98-.045-.035-.002-.107.048-.077.84.505 1.548 1.207 2.153 1.97.053.067-.042.155-.095.09z" fill="#523333"/><path d="M52.58 49.114c-1.485-2.39-3.405-4.107-5.753-5.63-.016-.013 0-.04.02-.03 2.476 1.158 4.51 3.25 5.87 5.584.044.086-.088.16-.135.076z" fill="#523333"/><path d="M54.9 57.227c-2.353-3.124-5.2-5.533-8.566-7.526-.083-.046-.007-.157.074-.12 3.492 1.684 6.478 4.338 8.723 7.477.097.134-.13.3-.23.17z" fill="#523333"/><path d="M55.674 64.76c-4.128-3.694-8.45-6.383-13.3-9.004-.08-.044-.022-.185.07-.15 5.017 1.782 9.778 5.132 13.515 8.883.183.18-.1.437-.287.27z" fill="#523333"/><path d="M56.05 74.26c-3.674-4.52-8.08-7.26-13.153-9.96-.053-.027-.012-.11.043-.09 5.253 1.602 10 5.582 13.45 9.73.19.23-.154.552-.34.32z" fill="#523333"/><path d="M52.72 45.69c-.048-1.518 1.054-3.25 2.14-4.24.064-.054.17.025.12.097-.494.658-.955 1.32-1.28 2.078-.295.687-.393 1.422-.65 2.118-.062.182-.322.142-.332-.052z" fill="#523333"/><path d="M55.406 53.928c.244-2.828 1.79-4.697 3.064-7.11.045-.086.193-.02.155.067-.406.92-.953 1.753-1.448 2.625-.794 1.395-1.195 2.83-1.334 4.425-.02.282-.46.275-.437-.007z" fill="#523333"/><path d="M57.018 63.585c2.315-3.85 4.7-7.9 7.94-11.062.11-.107.318.05.216.175-2.85 3.58-5.264 7.306-7.61 11.226-.21.35-.76.013-.546-.34z" fill="#523333"/><path d="M57.938 75.97c.976-3.484 2.505-6.048 4.69-8.917 1.937-2.54 3.99-5.128 6.776-6.773.087-.05.19.077.107.142-5.065 3.972-9.406 9.448-11.116 15.68-.077.302-.538.162-.455-.13z" fill="#523333"/><path d="M51.536 45.99a11.054 11.054 0 0 0-2.84-2.827c-.013-.008 0-.024.013-.016a9.74 9.74 0 0 1 2.972 2.765c.06.084-.086.163-.147.08z" fill="#523333"/><path d="M51.698 43.772c.04-1.055.53-2.076 1.148-2.913.018-.03.064-.002.047.024-.613.916-.86 1.845-1.066 2.905-.012.07-.13.05-.13-.02z" fill="#523333"/><path d="M54.46 47.183c.45-1.04 1.032-2.215 1.787-3.073.01-.013.028.004.02.017-.248.53-.6 1.02-.89 1.53-.287.514-.545 1.047-.83 1.564-.024.052-.108.018-.088-.036z" fill="#523333"/><path d="M54.948 51.007c-.142-1.423 1.182-2.472 1.474-3.797.014-.06.107-.033.1.03-.265 1.358-1.444 2.344-1.437 3.772-.003.084-.13.077-.137-.005z" fill="#523333"/><path d="M53.34 52.143c-2.008-1.844-4.173-3.24-6.584-4.494-.02-.01-.006-.04.014-.032 2.477 1.01 4.75 2.58 6.7 4.4.08.076-.05.2-.13.123z" fill="#523333"/><path d="M51.72 56.395c-1.26-1.566-2.85-2.593-4.713-3.313-.047-.02-.03-.095.024-.082 1.918.54 3.547 1.775 4.755 3.332.034.042-.03.105-.064.063z" fill="#523333"/><path d="M55.516 61.506a43.842 43.842 0 0 0-9.04-5.334c-.022-.013-.014-.05.013-.04a39.396 39.396 0 0 1 9.126 5.206c.104.075 0 .246-.1.168z" fill="#523333"/><path d="M54.03 65.934c-2.5-1.843-4.88-3.697-7.632-5.17-.046-.028-.003-.093.044-.074 2.73 1.35 5.523 2.968 7.7 5.113.066.063-.03.19-.108.13z" fill="#523333"/><path d="M55.184 70.374c-2.28-2.014-4.457-4.04-6.99-5.738-.053-.034-.004-.117.052-.086 2.532 1.587 5.117 3.422 7.104 5.667.093.11-.06.25-.166.157z" fill="#523333"/><path d="M57.49 54.827c.774-1.752 2.026-3.243 3.525-4.432.027-.02.062.014.035.036-1.507 1.22-2.62 2.71-3.507 4.418-.015.037-.068.01-.054-.02z" fill="#523333"/><path d="M57.81 58.766c.872-2.512 2.288-4.77 4.06-6.745.045-.046.108.025.07.073-1.782 2-3.063 4.216-4.03 6.702-.03.06-.126.036-.1-.028z" fill="#523333"/><path d="M59.84 63.357c1.71-2.93 3.776-5.68 6.02-8.222.045-.055.117.027.075.08-2.182 2.62-4.123 5.358-5.985 8.21-.046.07-.155.005-.11-.068z" fill="#523333"/><path d="M58.156 70.222c.68-1.745 1.68-3.36 2.88-4.797 1.57-1.877 3.705-3.215 5.02-5.3.017-.026.053-.004.04.026-.973 1.65-2.436 2.766-3.77 4.107-1.76 1.774-2.975 3.793-4.062 6.013-.035.06-.136.012-.108-.048z" fill="#523333"/><path d="M62.848 69.66c1.574-2.652 3.584-4.996 6.005-6.92.015-.015.03.005.018.02-2.325 2.035-4.31 4.333-5.93 6.958-.037.054-.126-.002-.09-.06z" fill="#523333"/><path d="M59.102 76.99c1.676-3.386 4.56-6.35 7.52-8.657.06-.046.138.037.08.083-3.046 2.51-5.24 5.44-7.45 8.667-.064.095-.2.006-.15-.09z" fill="#523333"/><path d="M56.32 77.285c-2.995-3.027-6.15-5.78-9.75-8.085-.04-.025-.005-.092.04-.065 3.595 2.247 6.966 4.905 9.775 8.084.044.045-.023.11-.067.064z" fill="#523333"/><path d="M55.77 79.234c-1.33-1.22-2.69-2.388-4.174-3.417-.07-.05.002-.165.074-.115 1.49 1.023 2.93 2.155 4.19 3.454.048.05-.035.13-.09.078z" fill="#523333"/><path d="M194.583 132.434a24.848 24.848 0 0 0-3.95-.97c5.32-.76 10.76-1.655 16.054-2.98.04.063 2.785.458 4.08.625 1.355 3 3.68 5.74 7.11 6.31 3.837.64 7.856-1.387 11.37-2.62-5.093-1.44-5.843-5.31-9.633-6.47-2.93-.9-6.423.826-9.146 2.055a27.438 27.438 0 0 0-2.62-.197c3.737-.986 7.39-2.188 10.85-3.725.028.01.06.01.093.004 2.61-.55 5.2-1.208 7.79-1.827 2.21-.53 4.567-.954 6.51-2.198 3.49-2.233 4.89-7.47 6.2-10.737-1.827 1.85-4.203 1.8-6.558 2.348-1.923.444-3.69 1.233-5.267 2.412-2.89 2.164-4.74 5.532-6.7 8.5-8.43 3.138-17.045 5.152-25.944 6.556a33.503 33.503 0 0 0 3.77-1.845c4.125-.987 8.513-2.222 11.357-5.57 2.518-2.96 3.55-7.317 4.434-11.005-2.296 1.738-8.43 4.514-11.953 7.414-1.318 1.083-2.415 2.344-3.126 3.9-.97 2.11-1.11 4.474-3.17 5.954l-.002.004c-1.05.51-2.12 1-3.207 1.443-.86.127-1.73.254-2.603.37-5.233.71-10.465 1.383-15.717 1.95a31.22 31.22 0 0 0 3.683-2.218c4-.61 8.073-2.19 10.736-5.35 2.773-3.293 3.555-8.272 4.645-12.288-4.207 4.577-7.428 5.43-10.75 8.316-2.65 2.31-4.048 5.577-5.312 8.796a201.22 201.22 0 0 1-4.407 2.893c-3.43.354-6.86.652-10.296.887.326-.15 1.156-.46 1.206-.462 2.47-.29 4.763-.742 6.484-2.67 1.67-1.87 2.296-4.364 2.79-6.753.034-.172-.176-.315-.308-.18-1.8 1.863-4.296 2.63-6.203 4.33-1.45 1.3-2.317 3.073-2.977 4.866a28.27 28.27 0 0 1-2.142.94c-2.48.152-4.96.28-7.45.35-.21.01-.497 1.956.117 1.93 2.216-.094 4.402-.52 6.608-.75.016.018 2.083 1.57 2.13 1.653.867 3.963 2.752 7.58 5.72 10.395 3.22 3.055 7.318 4.973 10.57 8 .183.17.45.004.41-.23-1.447-8.31-5.804-20.412-16.57-18.97-.48-.312-.967-.62-1.458-.933 5.29-.56 10.59-1.05 15.876-1.615.048.083 1.64.836 2.33 1.224a.26.26 0 0 0 .026.06c1.16 2.014 2.43 4.147 4.597 5.208 2.125 1.038 4.673.946 6.908.375.185-.047-2.91-1.954-4.09-3.135-.773-.77-1.412-1.497-2.374-2.042-1.473-.834-3.15-1.115-4.812-.898a24.823 24.823 0 0 0-1.88-.873 341.74 341.74 0 0 0 9.175-1.106c.603-.086 1.206-.166 1.817-.25.026.047 3.505.897 5.103 1.45v.025c1.1 4.09 3.878 7.567 7.726 9.426 1.62.78 3.37 1.266 5.162 1.43 2.61.245 4.886-.27 7.766-1.044-3.515-1.448-5.72-8.29-10.635-10.41-3.162-1.374-6.787-1.414-9.942-.082z" fill="#EEDDE0"/><path d="M215.15 142.922c-2.88.772-5.158 1.29-7.763 1.048-1.79-.167-3.54-.65-5.163-1.43-3.845-1.856-6.622-5.334-7.726-9.42a.068.068 0 0 1 0-.023c-1.596-.55-5.078-1.403-5.104-1.452-.604.086-1.21.17-1.81.253a322.77 322.77 0 0 1-9.175 1.106c.63.257 1.257.55 1.877.873 1.66-.217 3.34.064 4.817.895.963.545 1.6 1.27 2.375 2.04 1.183 1.18 4.28 3.09 4.09 3.14-2.23.574-4.78.662-6.903-.38-2.17-1.06-3.442-3.198-4.602-5.203-.012-.025-.013-.04-.022-.06-.697-.39-2.317-1.16-2.333-1.228-5.286.564-10.583 1.06-15.87 1.617.49.307.973.62 1.453.933 10.762-1.448 15.12 10.653 16.568 18.97.043.232-.224.4-.41.23-3.252-3.026-7.35-4.948-10.57-7.998-2.966-2.81-4.86-6.43-5.72-10.39-.01-.062-2.115-1.64-2.13-1.66-2.204.238-4.393.66-6.61.753-.613.025-.32-1.925-.115-1.93 2.49-.07 4.97-.2 7.45-.352a28.15 28.15 0 0 0 2.138-.936c.664-1.796 1.534-3.573 2.98-4.87 1.903-1.704 4.397-2.467 6.2-4.332.135-.14.34.007.307.18-.495 2.388-1.122 4.88-2.79 6.753-1.722 1.927-4.014 2.38-6.48 2.667-.048.004-.878.315-1.206.46 3.437-.234 6.87-.53 10.3-.884a197.467 197.467 0 0 0 4.403-2.896c1.267-3.216 2.66-6.487 5.32-8.797 3.317-2.882 6.535-3.74 10.746-8.32-1.094 4.02-1.873 8.995-4.647 12.287-2.663 3.16-6.737 4.74-10.736 5.35a31.132 31.132 0 0 1-3.684 2.218c5.248-.564 10.483-1.232 15.713-1.947.87-.115 1.736-.246 2.602-.37a52.04 52.04 0 0 0 3.207-1.442l.003-.003c2.056-1.484 2.193-3.842 3.17-5.955.713-1.55 1.814-2.816 3.128-3.895 3.526-2.9 9.658-5.676 11.955-7.414-.886 3.684-1.912 8.042-4.43 11.003-2.844 3.347-7.232 4.582-11.358 5.565a35.664 35.664 0 0 1-3.77 1.85c8.9-1.412 17.514-3.42 25.95-6.56 1.963-2.97 3.81-6.336 6.7-8.5 1.575-1.18 3.347-1.97 5.264-2.416 2.36-.543 4.735-.492 6.558-2.347-1.307 3.27-2.71 8.507-6.192 10.737-1.944 1.244-4.303 1.667-6.512 2.198-2.594.622-5.18 1.276-7.79 1.83a.15.15 0 0 1-.096-.008c-3.465 1.54-7.115 2.745-10.848 3.727.87.017 1.742.09 2.616.2 2.723-1.23 6.217-2.956 9.143-2.06 3.79 1.16 4.536 5.035 9.63 6.476-3.514 1.23-7.533 3.253-11.368 2.616-3.427-.57-5.754-3.31-7.108-6.313-1.292-.17-4.046-.566-4.078-.623-5.292 1.32-10.734 2.22-16.05 2.978 1.34.215 2.66.547 3.95.97 3.15-1.34 6.777-1.296 9.932.07 4.9 2.125 7.105 8.968 10.62 10.416zm-4.162-14.473c3.475.48 6.94 1.555 10.153 2.684.07.022.044.13-.027.106-3.246-1.097-6.494-1.626-9.798-2.058 1.942 4.045 5.41 6.54 10.1 5.69 1.444-.258 2.836-.748 4.216-1.23.387-.135 2.61-.65 2.76-.904.05-.083-.507-.103-.89-.242-2.592-.915-4.055-3.394-6.25-4.883-3.28-2.227-6.895-.335-10.26.836zm10.418-5.726a106.82 106.82 0 0 0 3.695-1.475c.09-.04.168.09.078.134-1.368.718-5.253 2.414-5.59 2.548 3.807-.945 7.828-1.53 11.475-2.935 2.448-.948 4.058-2.648 5.353-4.868.38-.655 2.027-5.266 2.066-5.39-2.85 2.037-4.79.96-8.947 2.864-3.946 1.542-5.894 5.682-8.127 9.12zm-57.64 13.215c4.984 3.315 9.457 7.16 12.27 12.603.042.086-.08.156-.133.073-3.17-5.144-7.452-8.63-12.205-11.978 1.097 4.64 3.616 8.493 7.414 11.415 1.637 1.26 3.4 2.346 5.092 3.532.583.41 2.583 1.96 2.99 2.325.074-.185-1.377-6.124-1.807-7.28-.87-2.324-2.066-4.573-3.76-6.403-2.597-2.812-6.044-4.446-9.86-4.29zm16.995-1.807c1.61.9 3.106 2.032 4.21 3.46.02.025-.005.064-.032.047-1.397-1.04-2.735-2.045-4.173-2.914 1.168 1.967 2.493 3.924 4.736 4.737 1.304.47 3.33.755 5.38.255-.704-.41-2.543-1.51-3.16-2.045-.838-.72-1.386-1.644-2.317-2.283-1.393-.956-2.996-1.31-4.64-1.256zm16.285-6.215c4.306-2.22 8.245-5.03 11.635-8.552.007-.006.016.005.008.01-2.586 2.94-5.51 5.48-8.767 7.512 4.38-1.197 8.58-2.767 11.028-6.932 1.06-1.808 2.563-6.372 2.862-7.847-1.065.963-10.814 5.28-13.43 9.172-1.384 2.063-1.5 4.948-3.336 6.636zm-17.934 1.407c4.108-.88 8.258-2.627 10.48-6.354 1.72-2.88 3.375-9.496 3.444-9.6-.04.05-2.316 2.28-3.535 3.15-1.548 1.105-3.206 2.04-4.75 3.15-3.464 2.5-4.91 5.84-6.705 9.427 3.42-2.35 6.64-4.864 9.546-8.02.03-.03.07.014.045.046-2.46 2.937-5.325 5.838-8.524 8.203zm-14.833 2.792a27.53 27.53 0 0 0 5.677-3.806c.043-.033.1.023.06.06a24.52 24.52 0 0 1-5.352 3.933c2.443-.343 4.586-1.012 6.134-3.155.793-1.094 1.29-2.29 1.677-3.583.15-.52.28-1.048.392-1.573-.142-.115-3.947 2.39-4.823 3.007-1.89 1.327-2.802 3.155-3.764 5.12zm39.134-3.226c3.075-.703 6.07-1.586 9.045-2.523-6.404 1.84-13.067 2.978-19.594 3.91l-.09.037a.16.16 0 0 1-.114-.006c-.74.107-1.487.213-2.223.316-11.872 1.64-24.01 3.55-36.02 3.365.032.032 0 .77-.018 1.095 10.87-1.312 21.8-2.09 32.665-3.448 5.466-.688 10.974-1.515 16.35-2.744zm10.734 13.898c-.16.102-3.015-3.378-3.293-3.757-1.38-1.9-2.682-3.837-4.673-5.166-3.324-2.21-7.393-2.505-11.09-1.255 5.333 1.857 10.217 5.264 14.558 8.635.062.045-.02.15-.083.103-4.687-3.33-9.35-6.223-14.596-8.1 1.525 4.415 4.655 8.025 9.184 9.56 1.88.637 3.89.89 5.872.722.53-.042 3.428-.317 4.123-.74z" fill="#523333"/><path d="M203.21 124.355a20.608 20.608 0 0 0 3.12-6.802c.006-.023-.032-.03-.038-.007-.676 2.456-1.79 4.647-3.326 6.672-.107.136.138.283.243.137z" fill="#523333"/><path d="M202.89 120.462c.018-.058-.07-.082-.088-.024-.767 2.428-2.087 4.3-3.38 6.445-.084.14.115.294.23.177 1.67-1.72 2.645-4.326 3.24-6.598z" fill="#523333"/><path d="M208.562 121.494c.04-.038-.02-.098-.06-.06-1.88 1.712-3.9 2.578-6.224 3.504-.107.04-.072.203.047.178 2.382-.46 4.525-1.962 6.237-3.622z" fill="#523333"/><path d="M232.604 119.316c-1.547.09-3.08.292-4.595.603a38.056 38.056 0 0 0 3.39-2.767c1.26-.575 2.56-1.03 3.904-1.38.047-.014.03-.082-.017-.07-1.203.258-2.365.63-3.5 1.1a89.597 89.597 0 0 0 3.507-3.456c.016-.02-.01-.043-.03-.028-2.065 1.693-4.045 3.47-6.19 5.065.966-1.234 1.575-2.86 1.937-4.33.02-.064-.08-.093-.1-.028-.55 1.827-1.51 3.234-2.495 4.83-.073.05-.143.106-.216.157-1.114.775-2.26 1.43-3.43 2.036a17.334 17.334 0 0 0 2.57-4.79c.015-.045-.054-.06-.066-.02-.704 1.842-1.676 3.484-2.892 5.01-1.084.55-2.185 1.07-3.3 1.62-.184.087-.06.36.128.32 2.2-.49 4.29-1.55 6.253-2.89a37.454 37.454 0 0 1 5.14-.876c.068-.01.073-.114 0-.108z" fill="#523333"/><path d="M220.244 134.498c-1.305-2.415-3.458-4.13-5.95-5.073 1.244-.172 2.445-.884 3.428-1.63.027-.023-.01-.07-.04-.05-1.09.768-2.243 1.138-3.483 1.57a.06.06 0 0 0-.044.06 12.823 12.823 0 0 0-3.258-.734c-.316-.026-.317.455-.007.487 3.818.392 6.923 2.44 9.193 5.46.067.1.213.02.16-.088z" fill="#523333"/><path d="M221.303 129.648c-.95.318-1.895.377-2.866.584-.083.015-.057.134.016.14.952.085 2.005-.257 2.882-.598.08-.026.053-.155-.032-.126z" fill="#523333"/><path d="M181.528 126.96c2.166-2.013 3.822-4.545 4.928-7.272.01-.027-.034-.043-.048-.02-1.18 2.77-2.894 5.03-5.14 7.03-.177.16.086.426.26.263z" fill="#523333"/><path d="M187.787 124.12a424.77 424.77 0 0 0-7.648 3.732c-.2.1-.03.4.17.3 2.53-1.28 5.045-2.57 7.55-3.9.084-.053.012-.174-.074-.13z" fill="#523333"/><path d="M181.886 123.563c.024-.058-.074-.1-.105-.044-.98 1.983-2.16 3.834-3.217 5.772-.054.1.088.22.162.124 1.368-1.735 2.354-3.818 3.162-5.854z" fill="#523333"/><path d="M168.864 126.96c.002-.022-.022-.028-.03-.008-.556 1.393-1.27 2.61-2.284 3.723-.093.1.056.253.152.15 1.012-1.09 1.788-2.42 2.162-3.866z" fill="#523333"/><path d="M169.504 130.172c-1.718.59-3.4 1.367-5.06 2.095-.16.07-.026.3.134.23 1.66-.71 3.367-1.393 4.965-2.237.045-.023.016-.107-.04-.088z" fill="#523333"/><path d="M184.715 135.54a4.293 4.293 0 0 1-1.962-.245c-.125-.046-.176.152-.057.197a3.79 3.79 0 0 0 2.03.14c.05-.007.043-.096-.01-.09z" fill="#523333"/><path d="M184.645 138.317c-.29-.648-.665-1.386-1.22-1.85-.064-.056-.18.016-.128.095.4.618.886 1.162 1.24 1.81.04.075.14.016.108-.055z" fill="#523333"/><path d="M205.16 134.47c-2.248.158-4.49.09-6.716-.286-.292-.047-.416.392-.12.443 2.288.37 4.564.4 6.85-.004.087-.018.07-.157-.014-.153z" fill="#523333"/><path d="M206.467 142.102c-1.318-2.574-3.256-4.84-5.545-6.605-.16-.12-.385.09-.227.224 2.23 1.9 4.04 4.005 5.64 6.456.058.08.175.013.132-.073z" fill="#523333"/><path d="M208.366 138.293c-1.125.07-2.244-.067-3.33-.35-.167-.044-.24.215-.07.258 1.123.32 2.26.353 3.41.16.04-.004.032-.07-.01-.066z" fill="#523333"/><path d="M200.584 138.892c-.928-2.214-2.438-4.06-4.385-5.473-.2-.147-.387.183-.195.33 1.887 1.413 3.34 3.14 4.475 5.203.036.067.127.007.104-.062z" fill="#523333"/><path d="M171.433 138.884c-.962.036-1.892.015-2.837-.19-.872-.186-1.63-.673-2.478-.885-.113-.03-.207.112-.118.2.64.61 1.784.866 2.628 1.024a7.31 7.31 0 0 0 2.82-.005c.083-.016.07-.15-.015-.147z" fill="#523333"/><path d="M171.643 146.192c-.945-3.21-3.05-6.133-5.68-8.202-.15-.115-.363.08-.216.215 2.485 2.305 4.524 4.837 5.73 8.03.04.1.196.066.166-.043z" fill="#523333"/><path d="M176.096 144.116c-1.477-.03-2.85-.42-4.15-1.1-.197-.105-.364.18-.175.295 1.303.803 2.828 1.09 4.338.9.057-.01.042-.09-.01-.093z" fill="#523333"/><path d="M174.53 147.744c-.296-.758-.564-1.632-1.005-2.318-.063-.102-.24-.045-.208.082.22.78.698 1.57 1.065 2.29.044.078.18.027.147-.054z" fill="#523333"/><path d="M228.89 114.54c.008-.03-.043-.047-.05-.017-.337 1.468-1.034 2.627-1.84 3.872-.03.05.038.103.08.062.978-1.04 1.53-2.54 1.81-3.917z" fill="#523333"/><path d="M231.065 115.684a8.966 8.966 0 0 0 .992-2.094c.005-.017-.022-.027-.03-.007a8.818 8.818 0 0 1-1.03 2.062c-.03.042.042.085.068.04z" fill="#523333"/><path d="M236.4 113.86c.04-.012.024-.08-.017-.068-.89.294-1.75.68-2.51 1.226-.05.033-.008.12.046.083.802-.48 1.594-.916 2.48-1.24z" fill="#523333"/><path d="M232.914 117.773c-.916.1-1.755.418-2.516.926-.004 0 0 .005.003.002a5.882 5.882 0 0 1 2.52-.884c.03-.004.024-.05-.005-.047z" fill="#523333"/><path d="M229.887 120.426c-1.02.17-2.038.364-3.057.56-.062.01-.037.103.024.093 1.02-.18 2.043-.345 3.06-.543.075-.016.045-.125-.027-.112z" fill="#523333"/><path d="M223.467 120.987c.493-.852.95-1.732 1.423-2.594.02-.036-.038-.07-.057-.03-.49.855-1 1.702-1.47 2.567-.038.063.065.12.104.057z" fill="#523333"/><path d="M212.79 113.86c.014-.024-.022-.045-.036-.022-1.022 1.872-2.24 3.563-3.58 5.22-.03.035.02.09.054.052 1.42-1.58 2.58-3.378 3.563-5.25z" fill="#523333"/><path d="M206.735 119.804a39.17 39.17 0 0 1 1.296-2.53c.016-.03-.024-.057-.045-.028-.485.815-.944 1.646-1.322 2.514-.016.05.047.09.073.044z" fill="#523333"/><path d="M202.395 123.34c.447-.91.85-1.844 1.26-2.768.018-.047-.048-.083-.068-.036-.436.915-.88 1.828-1.28 2.758-.026.053.057.1.088.045z" fill="#523333"/><path d="M205.325 124.413c-.907.383-1.8.782-2.7 1.18-.06.028-.01.115.05.087.902-.388 1.808-.77 2.702-1.17.074-.026.014-.125-.052-.097z" fill="#523333"/><path d="M199.256 125.574c.57-1.008 1.073-2.064 1.604-3.098.032-.056-.054-.108-.086-.052-.54 1.03-1.113 2.045-1.607 3.094-.032.064.057.12.09.056z" fill="#523333"/><path d="M192.046 115.024c.007.008.015 0 .013-.01z" fill="#523333"/><path d="M192.056 115.02c.03-.048-.046-.088-.073-.042-1.203 1.813-2.44 3.615-3.54 5.492-.026.04.038.07.06.035 1.258-1.775 2.397-3.644 3.553-5.484z" fill="#523333"/><path d="M187.955 122.598c.043-.04-.02-.104-.064-.063a7.66 7.66 0 0 1-1.706 1.127c-.034.013-.004.06.023.045a5.802 5.802 0 0 0 1.75-1.11z" fill="#523333"/><path d="M185.184 126.348c.07-.03.01-.13-.056-.1a6.18 6.18 0 0 0-1.743 1.122c-.056.05.027.13.082.08a7.175 7.175 0 0 1 1.717-1.102z" fill="#523333"/><path d="M183.177 122.754c.015-.037-.05-.055-.058-.017-.21.62-.42 1.24-.627 1.86-.015.038.05.056.058.018.21-.62.418-1.24.626-1.86z" fill="#523333"/><path d="M172.885 123.462c.012-.048-.06-.067-.075-.023-.558 1.697-1.327 3.116-2.428 4.525-.037.05.03.123.07.07a10.88 10.88 0 0 0 2.433-4.574z" fill="#523333"/><path d="M169.035 128.72c.202-.66.37-1.324.552-1.993.016-.05-.066-.075-.082-.024-.196.66-.405 1.32-.58 1.982-.022.075.09.105.11.034z" fill="#523333"/><path d="M173.744 140.525c-1.48-.058-2.907-.134-4.353-.505-.063-.018-.09.085-.027.1 1.405.358 2.93.614 4.38.483.053.002.055-.075.002-.078z" fill="#523333"/><path d="M176.01 145.438c-.446.14-.915.1-1.312-.166-.053-.034-.097.046-.05.083.405.306.936.39 1.407.194.063-.027.018-.13-.044-.113z" fill="#523333"/><path d="M173.46 147.342c-.25-1.016-.727-1.945-1.337-2.795-.018-.023-.052-.002-.038.024.576.87.957 1.81 1.243 2.808.018.086.15.052.13-.035z" fill="#523333"/><path d="M169.367 145.458c-.456-1.3-1.047-2.56-1.574-3.83-.017-.037-.083-.01-.066.028.504 1.28.96 2.597 1.54 3.843.022.05.122.016.1-.043z" fill="#523333"/><path d="M188.767 138.82c-.972-.28-1.944-.462-2.895-.833-.003-.004-.007.006 0 .007.894.403 1.904.81 2.888.888.035.004.04-.05.007-.062z" fill="#523333"/><path d="M186.845 137.21c-.697-.116-1.36-.324-1.964-.692-.01-.008-.024.015-.01.023.595.39 1.26.658 1.966.73.035-.002.04-.05.01-.06z" fill="#523333"/><path d="M186.27 139.397c-.282-.29-.576-.56-.865-.843-.032-.032-.076.016-.047.044.285.285.563.57.86.846.035.035.084-.016.052-.047z" fill="#523333"/><path d="M199.334 138.917c-.677-.91-1.385-1.795-2.085-2.693-.033-.04-.1.014-.068.052.69.9 1.362 1.813 2.073 2.702.03.046.108-.016.078-.06z" fill="#523333"/><path d="M203.56 142.285c-.522-1.968-1.584-3.747-2.89-5.3-.03-.04-.087.018-.056.057 1.282 1.61 2.115 3.35 2.796 5.28.032.094.177.06.15-.037z" fill="#523333"/><path d="M207.082 136.633c-.987.163-1.97.007-2.834-.495-.063-.04-.124.06-.06.098.88.54 1.908.743 2.92.516.082-.015.05-.128-.026-.12z" fill="#523333"/><path d="M202.57 132.842c-1.235.005-2.457-.062-3.68-.267-.08-.013-.116.11-.036.122 1.226.223 2.467.34 3.71.282.093-.006.098-.14.005-.14z" fill="#523333"/><path d="M218.476 134.654c-.804-1.124-1.886-2.048-3.023-2.827-.046-.033-.09.046-.044.073 1.146.808 2.07 1.763 2.996 2.803.03.038.096-.007.07-.05z" fill="#523333"/><path d="M221.776 133.945c-.64-.515-1.263-1.04-1.83-1.637-.036-.036-.095.017-.057.057a11.22 11.22 0 0 0 1.823 1.654c.053.032.107-.043.062-.076z" fill="#523333"/><path d="M228.438 132.71c-.77-.04-1.523.01-2.293-.09a12.464 12.464 0 0 1-2.466-.59c-.04-.015-.053.047-.02.058 1.454.547 3.226.968 4.79.727.065-.007.047-.1-.013-.104z" fill="#523333"/><path d="M223.042 130.068c-.548.1-1.085.254-1.624.39-.036.01-.025.064.015.058.543-.115 1.1-.214 1.63-.368.053-.012.034-.092-.02-.08z" fill="#523333"/><path d="M220.978 128.138c-.92.072-1.82.336-2.683.654-.082.033-.05.16.034.13.874-.302 1.76-.466 2.66-.65.08-.01.065-.14-.013-.134z" fill="#523333"/><path d="M182.193 129.855c2.007.93 4.098 1.496 6.32 1.585 2.868.116 5.788-1.288 8.564-.72 1.56.322 3.006 1.066 4.54.19 1.795-1.017 2.018-3.38 3.203-4.88 1.28-1.622 3.576-1.553 4.69-3.34.95-1.528.895-3.476 1.2-5.196.264-1.504.744-2.807 2.01-3.772.843-.643 1.715-.98 2.3-1.917 1.552-2.494-.235-6.6 3.4-7.856.143-.053.11-.3-.055-.276-.046.006-.094.018-.137.027l-.02-.103c.35-.056.32-.6-.03-.545-1.665.258-3.237.127-4.808-.473-.905-.338-1.683-.827-2.67-.816-2.473.02-4.082 2.452-6.72 1.915-1.913-.393-3.61-1.734-5.616-1.767-2.05-.03-3.01 1.45-4.57 2.473-2.252 1.462-4.954.672-7.29 1.846-1.882.956-3.256 2.72-4.064 4.63-2.105 4.96-1.59 11.22-1.957 16.506-.005.016 0 .023.003.034a2.64 2.64 0 0 0-.108.42c-.022.1-.05.206-.067.313-1.712.935-3.51 1.992-5.605 2.195-.686.063-.573 2.084-.256 2.067 2.93-.145 5.457-1.112 7.744-2.545z" fill="#EEDDE0"/><path d="M174.704 130.33c2.097-.195 3.892-1.25 5.603-2.19.012-.104.05-.21.068-.313a3.17 3.17 0 0 1 .11-.416c-.002-.01-.007-.024-.005-.04.365-5.284-.145-11.546 1.96-16.506.81-1.906 2.182-3.675 4.06-4.627 2.337-1.18 5.045-.39 7.29-1.853 1.565-1.02 2.53-2.504 4.574-2.47 2.007.034 3.7 1.378 5.616 1.767 2.638.538 4.247-1.894 6.716-1.917.99-.008 1.77.474 2.67.815 1.576.596 3.148.728 4.81.465.356-.055.382.493.033.55-.197.033-.386.05-.57.072l-.006.003c-8.446 4.786-17.09 8.927-24.163 15.764-3.425 3.31-6.695 7.354-10.693 10.037 2.648 1.166 5.506 1.67 8.4 1.27 2.487-.34 4.162-1.11 6.663-.454 1.86.49 3.36.548 4.607-1.13.717-.96 1.038-2.168 1.67-3.18 1.174-1.88 3.02-1.58 4.477-3.018 2.517-2.487.616-7.02 3.552-9.443 1.615-1.33 2.81-2 3.12-4.28.147-1.076.136-2.185.515-3.22.478-1.292 1.227-2.157 2.59-2.355.167-.023.2.227.05.277-3.633 1.256-1.842 5.36-3.394 7.853-.584.936-1.457 1.28-2.3 1.924-1.262.962-1.74 2.27-2.01 3.772-.308 1.716-.247 3.665-1.2 5.196-1.11 1.79-3.414 1.72-4.69 3.34-1.188 1.497-1.408 3.863-3.207 4.884-1.534.868-2.98.125-4.537-.195-2.776-.567-5.696.837-8.563.72-2.224-.09-4.318-.66-6.322-1.585-2.287 1.434-4.818 2.404-7.752 2.543-.315.028-.427-1.992.258-2.056zm6.02-2.425c5.802-3.33 10.067-8.756 15.3-13.187 6.166-5.223 13.65-8.292 21.18-11.012-1.562.087-2.87-.254-4.455-.76-2.168-.684-3.26-.31-5.127.632-.62.313-1.23.62-1.926.742-1.355.234-2.647-.27-3.882-.758-.967-.383-1.957-.9-3.007-1.022-1.606-.18-2.685.7-3.843 1.65-1.532 1.257-2.76 1.688-4.73 1.853-3.42.278-5.907 1.85-7.274 5.076-1.09 2.576-1.205 5.496-1.433 8.25-.22 2.675-.466 5.35-.682 8.024-.003.06-.04.1-.088.12-.006.112-.01.224-.03.335l-.007.054zm-5.932 3.892c9.154-.855 14.34-9.413 20.794-14.888 5.848-4.966 12.744-9.048 19.752-12.34-7.97 3.16-15.533 6.846-21.782 12.917-5.428 5.275-10.836 11.93-18.792 13.156.01.03-.037.453-.04.562a1.67 1.67 0 0 0 .068.59z" fill="#523333"/><path d="M217.964 104.198c.202.023.347-.098.432-.26.202-.066.376-.23.397-.442a.413.413 0 0 0-.194-.377c-.068-.044-.147-.09-.226-.083-.043.002-.106.002-.177.032-.074.033-.14.103-.127.19.01-.02.013-.017.008 0-.005.01-.01.02-.01.034a.14.14 0 0 0-.002.07l.007.026a.294.294 0 0 0-.144.248.138.138 0 0 0-.077.13c-.02.028-.045.053-.056.087-.06.13-.006.327.166.343z" fill="#523333"/><path d="M212.837 106.328c.97-.15 1.922-.12 2.9-.024.057.006.077-.08.018-.09-.96-.2-1.96-.164-2.925-.013-.083.017-.076.145.007.13z" fill="#523333"/><path d="M207.132 109.498c2.72-.74 5.305-.7 8.067-.222.02.002.026-.028.002-.035-2.605-.826-5.53-.675-8.122.116-.087.032-.04.17.052.143z" fill="#523333"/><path d="M199.873 113.868c3.863-.693 7.597-.532 11.425.294.093.02.112-.114.027-.14-3.712-1.134-7.717-1.213-11.508-.438-.156.035-.103.315.056.284z" fill="#523333"/><path d="M194.147 118.86c5.554.096 10.553 1.054 15.902 2.424.087.024.14-.118.05-.156-4.9-2.093-10.67-2.867-15.98-2.658-.252.01-.224.386.026.39z" fill="#523333"/><path d="M187.37 125.563c5.783-.824 10.892.16 16.453 1.622.055.013.083-.072.032-.095-4.946-2.39-11.144-2.69-16.51-1.994-.3.044-.276.51.026.467z" fill="#523333"/><path d="M209.374 106.896c1.07-1.08 1.448-3.093 1.332-4.554-.01-.082-.144-.1-.155-.01-.083.812-.2 1.612-.48 2.385-.258.703-.687 1.308-.977 1.986-.074.185.142.336.282.193z" fill="#523333"/><path d="M201.766 111.115c1.752-2.235 1.9-4.652 2.617-7.286.024-.09-.128-.147-.16-.06-.337.95-.5 1.928-.733 2.908-.376 1.56-1.056 2.883-2.055 4.14-.17.225.153.518.33.295z" fill="#523333"/><path d="M193.975 117.097c.937-4.388 1.96-8.97 1.754-13.48-.01-.153-.268-.182-.283-.018-.36 4.546-1.14 8.917-2.106 13.372-.083.4.55.526.634.124z" fill="#523333"/><path d="M184.82 125.548c1.666-3.216 2.3-6.126 2.667-9.707.318-3.17.587-6.46-.333-9.55-.028-.1-.194-.07-.177.033.995 6.343.43 13.29-2.585 19.016-.144.27.284.48.428.21z" fill="#523333"/><path d="M210.037 107.916a11.194 11.194 0 0 1 4.014-.148c.016 0 .018-.02.005-.02a9.79 9.79 0 0 0-4.07.007c-.105.027-.053.188.053.16z" fill="#523333"/><path d="M211.434 106.186c.69-.795 1.034-1.882 1.15-2.91.005-.034-.047-.044-.05-.01-.18 1.085-.63 1.935-1.205 2.852-.04.055.06.123.103.068z" fill="#523333"/><path d="M207.076 106.818c.383-1.068.756-2.324.793-3.46-.003-.017-.025-.013-.03-.003-.18.56-.258 1.153-.398 1.725-.14.57-.316 1.135-.455 1.707-.017.05.072.082.088.03z" fill="#523333"/><path d="M204.098 109.285c1.076-.947.828-2.614 1.52-3.78.03-.057-.057-.102-.092-.043-.735 1.176-.547 2.695-1.528 3.738-.057.064.04.138.1.085z" fill="#523333"/><path d="M204.503 111.203c2.73.01 5.276.455 7.9 1.173.017.006.03-.024.01-.034-2.51-.94-5.246-1.33-7.92-1.316-.116.005-.104.178.01.177z" fill="#523333"/><path d="M202.777 115.412c1.99-.296 3.858.03 5.718.77.047.018.087-.05.036-.075-1.767-.903-3.815-1.106-5.756-.78-.058.008-.054.1.004.085z" fill="#523333"/><path d="M196.5 116.587c3.512.33 6.935 1.07 10.267 2.22.024.007.042-.026.02-.04a39.436 39.436 0 0 0-10.248-2.376c-.13-.01-.17.187-.04.198z" fill="#523333"/><path d="M194.55 120.834c3.095.346 6.104.6 9.13 1.386.056.013.07-.067.018-.083-2.92-.857-6.075-1.572-9.14-1.475-.09.004-.105.16-.007.172z" fill="#523333"/><path d="M190.66 123.305c3.045.07 6.028.06 9.048.536.063.01.08-.08.018-.095-2.94-.557-6.09-.965-9.083-.66-.135.014-.123.22.018.22z" fill="#523333"/><path d="M199.626 110.362c.63-1.807.73-3.75.447-5.636-.007-.032-.056-.03-.053.005.27 1.917.063 3.76-.455 5.61-.008.04.05.057.06.023z" fill="#523333"/><path d="M196.692 113.035c1.08-2.428 1.588-5.043 1.64-7.692 0-.063-.097-.057-.097.007-.06 2.676-.637 5.16-1.63 7.64-.028.06.063.102.087.045z" fill="#523333"/><path d="M192.06 115.02c.75-3.304 1.118-6.715 1.217-10.097 0-.07-.106-.06-.11.005-.196 3.396-.645 6.72-1.235 10.068-.013.08.11.108.128.025z" fill="#523333"/><path d="M188.596 121.19c.692-1.736 1.07-3.596 1.17-5.462.132-2.436-.514-4.868-.052-7.28.003-.03-.038-.04-.045-.01-.42 1.866-.11 3.673-.05 5.56.075 2.492-.413 4.793-1.138 7.155-.014.06.09.098.113.037z" fill="#523333"/><path d="M185.543 117.598c.664-3.01.795-6.088.337-9.136-.002-.017-.03-.013-.03.004.313 3.063.195 6.087-.418 9.112-.01.066.096.09.11.02z" fill="#523333"/><path d="M183.265 125.503c1.093-3.614 1.005-7.745.415-11.433-.013-.072-.123-.067-.114.008.513 3.9.113 7.534-.474 11.392-.013.11.143.14.173.033z" fill="#523333"/><path d="M185.1 127.598c4.264-.19 8.462-.068 12.673.682.05.005.064-.063.016-.076-4.177-.79-8.46-1.13-12.695-.705-.065.012-.06.097.003.097z" fill="#523333"/><path d="M184.165 129.4c1.808.008 3.606.074 5.4.326.088.013.114-.12.027-.135-1.794-.256-3.62-.406-5.434-.31-.08.007-.07.12.007.12z" fill="#523333"/><path d="M187.036 140.005c4.68 3.43 2.052 9.844 1.15 14.514-.034.163-.193.353-.393.31-3.323-.79-6.757-.205-10.08-.93a12.644 12.644 0 0 1-4.398-1.897l-.09.127c.1.06.16.198.067.32-3.308 4.6-7.514 8.464-12.28 11.527-.156.105-.335.032-.378-.148-.914-3.794-3.754-6.527-5.24-10.05a11.79 11.79 0 0 1-.607-7.357c.848-3.508 3.162-5.954 6.022-7.773-.084.01-.165.01-.243.01a.176.176 0 0 1-.12.126c-4.463 1.466-7.9-2.456-10.19-5.74-1.294-1.853-2.403-3.874-2.724-6.14-.378-2.637.21-5.282-.706-7.853-.09-.257.16-.6.448-.463 4.277 2.093 9.173.455 13.62 1.498a.25.25 0 0 1-.025-.19c1.317-5.04 6.19-8.39 7.047-13.567.04-.264.42-.425.6-.17 2.16 3.13 5.718 4.507 8.404 7.07 2.165 2.07 3.287 4.844 3.31 7.814 0 .24-.015.473-.03.704 1.516-.91 3.15-.386 4.755.245 3.5 1.383 6.918 2.975 10.416 4.37.25.1.253.39.085.56-2.572 2.607-2.542 6.284-4.254 9.34-.953 1.71-2.42 2.955-4.163 3.743z" fill="#EEDDE0"/><path d="M187.794 154.823c-3.32-.786-6.76-.2-10.08-.93a12.67 12.67 0 0 1-6.33-3.51c-3.625-3.697-4.564-9.383-2.265-13.997a1.272 1.272 0 0 1-.955-.723c-4.258 1.682-8.887 3.424-11.483 7.42-2.61 4.02-2.092 8.688.26 12.66.914 1.545 1.985 2.995 2.837 4.575.967 1.797.687 3.54 2.88 1.974 3.97-2.836 7.302-6.26 10.266-10.107.178-.23.537.03.365.266-3.307 4.6-7.513 8.465-12.282 11.53-.157.1-.336.033-.38-.15-.914-3.79-3.757-6.526-5.24-10.044a11.73 11.73 0 0 1-.607-7.358c.845-3.505 3.163-5.954 6.023-7.773-.082.008-.164.01-.24.008a.177.177 0 0 1-.125.123c-4.463 1.466-7.9-2.456-10.19-5.74-1.293-1.854-2.402-3.874-2.727-6.136-.377-2.64.214-5.287-.702-7.86-.09-.255.157-.596.445-.458 4.277 2.093 9.177.452 13.622 1.495a.25.25 0 0 1-.024-.19c1.317-5.04 6.19-8.386 7.043-13.564.04-.266.423-.423.6-.172 2.168 3.134 5.722 4.506 8.412 7.074 2.16 2.065 3.282 4.84 3.307 7.813 0 .24-.018.47-.027.704 1.513-.907 3.146-.39 4.752.246 3.5 1.383 6.92 2.972 10.412 4.368.252.102.255.39.087.562-2.57 2.6-2.542 6.285-4.254 9.34-.954 1.71-2.42 2.955-4.164 3.743 4.68 3.43 2.052 9.837 1.145 14.51-.026.165-.188.35-.384.304zm-28.85-34.3c-3.793-.387-7.655.457-11.25-.99.84 3.27-.12 6.71 1.202 9.932 1.775 4.33 6.173 10.07 11.424 8.885a.187.187 0 0 1 .156.028c.475-.105.95-.255 1.407-.376 1.87-1.047 3.904-1.87 5.88-2.564-.318-.77.142-1.49.81-1.747-.023-6.214-2.598-12.454-9.63-13.167zm20.443-1.125c-1.046-6.39-7.49-7.776-11.015-12.292-1.533 4.77-5.775 8.083-7.06 12.966a.213.213 0 0 1-.07.108c.564.152 1.125.345 1.675.604 4.905 2.322 6.512 7.813 6.094 12.826.25-.014.507.03.75.158.307.16.54.424.673.73 5.22-3.36 10.055-8.404 8.955-15.1zm12.206 13.97c.525-1.566.88-3.207 1.656-4.673.75-1.438 1.905-1.582.163-2.506-1.926-1.02-4.054-1.754-6.056-2.606-2.012-.856-4.985-2.764-7.13-1.272-.02.015-.04.02-.06.028-.523 5.596-4.687 10.077-9.623 12.568a1.292 1.292 0 0 1-.05.52c3.367 2.277 6.9 4.613 11.093 4.827 4.874.262 8.49-2.365 10.005-6.888zm-3.663 19.048c1-3.994 2.68-9.325-1.407-12.188-.266.104-.54.2-.816.28-5.604 1.675-11.157-1.15-15.37-4.727-.18.3-.465.534-.808.604-3.108 7.817 1.47 16.298 10.187 17.064 1.693.15 3.39.08 5.082.205.39.026 1.97.41 2.31.292.75-.253.662-.892.82-1.528z" fill="#523333"/><path d="M153.064 130.97c1.94 1.76 4.207 3.013 6.735 3.61-2.42-.564-4.7-1.675-6.757-3.588-.01-.012.007-.03.02-.022z" fill="#523333"/><path d="M168.782 135.15c-.195-.123-.397-.24-.6-.358-2.893.373-5.698.405-8.33-.206.357.083.72.156 1.088.21 2.323.358 4.604-.035 6.908-.193-3.607-2.018-7.685-3.005-11.3-5.024-4.138-2.31-6.962-6.157-9.575-9.986-.012-.015.01-.034.024-.018 3.098 4.22 6.183 8.34 11.12 10.534 3.31 1.472 6.84 2.275 10.007 4.02-3.564-5.96-9.414-9.972-16.287-11.233-.042-.004-.034-.074.007-.062 6.728 1.072 12.58 4.982 16.208 10.66-.794-2.992-2.158-5.625-4.368-7.84-.026-.024.017-.058.042-.034 2.29 2.223 3.903 4.95 4.473 8.1a.412.412 0 0 0 .044.064c.002-.014.003-.028.012-.04 4.082-8.668 3.942-18.424-.06-27.083-.02-.04.042-.064.066-.026 4.478 8.42 4.57 18.72.552 27.323-.074.16-.23.196-.368.16l.182.297c.088.056.186.1.275.155l.003.002c.07.04.142.084.208.127.3.2-.035.645-.334.453z" fill="#523333"/><path d="M159.84 134.59c-.014 0-.024-.005-.04-.01l.04.01z" fill="#523333"/><path d="m170.527 135.618-.003-.004c-.233-.005-.466-.01-.694-.02-.366-.012-.296-.567.064-.56 4.653.095 9.717-.026 14.083-1.812 3.903-1.596 7.077-4.554 10.706-6.635.087-.05.16.09.09.15-3.43 2.84-7.526 6.01-11.812 7.43-3.695 1.217-7.78 1.536-11.7 1.47 5.18 2.593 11.153 2.395 16.233-.418.057-.035.116.064.06.096-5.213 3.14-11.697 3.192-17.025.3z" fill="#523333"/><path d="M160.893 163.475c.02-.06.038-.12.06-.18-.117.086-.302-.058-.195-.187.152-.19.29-.382.44-.576 2.555-8.79-.522-20.775 7.47-27.254.207-.17.464.15.26.325-4.343 3.606-5.598 10.248-5.956 15.6-.234 3.482-.1 7.165-1.184 10.52 1.788-2.604 2.92-5.53 3.3-8.71.004-.042.07-.038.07.007-.348 3.54-1.592 6.8-3.705 9.632-.12.296-.248.595-.39.885-.058.095-.207.043-.17-.062z" fill="#523333"/><path d="M187.444 153.81c-3.056-3.71-6.982-5.952-10.583-9.04-2.88-2.466-5.424-5.506-7.01-8.96-.03-.07.077-.136.12-.068 2.49 3.912 5.172 7.29 8.94 10.08 3.13 2.32 6.76 4.35 8.864 7.733.128.215-.158.46-.33.255z" fill="#523333"/><path d="M159.783 144.166c-.014.037-.072.013-.057-.024 1.098-3.252 3.225-5.948 6.083-7.708-2.61.634-5.43.58-8.025.104-.038-.008-.03-.063.007-.055 3.147.506 6.032.153 9.02-.61.438-.222.89-.428 1.355-.607.136-.05.23.152.092.21-.053.023-.1.05-.15.068.047.027.064.095 0 .127-.41.18-.823.338-1.248.473-3.29 1.75-5.715 4.454-7.08 8.024z" fill="#523333"/><path d="M166.966 125.51c-.367-4.003.16-7.953 1.622-11.7.01-.02.04-.007.034.01-1.385 3.757-1.924 7.684-1.52 11.67.002.082-.128.103-.136.02z" fill="#523333"/><path d="M168.397 132.054c1.25-3.928 1.865-7.846 1.452-11.97-.005-.005.002-.004.005 0 .413 4.037.082 8.184-1.37 12-.024.058-.11.024-.09-.03z" fill="#523333"/><path d="M169.214 134.62c4.036-4.228 6.508-9.428 7.013-15.262.006-.08.127-.063.12.013-.48 5.82-2.852 11.233-6.962 15.42-.092.097-.268-.067-.17-.168z" fill="#523333"/><path d="M186.755 126.935c-3.265-.463-6.478.13-9.378 1.678-.102.055-.17-.11-.07-.166 2.947-1.584 6.155-2.105 9.46-1.61.057.018.047.108-.012.098z" fill="#523333"/><path d="M184.637 129.328c-4.998.94-9.473 2.782-13.672 5.642-.096.063-.21-.073-.115-.143a32.214 32.214 0 0 1 13.774-5.57c.047-.006.057.062.013.07z" fill="#523333"/><path d="M160.804 162.646c-1.488-4.524-4.07-9.98-1.938-14.69.005-.01.022-.004.017.006-1.922 4.75.72 10.034 2.184 14.57.05.174-.206.29-.263.114z" fill="#523333"/><path d="M160.557 153.46a24.35 24.35 0 0 1 1.76-9.954c.018-.047.096-.02.08.03-1.2 3.212-1.8 6.492-1.78 9.92 0 .038-.057.038-.06.003z" fill="#523333"/><path d="M156.724 150.978c-.027-2.46.464-4.948 1.605-7.147.03-.06.13-.02.1.04-1.027 2.28-1.63 4.61-1.634 7.12 0 .05-.072.04-.073-.01z" fill="#523333"/><path d="M165.614 149.906c2.214-4.332.267-9.7 3.125-13.79.1-.15.33.016.226.166-2.794 4.09-.87 9.42-3.233 13.687-.036.064-.15.002-.12-.065z" fill="#523333"/><path d="M167.546 153.91c.685-1.952 1.45-3.954 2.34-5.823.057-.12.237-.054.194.074-.672 1.963-1.535 3.923-2.416 5.796-.033.077-.145.033-.118-.045z" fill="#523333"/><path d="M187.663 153.35c-1.728-3.706-3.824-7.134-6.385-10.327-.03-.038.03-.087.062-.05 2.724 3.09 4.95 6.497 6.623 10.253.08.19-.212.314-.3.125z" fill="#523333"/><path d="M186.796 154.318c-5.01-1.557-10.045-3.893-13.91-7.473-.03-.028.008-.076.036-.048 4.093 3.608 9.054 5.177 13.968 7.282.15.07.066.287-.094.237z" fill="#523333"/><path d="M171.16 144.562c-1.096-2.448-1.728-5.338-1.51-8.025.01-.114.194-.122.205-.004.2 2.778.546 5.32 1.39 7.993.018.055-.06.092-.086.036z" fill="#523333"/><path d="M181.016 150.576c-3.362-1.768-6.368-4.47-8.664-7.474-.055-.07.05-.152.11-.086 2.563 2.975 5.354 5.297 8.58 7.514.027.017 0 .063-.026.046z" fill="#523333"/><path d="M181.773 146.824c-1.602-1.78-3.383-3.285-5.18-4.855-.054-.047.006-.13.068-.093 1.964 1.318 3.676 3.093 5.196 4.882.04.05-.037.11-.082.063z" fill="#523333"/><path d="M186.656 145.19a42.534 42.534 0 0 0-3.463-3.98c-.117-.116.088-.28.202-.16a26.454 26.454 0 0 1 3.312 4.1c.028.034-.023.074-.05.04z" fill="#523333"/><path d="M182.473 131.817c-.05.015-.09-.063-.033-.08 2.162-.742 4.067-1.83 5.936-3.127.06-.042.13.043.07.09-1.742 1.463-3.806 2.46-5.973 3.117z" fill="#523333"/><path d="M173.602 120.775c.68-3.155.235-6.01-.36-9.12-.017-.075.103-.107.134-.037 1.18 2.823.966 6.252.267 9.16-.003.03-.048.028-.04-.003z" fill="#523333"/><path d="M60.465 82.024c-.107-4.242 4.895-5.724 6.784-8.94.133-.226.45-.124.552.067 2.298 4.245 9.917 5.685 9.212 11.443 4.347-2.126 8.31 2.56 12.695 2.13.217-.02.46.203.346.433-2.008 3.89-1.588 8.762-5.237 11.3 1.072 1.468.747 3.14.55 4.862-.312 2.782-.21 5.55-.386 8.336-.013.174-.28.172-.308.004a3.11 3.11 0 0 1-.022-.147l-.058.008c.042.163-.07.372-.266.325-2.682-.64-5.263-1.002-8.017-1.042-1.514-.02-2.856-.174-4.048-.94l-.035.06c.115.046.197.19.108.323-2.453 3.58-7.442 5.166-11.17 7.06-.153.076-.355-.048-.37-.212-.4-3.276-1.93-5.36-3.414-8.19-.89-1.7-1.053-3.505-.45-5.33a8.804 8.804 0 0 1 1.538-2.765c-2.673-.238-4.825-1.754-6.424-3.88-.982-1.3-1.68-2.766-2.3-4.264-.507-1.234-1.747-6.455-3.274-6.69-.216-.033-.32-.392-.068-.46 4.788-1.374 9.006-5.43 14.06-3.485z" fill="#EEDDE0"/><path d="M84.677 111.656c-.31-1.895-.24-3.846-.122-5.752.128-2.117 1.18-5.314-.144-7.182a8.146 8.146 0 0 1-1.25.607c-4.724 1.82-9.626-.364-13.746-2.69a1.34 1.34 0 0 1-.417.376c-.145 4.094 0 11.136 4.585 12.82 1.82.667 4.105.253 6 .456 1.662.174 3.293.523 4.87 1.067.27.09.167.556-.122.49-2.683-.64-5.26-1-8.015-1.04-1.9-.03-3.535-.26-4.93-1.658-2.85-2.857-3.327-8.146-2.742-12.007a.86.86 0 0 1-.13.02c-.603.023-1.006-.44-1.083-.973-3.182 1.29-6.58 2.327-8.743 5.173-1.035 1.364-1.78 3.21-1.6 4.95.19 1.864 1.393 3.286 2.315 4.843a14.268 14.268 0 0 1 1.405 3.174c.446 1.478.095 2.325 1.886 1.62 3.133-1.24 7.378-3.144 9.308-5.943.158-.225.497.024.344.246-2.446 3.58-7.44 5.17-11.17 7.058-.153.078-.354-.047-.375-.207-.398-3.273-1.927-5.36-3.407-8.19-.89-1.7-1.057-3.503-.45-5.33a8.695 8.695 0 0 1 1.538-2.765c-2.67-.24-4.823-1.755-6.43-3.88-.982-1.3-1.673-2.767-2.294-4.264-.51-1.233-1.745-6.457-3.277-6.69-.216-.03-.32-.39-.068-.465 4.79-1.375 9.01-5.428 14.063-3.482-.107-4.242 4.895-5.723 6.784-8.94.134-.226.45-.127.55.064 2.298 4.243 9.917 5.683 9.212 11.44 4.347-2.125 8.312 2.56 12.696 2.13.217-.02.46.203.343.43-2.01 3.89-1.585 8.765-5.238 11.307 1.074 1.468.75 3.14.554 4.86-.313 2.784-.212 5.55-.39 8.334-.01.164-.28.158-.307-.01zM49.142 85.03c-.13.058-1.516.626-2.023.642.132.096.29.223.313.275a64.82 64.82 0 0 1 2.123 4.898c1.638 4.268 4.033 9.236 9.27 9.507.01-.002.017.005.024.006 2.162-2.35 5.464-3.698 8.537-4.472-.058-.144-.04-.29.04-.45a.986.986 0 0 1 .224-.284c-.577-4.26-1.703-8.793-5.364-11.456-4.578-3.327-8.746-.636-13.143 1.333zm22.665-7.144c-1.07-.726-2.172-1.43-3.077-2.355-1.096-1.114-.76-1.747-1.94-.75-2.263 1.916-6.043 3.958-5.85 7.36a.157.157 0 0 1-.013.08c.15.07.302.14.455.22 4.642 2.424 6.21 7.626 6.63 12.483a1.227 1.227 0 0 1 1.424.305c2.58-2.1 4.59-4.926 6.04-7.902 2.05-4.202-.17-7.065-3.67-9.44zM87.865 91.79c.282-1.177.77-2.398.98-3.574.23-1.306.158-.65-1.377-.95-3.515-.688-6.63-3.828-10.355-2.076a.27.27 0 0 1-.21.015c-.39 1.806-1.452 3.468-2.44 4.992-1.347 2.07-2.803 4.002-4.86 5.334.045.113.073.235.076.366 0 .137-.033.27-.08.402 3.11 1.427 6.31 3.023 9.81 2.985 4.884-.064 7.395-3.064 8.453-7.49z" fill="#523333"/><path d="M60.506 116.706c3.457-3.65 2.03-8.62 2.933-13.1.622-3.092 2.045-5.976 4.562-7.914-.044-.072-.097-.138-.14-.206-2.436-1.435-5.914-.952-8.62-1.782-2.487-.76-4.713-2.002-6.75-3.596-.03-.02.003-.06.03-.042 2.677 1.99 5.705 3.386 9.007 3.984 2.004.364 4.12.107 5.982.925-2.252-2.972-5.915-4.528-9.313-5.903-3.425-1.385-6.944-2.35-10.525-3.207-.04.007-.076.016-.115.022-.047.013-.067-.028-.066-.067-.203-.047-.41-.1-.612-.146-.14-.034-.126-.254.026-.23.406.064.808.137 1.21.21a32.948 32.948 0 0 1 9.16-.48c.055.006.045.09-.01.083a33.745 33.745 0 0 0-8.8.455c3.668.706 7.263 1.868 10.7 3.3 3.444 1.433 7.05 3.004 9.167 6.19-.003-.01-.008-.026-.002-.043 1.04-3.063.74-6.3-.846-9.116-.024-.038.043-.066.067-.028a10.87 10.87 0 0 1 .976 9.087c2.978-4.16 1.027-9.02-.667-13.317-1.07-2.716-1.93-5.68-.293-8.353.03-.056.124-.003.1.054-2.05 4.67 1.355 8.824 2.484 13.248.785 3.067.61 6.22-1.302 8.795a.21.21 0 0 1-.085.157l-.077.06-.038.05a.278.278 0 0 1-.12.08c-3.773 3.018-4.902 7.444-5.074 12.09-.12 3.215-.184 6.583-2.816 8.846-.09.07-.205-.034-.136-.107z" fill="#523333"/><path d="M80.267 93.13c-3.357 1.24-7.295 2.61-10.896 2.797l-.143.096c-.065.04-.132-.022-.12-.076-.006 0-.013-.002-.017 0-.224.008-.28-.31-.05-.346.242-.037.487-.08.732-.122 3.477-2.478 6.046-6.39 10.52-7.075.022-.005.022.027.005.028-4.35.738-6.805 4.548-10.17 6.98 6.817-1.188 13.836-3.27 18.895-8.125.056-.057.148.034.102.096-2.248 2.83-5.52 4.52-8.857 5.75z" fill="#523333"/><path d="M84.46 111.472c-.03-.046-.06-.084-.09-.13-.01.083-.142.125-.194.027-1.554-2.83-5.82-2.097-8.462-3.186-1.84-.76-3.342-1.956-4.61-3.47-.023-.028.016-.058.04-.034 2.595 2.948 5.544 3.82 9.323 4.33 1.23.167 2.3.48 3.112 1.24-1.138-1.474-2.44-2.824-3.99-3.874-1.585-1.076-3.374-1.717-5.043-2.63-2.98-1.63-4.46-4.28-5.675-7.345-.1-.26.29-.43.405-.167l.022.052c4.844 1.415 9.752.91 14.18-1.55.044-.023.09.05.047.076-4.258 2.56-9.384 3.206-14.125 1.69.9 2.015 1.78 4.027 3.48 5.51 1.592 1.384 3.59 2.02 5.416 3.015 2.743 1.495 4.873 3.61 6.384 6.322.056.126-.144.24-.223.126z" fill="#523333"/><path d="M60.433 104.708c1.276-3.76 3.71-6.718 7.106-8.78.025-.015.052.02.026.035-3.294 2.11-5.673 5.128-7.036 8.78-.018.072-.115.03-.097-.036z" fill="#523333"/><path d="M61.367 116.842c-.085.06-.184-.062-.1-.123 3.465-2.583 7.083-5.93 6.05-10.68-.01-.06.08-.07.094-.01 1.25 4.74-2.57 8.24-6.042 10.81z" fill="#523333"/><path d="M65.276 83.628c-1.56-3.014-.142-6.174 1.246-8.96.06-.116.256-.045.193.075-1.354 2.74-2.753 5.84-1.346 8.842.023.063-.067.102-.095.043z" fill="#523333"/><path d="M69.134 95.13c4.203-4.146 5.21-10.123 2.368-15.338-.02-.034.038-.056.056-.025 2.977 5.14 2.125 11.467-2.306 15.503-.09.092-.205-.058-.118-.14z" fill="#523333"/><path d="M84.1 93.077c-.067.04-.145-.05-.08-.096a13.552 13.552 0 0 0 4.507-4.8c.05-.09.205-.006.156.083a12.853 12.853 0 0 1-4.584 4.815z" fill="#523333"/><path d="M81.732 104.16c-1.33-1.98-2.932-3.53-4.94-4.812-.08-.05-.003-.193.08-.145a12.148 12.148 0 0 1 4.992 4.883c.038.07-.087.145-.132.073z" fill="#523333"/><path d="M70.835 102.442c-.905-1.45-1.6-3.11-1.75-4.827-.004-.085.115-.104.133-.017.37 1.7.835 3.272 1.696 4.8.023.045-.052.086-.08.044z" fill="#523333"/><path d="M82.5 106.644c-1.912-3.334-5.05-5.06-8.41-6.703-.04-.02-.012-.088.03-.065 3.283 1.572 6.788 3.328 8.45 6.74.018.044-.045.068-.07.03z" fill="#523333"/><path d="M84.107 103.66c-.06-.876-.356-1.65-1.02-2.25-.04-.036.01-.1.05-.065.68.58 1.115 1.416 1.08 2.316-.007.058-.106.06-.11 0z" fill="#523333"/><path d="M77.843 107.576a14.098 14.098 0 0 1-4.88-3.218c-.034-.036.03-.085.063-.05a16.157 16.157 0 0 0 4.833 3.218c.032.017.012.064-.018.05z" fill="#523333"/><path d="M76.27 109.292c-1.378-.216-2.7-.685-3.934-1.324-.034-.017-.013-.07.02-.054 1.25.627 2.548 1.027 3.924 1.287.06.013.05.103-.01.093z" fill="#523333"/><path d="M61.913 112.558c-.962-2.654-.95-5.62-.12-8.305.015-.05.09-.02.08.03-.75 2.78-.644 5.476.144 8.23.02.066-.076.11-.104.045z" fill="#523333"/><path d="M58.933 106.787c-.536-1.646-.37-3.428.292-5.013.024-.05.098-.02.082.03-.634 1.62-.66 3.277-.275 4.955.01.052-.08.08-.1.026z" fill="#523333"/><path d="M65.26 109.034c-.46-2.35-.173-4.727.787-6.922.005-.01.022-.005.02.01-.88 2.213-1.1 4.555-.704 6.9.007.063-.09.077-.104.012z" fill="#523333"/><path d="M68.508 111.23c.888-1.245 1.434-2.506 1.756-4 .02-.085.15-.074.14.016a8.068 8.068 0 0 1-1.81 4.044c-.046.055-.124-.003-.086-.06z" fill="#523333"/><path d="M63.985 96.503c-4.132.85-8.345-.31-11.554-3.002-.01-.007 0-.023.015-.015 3.275 2.666 7.374 3.618 11.517 2.854.106-.02.13.144.025.164z" fill="#523333"/><path d="M59.034 98.463c-1.385-.217-2.757-.488-4.136-.735-.073-.01-.063-.126.013-.11 1.38.24 2.763.46 4.14.73.07.008.06.123-.015.115z" fill="#523333"/><path d="M64.956 88.906c-1.047-1.23-2.184-2.128-3.75-2.617 0-.002-.003-.006.004-.005 1.49.45 2.89 1.303 3.797 2.58.027.034-.02.07-.05.04z" fill="#523333"/><path d="M63.332 86.05c-1.872-1.3-3.764-2.34-5.983-2.916-.033-.007-.02-.062.01-.055 2.17.522 4.324 1.437 6.034 2.885a.054.054 0 0 1-.063.088z" fill="#523333"/><path d="M70.74 84.252a21.105 21.105 0 0 0-.95-5.595c-.004-.022.025-.032.034-.014a19.73 19.73 0 0 1 1.017 5.592c.004.067-.096.084-.1.017z" fill="#523333"/><path d="M76.73 92.653c-.02.015-.044-.016-.024-.03a26.608 26.608 0 0 1 8.017-3.65c.04-.014.064.062.02.07a28.854 28.854 0 0 0-8.012 3.61z" fill="#523333"/><path d="M81.755 85.95c-.014 0-.012-.022.002-.02.412.046.823.092 1.24.136.02.002.017.03-.004.027-.415-.05-.827-.096-1.238-.143z" fill="#523333"/><path d="M108.578 138.462c-2.944-.142-6.444-2.05-8.952-4.685.97 4.284-1.317 9.395 3.94 11.76.11.052.144.245 0 .29-5.597 1.75-12.337 1.933-17.49-1.216-2.458-1.5-4.46-3.88-5.382-6.572-.004.003-.008.006-.01.002-4.31-.793-8.456-3.343-9.842-7.684-1.075-3.374.045-7.502 3.39-9.11a1.33 1.33 0 0 1-.04-.36c-.384.4-1.117.538-1.58.292-.413-.222-.632-.782-.52-1.23a1.802 1.802 0 0 1-.334.075 1.56 1.56 0 0 1-1.145-.336c-.606-.512-.532-1.41-.007-1.953a.647.647 0 0 1 .074-.065c-3.082-2.727-3.788-7.17-2.72-11.037 1.51-5.42 6.244-9.11 10.85-11.91.18-.11.468.092.298.284-3.5 3.89 1.253 6.96 4.805 8.964-1.297-3.222-.29-6.843 1.84-9.542 2.985-3.79 7.835-5.453 12.35-6.624.25-.067.35.247.252.42-1.66 2.976-.31 6.043 1.36 8.655 4.122-2.464 9.12-2.73 13.585-1.02 2.315.88 4.383 2.267 6.124 4.014 2.47 2.477 3.793 5.66 5.65 8.567.124.205-.042.48-.293.39-7.493-2.657-10.65 7.24-14.905 11.15a10.89 10.89 0 0 1-2.28 1.61c2.214.396 3.486 2.287 5.31 3.5 4.248 2.837 8.514-.81 11.465-3.704.14-.143.357-.005.39.157.98 4.196-2.664 9.566-5.434 12.418-2.782 2.876-6.69 4.703-10.748 4.5z" fill="#EEDDE0"/><path d="M108.58 138.462c-2.95-.146-6.442-2.052-8.954-4.685.968 4.28-1.32 9.39 3.94 11.753.11.052.145.245.002.29-5.598 1.75-12.338 1.933-17.492-1.216-2.46-1.505-4.46-3.886-5.385-6.572-.005 0-.005 0-.01.003-4.307-.793-8.454-3.342-9.84-7.683-1.075-3.374.045-7.502 3.387-9.108a1.117 1.117 0 0 1-.037-.363c-.39.405-1.118.54-1.582.295-.412-.223-.635-.78-.523-1.234a1.49 1.49 0 0 1-.334.076c-.4.04-.83-.08-1.136-.336-.606-.512-.536-1.408-.01-1.95.023-.026.053-.043.077-.07-3.08-2.724-3.79-7.164-2.717-11.034 1.504-5.424 6.24-9.11 10.842-11.91.18-.11.47.096.296.284-3.498 3.89 1.26 6.956 4.81 8.96-1.296-3.222-.29-6.843 1.84-9.542 2.985-3.788 7.834-5.452 12.35-6.623.25-.067.348.247.25.42-1.666 2.975-.31 6.043 1.36 8.65 4.12-2.463 9.117-2.73 13.586-1.022 2.315.887 4.384 2.267 6.128 4.018 2.467 2.475 3.793 5.663 5.642 8.57.132.203-.037.483-.288.39-7.496-2.656-10.647 7.24-14.91 11.153a10.824 10.824 0 0 1-2.276 1.603c2.212.394 3.48 2.288 5.307 3.5 4.25 2.836 8.515-.81 11.463-3.71.147-.14.358-.005.4.158.977 4.196-2.67 9.562-5.435 12.418-2.786 2.897-6.694 4.724-10.75 4.522zm-10.16 7.933c.682-.08 4.232-.387 4.267-.908-.004.035-1.2-.81-1.346-.936-.63-.56-1.12-1.175-1.474-1.936-1.398-3.024.26-6.353-.772-9.42-1.85-2.146-3.03-4.69-2.784-7.135-3.425 2.562-8.258 4.144-12.788 4.304.014.747-.562 1.582-1.39 1.43-.342-.064-.68-.366-.83-.707a1.575 1.575 0 0 1-.23.207c.003.017.012.03.006.053-2.87 10.594 8.346 16.094 17.34 15.05zM73.682 119.83a33.452 33.452 0 0 0 11.31 3.14c4.46.418 8.492-.34 12.835-1.154.053-.01.152-.014.252-.017-.145-.096-.297-.19-.434-.29a.18.18 0 0 1-.095.063c-7.906 2.23-16.184.736-23.87-1.745zm4.797.966c.076-.414.022-.926-.45-1.064-.48-.138-.888.318-1.01.744.485.115.974.22 1.46.32zm-3.485-.787c.506.12 1.015.242 1.525.356-.02-.04-.037-.085-.017-.132.1-.263.185-.475.086-.757-.084-.238-.272-.45-.523-.51-.56-.125-.982.457-.995.947 0 .057-.034.084-.078.094zm3.44 2.077a37.493 37.493 0 0 1-1.84-.65.132.132 0 0 1-.02.078c-.27.405-.162.994.32 1.2.526.22 1.098-.143 1.395-.556a.16.16 0 0 1 .146-.073zm19.88-.09c-3.513 1.3-11.217 1.905-11.298 1.93-2.392.81-4.29 2.238-5.297 4.604-.004.004-.008.007-.005.01.02.04.047.083.064.127.163-.3.46-.524.835-.556.35-.023.694.14.923.394.153.168.31.436.296.68 4.763-.932 9.244-2.74 13.265-5.63.004-.003.01-.002.015-.005a7.986 7.986 0 0 1 1.2-1.553zm-18.93 7.82c.007-.515-.13-.988-.62-1.282-.604-.367-1.312-.047-1.574.578-.265.64.08 1.29.76 1.432.277.06 1.12.264 1.435-.675-.036.004-.033-.048.002-.05zm.788-.08a30.16 30.16 0 0 0 1.515-.208c-.092.027.133-1.333-1.048-1.287-.696.027-.872 1.045-.467 1.495zm1.713-.214a40.83 40.83 0 0 0 1.59-.256c-.048-.157-.058-.32-.173-.463a.83.83 0 0 0-.656-.32c-.51.02-.84.577-.76 1.04zm-1.625.34a.077.077 0 0 1-.01.05c2.767-.04 5.44-.12 8.155-.818 2.905-.748 5.362-2.102 7.975-3.51a6.24 6.24 0 0 1 .35-1.225c-4.868 3.38-10.523 5.41-16.47 5.505zm1.09.49c.006-.01.007-.018.01-.028-.497-.035-.985-.09-1.464-.165-.004.004 0 .008-.005.01-.458.434-.063 1.126.52 1.044.893-.128.887-.786.94-.86zm.36.05a2.137 2.137 0 0 1-.17.36c.043.372.283.72.7.762.62.063.986-.606.967-1.153-.5.01-1 .01-1.492-.017-.002.014 0 .03-.006.048zm-10.034.858c1.632 3.578 5.207 5.375 8.854 6.236-.556-1.947-.552-4.028.256-6.04-.26.11-.552.135-.863.008a.927.927 0 0 1-.558-.865c-.085.18-.227.312-.483.42-.4.166-.903.172-1.306.02-.863-.335-1.045-1.34-.672-2.104.34-.7 1.13-1.07 1.86-.735.326.153.648.46.83.82-.013-.54.31-1.085.923-1.153.332-.036.656.1.907.317.95-2.256 2.918-4.062 5.395-4.44-2.81-.194-8.16-1.47-8.23-1.375-.43.572-1.288 1.013-1.97.58-.358-.226-.59-.73-.507-1.15-.324.27-.85.358-1.21.22a1.11 1.11 0 0 1-.618-.616c-3.15 2.426-4.308 6.124-2.61 9.857zm2.776-10.076c.017.02.025.038.02.062a.88.88 0 0 0 .524.544c.53.188.866-.16 1.175-.513-.58-.23-1.15-.47-1.705-.727-.073.203-.07.428-.013.635zm-1.82-1.5c-.403.37-.26 1.11.27 1.296.575.207.94-.216 1.318-.546a37.673 37.673 0 0 1-1.576-.786c-.004.01 0 .025-.014.037zm.144-.304c.11.053.22.11.33.162.595.148 1.76.424 1.756.41-.026-.074.077-1.698-.886-1.648-1.09.056-1.175 1.038-1.2 1.077zm-1.898.033c.24.196.573.28.877.24.212-.03.368-.152.553-.23 0-.006-.002-.01.002-.013.222-.43.262-.91-.05-1.314-.29-.388-.77-.445-1.15-.218l-.005.003c-.057.035-.107.075-.158.115-.432.38-.558 1.023-.07 1.42zm9.355-17.06c-2.203-1.802-2.856-3.95-2.182-6.614a1.1 1.1 0 0 1 .044-.13c-.3.226-.744.527-.802.566a34.89 34.89 0 0 0-2.713 2.01c-2.017 1.67-3.79 3.6-5.007 5.927-2.28 4.37-1.984 9.664 1.36 13.368.503-.29 1.13-.262 1.568.19.18.188.313.43.38.688.233-.32.65-.522 1.064-.447.39.077.704.373.865.725.067.148.12.333.13.52.237-.4.74-.668 1.216-.558.437.1.807.58.873 1.05.276-.288.715-.453 1.103-.35.386.104.68.44.78.82.05.188.053.39.01.58a.84.84 0 0 1-.066.18c6.063 1.24 12.183 1.822 18.34.277a10.55 10.55 0 0 1-1.497-1.523s-.004.004-.007 0c-2.785-.124-5.613-.67-8.247-1.676 0 .007-.005.01-.01.02-.39.568-1.318 1.096-1.968.625a1.055 1.055 0 0 1-.413-.937c-.45.238-.973.29-1.402-.063-.243-.2-.343-.556-.284-.862-.407.184-.883.176-1.217-.18-.208-.22-.24-.585-.128-.864-.43.184-.98.09-1.336-.242-.473-.447-.42-1.197.03-1.642.427-.42 1.103-.495 1.565-.084.173.153.34.44.41.725.278-.333.767-.5 1.193-.307.323.15.542.486.573.834v.087c.362-.342.89-.5 1.364-.233.322.18.512.53.534.89a.987.987 0 0 1 .92-.222c.627.174.885.917.624 1.47.123.036.242.074.366.102 2.075.523 4.124.585 6.234.795-.778-1.392-1.312-2.94-1.643-4.528a15.267 15.267 0 0 1-.42-1.16.234.234 0 0 1-.16-.19c-.503-2.676-3.945-4.75-6.105-6.107-1.94-1.22-4.164-2.08-5.94-3.53zm2.43 13.197c-.41.123-.553.61-.168.867.43.284.87-.007 1.173-.317-.315-.205-.96-.566-1.004-.55zm1.3.013c.028-.155.104-.297.098-.463-.012-.223-.112-.46-.315-.57-.387-.206-.85.136-.95.518.383.177.776.35 1.168.515zm.39.164c.493.203.99.396 1.493.58.094-.176.2-.322.176-.55-.028-.263-.174-.533-.415-.652-.5-.235-1.044.17-1.254.622zm-.27.62a.138.138 0 0 1-.058.057c-.513.255-.39.91.138 1.053.453.12.822-.14 1.132-.435a18.09 18.09 0 0 1-1.213-.675zm2.19.114c.424.15.854.284 1.285.41.214-.36.042-.93-.382-1.05-.414-.12-.837.24-.903.64zm.41.61c2.73 1.12 5.55 1.85 8.625 2.047-.22-.307-.428-.615-.624-.94a.294.294 0 0 1-.055.02c-2.547.267-5.363-.198-7.946-1.126zm-1.024.124-.012.01c.018.054-.65.854.144 1.18.51.208.992-.205 1.31-.56a19.85 19.85 0 0 1-1.442-.63zm-3.328-2.15c.273-.224.034-.704-.18-.957-.287-.342-.75-.38-1.06-.046-.252.27-.38.7-.125 1.017.696.87 1.35-.002 1.365-.014zm16.966-17.9c-1.13-1.76-3.693-5.766-1.84-8.246-10.8 3.34-15.29 8.404-12.965 15.393.61.34 1.168.643 1.61.91 2.183 1.316 5.374 3.17 6.402 5.748a18.167 18.167 0 0 1-.072-2.065c.078-4.787 2.87-9.173 6.866-11.74zm11.725 20.83c2.307-2.78 5.527-11.573 13.103-10.004-8.683-17.356-22.107-13.717-27.47-7.673-5.118 5.77-4.643 16.864 2.06 21.38.022.002.04 0 .057.006 4.704 1.597 9.13.046 12.25-3.71zm10.595 12.06c.78-1.277 3.19-5.643 2.884-7.896-2.006 1.848-4.39 3.706-6.79 4.276-1.446.343-2.952.285-4.306-.353-2.352-1.1-3.614-3.666-6.32-4.105-.05-.006-.08-.03-.114-.055-2.52 1.13-5.41 1.273-8.124.354a.188.188 0 0 1-.082-.023c-.003-.002-.01-.003-.013-.007-.026-.01-.057-.017-.085-.027-5.234 5.507 2.01 13.498 7.605 15.103 6.13 1.76 12.25-2.205 15.345-7.267z" fill="#523333"/><path d="M92.275 111.053a2.488 2.488 0 0 0-.14-.64c-2.67-2.585-4.67-5.34-4.71-9.186-.03-3.512 1.7-6.67 4.41-8.844.013-.01.028.01.017.02-2.85 2.385-4.475 5.82-4.072 9.574.312 2.904 1.804 5.126 3.71 7.14-1.497-3.595-1.422-7.602.263-11.142.02-.04.087-.02.067.028-1.408 3.72-1.31 7.665.3 11.292-.117-.983.04-2.066.116-2.937.174-1.93.57-3.83 1.104-5.694.008-.024.05-.012.043.012a30.402 30.402 0 0 0-.76 4.46c-.137 1.55-.6 4.014.236 5.385.057.1.013.204-.057.26.01.068.03.133.037.204.045.357-.53.44-.565.07z" fill="#523333"/><path d="M97.642 120.984c-.163.09-.398.075-.51-.14l-.067-.13c-.026.142-.134.278-.32.274-3.97-.02-8.6.264-12.292-1.41-3.34-1.515-5.696-4.41-7.83-7.276-.024-.03.027-.07.05-.04 2.358 2.92 4.975 6.002 8.67 7.207 3.536 1.15 7.793.91 11.475.91.04 0 .07.01.1.022-4.223-8.562 1.788-17.843 10.438-20.447.014-.005.03.02.01.023-8.245 2.908-13.955 11.502-9.96 19.866 1.287-8.418 9.548-14.37 17.746-14.78.06-.003.075.087.01.094-4.323.387-8.432 2.027-11.61 5.02-3.028 2.854-4.468 6.346-5.607 10.237 2.675-4.288 7.707-7.732 12.298-9.634.035-.012.057.04.024.053-4.702 2.033-9.72 5.687-12.17 10.232-.14.27-.464.14-.452-.083z" fill="#523333"/><path d="M87.992 135.44c-.353-2.242.342-4.5 1.653-6.327.14-.2.45.023.306.225-1.308 1.82-1.815 3.884-1.816 6.103 0 .083-.13.08-.14 0z" fill="#523333"/><path d="M87.23 123.688c-2.51.42-4.95 1.02-7.315 1.96-.08.033-.134-.09-.056-.126 2.33-1.076 4.76-1.857 7.313-2.195.234-.033.29.32.054.36z" fill="#523333"/><path d="M111.133 131.984c-4.367.245-12.85-2.615-13.314-7.875-.74 5.16 3.295 8.933 8.292 10.07.08.02.07.134-.014.125-5.752-.604-10.467-5.886-8.53-11.712a3.94 3.94 0 0 1-.53.08c-1.312.542-2.568 1.02-3.75 1.873-1.274.922-2.174 2.12-3.122 3.347-.07.094-.238.012-.187-.098.93-1.963 2.777-3.794 4.86-4.856-3.325.517-6.74 2.56-9.092 4.873-.05.05-.135-.033-.09-.088 2.312-2.654 6.17-5.05 9.746-5.292a.215.215 0 0 1 .22.14 8.32 8.32 0 0 1 1.65-.478.206.206 0 0 1 .21.09c.04-.023.084-.046.118-.067.156-.092.31-.208.485-.227.112-.24.4-.23.57-.086.095.014.188.06.248.158 2.212 3.812 7.74 5.273 11.873 5.51.067.005.052.105-.01.105-4.107-.088-9.768-1.016-12.12-4.812-.468 2.84 2.36 5.446 4.55 6.812 2.41 1.5 5.09 2.23 7.927 2.238.092.003.098.162.006.166z" fill="#523333"/><path d="M94.564 118.15c-1.053.04-2.465-1.057-3.284-1.646-1.39-1-2.587-2.225-3.815-3.41-.012-.017.008-.04.024-.027a41.363 41.363 0 0 0 3.09 2.483c.58.417 3.38 2.53 3.866 2.113.105-.09.317-.024.32.125.005.028 0 .056.006.084.003.124-.063.27-.21.28z" fill="#523333"/><path d="M94.083 137.797c-.654-3.537-.647-9.057 2.04-11.856.155-.16.444.028.29.215-2.43 3.006-2.62 7.964-2.187 11.624.015.09-.13.11-.143.02z" fill="#523333"/><path d="M92.625 95.67c.93-2.694 2.45-5.48 4.835-7.167.215-.152.433.137.253.317-2.126 2.102-3.927 4.04-5.04 6.87-.014.023-.058.007-.048-.02z" fill="#523333"/><path d="M73.95 108.27c-.473-4.425-.096-10.156 4.03-12.877.203-.135.413.128.238.298-3.643 3.54-4.5 7.63-4.166 12.57.002.058-.095.07-.1.01z" fill="#523333"/><path d="M124.034 108.108c-2.225-1.735-4.757-2.74-7.588-2.885-.06-.003-.043-.086.01-.083 2.84.022 5.584.88 7.858 2.588.248.183-.04.57-.28.38z" fill="#523333"/><path d="M114 132.513c-.08.012-.094-.102-.018-.118A13.695 13.695 0 0 0 124.418 122c.085-.37.678-.303.593.067-1.23 5.412-5.52 9.465-11.01 10.446z" fill="#523333"/><path d="M96.73 144.18c-.02-.034.036-.066.06-.035.728 1.04 1.835 1.648 3.084 1.82 1.07.15 2.044-.14 3.086-.298.125-.017.175.164.06.21-2.158.96-5.092.442-6.29-1.697z" fill="#523333"/><path d="M72.27 132.456c-.32-2.178 1.824-4.282 3.513-5.305.008-.004.017.008.01.014-1.605 1.12-3.494 3.154-3.318 5.264.01.13-.188.16-.204.03z" fill="#523333"/><path d="M73.446 125.846c-.045.024-.076-.047-.03-.07 1.895-1.04 3.878-1.54 6.038-1.64.014.002.015.02.004.022-2.106.128-4.14.743-6.012 1.688z" fill="#523333"/><path d="M79.206 128.285c-.046.06-.138-.005-.095-.07.663-1.024 1.628-1.77 2.723-2.29.05-.026.082.055.034.074-1.097.54-1.925 1.322-2.66 2.284z" fill="#523333"/><path d="M82.088 120.073c-5.73-1.976-10.06-7.105-11.688-12.825-.002-.01.016-.02.02-.008 1.868 6 6.06 10.098 11.76 12.59.157.063.067.3-.093.243z" fill="#523333"/><path d="M79.602 111.486c-1.31-1.462-2.062-3.21-2.26-5.155-.002-.016.03-.023.028-.002.247 1.926 1.02 3.637 2.26 5.138.017.016-.014.04-.03.02z" fill="#523333"/><path d="M90.916 112.734c-2.147-2.738-4.558-4.887-7.8-6.245-.03-.016-.012-.063.02-.05 3.195 1.237 6.07 3.267 7.927 6.183.06.09-.073.203-.147.11z" fill="#523333"/><path d="M85.91 101.31a13.13 13.13 0 0 1 1.392-5.615c.01-.013.03-.004.02.01-.865 1.765-1.295 3.648-1.328 5.613-.002.053-.086.043-.084-.01z" fill="#523333"/><path d="M89.736 101.503a10.096 10.096 0 0 1 .27-3.954c.01-.036.058-.017.054.02-.342 1.293-.41 2.597-.253 3.926.002.043-.066.053-.07.006z" fill="#523333"/><path d="M92.678 101.76c.314-2.852 1.4-5.47 3.114-7.77.03-.035.088.007.06.043-1.654 2.327-2.636 4.925-3.03 7.74-.014.093-.154.077-.144-.014z" fill="#523333"/><path d="M94.253 113.614c.005-6.038 3.27-12.064 8.77-14.862.06-.028.113.062.06.1-5.265 3.313-8.626 8.466-8.782 14.77 0 .026-.046.02-.047-.007z" fill="#523333"/><path d="M118.37 101.236c-5.77-2.022-11.317-3.148-16.597.74-.02.015-.044-.016-.024-.03 5.02-3.974 11.077-3.216 16.663-.828.078.034.033.145-.045.118z" fill="#523333"/><path d="M111.27 103.647c-5.148.864-8.997 3.687-12.658 7.227-.048.044-.132-.028-.083-.08 3.336-3.587 7.687-6.82 12.724-7.262.072-.006.088.102.016.115z" fill="#523333"/><path d="M105.677 111.81c-.052.046-.113-.038-.065-.082 2.11-2.09 4.776-3.242 7.573-4.157.06-.02.1.07.043.094-2.696 1.114-5.41 2.102-7.55 4.146z" fill="#523333"/><path d="M102.197 119.435c-.077.023-.13-.092-.05-.118 4.306-1.466 7.816-4.014 10.745-7.455.082-.096.24.013.163.117-2.76 3.634-6.515 6.1-10.858 7.454z" fill="#523333"/><path d="M112.15 125.824c-2.627-1.277-5.38-1.996-8.308-2.056-.046 0-.038-.07.008-.07 2.903.037 5.753.703 8.33 2.052.047.02.018.094-.03.074z" fill="#523333"/><path d="M105.375 128.557c-.048-.013-.018-.087.026-.07 3.94 1.09 7.804 2.04 11.88 1.114.06-.012.086.086.028.1-3.987 1.164-8.085.01-11.932-1.142z" fill="#523333"/><path d="M105.947 132.7c-.013-.01 0-.032.016-.02 4.103 2.295 8.67 2.08 12.8.014.053-.03.106.06.053.09-3.88 2.48-8.99 2.242-12.87-.085z" fill="#523333"/><path d="M108.145 136.172c-1.32.262-2.72-.06-3.868-.732-.036-.022 0-.07.037-.05 1.194.692 2.462.856 3.812.664.08-.013.098.106.02.118z" fill="#523333"/><path d="M95.066 145.946c-4.586-3.78-5.865-9.922-3.71-15.343.01-.027.053-.01.046.02-2.14 5.587-.526 11.14 3.77 15.176.087.075-.014.22-.105.145z" fill="#523333"/><path d="M90.23 142.555c-3.83-2.25-6.275-6.312-5.033-10.763.007-.03.062-.017.055.013-1.052 4.49 1.33 8.267 5.074 10.624.09.053-.007.18-.096.124z" fill="#523333"/><path d="M89.18 143.854c-1.934-.52-3.535-1.777-4.723-3.355-.01-.014.007-.026.016-.015 1.247 1.614 2.834 2.59 4.746 3.267.07.026.026.123-.04.1z" fill="#523333"/><path d="M96.794 141.36c-1.367-2.238-1.498-5.058-.762-7.524.013-.048.08-.02.068.03-.663 2.596-.235 5.01.803 7.434.025.062-.07.126-.11.06z" fill="#523333"/><path d="M75.766 135.072c-.227-.926-.127-1.96.08-2.875.01-.045.082-.04.07.008-.198.966-.15 1.882-.07 2.855.007.057-.068.066-.08.012z" fill="#523333"/><path d="M77.303 135.192c-.162-.6-.07-1.26.155-1.83.04-.107.207-.043.166.065-.21.578-.214 1.136-.134 1.736.018.125-.158.144-.187.03z" fill="#523333"/><path d="M155.132 150.232c-1.966 1.937-2.08 4.56-5.05 5.46-2.026.615-4.248.266-6.226-.42.04.112-3.82 2.8-6.745 2.332.44.415.46 1.008.195 1.47.354-.034.72.074.95.364.257.328.258.79.082 1.15.358-.007.73.11 1.027.354.598.492.59 1.325.103 1.89-.473.55-1.328.742-1.91.244-.493-.425-.668-1.215-.35-1.77-.514.438-1.493.387-1.8-.248-.128-.265-.113-.58-.012-.85-.375.032-.776-.136-.957-.466-.152-.277-.122-.636.03-.914a.976.976 0 0 1 .164-.23c-.54.162-1.186-.04-1.417-.615a1.026 1.026 0 0 1-.005-.704c-2.012-.32-4.056-1.145-5.48-2.646.085 2.278.31 4.557.673 6.852.576-.33 1.416-.016 1.694.585.275.598-.01 1.21-.494 1.58.476.07.902.36.973.884.048.33-.14.712-.414.94.364.084.673.32.805.676.29.775-.244 1.622-.986 1.894-.777.28-1.703-.122-1.875-.964-.065-.335.052-.705.28-.974-.435-.028-.846-.296-.976-.737-.108-.365.04-.83.326-1.13a1.222 1.222 0 0 1-1.11-.848c-.172-.59.212-1.45.837-1.604-.82-2.597-1.287-5.33-1.435-8.092-.003-.004-.003-.004 0-.007-1.36-1.493-1.953-3.13-1.482-6.12.002-.02.06-.085.12-.16-.14.136-.27.266-.4.395a50.705 50.705 0 0 0-1.616 5.74c.236.026.497.192.654.333.265.244.428.614.404.98-.046.617-.618 1.115-1.222 1.082.558.158 1.052.625.947 1.24-.068.382-.482.754-.888.817.216.276.315.678.274.976-.104.674-.768 1.042-1.415.923-.608-.12-1.053-.65-.96-1.28.05-.336.252-.66.532-.858-.013-.008-.024-.006-.034-.01-.34-.14-.61-.44-.66-.81-.07-.482.307-.99.773-1.143-.44-.234-.743-.77-.68-1.25.057-.418.353-.78.734-.96.217-.103.535-.19.78-.106a46.02 46.02 0 0 1 .963-5.42c-4.133 3.314-9.825 2.727-14.517.925-2.14-.818-4.35-1.922-5.79-3.762-1.484-1.894-1.34-3.864-.94-6.108.336-1.928.07-3.322-.594-5.145-.35-.954-.767-2.052-.405-3.084.503-1.44 1.898-1.838 3.293-1.65.344.05.68.12 1.015.214-3.268-5.306-1.635-12.734 2.804-16.87 1.04-.973 3.852-3.504 5.102-1.513.81 1.298.627 3.338 1.06 4.8.837 2.838 2.386 5.25 5.083 6.604.023.015.042.03.058.05.614-5.3 3.228-10.48 7.257-13.87 4.717-3.963 12.917-5.794 18.26-1.942-.004.02.004.047 0 .068a.57.57 0 0 1 .188.225c.035.068.045.16-.018.224-.398.36-.9.637-1.366.918-2.8 2.8-.943 8.776-.032 12.04.394 1.405.773 2.854 1.072 4.33 5.588-2.067 7.76-7.23 8.75-12.772.056-.278.373-.327.565-.182 8.437 6.248 10.21 19.676 1.994 26.93 1.812-.424 3.736-.66 5.042.37 1.53 1.206 1.47 3.376.924 5.04-.43 1.316-1.148 2.712-2.19 3.657-1.29 1.162-3.11 1.467-4.338 2.675z" fill="#EEDDE0"/><path d="M159.45 147.57c-1.27 1.15-3.09 1.454-4.318 2.662-1.967 1.944-2.085 4.564-5.046 5.464-2.03.618-4.25.262-6.23-.418.04.113-3.82 2.8-6.75 2.336.442.408.462 1.005.193 1.47.352-.034.72.074.947.36.263.33.26.786.084 1.153.36-.01.734.114 1.028.355.596.493.594 1.322.102 1.89-.473.55-1.33.742-1.915.24-.5-.426-.668-1.208-.353-1.766-.506.438-1.493.387-1.798-.25-.13-.263-.115-.578-.01-.85-.374.03-.782-.14-.96-.465-.156-.28-.126-.64.026-.916.04-.076.1-.154.167-.227-.54.157-1.186-.046-1.414-.617a1.012 1.012 0 0 1-.01-.702c-2.012-.318-4.06-1.147-5.478-2.643.084 2.27.308 4.556.67 6.847.573-.33 1.41-.013 1.688.588.275.598-.014 1.212-.494 1.58.474.07.897.36.97.886.042.332-.143.712-.417.948.366.077.678.316.81.672.29.775-.245 1.622-.986 1.893-.773.276-1.707-.12-1.875-.966-.07-.33.052-.705.28-.974-.432-.023-.847-.288-.976-.735-.108-.364.047-.828.33-1.134-.492-.025-.96-.342-1.116-.845-.177-.586.207-1.446.84-1.6-.822-2.596-1.288-5.328-1.435-8.098l-.004-.004c-1.352-1.492-1.956-3.136-1.482-6.12.002-.02.06-.085.124-.162l-.402.395a51.494 51.494 0 0 0-1.618 5.742c.24.024.5.19.654.335.27.25.433.612.41.978-.043.622-.623 1.12-1.223 1.083.558.16 1.05.622.944 1.236-.064.385-.476.75-.883.813.21.277.31.682.267.976-.1.674-.764 1.042-1.41.923-.61-.118-1.058-.647-.96-1.272.047-.335.25-.66.527-.86-.01-.006-.024-.007-.034-.01a1.06 1.06 0 0 1-.66-.81c-.07-.484.313-.99.773-1.145-.44-.232-.748-.766-.68-1.25.06-.42.358-.776.736-.962.214-.106.538-.192.78-.112a45.13 45.13 0 0 1 .966-5.414c-4.136 3.31-9.83 2.73-14.52.927-2.137-.82-4.35-1.922-5.788-3.758-1.483-1.9-1.34-3.864-.947-6.11.34-1.93.075-3.324-.59-5.147-.347-.957-.77-2.05-.41-3.08.505-1.448 1.9-1.84 3.298-1.654.34.047.68.12 1.013.21-3.27-5.305-1.632-12.73 2.804-16.87 1.04-.97 3.85-3.5 5.098-1.514.814 1.295.63 3.335 1.06 4.8.834 2.833 2.38 5.248 5.083 6.604.024.013.043.03.06.05.62-5.3 3.223-10.478 7.255-13.87 4.72-3.967 12.92-5.798 18.255-1.947 0 .025.005.046.006.07a.58.58 0 0 1 .183.222c.034.066.044.166-.02.222-.397.36-.898.637-1.365.918-2.8 2.8-.942 8.776-.028 12.044.39 1.4.773 2.854 1.072 4.33 5.59-2.063 7.753-7.226 8.75-12.772.048-.28.365-.328.564-.182 8.442 6.252 10.207 19.672 1.996 26.93 1.815-.42 3.736-.66 5.045.374 1.53 1.207 1.468 3.38.92 5.044-.42 1.324-1.13 2.717-2.175 3.665zm-21.63 15.22c.432.34 1.014.163 1.338-.233.78-.946-.597-2.08-1.456-1.328a.213.213 0 0 1-.108.045c-.25.496-.24 1.144.227 1.513zm-8.022-.502c-.192-.517-.908-.746-1.344-.394.1.616.213 1.233.333 1.852.137-.052.28-.077.43-.09.44-.308.78-.832.58-1.368zm.448 2.298c-.102-.62-.9-.746-1.396-.517.095.49.198.984.308 1.48.004-.005.01-.004.015-.007-.027-.073 1.16-.428 1.073-.958zm-1.676 2.71c.2.6 1.032.592 1.53.262.412-.277.728-.913.413-1.377-.272-.402-2.49-.51-1.943 1.118zm-.84-2.024c.277.766 1.134.466 1.15.446a.387.387 0 0 1 .086-.067 31.327 31.327 0 0 1-.612-1.36c-.154.055-.715.734-.624.983zm-.778-1.98c.133.483.683.735 1.165.695.03-.01.06-.03.092-.036a26.89 26.89 0 0 1-.65-1.776.99.99 0 0 0-.397.282c-.192.228-.292.547-.212.838zm-3.61-8.502c0-.27-.16-.53-.374-.696-.126-.095-.27-.125-.412-.166a43.78 43.78 0 0 0-.333 1.78c.516-.004 1.123-.333 1.118-.918zm-.253 2.215c-.04-.475-.52-.733-.958-.758a37.02 37.02 0 0 0-.178 1.348.053.053 0 0 1 .035.004c.43.243 1.142-.018 1.1-.596zm-2.19 1.603c-.1.382.122.717.503.82.37.098.824-.04.927-.444.11-.434-.343-.922-.556-.95-.525-.07-.776.212-.874.574zm-.23-1.66c.05.212.233.387.424.476a.85.85 0 0 0 .37.08c.038 0 .09.003.14.01.005-.454.018-.913.042-1.368-.022.005-.034.014-.055.012-.446-.044-1.044.247-.922.79zm.682-3.033c-.295.108-.553.357-.61.674-.108.6.43.99.934 1.133.035-.615.09-1.234.155-1.853-.156.01-.316-.014-.48.045zm22.048 1.2c-5.355-2.016-9.862-6.37-12.02-11.647a34.58 34.58 0 0 0 .262 4.08c.41 3.194 1.37 6.02 2.812 8.725.125-.137.304-.247.44-.298.394-.142.886-.083 1.183.225.316.324.34.766.187 1.146 3.02-.176 5.437-.866 7.137-2.232zm-12.38-12.777c.025-2.332.22-4.635.486-6.785-.15-.052-.303-.1-.453-.146-1.153 4.54-1.218 9.24-.015 13.79.41 1.55.96 2.99 1.62 4.363-.853-2.325-1.31-4.83-1.515-7.372l-.01.002c-.015.005-.02-.016-.01-.018l.016-.006a41.85 41.85 0 0 1-.12-3.646c-.008-.025-.02-.047-.028-.073-.02-.048 0-.08.027-.11zm6.283 18.455c.067-.066 1.197-.28.698-1.078-.575-.92-1.202.058-1.347.242.212.28.423.568.642.85-.003-.004 0-.007.01-.014zm-1.595.11c.385.837 1.29.176 1.504-.025a16.81 16.81 0 0 1-1.024-.97c-.044.016-.795.315-.48.994zm.706-1.395c.018.023.015.05.002.074.118-.17.31-.302.482-.388a1.1 1.1 0 0 0 .22-.528c.04-.354-.11-.747-.453-.898-.45-.2-.814.1-1.145.377.283.457.582.91.894 1.363zm-1.747.14c.18.33.545.396.876.31.096-.126.227-.255.383-.322-.296-.315-.576-.65-.852-.986-.13.07-.25.134-.343.278-.14.206-.19.492-.062.72zm.636-1.862c.173-.156.386-.287.607-.367.136-.3.153-.635-.057-.898-.19-.236-.53-.282-.805-.19-.195.066-.282.21-.392.336.212.375.427.747.647 1.116zm-1.79.11c.195.49.843.603 1.313.445-.35-.442-.67-.9-.985-1.372-.295.192-.476.57-.326.93zm-.085-1.025c.007.003.01.007.01.007a1.15 1.15 0 0 1 .213-.194c-3.647-5.718-4.707-13.317-3.353-19.81-1.98 5.75-2.77 11.552-2.594 17.412 1.793 1.29 3.506 2.263 5.726 2.587zm-5.746 3.394c-1.382-8.335-.223-17.213 2.807-24.99-.13-.025-.255-.046-.38-.067-3.683 8.3-4.176 16.6-2.43 25.057zm-2.757-13.114c.03 1.012-.375 2.425-.13 3.43a6.545 6.545 0 0 0 1.192 2.417 37.764 37.764 0 0 1 .592-7.993c-.4.764-1.035 1.5-1.656 2.145zm.5-1.105c.44-.562.786-1.223 1.286-1.732.647-3.215 1.683-6.323 3.08-9.15-.012-.002-.023 0-.033-.004-1.968 4.002-4.638 11.285-4.33 10.884zm-2.184 3.052c1.463-4.86 3.806-9.522 6.074-13.953-.3-.01-.597 0-.897.022a56.002 56.002 0 0 0-5.175 13.93zm-19.167-19.228c-3.858-.13-2.772 2.846-2.665 3.582.124.862.764 1.662.93 2.542.352 1.924-.534 3.75-.508 5.664.035 2.97 2.507 4.877 4.957 6.075 5.174 2.525 11.213 3.33 16.123-.138a.098.098 0 0 1 .052-.023c1.097-4.362 2.827-8.6 5.036-12.367-.83.082-4.133.496-4.85.11-.027.06-2.025 2.654-10.284-.926-2.44-1.06-8.38-4.508-8.792-4.52zm14.65-6.957c-2.03-1.02-3.513-2.604-4.49-4.648-.632-1.324-1.538-5.072-1.55-5.43-.13-3.533-3.036-1.23-4.277-.134-5.184 4.603-5.355 11.036-2.874 16.95 2.4.843 4.62 2.64 6.76 3.8 3.214 1.734 6.802 2.927 10.362 1.546-2.194-1.584-3.24-4.747-3.604-7.288a19.963 19.963 0 0 1-.08-4.82.212.212 0 0 1-.247.024zm24.696.37c-.81-3.78-3.924-11.63-.66-15.213 0-.062.027-.122.096-.17.072-.046.142-.094.21-.136a4.88 4.88 0 0 1 1.018-.718c-3.645-1.47-7.233-2.107-11.19-1.017-4.483 1.233-8.08 4.4-10.366 8.37-2.15 3.74-3.325 8.258-2.92 12.573.217 2.267.903 4.56 2.317 6.383 1.994 2.563 3.87 1.147 6.405 1.057a9.114 9.114 0 0 1 4.182.866c2.58 1.21 4.677 3.67 7.797 2.335 5.373-2.308 4.07-9.833 3.107-14.333zm17.1.766c-.594-4.647-3.147-8.79-6.834-11.628-1.013 5.27-3.455 11.228-9.243 12.474.42 2.167.65 4.38.45 6.527-.242 2.638-1.452 5.29-3.864 6.583 3.64 1.996 7.71 1.918 11.705 1.2.717-.125 1.57-.37 2.467-.596 0-.03.012-.064.037-.097 3.624-4.067 5.99-8.91 5.28-14.463zm.16 20.583c.326-.712 2.397-5.587-2.254-5.88-9.16 2.092-13.652 1.95-17.808-.397a.256.256 0 0 1-.1-.11c-3.238 1.372-5.52-1.1-8.293-2.416a7.87 7.87 0 0 0-.47-.196c-.175 2.35-.356 4.686-.375 7.025 2.335 4.87 5.95 9.007 10.96 11.292 2.35 1.074 5.304 1.942 7.847.988 2.668-1.002 2.918-4.03 5.008-5.636 2.086-1.597 4.264-1.977 5.485-4.67z" fill="#523333"/><path d="M143.89 107.46c-2.687.07-5.226-.098-7.576 1.48-2.128 1.434-3.478 3.61-4.613 5.842-.04.084-.155.018-.125-.063 2.156-5.686 6.195-8.564 12.36-7.88.358.035.308.606-.044.62z" fill="#523333"/><path d="M130.397 134.3c2.05-4.815-.904-9.65-.102-14.586.002-.02.033-.014.03.007-.55 4.96 2.908 10.028.523 14.81-.146.294-.572.063-.45-.23z" fill="#523333"/><path d="M122.068 135.498a.235.235 0 0 1-.152.032c-6.912-.71-12.707-5.622-14.67-12.23-.003-.012.01-.017.014-.006 1.996 6.135 7.258 10.515 13.562 11.58-6.69-3.62-10.9-10.868-11.126-18.43 0-.057.085-.06.085-.005.44 6.667 3.884 12.44 9.128 16.27-1.938-2.28-3.195-5.45-3.48-8.136-.003-.054.078-.055.087-.005.41 3.185 2.175 6.92 4.793 9.09.672.42 1.364.825 2.083 1.184.43.21.104.834-.32.653z" fill="#523333"/><path d="M127.79 135.502c-2.757 2.186-5.28 4.52-8.78 5.424-2.964.763-6.054.533-8.932-.453-.034-.01-.024-.062.014-.054 3.138.897 6.34.83 9.43-.25 3.145-1.1 5.245-3.378 7.932-5.19.34-.228.643.28.337.52z" fill="#523333"/><path d="M141.07 138.332c-.416.02-.453-.62-.037-.64 6.985-.324 11.028-6.347 12.894-12.425.023-.082.15-.057.13.028-1.8 6.32-5.74 12.652-12.987 13.037z" fill="#523333"/><path d="M149.68 148.167c-4 .02-7.833-1.496-11.224-3.54-3.184-1.915-4.795-4.674-6.1-7.954.34 5.99 3.56 11.357 8.773 14.54.09.06.017.206-.08.15-5.87-3.216-9.404-9.574-9.08-16.235.01-.223.36-.247.355-.016-.003.084.003.162 0 .246.127 0 .254.064.318.216 1.615 4.03 3.343 6.912 7.232 9.085 3.052 1.703 6.306 3.033 9.825 3.307.117.003.102.198-.02.2z" fill="#523333"/><path d="M130.672 153.03c-2.064-4.84-2.28-10.352-.834-15.39.075-.254.478-.17.403.086-1.446 5.184-1.193 10.188.53 15.27.03.066-.073.096-.097.034z" fill="#523333"/><path d="M110.154 113.724c-.006.024-.044.016-.038-.008a6.984 6.984 0 0 1 1.593-3.032c.063-.07.17.03.107.096a7.21 7.21 0 0 0-1.664 2.944z" fill="#523333"/><path d="M126.74 135.278c-2.745 1.505-5.6 2.82-8.81 2.617-3.17-.206-6.147-1.573-8.877-3.08 0 0-.003-.004.004-.003 2.737 1.47 5.692 2.766 8.862 2.793 3.144.028 5.813-1.386 8.52-2.804.007-.004.02-.003.03-.01l-.008-.007c-4.103-7.595-3.168-16.58 2.424-23.18.025-.032.066.012.045.04-5.372 6.597-6.205 15.463-2.056 22.877.076.135.012.268-.088.334.11.115.14.318-.048.424z" fill="#523333"/><path d="M124.728 142.997c-3.105 3.188-6.913 4.007-11.25 4.006-.02-.002-.023-.03 0-.03 4.23-.143 8-1.057 11.013-4.192.146-.144.383.073.24.218z" fill="#523333"/><path d="M136.863 138.053c-.244.156-.483-.223-.243-.375 4.375-2.74 1.364-8.225.657-12.042-.577-3.125-.445-6.243.264-9.33.017-.07.124-.047.11.022-.99 5.043.025 9.145 1.274 13.997.738 2.858.685 5.995-2.06 7.728z" fill="#523333"/><path d="M144.87 131.742c-.08.082-.212-.042-.133-.117 1.59-1.495 2.99-3.19 4.28-4.948.02-.026.068.004.047.033-1.24 1.823-2.662 3.45-4.195 5.032z" fill="#523333"/><path d="M145.498 139.828c-.27.044-.296-.385-.025-.428 5.104-.785 9.394-4.35 10.975-9.262.02-.06.118-.043.1.022-1.564 5.132-5.713 8.825-11.05 9.668z" fill="#523333"/><path d="M154.22 143.167c-6.148 1.626-13.145-.124-17.635-4.65-.225-.225.094-.58.338-.37 4.903 4.264 10.842 6.056 17.283 4.937.046-.005.058.073.015.083z" fill="#523333"/><path d="M137.698 154.467c-3.26-2.688-5.884-6.854-6.61-11.035-.02-.104.146-.127.182-.036 1.486 4.284 3.35 7.676 6.505 10.985.054.053-.02.137-.077.088z" fill="#523333"/><path d="M110.654 126.076c-2.178-2.96-3.287-6.527-3.103-10.197.003-.01.01-.01.01 0-.04 3.68 1.02 7.14 3.167 10.15.027.042-.04.083-.072.045z" fill="#523333"/><path d="M112.51 132.464c-3.798-2.457-7.61-5.725-7.923-10.522 0-.007.012-.01.014 0 .483 4.924 4.436 7.58 8.025 10.362.092.067-.014.22-.113.16z" fill="#523333"/><path d="M114.986 127.58c-1.32-2.07-2.058-4.42-2.308-6.85-.006-.064.093-.067.096-.006.286 2.426 1.1 4.666 2.33 6.773.055.084-.067.16-.118.082z" fill="#523333"/><path d="M118.663 128.168c-1.152-1.456-1.83-3.28-2.122-5.094-.007-.05.08-.07.09-.015.38 1.844 1.16 3.444 2.185 5.02.06.09-.083.172-.15.087z" fill="#523333"/><path d="M106.614 139.568c-1.51-.52-2.896-1.31-4.173-2.256 0-.004.004-.014.007-.01 1.317.9 2.714 1.6 4.184 2.216.03.014.015.064-.015.05z" fill="#523333"/><path d="M119.84 143.213c-5.505 2.076-11.92.747-16.625-2.572-.013-.007 0-.03.014-.022 5.052 3.46 10.727 3.947 16.55 2.44.11-.03.158.115.058.156z" fill="#523333"/><path d="M115.78 148.93c-2.157.097-4.245-.34-6.215-1.216-.03-.014-.008-.057.026-.046 1.994.808 4.036 1.155 6.185 1.144.07 0 .08.115.005.117z" fill="#523333"/><path d="M114.045 139.78a23.04 23.04 0 0 1-9.296-5.505c-.01-.01.005-.024.01-.016 2.763 2.482 5.793 4.224 9.304 5.432.047.02.034.106-.02.086z" fill="#523333"/><path d="M126.467 125.324c.092-5.676 2.064-10.985 5.594-15.426.006-.003.016.002.008.008-3.398 4.526-5.2 9.777-5.44 15.412 0 .1-.158.112-.16.006z" fill="#523333"/><path d="M121.47 128.25c-.293-4.853.816-9.51 3.166-13.76 0 0 .004-.004.003.003-2.29 4.31-3.283 8.892-3.073 13.755 0 .063-.096.07-.1.003z" fill="#523333"/><path d="M135.217 130.45c-1.927-6.51-2.795-14.248 2.57-19.39.025-.027.067.01.043.035-5.324 5.307-4.062 12.745-2.522 19.326.015.06-.074.09-.09.03z" fill="#523333"/><path d="M141.054 131.408c.574-3.606.357-7.168-.754-10.658-.018-.055.066-.084.085-.03 1.157 3.486 1.456 7.102.79 10.712-.01.083-.137.058-.12-.024z" fill="#523333"/><path d="M154.64 122.906c.29-3.413.66-7.47-.957-10.617-.15-.3.296-.584.442-.283 1.63 3.338 1.09 7.36.6 10.918-.005.056-.09.035-.085-.02z" fill="#523333"/><path d="M151.377 125.94a52.213 52.213 0 0 0 1.625-7.416c.003-.02.03-.01.028.003a34.908 34.908 0 0 1-1.597 7.42c-.012.04-.067.026-.056-.007z" fill="#523333"/><path d="M146.64 133.47c-.043.06-.144.012-.105-.05.953-1.507 2.06-2.916 3.225-4.27.012-.015.035.005.022.02-1.116 1.39-2.128 2.84-3.143 4.3z" fill="#523333"/><path d="M152.384 133.672c-.015.013-.042-.004-.025-.024 1.723-1.778 2.77-3.5 3.362-5.9.525-2.13.954-4.282 1.365-6.434.007-.03.052-.022.048.013-.744 4.646-1.247 8.967-4.752 12.345z" fill="#523333"/><path d="M154.307 137.672c-.06.06-.156-.028-.096-.088 2.438-2.62 4.076-5.58 4.868-9.063.01-.043.08-.03.07.017-.753 3.47-2.35 6.575-4.84 9.136z" fill="#523333"/><path d="M156.13 148.92c-.312.34-1.062.37-1.49.408a5.26 5.26 0 0 1-1.93-.183c-.1-.03-.07-.166.032-.158.627.046 1.254.067 1.876-.02.398-.058 1.04-.383 1.44-.264.096.025.143.14.07.216z" fill="#523333"/><path d="M151.424 151.462c-3.33.914-8.216-.79-10.68-3.07-.032-.03.013-.08.048-.05 2.414 2.167 7.307 3.715 10.577 2.948.11-.026.166.14.053.172z" fill="#523333"/><path d="M147.928 154.358c-.99-.132-1.97-.31-2.957-.474-.064-.01-.042-.11.024-.1.986.154 1.974.293 2.953.478.066.01.045.103-.018.096z" fill="#523333"/><path d="M159.832 145.14c-5.53 2.576-12.048 2.234-17.51-.317-.033-.018-.007-.064.023-.05 5.695 2.55 11.664 2.386 17.425.195.118-.043.163.124.062.172z" fill="#523333"/><path d="M154.47 141.975c-1.663.237-3.377.118-5.023-.17-.04-.005-.03-.07.01-.066 1.69.26 3.31.23 5.005.12.078-.005.08.1.008.114z" fill="#523333"/><path d="M136.445 155.252a12.52 12.52 0 0 1-2.507-2.857c-.024-.038.032-.07.053-.036a13.842 13.842 0 0 0 2.485 2.855c.022.02-.006.056-.03.036z" fill="#523333"/><path d="M131.597 155.255a7.145 7.145 0 0 1-.544-1.545c-.005-.022.025-.033.033-.014a8.41 8.41 0 0 0 .57 1.52c.02.04-.04.08-.06.04z" fill="#523333"/><path d="M129.328 153.88c-.585-1.003-.832-2.128-.782-3.28 0-.063.103-.07.103-.005-.02 1.133.266 2.214.78 3.22.03.065-.06.132-.103.064z" fill="#523333"/><path d="M37.075 8.282c2.156.545 3.83 2.66 4.596 4.625l.005.004c.02-.013.035-.026.054-.04a.822.822 0 0 1 .145-.072c-.993-1.67-.95-3.916-.408-5.73.44-1.48 1.716-4.302 3.698-3.864 1.768.393 2.37 2.613 2.208 4.156-.175 1.667-1.124 3.082-2.3 4.28 1.214-.977 2.47-1.897 4.107-1.747 1.548.143 3.42 1.374 3.25 3.127-.282 2.852-4.42 2.91-7.292 2.262 2.476 1.222 5.93 3.517 3.685 5.65-1.045.987-2.57.868-3.664.062-.88-.644-1.405-1.547-1.802-2.527.106.824.065 1.653-.44 2.553-.7 1.243-2.353 2.508-3.837 1.764-1.436-.718-1.564-2.694-1.243-4.054a6.278 6.278 0 0 1 3.374-4.197c-.008-.02-.013-.04-.018-.055-.015.005-.026.015-.04.02-1.927.59-4.216.808-6.033-.24-1.45-.836-2.396-2.487-1.855-4.16.522-1.61 2.247-2.21 3.807-1.817z" fill="#EEDDE0"/><path d="M45.156 20.99c-.877-.643-1.403-1.546-1.8-2.527.107.825.066 1.654-.44 2.553-.7 1.243-2.348 2.513-3.832 1.768-1.438-.717-1.566-2.694-1.245-4.054a6.278 6.278 0 0 1 3.373-4.197c-.01-.018-.01-.036-.02-.055a.117.117 0 0 1-.037.024c-1.926.592-4.215.808-6.04-.242-1.444-.83-2.39-2.49-1.85-4.154.522-1.608 2.248-2.21 3.807-1.817 2.156.544 3.83 2.66 4.596 4.624l.002.003.055-.043a.823.823 0 0 1 .145-.07c-.993-1.67-.95-3.916-.407-5.73.444-1.482 1.716-4.303 3.697-3.865 1.772.39 2.374 2.61 2.213 4.152-.177 1.675-1.13 3.1-2.316 4.3 1.212-.982 2.477-1.908 4.12-1.758 1.547.14 3.424 1.375 3.25 3.13-.285 2.852-4.435 2.907-7.3 2.253 2.475 1.222 5.94 3.523 3.687 5.656-1.04.976-2.563.857-3.662.047zM38.5 18.057c-.63 1.648-.417 5.484 2.406 4.333 1.704-.695 2.402-2.7 2.11-4.383-.106-.592-.277-1.14-.383-1.7a17.282 17.282 0 0 0-.358-1.042c-.377-.036-.608-.213-.835-.488-1.32.768-2.388 1.83-2.94 3.28zm3.026-5.028c-.01-.005-.017-.006-.026-.018-.768-1.196-1.564-2.366-2.69-3.267-1.524-1.22-4.69-1.88-5.17.9-.3 1.722 1.067 3.128 2.606 3.64 1.596.534 3.215.147 4.818-.118a.216.216 0 0 1 .046 0 1.313 1.313 0 0 1 .416-1.137zm5.124-4.32c.723-1.912-.047-7.1-3.407-3.964-2.13 1.985-1.603 5.483-1.076 7.958.328-.05.664.037.938.236 1.344-1.255 2.874-2.46 3.545-4.23zm-5.025 5.902c.32.29.977.238 1.29-.01.428-.34.256-.84.08-1.087-.616-.864-2.214-.116-1.37 1.097zm10.31-1.215c.56-1.435-.85-2.593-1.96-2.964-1.292-.433-2.51-.06-3.617.658-1.01.657-1.88 1.484-2.935 2.075a.092.092 0 0 1-.072.006c.02.024.043.044.06.067.268.364.34.83.194 1.23 2.4.606 7.228 1.77 8.332-1.07zm-8.33 1.422c-.054-.02-.105-.044-.156-.06a.995.995 0 0 1-.226.234c-.113.09-.24.153-.38.2-.004.25.015.494.04.732.84 2.437 2.253 6.812 5.22 4.978 3.342-2.067-2.698-5.182-4.5-6.085z" fill="#523333"/><path d="M41.136 13.605a.133.133 0 0 1-.056.025c-1.208.212-2.368.26-3.573.015-.055-.013-.046-.096.01-.083 1.108.19 2.267.186 3.354-.113-1.794-.733-3.478-1.584-5.407-1.988 1.8.274 3.76.696 5.338 1.675-.77-1.258-1.805-2.257-3.143-2.946-.077-.04-.035-.16.05-.127 1.592.665 2.862 1.793 3.667 3.322.082.15-.098.266-.237.22z" fill="#523333"/><path d="M42.133 12.618c1.438-1.828 2.27-3.946 2.333-6.277 0-.048.087-.05.09 0 .062 2.365-.64 4.638-2.126 6.492-.147.182-.438-.03-.297-.212z" fill="#523333"/><path d="M42.63 12.678c.998-.816 1.752-1.755 2.39-2.868.027-.046.1-.003.08.044-.452 1.212-1.26 2.264-2.278 3.064-.155.123-.344-.113-.192-.24z" fill="#523333"/><path d="M41.796 12.444a9.35 9.35 0 0 0 .222-4.18c-.013-.073.095-.09.108-.017a8.873 8.873 0 0 1-.062 4.3c-.046.182-.32.078-.268-.103z" fill="#523333"/><path d="M50.288 13.22a14.337 14.337 0 0 0-6.777.62c-.193.067-.322-.23-.127-.295a13.33 13.33 0 0 1 6.923-.477c.098.01.084.167-.017.152z" fill="#523333"/><path d="M48.503 11.616c-1.902.225-3.63.818-5.24 1.853-.17.11-.373-.136-.2-.253 1.624-1.08 3.465-1.69 5.418-1.75.095-.003.118.137.024.147z" fill="#523333"/><path d="M47.053 14.825c-1.16-.514-2.3-.646-3.554-.665-.164-.004-.163-.257-.005-.28 1.243-.18 2.562.185 3.642.782.09.055.008.208-.085.162z" fill="#523333"/><path d="M46.634 19.81a10.934 10.934 0 0 1-3.35-4.664 8.207 8.207 0 0 0 1.05 3.303c.06.096-.107.197-.177.1-.785-1.145-1.244-2.417-1.29-3.814-.01-.202.25-.274.346-.148.093-.08.253-.088.303.062.01.03.025.062.036.092.01.01.02.016.024.03.606 1.074 1.383 1.974 2.41 2.67.068.046-.007.144-.076.104a7.066 7.066 0 0 1-1.803-1.476 12.307 12.307 0 0 0 2.636 3.588c.08.083-.018.223-.11.15z" fill="#523333"/><path d="M41.83 19.368a90.3 90.3 0 0 1 .013-4.02c-.41.715-.92 1.34-1.22 2.14-.337.92-.428 1.843-.485 2.81-.008.1-.152.095-.17 0-.285-1.434.122-3.487 1.152-4.714-.75.6-1.413 1.233-1.923 2.143-.027.053-.117.004-.09-.05.538-1.208 1.486-2.465 2.777-2.94.048-.02.098.004.125.046.136-.026.31.063.3.25a85.31 85.31 0 0 1-.29 4.333c-.004.105-.188.113-.19 0z" fill="#523333"/></g><defs><clipPath id="clip0_469_7436"><rect width="246" height="174" fill="white" transform="translate(0.710449 0.973572)"/></clipPath></defs></svg>