<svg width="1490" height="228" viewBox="0 0 1490 228" fill="none" xmlns="http://www.w3.org/2000/svg"><g clip-path="url(#clip0_401_5590)"><path d="M0 213.55c2.05-1 4.41-1.64 6.08-3.08 4.02-3.46 7.72-7.31 11.57-10.97.2-.19.64-.13.97-.19 3.04-.56 6.68-.29 8.94-1.93 2.16-1.57 2.88-5.12 5.16-7.77-.16 3.53-.31 7.07-.5 11.19 5.22-.96 9.9-1.51 14.36-2.82 1.47-.43 2.54-2.71 3.47-4.33.72-1.26.92-2.8 1.35-4.22l1.39.24c-.2 3.45-.39 6.91-.63 11.02 1.94-.18 3.45-.7 4.72-.35 2.19.61 4.35 1.57 6.29 2.76 1.2.74 1.82 2.83 3 3.12 1.96.49 4.16.03 6.26-.04-.43-3.27-.45-6.68-1.46-9.77-.5-1.55-2.8-2.51-4.58-3.98-2.52 2.24-4.72 1.68-6.26-1.71-1.07-2.36-2.69-4.57-3.28-7.04-.55-2.34-.06-4.92-.07-7.39-.01-1.38.41-3.34-.31-3.98-.84-.74-2.71-.33-4.11-.42.26 4.54.67 8.24.62 11.95-.04 2.74-6.09 9.14-8.85 9.69-.72.14-2.13-.08-2.25-.45-1.88-5.74-9.39-9.93-4.88-17.53.47-.8.04-2.81-.69-3.43-.66-.56-2.33-.15-3.47.14-.92.23-1.67 1.18-2.59 1.38-3.72.84-5.4 2.74-3.34 6.8-6.44-2.98-9.73-7.5-8.75-11.61 1.52-6.37 3.53-8.37 8.93-8.56-2.88-2.45-6.28-4.73-2.59-8.8 2.93-3.23 6.2-2.04 8.85.05 5.05 3.98-.04 6.78-1.73 10.24l8.38 2.93c.7-2.48 2.27-5.59 7.58-4.09-3.23-2.65-6.38-4.57-3.58-8.6 2.37-3.42 5.62-2.76 8.43-1.24 4.68 2.53 3.08 6.1.33 9.39 7.79.14 4.19 8.4 8.74 10.6 3.47.57 9.78-8.95 10.25 2.8 6.82.98 12.09-1.22 17.47-5.08 3.34-2.39 8.38-3.36 12.64-3.29 7.1.11 10.05-4.5 13.29-9.26.65-.95 1.2-1.96 1.79-2.94-.25-.29-.41-.6-.67-.77-2.32-1.54-4.65-3.06-6.98-4.58 1.67-2.44 3.36-4.88 5.02-7.33.64-.94 1.43-1.84 1.83-2.88 1.59-4.13 3.66-7.6 8.36-8.97 10.1-2.95 19.7-7.17 29.74-13.21-.12 2.74-.5 4.36-.17 5.84.26 1.18 1.36 2.18 2.09 3.27.95-.76 2.15-1.35 2.79-2.32 1.9-2.84 1.71-5.16-1.24-7.65-3.22-2.72-3.73-6.61-1.61-10.44 1.84-3.33 4.42-5.08 8.59-4.18 1.75.38 3.78-.54 6.04-.92-1.99 5.53.3 9.76 4.15 13.61.22-2.32.09-4.75.73-6.95 1.18-4.05 3.75-5.78 8.41-6 3.56-.17 6.99-2.83 10.03-4.18-.36 4.88-.8 10.85-1.25 16.88 3.46-.51 6.75-.81 9.93-1.57.84-.2 1.91-1.8 1.9-2.74-.07-4.01 1.41-7.16 4.76-9.17.8-.48 3.46.38 3.46.57-.1 3.43.14 7.06-.95 10.21-1.63 4.68-.43 8.45 5.35 11.01-6.22 7.8-8.65 19.24-22.59 17.98.64 4.7 1.16 8.55 1.68 12.38 5.01-.17 5.48.33 4.33 5.13-1.55-1.17-2.9-2.19-5.08-3.84-.69 2.42-1.6 4.44-1.78 6.51-.44 5.16-4.16 7.89-8.93 6.24-3.93-1.36-5.24-.46-4.72 3.55.39 2.99.71 6.13 1.95 8.8.58 1.25 3.21 1.64 4.99 2.18.89.27 1.98-.2 2.91 0 10.17 2.16 11.37-.98 16.67-5.92.25 3.89 1.69 4.7 5.45 3.47 2.45-.8 5.65.69 9.39 1.3 1.07-.98 2.95-2.7 3.86-3.53 2.31.94 4.09 2.33 5.78 2.22 3.77-.23 4.44-3.17 3.41-6.13-.78-2.24-2.13-4.49-3.8-6.17-2.32-2.33-3.47-4.29-2.35-7.85.94-3 .29-6.47.54-9.72.12-1.58.7-3.12 1.34-5.81 1.57 1.88 2.31 3.12 3.37 3.95 1.22.94 2.66 1.92 4.13 2.16 3.29.55 6.66.67 10.7 1.02.29-1.1.91-3.54 1.79-6.95 1.82 2.02 3.08 3.4 4.76 5.27.93-1.84 1.76-3.48 2.58-5.08 7.56-.24 7.97-.91 7.16-8.95-.26-2.58.34-5.26.56-7.93 6.82-4 9.4-2.35 11.59 7.58.32 1.46.38 2.97.56 4.46.3 2.45.38 5.93 3.92 4.49 1.95-.79 3.41-3.89 4.13-6.24.62-2.01.14-4.5-.34-6.67-.84-3.84 1.36-5.19 4.38-5.69 3.39-.56 4.74 1.55 5.08 4.62.07.62.51 1.2.96 2.19 9.17-6.83-.35-12.25-1.05-18.09 6.87-5.71 16.09-6.25 19.57-1.48 4.25-1 8.33-2.18 12.49-2.9 5.58-.96 6.91.6 6.59 6.12-.08 1.38 1.02 3.62 2.17 4.13 3.11 1.38 5.1 2.81 4.32 6.69-.2 1.02 1.3 3.39 1.89 3.35 1.56-.12 3.62-.8 4.47-1.99 4.24-5.93 6.58-5.49 10.77.35 3.28 4.57 3.02 7.9-.24 11.82-.51.61-.46 1.69-.63 2.57-.28 1.41-.53 2.83-.93 5 1.59 2.16 3.91 1.26 6.63-.4 2.28-1.39 4.93-2.18 7.41-3.23.16.45.33.9.49 1.36-1.86.82-3.68 1.72-5.57 2.45-4.32 1.67-4.18 5.69-4.61 9.19-.1.85 2.03 1.9 3.01 2.98.96 1.06 2.48 2.24 2.5 3.4.08 3.61-.43 7.24-.73 11.02 2.93-.64 4.69-1.02 6.8-1.48-.18 1.67-.29 2.64-.43 3.95 2.89.5 5.81 1 8.72 1.5.91-1.89 1.46-3.66 2.51-5.05.97-1.29 2.47-2.19 3.74-3.26.67 1.5 1.35 3 2.33 5.19 3.87.12 3.02-3.7 3.28-6.66 3.24-1.43 6.28-2.8 8.92.88.28.39 1.23.47 1.83.41 6.27-.69 12.11-2.2 15.2-8.57.63-1.3 1.35-2.56 2.21-4.17-1.64-.44-3.49-.4-4.37-1.3-1.4-1.43-2.55-3.38-3.05-5.31-.46-1.77.06-3.81.16-5.98 4.53 2.54 5.56-.94 7.35-4.77 1.4-3.01 4.55-5.21 6.22-7.02-1.31-2.12-4.53-4.96-4.1-7.08 1.14-5.65 6.36-6.36 11.87-6.65v11.61c3.88-2.11 8.72-.63 11.71-5.87 1.38-2.42 6.98-2.44 11.01-3.65 0 1.87-.4 3.89.12 5.64.46 1.56 1.94 2.83 3.76 5.3 1.28-5.91 4.62-9.92-.83-14.09-3.31-2.52-2.66-6.77-.5-10.04 1.73-2.62 4.05-4.62 7.97-3.52 1.83.51 4.09-.54 5.11-.71.96 4.42 1.92 8.88 2.84 13.12 3.87-.5 7.03-.62 10.01-1.44 1-.27 1.63-2.24 2.25-3.51 1.28-2.61 1.99-5.63 3.76-7.81 1.94-2.38 5-1.19 5.2 1.93.16 2.37-.03 5.03-.98 7.14-2.66 5.92-1.78 9.12 4.62 12.15-6.21 7.81-8.91 19.08-22.08 18.12 0 2.57-.43 4.65.09 6.47 1.06 3.74 1.33 6.74-1.28 10.41-3.89 5.48-3.38 5.83-10.18 7.97.36 1.87-1.23 4.49 2.83 4.66 1.34.05 2.71.95 3.89 1.72.26.17-.19 2.12-.35 2.13-1.52.06-3.05-.09-4.56-.27-.63-.07-1.23-.35-2.37-.7.15 2.81-3.37 5.61 1.1 7.72 4.87-6.39 15.49-4.91 19.66.51 4.63-6.21 10.57-5.04 16.85-3.27 1.59.45 3.65-.77 5.91-1.32.47 1.92 1.48 3.91 5.58 2.17 1.95-.83 5.69.57 7.64 2.16 4.9 4 9.33 4.72 12.5 1.05 3.62-4.19 3.17-12.43-1.45-15.19-3.55-2.12-3.43-4.37-2.73-7.75.66-3.14.28-6.49.57-9.73.15-1.72.76-3.4 1.42-6.16 1.59 1.9 2.35 3.12 3.4 3.99 1.08.9 2.85 2.36 3.62 2.02 4.31-1.95 7.19.39 10.37 2.6 3.93 2.72 5.93 1.89 7.59-2.71.67-1.85 1.43-3.68 2.13-5.48 7.86-.57 8.27-1.22 7.37-8.86-.3-2.56.32-5.23.53-7.98 6.46-4.14 8.21-3.1 11.51 6.68.67 2 1.83 3.85 2.99 6.23-4.63 7.66-1.32 13.29 8.94 13.67 8.17.31 12.56-2.47 12.07-8.18-.21-2.5-1.61-5.03-2.91-7.28-1.77-3.08-3.05-5.52.23-8.77 2.02-2 2.5-5.21.26-8.2-1.73-2.33-2.82-5.13-5.01-9.26 6.23-1.05 11.29-2.17 16.41-2.67 2.99-.29 4.81 1.42 3.61 4.76-1.13 3.13-.15 4.74 2.95 6.15 1.58.72 2.34 3.32 3.37 5.14.8 1.42 1.44 2.93 2.16 4.4 1.47-.8 3.47-1.24 4.33-2.47 3.64-5.25 6.73-4.61 10.67.57 4.02 5.31 2.19 8.77-1.11 13.05-1.11 1.44-1.64 4.58-.8 5.97 1.54 2.57 4.14 1.58 6.53.15 2.36-1.41 5.02-2.3 7.55-3.43.17.37.33.74.5 1.12-2.95 1.54-5.9 3.07-7.53 3.92-.84 2.58-1.11 3.94-1.71 5.13-1.35 2.67-2.12 4.8 1.91 5.93 1.15.32 2.53 2.35 2.57 3.64.11 3.45-.44 6.92-.77 10.93l6.69-1.98c-.08 1.75-.13 2.8-.13 2.85 3.45 2.21 6.34 4.54 9.63 5.94 1.3.55 4.81-.63 5.02-1.56.98-4.18 3.63-5.58 7.7-5.6-.81-2.05-1.46-3.68-2.16-5.44 3.2-1.24 6.51-1.85 8.97-3.63 4.56-3.3 4.27-6.77-.41-9.61-2.97-1.8-3.5-3.12-.29-5.36 1.3-.91 1.73-3.05 2.56-4.64-1.46-.21-2.93-.42-4.39-.62-.48-.07-.95-.11-2.43-.27.56-3.72 1.25-7.31 1.58-10.93.12-1.33-.13-3.19-.98-4.03-2.68-2.65-5.73-4.93-8.72-7.43 4.86-2.65 7.92-1.15 14.16 3.66 4.88 3.76.61 9.4 3.24 13.29.45-.08.89-.17 1.34-.25 0-.99-.42-2.42.08-2.88 1.71-1.6 3.67-3.88 5.66-4.01 3.51-.22 2.75 2.82 2.29 5.14-.44 2.24-.86 4.48-1.29 6.72l1.37.36c.58-1.25.83-2.92 1.8-3.66 1.43-1.08 4.4-2.54 4.91-2.03 3.82 3.82 10.42 1.48 13.55 6.87-.95.71-2.15 1.59-3.35 2.48.06.3.12.6.19.9 3.29-.24 6.58-.47 11.43-.82 1.03-1.86 2.59-5.4 4.82-8.44 1.43-1.95 3.91-3.13 5.83-4.76.51-.43 1.12-1.34.99-1.85-1.11-4.34 1.85-4.64 4.48-3.96 7.2 1.85 13.63-1.31 20.37-2.46 1.45-.25 3.22-.61 4.41-.02 7.5 3.68 7.45 3.76 13.2-1.84.41-.4 1.07-.53 2.44-.12-1.96 3-3.92 6-5.68 8.7.25.71.26.96.36 1 4.62 1.9 8.68 4.06 7.79 10.31-.68 4.73-.66 9.46-4.02 13.5-3.69 4.44-6.89 9.28-10.48 14.2.51.07 1.74.04 2.84.42 2.09.73 5.05 1.1 5.99 2.64 3.57 5.84 9.02 7.27 15.11 7.67 4.46.29 5.4-1.3 4.91-5.72-.51-4.55-2.18-9.81 4.03-12.27-1.12-3.02-2.14-5.77-3.64-9.82 2.32 1 3.15 1.36 3.98 1.72 1.59.69 4.5 2.1 4.59 1.95 1.53-2.76 3.88-5.8 3.67-8.6-.24-3.09-.95-7.12-4.86-8.8-.67-.29-1.07-1.18-2.6-2.97 3.12-.59 5.3-.99 7.78-1.46-.1-.43-.42-1.62-.63-2.83-.73-4.07 2.56-6.99 6.3-5.13 9.25 4.61 19.2 5.84 29.23 7.05 2.38.29 5.01.97 6.91 2.33 5.95 4.27 11.22 1.56 16.61-.97 1.02-.48 2.01-1.04 3.34-1.73-.59-.78-1.17-1.33-1.48-2-.96-2.08-3.08-4.87-2.41-6.15 1.03-1.96 3.95-3.01 6.19-4.23 4.16-2.27 9.07-3.66 12.39-6.78 2.63-2.47 4.19-5.58 8.42-5.91 1.52-.12 2.92-1.88 3.41-2.23 2.64 4.22 5.22 8.34 7.82 12.52 4.12-2.52 7.71-4.71 9.81-5.98.48-5.07.61-8.88 1.34-12.58.2-1.01 2.1-2.16 3.34-2.31.82-.1 2.4 1.31 2.67 2.31.74 2.73 1 5.6 1.4 8.42.25 1.75.39 3.51.76 6.98 6.83-9.63 13.25-4.34 18.73-1.44-1.39 3.93-2.96 8.34-4.44 12.52 3.61 1.54 6.24 2.97 9.05 3.72 1.11.3 2.74-.74 3.93-1.49 2.57-1.64 4.79-4.09 7.55-5.09 3-1.08 4.9 1.44 3.31 4.29-1.29 2.32-3.19 4.5-5.31 6.1-4.2 3.17-4.99 7.18-1.43 11.48-2.19 1.82-4.15 4.09-6.63 5.32-2.47 1.22-5.46 1.4-8.07 2.01.95 3.16 2.24 5.96 2.43 8.84.08 1.15-2.23 2.5-3.51 3.69-2.68 2.5-5.24 1.26-6.74-1.08-2.58-4.03-.13-7.11 3.33-10.06-3.14-1.12-5.98-2.14-9.76-3.5-.9 3.45-1.75 6.67-2.6 9.9-.23-.45-.46-.91-.69-1.36-.47 1.31-1.41 2.66-1.31 3.93.44 5.82-4.44 7.54-7.86 10.07-2.65 1.96-3.25 3.73-1.35 6.11 2.46 3.07 3.47 7.3 7.49 9.24.66.32.42 2.32.82 3.46.49 1.4 1.1 2.82 1.96 4 .16.21 1.79-.96 2.74-.96 9.46-.06 12.16-8.39 17.23-13.85.82-.88 2.15-1.72 3.3-1.79 7.55-.48 12.23-4.24 13.9-11.78 2.04-.1 3.98-.2 6.39-.32-3.35-2.03-6.18-3.9-3.67-7.95 2.22-3.58 5.58-2.9 8.35-1.51 3.96 1.99 4.11 5.3 1.08 8.89 2.95 1.11 5.55 2.69 8.28 2.98 4.09.43 7.57-1.17 8.82-5.65 1.36-4.87-1.43-11.86-5.93-13.59-4.24-1.63-7.23-3.28-6.81-8.79.2-2.66-2.05-5.45-2.85-8.28-.51-1.82-.41-3.81-.68-6.91 2.32 1.51 3.54 2.73 4.98 3.15 1.59.46 4.24.93 4.95.11 2.76-3.15 5.73-1.89 8.7-1.15 7.32 1.82 8.46.99 8.5-6.48.01-1.65 0-3.3 0-4.84 7.62-2.69 8.3-4.48 4.38-11.01-2.67-4.45-2.54-10.04.44-11.83 2.46-1.48 4.79-2.02 6.67 1.26 3.17 5.54 6.82 10.81 9.94 16.36 2.8 4.97 4.66 5.92 9.3 4.6.22-3.34-.34-6.59.87-8.89.76-1.44 4.87-2.64 6.28-1.84 1.79 1.01 2.37 4.16 3.45 6.34 4.52-2.8 5.27-7.11 1.19-11.63-1.33-1.47-2.92-2.72-4.46-3.99-2.54-2.11-4.47-3.93-2.5-7.93 1.43-2.9.91-6.39-2.51-8.72-2.55-1.74-4.7-4.08-7.11-6.22 3.53-5.74 8.84-8.05 14.28-10.02 2.84-1.03 5.02-.06 5.16 3.35.16 3.9 1.93 5.46 5.96 5.51 1.5.02 3.06 2.2 4.44 3.55 1.29 1.26 2.36 2.73 3.53 4.11 1.27-1.5 2.66-2.91 3.78-4.51 1.14-1.64 1.82-4.75 3.04-4.94 2.25-.34 4.92.65 7.13 1.7 6.84 3.25 6.44 8.47 3.95 14.54-.59 1.44.26 4.44 1.5 5.46 2.22 1.84 4.45.68 6.31-1.65 1.97-2.46 4.45-4.52 6.7-6.76l1.17 1.26c-1.4 1.26-2.76 2.59-4.22 3.78-3.81 3.11-2.92 7.14-2.02 11.03.23.99 1.8 2.56 2.43 2.42 5.73-1.31 5.95 2.44 5.99 6.08l14.49-3.72c-1.37 7.13-.9 7.97 6.66 12.27 7.32-3.37 10.89-8.22 5.73-17.06 3-.92 5.81-2.64 8.25-2.21 1.58.27 2.62 3.67 4.14 6.04.13-.74.05-1.95.55-2.82.81-1.42 2-2.62 3.04-3.91.78 1.07 1.87 2.04 2.27 3.24 1.16 3.48 2.04 7.05 3.11 10.86-5.42 2.21-6.6-2.29-8.79-4.98-3.08 5.45.19 10.73 7.59 11.25-.64 3.05-1.25 6.01-1.98 9.49 1.68.55 3.45 1.12 6.3 2.05-1.06-5.39 3.32-10.18-1.59-14.71-.3-.28 1.66-4.41 2.61-4.42 4.92-.08 6.72-2.32 6.29-6.94-.02-.17.49-.39 1.19-.91 3.11 2.33 6.44 4.65 9.57 7.22 3.64 2.98 7.38 3.78 11.94 2.16 1.72-.61 4.21-.24 5.94.56 5.22 2.42 7.2 1.73 9.97-3.15 1.53-2.68 3.88-4.94 6.08-7.18.65-.66 2.04-.6 4.24-1.15-2.75 3.46-4.61 5.81-7.17 9.02 3.17-.19 5.11-.31 7.38-.44-1.62-4.72.24-5.97 4.47-5.68 1.9.13 3.88-.93 6.28-1.57-1.18-2.13-1.87-3.38-2.54-4.58 5.53-5.42 7.19-5.34 13.35 1.59-1.09-4.64-1.89-8.08-2.75-11.75h-4.4c.06-.96-.07-2.68.21-2.74 1.64-.4 3.37-.42 5.57-.62.92-6.35 5.74-8.66 11.78-10.84 5.39-1.95 10.99-5.37 14.57-9.72 4.16-5.05 8.48-4.05 13.3-3.46 2.81.34 5.58.97 8.72 1.52 1.01.74 2.49 1.83 3.98 2.93.9-1.74 1.72-3.53 2.71-5.22.56-.95 1.42-1.72 2.14-2.56.36.26.72.52 1.07.78-.46 1.62-1 3.23-1.35 4.88-.16.75-.17 1.66.1 2.36.41 1.05 1.12 1.98 1.71 2.97-1.32.39-2.63.78-3.71 1.11 3.02 2.21 7.24 4.08 9.48 7.32 1.75 2.53 7.08 5.1 2.8 10.03-.64-.87-1.24-1.69-1.83-2.51-.31.08-.62.16-.94.25.26 1.79.52 3.58.79 5.37 2.67-.86 5.49 2.9 8.22-.51 1.4-1.75 3.58-2.87 5.41-4.27.29.36.58.73.86 1.09-1.36 1.19-2.72 2.38-4.83 4.23 8.04 3.07 5.28 10.18 6.78 15.76.98 3.64 1.98 7.28 3.01 11.03 2.66-1.57 3.99-2.56 5.49-3.07.28-.1 1.22 1.71 2.36 3.39 2.54-.66 5.77-1.26 8.82-2.36 4.06-1.47 7.56-.01 9.22 3.98 1.05 2.51 2.5 4.85 4.71 6.79-.47 2.11-.95 4.22-1.42 6.33.49.09.99.17 1.48.26 1.72-2.13 3.09-4.79 5.26-6.23 2.07-1.37 4.98-1.47 7.8-2.2.27 1.02.3 1.87.7 2.51.63 1 1.49 1.86 2.25 2.77.73-1.1 2.21-2.34 2.04-3.26-.69-3.67 2.83-8.23-2.07-11.17-.05-.03 1.02-2.98 2.13-3.68 1.85-1.15 4.63-1.08 6.12-2.48 1.14-1.07.88-3.62 1.4-6.35 3.87 2.89 7.21 5.19 10.33 7.76 3.63 2.99 7.37 3.79 11.93 2.2 1.74-.61 4.22-.27 5.95.53 5.24 2.43 7.26 1.74 9.99-3.09 1.52-2.69 3.87-4.95 6.07-7.19.66-.68 2.06-.64 4.33-1.26l-7.23 9.09 7.39-.42c-1.68-4.71.36-5.25 4.39-5.81 5.69-.8 11.16-3.17 17.01-4.95-.72-4.21-1.34-7.88-1.9-11.15h-5.01c.01-.95-.19-2.66.06-2.73 1.61-.46 3.32-.55 5.61-.84 1.24-7.66 7.15-10.81 14.71-10.39 2.92.16 6.92 2.47 8.3 4.97 4.26 7.72 4.57 15.48-4.42 21.68 1.97.58 3.41 1 5.09 1.49-.22 3.53.72 5.97 4.66 7.38 1.67.6 2.75 4.24 3.02 6.61.1.86-2.84 2.36-4.59 3.09-6.04 2.5-12.32 4.45-18.21 7.25-4.56 2.16-6.55 8.84-5.13 13.97.43 1.55.46 3.22.84 6.08 5.38.87 11.16 1.68 16.87 2.82 1.63.32 3.42 1.29 4.51 2.51 3.43 3.84 11.4 5.27 16.01 3.4 2.07-.84 4.94-.07 7.35.44 2.06.44 3.98 1.56 5.96 2.37v18c-5.59-1-11.17-1.99-17.1-3.05-.08 1.22.58 3.94-.49 5.25-2.52 3.08-.82 4.12 1.41 5.79.89.67 1.33 2.44 1.3 3.7-.08 3.14.5 4.7 4.26 3.85 1.44-.32 4.29.76 4.78 1.92 3.81 9.01-1.6 16.72-11.7 15.93 1.99 3.97 3.79 7.56 5.6 11.16.46.07.91.13 1.37.2 1.57-5.59 4.16-9.79 10.58-8.75v14h-1415c-2.06-3-4.12-6-6.55-9.51l-.45 9.51h-68C0 222.82 0 218.19 0 213.55zm1255.85-101.24c3.02-5.02-1.03-11.39-7.28-13.96-1.47 1.17-2.96 2.35-4.88 3.89 2.02.56 3.5.97 5.25 1.45-1.93 6.48 4 6.16 6.91 8.62z" fill="white"/><path d="M1490 213.55c-6.42-1.04-9 3.16-10.58 8.75-.46-.07-.91-.13-1.37-.2-1.8-3.59-3.6-7.19-5.6-11.16 10.1.79 15.51-6.91 11.7-15.93-.49-1.16-3.35-2.24-4.78-1.92-3.76.85-4.34-.71-4.26-3.85.03-1.25-.42-3.03-1.3-3.7-2.22-1.68-3.92-2.72-1.41-5.79 1.07-1.31.41-4.03.49-5.25 5.93 1.06 11.52 2.05 17.1 3.05.01 12 .01 24 .01 36z" fill="white"/><path d="m68 227.55.45-9.51c2.42 3.52 4.48 6.52 6.55 9.51h-7z" fill="white"/><path d="m0 183.55 8.29 1.77c-.08.74-.15 1.49-.23 2.23H0v-4z" fill="white"/><path d="M0 146.55c5.2-.09 4.96 4.03 6.44 8.57-2.83-2.01-4.64-3.29-6.44-4.57v-4z" fill="white"/><path d="M384.27 96.09c-3.28-1.86-6.07-3.44-8.89-5.05-3.01 6.5-3.01 6.5-8.93 2.27-4.84 6.06-7.46-3.27-11.65-1.71-1.94 6.09-2.31 6.27-7.34 2.17-3.26-2.65-6.48-4.73-11.01-4.72-2.47.01-4.94-1.59-7.27-3.55-.87.39-1.92.59-2.59 1.2-3.01 2.72-4.64 4.35-7.81-.91-2.56-4.26-8.44-6.54-13.78-10.37 0-2.73 1.15-7.24-.33-10.59-1.43-3.21-5.58-5.21-8.71-7.89 3.1-4.6 7.88-6.51 11.29-5.03 5.31 2.3 10.25-1.49 15 .65 6.91 3.11 13.66-1.66 20.54-.1 3.07.7 6.3.74 9.45 1.1.31.04.62.22.88.39 4.57 3.04 4.57 3.04 8.2-.99-.41 1.32-.78 2.64-1.23 3.94-.49 1.4-1.05 2.77-1.8 4.74 1.67.68 3.26 1.32 4.85 1.98 3.47 1.44 3.64 3.78.9 6.35-.79.75-.55 2.65-.63 4.04-.01.18 1.04.3 1.22.64 3.21 6.23 8.21 8.19 15.21 8.53 5.2.29 6.85 6.24 4.43 12.91z" fill="white"/><path d="M1232.82 19.55c.82-2.14 1.36-4.46 2.55-6.36 1.23-1.96 2.79-4.39 4.75-5.08 4.98-1.75 10.26-2.66 15.43-3.87.29-.07.72.01.93.2 6.87 6.02 5.71-.85 6.58-4.44.42.08.85.17 1.27.25 0 1.53.14 3.07-.03 4.58-.41 3.75-.28 6.7 4.96 5.82 1.29-.22 3.34.66 4.11 1.72.88 1.21 2.67 3.66-.96 4.33.68 1.44 1.06 3.2 2.13 4.24 1.16 1.14 3.35 1.26 4.41 2.44 3.57 3.99 7.6 2.82 11.5 1.21 5.54-2.29 12.38 1.75 12.31 7.85-.01.87-2.48 2.43-3.81 2.42-2.33-.01-4.65-.98-7.64-1.72.21 1.86.29 2.74.41 3.61.46 3.4-1.15 4.28-4.11 3.28-3.24-1.09-6.43-2.3-10.14-3.64-3.63 1.56-7.69 4.51-12.74 1.51-.58-.34-2.87.92-3.35 1.92-2.07 4.38-3.6 5.98-7.86 1.42-2.01-2.16-6.7-1.72-10.09-2.74-3.29-.99-7.57-.57-8.59-5.33-.48-2.23-1.07-4.43-1.56-6.66-.51-2.32-.95-4.66-1.42-6.99.33.02.65.03.96.03z" fill="white"/><path d="M1067.68 36.25c-4.23 2.17-8.63 4.51-13.8 1.22-.46.31-1.16.54-1.48 1.02-2.42 3.77-3.63 8.02-9.62 2.5-3.33-3.07-10.33-1.78-14.94-3.99-2.35-1.13-3.4-5.56-4.43-8.7-.93-2.85-1.03-5.98-.8-8.48.89-2.3 1.4-4.87 2.78-6.82 1.51-2.12 3.56-4.43 5.87-5.25 3.49-1.24 7.43-1.17 11.14-1.86 1.18-.22 2.24-1.1 3.36-1.68 5.41 3.89 5.65 3.76 8.77-4.12-.09 1.65-.3 3.3-.25 4.95.09 2.78-1.04 6.15 4.22 5.63 5.56-.55 6.16.99 3.94 6.29-.39.93.82 3.01 1.86 3.93 1.35 1.2 3.65 1.39 4.84 2.67 3.48 3.72 7.43 2.57 11.12 1.18 5.13-1.92 10.62.3 12.08 5.57.36 1.32.71 3.37.03 4.04-.77.76-2.72.56-4.12.38-2.17-.27-4.3-.85-6.67-1.35.42 7.78.1 8.04-6.58 5.78-2.3-.77-4.52-1.78-7.32-2.91z" fill="white"/><path d="M666.53 98.23c-3.32-1.83-6.24-3.45-9.22-5.1-2.76 7.09-5.93 6.45-11.91-.72-5.71-1.28-10.09-2.26-14.47-3.24.05-.54.1-1.08.14-1.62-.99.54-2.18.88-2.93 1.65-2.92 3.04-4.43 3.68-7-1.04-1.92-3.54-6.21-6.64-10.13-8.05-6.29-2.27-3.9-6.49-3.59-10.32.22-2.83.99-5.62 1.27-7.1 2.19-2.32 3.5-4.24 5.29-5.44 2.06-1.38 4.53-2.91 6.85-2.95 4.46-.07 8.94.86 13.41 1.39.31.04.76.14.88.36 3.79 7.02 5.57 2.11 7.44-2.31.36.44.71.89 1.07 1.33-.59 1.6-1.13 3.23-1.79 4.8-1.18 2.78-1.7 4.82 2.41 5.77 4.66 1.08 4.76 2.76 1.12 6.49-.39.4-.62 1.33-.43 1.85.34.97 1.02 1.82 1.58 2.71 3.48 5.62 7.73 8.82 15.15 8.53 4.91-.2 7.01 6.12 4.86 13.01z" fill="white"/><path d="M779.69 112.57c-3.4-5.32-4.37-10.68-1.15-13 3.14-2.26 5.57-7.74 11.52-3.96-1.05-4.14-1.52-8.32 3.72-8.25 2.29.03 5.64 2.24 6.6 4.33 2.78 6.07-3.59 5.92-7.15 8.35 1.9 1.46 3.5 2.68 5.06 3.88-.33 2.86-.65 5.7-1.06 9.32 1.9 0 3.5.27 4.96-.05 3.56-.8 4.82.89 3.9 3.89-1.27 4.17-2.94 8.26-4.82 12.19-1.3 2.72-10.67 5.43-13.25 4.16-.52-.26-1.28-1.01-1.2-1.39 1.22-6.02-3.29-13.59 4.81-17.85.73-.38.69-2.22 1.01-3.39-3.09-.65-6.16-1.67-9.27-1.77-1.11-.02-2.3 2.14-3.68 3.54z" fill="white"/><path d="M1220.7 70.48c-.91-1.25-2.21-3.03-3.67-5.03 3.09-4.18 7.81-5.28 12.14-4.21 2.26.56 4 4.37 5.27 7.05.38.79-1.38 3.11-2.65 4.06-2.57 1.92-4.41 5.8-8.76 3.96-.25-.1-.84.43-1.19.76-4.93 4.7-5.16 4.68-10.51-2.11 3.06-1.47 5.87-2.81 9.37-4.48z" fill="white"/><path d="M406.22 130.59c-1.9-2.49-4.61-4.49-4.96-6.84-.58-3.92 3.62-6.22 12.77-7.32-.22 2.47-.47 4.64-.59 6.82-.12 2.35.08 4.73-.22 7.04-.32 2.45-.89 4.92-1.85 7.17-.13.3-4.23-.17-4.62-1.08-.83-1.96-.46-4.45-.53-5.79z" fill="white"/><path d="M999.87 32.64c-2.91-1.62-5.99-3.03-8.57-5.07-.41-.32 1.1-3.78 2.33-5.31 3.58-4.47 8.58-5.23 11.93-1.74 1.59 1.66 3.58 4.33 3.25 6.16-.69 3.88-4.16 5.46-8.94 5.96z" fill="white"/><path d="M1209.84 32.66c-2.91-1.63-5.98-3.05-8.55-5.1-.41-.33 1.12-3.78 2.35-5.32 3.58-4.47 8.58-5.22 11.94-1.72 1.59 1.66 3.79 4.77 3.2 6.08-1.43 3.13-3.31 7.37-8.94 6.06z" fill="white"/><path d="M285.23 51.26c6.2-1.13 6.95 4.02 8.4 7.25 1.66 3.71-2.51 5.54-4.55 5.69-2.92.22-7.08-.86-8.62-2.93-1.06-1.42-6.76-3.23-2.5-6.75 1.98-1.63 4.82-2.21 7.27-3.26z" fill="white"/><path d="M590.47 52.72c1.8 2.53 3.75 4.74 5.01 7.31.52 1.06.01 3.69-.84 4.17-2.24 1.27-5.46 3.04-7.31 2.26-3.12-1.32-5.57-4.35-8.06-6.9-.35-.36.35-2.67 1.07-3.01 2.88-1.37 5.97-2.31 10.13-3.83z" fill="white"/><path d="M1152.76 50.38c-6.68 4.24-10.62 4.38-12.8.59-2.39-4.14 1.07-8.93 9.47-12.63.73 1.97 1.58 3.88 2.14 5.88.53 1.9.76 3.88 1.19 6.16z" fill="white"/><path d="M1359.63 37.93c1.2 4.37 2.27 8.26 3.3 12.03-6.01 4.56-10.35 4.94-12.76 1.3-2.59-3.89.38-8.41 9.46-13.33z" fill="white"/><path d="m716.01 118.42-1.12 13.03c-3.7-.56-7.16-.77-10.35-1.81-.81-.27-1.46-3.44-.97-4.87 1.8-5.35 6.72-5.54 12.44-6.35z" fill="white"/><path d="M213.74 159.27c.33 5.21-3.64 5.78-6.77 5.8-1.42.01-3.96-2.95-4.07-4.68-.22-3.45 2.21-5.64 5.9-5.78 3.36-.13 5.42 1.15 4.94 4.66z" fill="white"/><path d="M491.37 156.7c3.78.11 4.67 2.22 4.46 5.63-.3 4.68-4.1 5-7.01 5.03-1.3.01-3.71-3.34-3.72-5.18-.02-3.51 2.62-5.46 6.27-5.48z" fill="white"/><path d="M923.02 174.32c5.19-1.8 9.3-3.1 11.93 1.11.8 1.29-.08 5.06-1.35 5.85-1.75 1.1-5.35 1.44-6.79.33-1.93-1.5-2.54-4.68-3.79-7.29z" fill="white"/><path d="M1421.1 76c3.49-3.49 6.08-5.58 10.1-3.66.91.43 2.41-.58 3.64-.59 1.19 0 2.47.25 3.52.78.42.21.7 1.82.39 2.14-.84.85-2.17 2.02-3.07 1.84-2.56-.52-3.88.04-5.05 2.52-.39.84-3.25 1.19-4.61.72-1.74-.63-3.11-2.3-4.92-3.75z" fill="white"/><path d="M487.47 169.54c1.18-.21 3.04-.98 3.4-.54.95 1.18 1.25 2.88 1.8 4.37-1.42.37-2.82.9-4.26 1.04-1.02.1-2.28-.82-3.11-.48-6.08 2.47-6.16 2.48-8.63-5.9 3.87.31 7.21.57 10.55.83.09.23.17.45.25.68z" fill="white"/><path d="M119.06 97.93c.78 1.4 2.63 3.22 2.62 5.04-.01 3.57-2.59 6.08-6.12 5.53-1.7-.27-4.2-3.01-4.24-4.69-.07-3.46 2.6-5.4 7.74-5.88z" fill="white"/><path d="M400.72 99.58c1.09 1.78 3.01 3.53 3.09 5.35.15 3.6-2.41 6.15-5.93 5.74-1.73-.2-4.73-3.41-4.42-4.4.79-2.54 3.12-4.6 4.83-6.85.81.06 1.62.11 2.43.16z" fill="white"/><path d="M99.18 97.99c.74 1.4 2.54 3.26 2.5 5.07-.08 3.55-2.68 6.05-6.21 5.43-1.69-.3-4.13-3.1-4.14-4.77 0-3.45 2.66-5.39 7.85-5.73z" fill="white"/><path d="M880.78 76.67c1.44 1.81 3.9 3.52 4.09 5.45.35 3.53-2.64 5.03-5.88 5.27-3.16.24-5.06-1.4-5.16-4.61-.13-3.94 2.8-4.71 6.95-6.11z" fill="white"/><path d="M1354.96 113.55c-4.65.89-8.08-1.83-8.4-6.47-.11-1.6-.43-3.34.04-4.79.38-1.14 1.69-2.27 2.85-2.74.7-.28 2.63.52 2.79 1.15 1.09 4.23 1.85 8.56 2.72 12.85z" fill="white"/><path d="M1347.59 64.6c-2.62 1.82-4.54 4.02-5.56 3.66-1.94-.68-3.37-2.82-5.01-4.36 1.77-1.66 3.54-3.33 5.32-4.99 1.46 1.58 2.92 3.17 5.25 5.69z" fill="white"/><path d="M1137.86 64.23c-2.87 2.02-4.66 4.25-6.01 4-1.79-.32-3.24-2.56-4.83-3.98 1.65-1.77 3.06-4.09 5.09-5.02.77-.35 3.01 2.54 5.75 5z" fill="white"/><path d="M1204.29 42.46c-2.04 3.33-.02 9.26-6.42 7.96-1.28-.26-3.02-3.96-2.63-5.63 1.1-4.8 4.76-3.81 9.05-2.33z" fill="white"/><path d="M995.14 46.16c-3.02 2.18-4.68 4.22-6.5 4.39-1.16.1-3.4-2.45-3.68-4.06-.49-2.89 1.21-5.49 4.48-5.05 1.59.21 2.94 2.33 5.7 4.72z" fill="white"/><path d="M1334.21 103.17c3.54-2.73 6.74-5.95 10.03-1.46.8 1.09-.47 5.44-1.79 6.03-3.99 1.79-5.82-1.94-8.24-4.57z" fill="white"/><path d="M571 81.4c-1.98-2.97-4.08-4.84-3.73-5.85.68-1.95 2.58-3.67 4.38-4.87.38-.26 3.78 2.41 3.6 3.21-.51 2.19-2.2 4.1-4.25 7.51z" fill="white"/><path d="M289.11 66.41c2.09 2.67 4.27 4.49 3.95 5.24-.91 2.1-2.85 3.76-4.38 5.59-1.24-1.29-3.59-2.71-3.47-3.86.22-1.97 1.99-3.77 3.9-6.97z" fill="white"/><path d="M269.17 79.2c-2.09-2.81-4.25-4.54-3.96-5.57.57-1.96 2.33-3.82 4.06-5.05.44-.31 3.97 2.17 3.82 2.91-.45 2.22-2.02 4.22-3.92 7.71z" fill="white"/><path d="M1215.63 80.54c-2.71 2.59-4.43 4.24-6.15 5.89-1.35-1.58-3.7-3.12-3.76-4.74-.05-1.34 2.42-3.43 4.14-3.94 1.21-.35 3.04 1.39 5.77 2.79z" fill="white"/><path d="M758.19 69.85c-6.52-9.92-6.52-9.92-11.76-10.15l-.12-1.34c2.97-.11 6.56-1.32 8.78-.07 4.01 2.25 6.29 6.22 3.1 11.56z" fill="white"/><path d="M395.89 133.07c-3.07 2.28-4.85 4.62-6.48 4.51-1.46-.09-2.74-2.89-4.1-4.49 1.7-1.28 3.25-3.09 5.17-3.63.98-.28 2.61 1.66 5.41 3.61z" fill="white"/><path d="M371.13 166.07c3.25-1.36 6.89-3.37 8.72 1.62.43 1.16-1.97 3.37-3.07 5.09-2.21-1.61-4.42-3.23-6.63-4.84.33-.63.66-1.25.98-1.87z" fill="white"/><path d="M716.81 131.24c2.12 2.14 3.39 3.42 4.65 4.7-1.22 1.15-2.39 3.12-3.69 3.21-1.22.09-3.31-1.61-3.66-2.89-.29-1.08 1.36-2.69 2.7-5.02z" fill="white"/><path d="M1176.63 89.93c5.22 2.61 5.09 9.38.56 12.72-.16-3.77-.36-8.16-.56-12.72z" fill="white"/><path d="M1385.89 103.19c4.6-4.4.14-8.93-.04-13.58 6.01 2.8 5.98 9.31.04 13.58z" fill="white"/><path d="M756.29 100.69c1.72 2.54 3.43 5.08 5.15 7.63-.2.43-.39.85-.59 1.28-2.2-.95-4.63-1.6-6.49-3.01-.77-.58-.34-2.76-.46-4.22.79-.55 1.59-1.12 2.39-1.68z" fill="white"/><path d="M1194.53 99.96c2.13-1.57 4.24-3.18 6.46-4.62.09-.06 1.14 1.34 1.75 2.07l-6.27 5.01c-.65-.82-1.3-1.64-1.94-2.46z" fill="white"/><path d="M1404.54 99.85c2.16-1.52 4.31-3.07 6.55-4.47.07-.04 1.6 2.01 1.56 2.05-2.03 1.72-4.16 3.34-6.28 4.96-.61-.86-1.22-1.7-1.83-2.54z" fill="white"/><path d="M19.03 182.84c3.35.97 6.28 1.81 10.11 2.91-6.42 3.46-9.31 2.65-10.11-2.91z" fill="white"/><path d="M720.54 120.86c1.13 2 2.26 4 3.39 6.01-1.35.29-3.76 1.06-3.87.81-.82-1.87-1.19-3.94-1.7-5.95.73-.29 1.46-.58 2.18-.87z" fill="white"/><path d="M1255.85 112.31c-2.91-2.46-8.84-2.14-6.91-8.62-1.75-.48-3.23-.89-5.25-1.45 1.93-1.53 3.42-2.72 4.88-3.89 6.26 2.56 10.3 8.94 7.28 13.96z" fill="white"/></g><defs><clipPath id="clip0_401_5590"><rect width="1490" height="227.55" fill="white"/></clipPath></defs></svg>