<svg width="1490" height="203" viewBox="0 0 1490 203" fill="none" xmlns="http://www.w3.org/2000/svg"><g clip-path="url(#clip0_401_5514)"><path d="M0 67V33c2.56-2.32 5.12-4.64 7.85-7.12C5.94 21.89.75 19.57.93 14.16c0-.04-.61-.11-.93-.16V0h1490v39.99c-2.47-.58-4.94-1.17-7.41-1.75.1-.45.2-.9.3-1.34-2.87.72-5.82 1.23-8.59 2.23-1.42.51-2.9 1.63-3.71 2.89-2.29 3.57-4.22 7.37-6.34 11.05-1.55 2.69-1.89 4.91 1.59 6.45 1.25.56 2.19 1.8 3.28 2.74-1.22.98-2.29 2.34-3.68 2.88-3.51 1.37-4.13-.65-4.37-3.75-.4-5.13-6.53-10.15-10.99-9.44-7.47 1.19-10.58 5.02-9.45 11.37h6.91c-5.09 7.44-13.21 7.22-19.03 10.89-.32-3.14-.6-5.8-.87-8.46l-1.29-.24c-2.04 2.87-4.09 5.73-6.7 9.39 1.34 3.54-1.38 4.1-5.39 3.31.23 1.44.39 2.5.67 4.25h-17.3c.4.51 1.34 1.74 3.23 4.2-6.05 2.71-12.12 4.27-16.68 7.79-4.94 3.81-10.83 4.9-15.89 7.98-1.29.79-2.49 1.74-3.72 2.61-.33-.33-.66-.65-.99-.98 2.04-2.79 4.08-5.58 6.85-9.38-10.56.3-9.68-7.77-11.11-13.43 1.35-2.85 2.74-5.77 4.41-9.28h-4.87c-.36 1.91-.64 3.39-.93 4.88-1.48-.49-2.96-.98-4.64-1.53-3.02 7.31-10.59 5.48-16.33 6.83-4.05.95-6.01 1.88-4.77 6.15.73 2.54.87 5.25 1.35 8.35.34.19 1.76.88 3 1.8.19.14-.49 2.05-.68 2.03-1.9-.14-3.78-.52-5.7-.83-2.12 6.55-2.36 8.58-1.3 11.22-1.03.3-2.04.6-3.68 1.09 2 .92 3.22 1.49 5.06 2.34-1.51 1.35-2.55 2.26-2.64 2.35-3.26-.74-5.43-1.19-7.58-1.74-.9-.23-2.12-.38-2.58-1.02-2.69-3.73-6.15-2.72-8.49-.49-3.54 3.38-6.99 6.12-12.09 6.61-1.47.14-2.78 2.06-4.29 3.27 4.93 3.15 3.5 9.69.4 12.89 2.29 2.52 4.58 5.05 6.24 6.89-.36 2.12-.49 3.62-.89 5.04-.67 2.33-1.06 4.95-2.42 6.84-1.93 2.69-6.87 2.81-6.63 7.62.01.29-1.39.61-2.1.98-2.58 1.34-5.15 2.7-8.51 4.47-.02-.01-1.87-.17-2.6-1.16-2.56-3.48-11.64 1.8-9.18-7.39-2.36.2-4.13.41-5.9.48-4.16.18-7.91.37-11.65 3.45-2.07 1.71-7.35 1.49-10.06.04-5.67-3.04-4.54-9.6 1.39-12.68 1.13-.59 1.63-2.53 2.25-3.92.51-1.14.38-2.86 1.19-3.51 6.94-5.58 8.13-12.81 5.41-21.81-1.34 1.69-2.68 3.37-4.14 5.22-1.01-.6-2.1-1.24-3.44-2.03-.41 1.33-.73 2.34-1.03 3.31-.58 0-.93.06-1.24-.01-5.63-1.33-11.33-4.93-16.71.69-.32.33-1.23.07-1.85.13-4.28.44-8.56.89-13.2 1.38.79 3.37-1.02 5.22-4.62 6.01-2.72.59-5.29 1.92-8.02 2.49-6.99 1.46-7.01 1.37-6.8-5.49.01-.29-.26-.58-.04-.13-3.83-1.92-7.59-2.95-10.1-5.32-2.64-2.49-2.02-2.81-5.51-1.23-1.02.46-3.91-.57-4.06-1.32-.83-3.97-1.18-8.05-1.39-12.11-.03-.64 1.46-1.67 2.41-1.93.7-.19 2 1.12 2.45.83 4.98-3.15 6.68 1.58 7.72 4.09 1.58 3.78 3.76 5.79 7.55 5.82 4.48.05 2.98-3.88 3.66-6.28.71-2.52 1.26-5.08 1.99-8.09-.94-1.08-2.49-2.88-4.34-5.02-1.39 1.27-2.65 3.01-4.34 3.77-1.48.66-3.5.45-5.2.18-1.48-.23-2.82-1.29-4.3-1.63-4.21-.95-8.47-2.39-12.69-2.31-2.57.05-5.94 1.98-7.39 4.12-1.52 2.25-1.47 5.74 2.82 6.81 2.65.66 3.13 2.52 1.71 5.02-.96 1.68-1.03 3.94-2.17 5.42-2.07 2.67-.38 9.06-7.28 7.15 4.7 1.62 4.45 5.47 5.1 8.96 1.08 5.78.91 6.07-4.09 5.76-1.82 3.96-3.23 7.82-5.31 11.27-1.14 1.89-3.41 3.11-5.17 4.63-1.14-2.41-3.26-4.84-3.2-7.21.1-3.79 1.83-7.51 2.5-11.32.34-1.97-.14-4.09-.24-5.92-2.2.92-3.55 1.48-4.89 2.04-.05-1.61-.66-3.5-.03-4.78 1.29-2.6 3.25-4.87 5.14-7.56-1.1-.84-2.37-2.6-3.71-2.66-4.12-.19-8.27.28-11.91.46 0 2.09.79 4.69-.17 6.05-1.71 2.43-4.48 4.11-7.95 7.09 3.45.54 5.22.64 6.85 1.16.67.22 1.56 1.43 1.45 2.02-.14.71-1.33 1.85-1.89 1.76-3.08-.54-6.1-1.4-9.9-2.34-.92.78-2.64 2.25-4.27 3.64-6.79-3.53-8.54-2.64-12.13 5.9 2.71 1.48 4.06 6.45 1.75 9.17-2.95 3.46-6.6 6.36-10.16 9.24-.57.46-2.5-.16-3.31-.86-.4-.34-.01-2.2.57-2.97.62-.83 1.87-1.19 2.95-1.81-3.11-6.7 4.36-7.86 6.53-12.56-4.29.09-7.7-.67-8.55-5.28-.06-.35-2.65-.71-3.77-.28-2.05.77-3.89 2.12-5.78 3.21-.67-.91-.91-1.37-1.26-1.69-1.21-1.09-2.45-2.14-3.68-3.2-.8 1.2-1.9 2.3-2.33 3.62-1.09 3.33-1.88 6.75-2.91 10.57-2.31.17-6.51 1.48-7.28.39-5.36-7.64-7.55-.85-10.68 1.89-.57.5-1.22.89-1.83 1.34l.03-1.48c-2.43-.51-5.06-1.88-7.25-1.37-6.31 1.47-9.8-.88-9.41-7.32-.76-.19-1.57-.65-2.33-.56-6.26.73-9.44-4.05-13.36-7.45-.37-.32-.01-1.49.01-2.26 3.79.37 3.8-4.03 6.47-5.11 6.63-2.68 13.16-3.06 20.27 1.03 0-5.41.49-10.52-.29-15.43-.24-1.52-4.23-3.82-6.03-3.46-4.76.96-9.4 2.9-13.83 5-3.79 1.79-6.88 5.26-11.78 2.87-1.03-.5-3.36.09-4.18 1-2.49 2.78-8.7 1.98-7.85 8.04.05.36-1.12 1.07-1.83 1.32-3.12 1.08-6.22 2.31-9.43 3-7.17 1.56-7.19 1.44-7.14-5.55 0-.28-.3-.56-.46-.84-3.17-.77-5.71-2.34-8.32-3.78-3.44-1.91-8.07-2.9-10.17-5.76-3.52-4.8-7.97-4.97-12.86-5.52-4.3-.48-5.61 1.59-4.8 5.23.7 3.15-.01 5.02-3.1 6.23-4.65 1.83-9.12 3.96-11.23 9.1-.32.78-1.94 1.02-2.96 1.5-.23-1.18-.94-2.53-.59-3.52.75-2.17 2.03-4.16 3.37-6.75-7.94 1.3-11.35 7.05-15.3 11.81-1.93 2.33-2.47 5.77-3.83 8.62-.49 1.03-1.33 2.19-2.31 2.63-3.93 1.76-7.97 3.26-11.18 4.54-2.63-.85-4.67-1.51-6.7-2.16-.14.45-.29.89-.43 1.34 4.96 3.03 5.14 3.97 1.81 9.37-4.7-1.1-8.83-2.62-6.4-8.56-2.32-1.71-4.21-3.39-6.37-4.58-1.45-.8-3.35-1.39-4.95-1.21-3.88.44-7.71 1.42-11.57 2.12-2.81.51-4.73 1.52-3.76 4.96.34 1.21.16 2.57.21 3.87-1.4-.2-2.94-.1-4.17-.67-3.51-1.65-2.39-3.32-.16-5.57 3.48-3.52 3.35-10.94.19-13.64-5.53-4.73-9.78-4.66-13.82.1 1.27 1.43 2.53 2.85 3.79 4.26-.4.61-.8 1.22-1.21 1.83-6.06-2.73-12.11-5.47-15.48-6.99 1.29-1.77 2.8-3.85 4.32-5.94-.51-.72-1.01-1.45-1.52-2.17-5.46-1.34-11.39 3.76-16.85-.42-4.61 4.09-5.21-1.7-7.22-3.49-2.27-2.02-3.96-4.69-5.29-6.34-.73.69-2.38 3.12-3.15 2.86-4.75-1.59-9.19-4.12-13.95-5.67-5.08-1.66-10.02-3.37-14.32-6.65-.57-.43-1.66-.1-2.44-.36-.92-.31-1.76-.87-2.64-1.33l.21-.88c3.17-.21 6.34-.43 10.53-.71-3.19-5.12-3.37-8.68.79-13.27 3.39-3.74 8.16-2.39 11.38-5.74-.9-1.28-1.71-2.45-2.36-3.37a753.7 753.7 0 0 0-4.46 2.58c-.41-1.29-.82-2.57-1.28-4.03-3.62.38-6.91.27-9.41-3.55-1.77-2.7-4.67-4.85-7.44-6.66-4.53-2.96-9.37-5.44-14.57-8.41-.81 4.04-4.38 7.8-.64 12.63 2.19 2.83-.13 4.26-2.58 4.87-1.12.28-2.47-.33-3.93-.57-.58 2.04-1.09 3.79-1.34 4.66-3.92-2.25-7.61-4.36-11.47-6.58.26-.27 1.08-1.13 1.94-2.03-.8-.95-1.37-2.3-2.31-2.64-6.92-2.47-13.84-5.01-20.93-6.91-2.23-.6-4.97.68-6.57.95-1.02 1.73-1.8 2.92-2.44 4.18-.82 1.63-2.6 4.32-2.11 4.84 4.59 4.94.3 8.62-2.41 10.81-4.42 3.57-4.5 6.5-1.3 10.14-1.07 1.47-1.73 3.04-2.91 3.83-1.57 1.05-3.5 1.89-5.35 2.06-1.08.1-2.75-.99-3.38-2.02-2.43-3.95-10.99-5.14-14.32-1.92-2.58 2.49-5.4 4.73-8.13 7.07-2.34 2.01-4.39 3.95-.71 6.69.87.65 1.22 1.98 1.81 3-1.12.55-2.2 1.44-3.37 1.57-3.54.41-4.7-.86-3.67-4.67 1.3-4.8-2.62-11.09-6.71-11.81-7.15-1.27-10.82.95-11.78 7.01 1.84.61 3.67 1.22 5.49 1.82-.03.71-.07 1.42-.1 2.13-6.63.76-13.26 1.51-19.87 2.27.75-3.11 1.37-5.66 2.16-8.93-6.61 1.75-8.62 10.06-15.73 8.24-.47.91-1.25 2.71-1.4 2.66-5.03-1.72-11.23-.38-15.12-5.58.43 1.31.86 2.63 1.77 5.42-13.04 1.54-25.5 3.01-37.97 4.48-.1-.32-.19-.64-.29-.96 2.63-1.79 5.26-3.58 8.18-5.58-11.86-8.72-4.34-15.7 1.64-22.89-1.81-.7-3.15-1.21-4.13-1.59-.92 1.7-1.65 3.06-2.38 4.41-1.1-.97-2.2-1.95-3.08-2.72-2 .9-4.01 2.62-5.87 2.48-6.61-.5-13.01-2.75-19.8-2.35-3.52.21-7.1-.53-12.38-.99 1.78 2.4 2.47 3.89 3.63 4.75 1.22.91 2.88 1.21 4.35 1.78-.07.43-.15.85-.22 1.28-1.39.45-2.79.9-4.22 1.37 7.21 6.03 7.22 6.31.2 10.16.5 1.55 1.01 3.14 1.37 4.29-7.75 1.65-13.71-6.53-22.26-2.19-6.54 3.32-15.92-.7-20.47 7.49-.13 1.54.35 3.97-.54 4.68-2.3 1.83-5.18 3.98-7.88 4.04-5.13.12-6.11 3.93-7.75 7.05-1.79 3.39-7.8 5.33-9 2.12-3.3-8.8-7.36-2.65-11.26-1.5-.3.09-.64.01-1.26.01-1.21-3.41-3.1-5.57-7.53-5.01-1.49.19-3.51-2.54-4.96-4.22-.39-.45.07-2.34.72-2.88 3.87-3.23 7.82-6.4 11.93-9.32 3.1-2.2 8.55-13.37 7.89-17.06-.11-.62-.47-1.62-.85-1.69-4.76-.88-9.55-1.63-14.33-2.41-3.66 5.82-8.45 1.35-12.36.75-2.95-.45-5.56-3.12-8.46-.16-1.91 1.94-3.6 4.1-6.05 6.93-1.27 0-5.06.97-5.87-.17-3.26-4.59-7.94-2.73-11.57-3.25-1.34 1.73-2.81 2.82-4.42 3.61-2.66 1.3-5.62 2.11-8.03 3.74-1.18.8-1.41 3-2.07 4.57 1.55.52 3.08 1.39 4.66 1.49 3.58.23 7.18.07 11.36.07-5.36 10.89-8.12 13.1-14.67 12.86 2.41 1.73 4.82 3.46 7.22 5.19l-.16-.19c-1.45 2.5-3.46 4.86-.96 7.96.29.36-.63 2.07-1.35 2.79-1.36 1.35-2.98 2.43-4.82 3.87 1.71 1.14 2.46 1.64 2.83 1.88-1.42 1.7-2.52 3.69-4.2 4.86-2.2 1.52-4.82 2.48-7.37 3.36-.19.07-1.26-2.4-2.3-4.41-.87.92-2.04 1.61-2.26 2.53-.25 1.02.37 2.25.83 4.44-1.36-1.19-2.14-1.53-2.26-2.03-1.01-4.28-2.86-5.91-6.85-2.65-.62.51-1.97.46-2.86.22-2.55-.68-5.03-1.59-7.75-2.48-.27 2.47-.46 4.18-.71 6.45-.94-.77-1.72-1.07-1.83-1.54-1.04-4.26-2.5-5-6.98-2.88-3.49 1.65-8.38 1.05-12.46.36-1.54-.26-2.56-3.6-3.95-5.73-1.57 1.21-3.27 2.44-4.89 3.77-3.4 2.79-7.46 2.99-10.56.6-2.09-1.61-3.9-5.27-3.68-7.83.35-4.19 3.8-4.82 8.02-4.56 4.24.26 8.77-.7 12.83-2.1 2.44-.84 3.92-4.35 6.36-5.28 5.56-2.12 4.82-5.36 2.57-9.5-4.39.08-7.78-1.19-6.9-6.28-8.48-4.85-15.58-.61-23.03 2.13.81 1.42 1.49 2.64 1.88 3.31-1.39 1.67-2.27 3.05-3.47 4.07-.85.73-2.1 1.2-3.21 1.31-.38.04-1.48-1.75-1.28-2.06 3.82-5.77-2.2-2.96-3.79-4.29.53-.8 1.05-1.6 1.58-2.39-.21-.24-.41-.49-.62-.73-1.67 1.09-3.34 2.18-5.28 3.45-4.73-6.5-10.23 1.29-16.33-.33 1.98-1.1 3.31-1.84 4.65-2.58-.19-.4-.38-.79-.57-1.19-1.89.79-3.74 1.74-5.69 2.32-1.25.37-2.98.71-3.93.14-3.47-2.08-5.77-.4-7.57 1.04.94 2.69 1.66 4.75 2.55 7.32 2.09.9 4.91 2.12 7.4 3.2 1.65-1.37 3.07-2.54 5.08-4.2.19 10.39-.5 12.94-4.07 13.75-3.11.7-6.86 1.93-9.41.83-2.53-1.09-3.93-4.81-5.87-7.45-.65 1.33-1.16 2.73-1.96 3.93-3.21 4.8-12.47 6.18-14.27 1.68-2.77-6.9-8.68-9.58-13.71-12.72-.27-6.63 2.77-9.85 8.81-10.25-.12.43-.25.86-.37 1.29 1.74.51 3.48 1.01 5.22 1.51 1.07 2.42 2.05 4.89 3.24 7.25.47.93 1.27 1.81 2.13 2.41 4.29 2.96 7.6 1.12 10.42-2.39 1.2-1.49 2.24-3.11 3.99-5.55-.77-.25-1.84-.59-3.46-1.11 3.58-2.36 6.15-4.05 8.92-5.87-1-1.18-1.81-2.14-2.64-3.08-4.41-1.47-3.09-5.23-3.37-8.35 1.69-3.28 2.64-6.98 5.4-9.96-1.71.35-3.41.69-5.12 1.04-.69-1.09-1.32-2.08-2.25-3.55-4.4 6.99-11.11-.19-16.54 3.66 2.92 4.48 5.7 8.82 8.59 13.08.22.33 1.21.15 1.84.2 2.83 4.36 7.16 4.15 11.55 3.81-1.06 2.04-.6 6.06-4.9 3.99-3.99-1.92-7.72-2.86-10.92 2.59-.14-2.04-.21-3.13-.29-4.38-1.84.75-3.28 1.33-4.87 1.98.67.76 1.45 1.63 2.79 3.13l-4.67 1.27c-1-1.98-1.51-4.83-3.12-5.74-3.1-1.77-6.78-2.69-10.34-3.36-.65-.12-1.83 2.63-2.87 4.2-8.2-3.58-15.89-2.64-21.91 4.45 0 1.56.62 4.05-.1 4.53-4.33 2.89-8.99 5.28-13.47 7.95-.89.53-1.44 1.6-2.19 2.38-1.41 1.48-2.67 3.89-4.31 4.19-2.9.53-5.92-.13-6.83-4.1-.21-.92-2.75-2.28-3.47-1.92-2.3 1.13-4.52 2.72-6.27 4.6-3.09 3.33-7.88 1.94-8.56.02-2.53-7.1-5.8-4.28-9.55-1.8-.64.42-1.52.48-2.57.79-1.38-3.61-3.38-5.7-7.72-5.3-1.55.14-3.75-2.46-4.85-4.29-.36-.59 1.83-2.73 2.88-4.15.93-1.26 1.89-2.5 2.49-3.28-1.15-1.7-2.14-2.77-2.58-4.03-.14-.39 1.5-2 1.86-1.86 1.59.62 3.01 1.67 4.79 2.74 2.26-1.72 5.72-3.23 7.33-5.87 2.01-3.29 2.71-7.46 3.49-11.35.21-1.03-1.14-3.19-2.19-3.52-3.26-1.02-6.71-1.9-10.08-1.9-3.19 0-6.93.33-9.45 2-4.84 3.21-15.18 3.33-19.98-.75-2.49 4.19-12.22 4.5-19.14.51.67-1.92 1.35-3.87 1.83-5.26-1.9-1.6-3.32-2.8-4.75-4 1.27-1.2 2.37-3.08 3.85-3.46 4.37-1.12 8.89-1.63 13.34-2.39.97-.16 1.94-.34 2.92-.52 0-.43.01-.86.01-1.29-4.24.62-8.68.69-9.32-4.39-.28-2.26 1.54-6.45 3.19-6.91 2.83-.78 7.55-2.74 8.39 2.4 2.56 0 4.71-.32 6.71.09 2.07.42 3.99 1.55 7.01 2.79-5.88-6.21-5.89-6.19-12.07-6.4-.77-.03-1.64-.31-2.28-.73-3.86-2.52-7.53-2.79-11.58-.12-3.01 1.98-4.96.78-5.34-2.94-.19-1.82-.86-3.59-1.36-5.61-3.88 3.11-6.55 2.66-9.66-.85-2.66-3.01-1.33-5.87.91-7.73 2.49-2.07 5.84-3.52 8.64.12 3.11 4.03 5.97-.26 8.96-.22-.49-1.81-.59-3.87-1.57-5.36-1.39-2.1-3.42-3.78-5.33-5.79-1.56 1.64-2.51 3.19-3.89 3.94-1.2.65-2.89.4-4.36.54.08-1.62-.44-3.67.36-4.76 1.42-1.93 3.63-3.29 6.4-5.64-2.58-1.41-4-2.88-5.37-2.84-11.25.38-14.38 9.76-18.08 16.37 1.47 2.91 3.65 5.28 3.56 7.57-.08 2.34-2.38 4.61-3.71 6.9-3.31-2.17-6.63-4.34-10.79-7.07-1.75 1.42-6.61 1.62-7.34 7-.45 3.35-.98 6.86-2.36 9.89-2.49 5.49-9.42 6.09-13.53 1.65-1.45-1.56-3.2-2.84-4.9-4.33-.88 1.53-1.5 2.89-2.37 4.07-2.54 3.45-8.65 4.37-11.53 1.7C4.35 71.54 2.21 69.23 0 67zm957.55 45.41c3.54 0 7 .16 10.43-.09 1.17-.09 2.65-1 3.23-1.98.36-.61-.61-2.1-1.11-3.13-2.04-4.19-4.89-8.19-5.8-12.61-.34-1.66 3.96-4.1 5.79-6.47.59-.76.5-3.14-.08-3.51-2.31-1.47-5.39-3.91-7.35-3.3-4.34 1.35-8.18 4.32-12.21 6.64-.1.06-.14.32-.11.47 1.23 5.15 1.15 11.35 4.12 15.15 2.75 3.5 3.63 6.18 3.09 8.83zm-589.54 11c-.13-2.97-.73-5.35-.23-7.47 1.05-4.48-.85-7.82-3.6-10.76-.83-.89-3.25-1.41-4.22-.85-2.79 1.59-5.22 3.83-8.36 6.25 2.93.79 4.48 2.14 2 5.16 3.85-1.57 7.7-3.13 12.45-5.07 3.33 3.28-4.12 4.86-3.11 8.59 1.21.99 2.71 2.22 5.07 4.15zm-32.51-9.59c-5.43 1.26-9.87 2.3-14.48 3.37 3.79 1.23 7.47 2.42 11.18 3.62 1.74-4.34 3.29-8.23 4.85-12.12-.39-.26-.79-.52-1.18-.78-1.1.47-2.2.94-3.64 1.56 1.03 1.36 1.77 2.35 3.27 4.35zm644.93-4.91c2.5.79 5.39 4.16 7.78.12 1.04-1.76.12-4.68.07-8.1-3.43 3.49-5.6 5.69-7.85 7.98zM60.54 22.72c-1.09-.89-2.74-2.24-4.39-3.59-2.46 2.78-4.48 5.05-6.42 7.24 3.58-1.21 7.12-2.41 10.81-3.65z" fill="white"/><path d="M0 13.99c.32.05.93.12.93.16-.19 5.41 5.01 7.73 6.92 11.72C5.12 28.35 2.56 30.67 0 33V13.99z" fill="white"/><path d="M1490 64c-2.02-.62-5.42-.81-5.78-1.96-.96-3.08-.86-6.64 2.57-8.82 1.1-.7 2.14-1.48 3.21-2.22v13z" fill="white"/><path d="M379.85 133.26c.71-1.72.98-3.93 2.23-5.02 1.53-1.32 3.88-1.69 5.84-2.46-.79-11.2 9.43-11.76 18.88-9.54-.53 1.04-.78 2.3-1.54 2.89-5.91 4.57-3.69 10.91-4.05 16.8-.22 3.56-1 7.38-6.3 6.96-.86-.07-1.85 1.57-2.53 2.19-2.47-1.67-4.79-3.03-6.86-4.7-1.07-.86-1.69-2.28-2.57-3.4-1.05-1.33-2.17-2.62-3.26-3.93 0 .01.16.21.16.21z" fill="white"/><path d="M957.55 112.41c.53-2.65-.35-5.32-3.08-8.82-2.97-3.8-2.88-10-4.12-15.15-.03-.14.01-.41.11-.47 4.03-2.33 7.87-5.29 12.21-6.64 1.96-.61 5.04 1.83 7.35 3.3.58.37.67 2.75.08 3.51-1.83 2.36-6.14 4.81-5.79 6.47.91 4.41 3.76 8.42 5.8 12.61.5 1.03 1.48 2.52 1.11 3.13-.58.98-2.07 1.9-3.23 1.98-3.44.24-6.9.08-10.44.08z" fill="white"/><path d="M230.77 122.08c1.33-.36 2.65-.72 4.67-1.27-1.34-1.51-2.12-2.38-2.79-3.13 1.59-.65 3.03-1.23 4.87-1.98.08 1.24.16 2.34.29 4.38 3.2-5.45 6.93-4.51 10.92-2.59 4.29 2.07 3.83-1.95 4.88-3.98-.01.01-.08.06-.08.06.81.96 1.62 1.91 2.62 3.1-2.77 1.82-5.34 3.51-8.92 5.87 1.62.52 2.69.86 3.46 1.11-1.75 2.44-2.79 4.06-3.99 5.55-2.83 3.51-6.13 5.35-10.42 2.39-.86-.6-1.67-1.48-2.13-2.41-1.19-2.36-2.17-4.83-3.24-7.25l-.14.15z" fill="white"/><path d="M242.08 109.69c-.63-.05-1.62.13-1.84-.2-2.89-4.26-5.67-8.6-8.59-13.08 5.43-3.85 12.15 3.33 16.54-3.66.93 1.47 1.56 2.47 2.25 3.55 1.7-.35 3.41-.69 5.12-1.04-2.76 2.98-3.71 6.68-5.4 9.96-5.32-3.24-5.8 2.25-8.08 4.47z" fill="white"/><path d="M368.01 123.41c-2.36-1.93-3.87-3.17-5.07-4.15-1.01-3.73 6.44-5.32 3.11-8.59-4.75 1.93-8.6 3.5-12.45 5.07 2.47-3.02.92-4.37-2-5.16 3.14-2.42 5.57-4.66 8.36-6.25.98-.56 3.39-.04 4.22.85 2.75 2.94 4.65 6.28 3.6 10.76-.5 2.12.1 4.5.23 7.47z" fill="white"/><path d="M242.08 109.69c2.28-2.23 2.76-7.71 8.07-4.47.28 3.12-1.04 6.89 3.37 8.35.02-.01.08-.07.09-.07-4.37.35-8.7.55-11.53-3.81z" fill="white"/><path d="M335.5 113.82c-1.5-2.01-2.24-2.99-3.27-4.36 1.44-.62 2.54-1.09 3.64-1.56.39.26.79.52 1.18.78-1.56 3.89-3.12 7.79-4.85 12.12-3.71-1.2-7.39-2.39-11.18-3.62 4.6-1.06 9.05-2.09 14.48-3.36z" fill="white"/><path d="M980.43 108.91c2.25-2.29 4.42-4.49 7.85-7.98.04 3.42.97 6.34-.07 8.1-2.39 4.04-5.28.67-7.78-.12z" fill="white"/><path d="M60.54 22.72c-3.69 1.24-7.23 2.44-10.82 3.65 1.94-2.19 3.96-4.46 6.42-7.24 1.66 1.35 3.31 2.7 4.4 3.59z" fill="white"/><path d="M1447.93 72.83c-1.49-7.36 1.54-10.32 9.54-10.41-.16 1.43-.32 2.83-.49 4.38 7.54 3.12 14.91 6.18 21.84 9.05.14 2.06-.36 4.13.46 5.2 2.88 3.74 1.36 6.74-.81 9.92-2.28 3.35-4.43 6.8-6.63 10.2-.17.27-.36.76-.54.76-6.32-.02-4.17 3.38-2.12 6.65-.97.06-1.67.29-1.83.08-2.97-3.75-5.11-5.66-9.42-.48-3.16 3.8-4.68-1.25-5.92-3.75-4.03 1.37-7.84 2.67-12 4.09 1.05 2.17 1.82 3.94-2.25 4.63-3.04.52-5.55 4.44-8.55 4.81-2.71.34-6.47-1.43-8.41-3.52-1.39-1.5-.67-5.08-.57-7.72.02-.55 1.35-1.23 2.19-1.56 4.46-1.7 9.01-3.18 13.4-5.04 1.13-.48 1.87-2.02 2.63-3.18 1.27-1.92 2.11-4.22 3.66-5.85 4.87-5.13 4.98-5.33.64-10.97-.2-.26-.44-.48-.65-.7-.2 0-.37.01-.53 0-2.48-.16-4.97-.26-7.42-.66-.17-.03-.39-3.15.13-3.41 2.54-1.27 5.27-2.29 8.04-2.92 1.58-.35 3.36.21 5.61.4z" fill="white"/><path d="M627.91 128.72c-3.19-1.84-5.31-2.86-7.11-4.28-.33-.26.56-3.11 1.05-3.16 2.65-.27 5.37-.24 8.02.09 1.46.18 2.82 1.16 4.29 1.8 2.2-6.99 4.38-8.09 12.1-6.38-.46 1.36-.91 2.67-1.45 4.25 5.46 4.96 11 10 16.27 14.79-1.15 5.2-2.22 10.05-3.14 14.19-2.45.7-4.43 1.35-6.44 1.83-3.23.77-4.21 6.19-8.74 4.2-.41 1.8-.82 3.61-1.31 5.77-.58-.68-1.46-1.25-1.66-2.01-1.05-3.9-2.61-4.85-6.32-2.28-3.09 2.14-4.92.33-5.43-5.18-6 1.18-12.98-2.17-17.7 4.56-.53.76-2.12.97-3.24 1.07-3.77.34-6.73-1.1-8.94-4.24-1.97-2.81-1.19-5.38.63-7.71.74-.95 2.15-1.85 3.31-1.92 4.28-.27 8.59-.04 12.86-.34 1.27-.09 2.55-1.15 3.67-1.97 1.72-1.25 3.15-3.01 5-3.98 6.08-3.17 6.26-3.4 4.28-9.1z" fill="white"/><path d="M821.84 188.93c.14-1.4.7-2.92.31-4.15-.4-1.27-1.58-3.08-2.63-3.24-6.31-.92-6.61-1.23-4.05-7.1-5.66-2.38-9.94-7.75-17.64-5.32-3.62 1.14-7.12-2.28-8.37-6.8-1.24-4.5.82-6.92 4.47-8.51.95-.41 2.49-.29 3.43.2 3.92 2.06 7.66 4.46 11.59 6.49 1.01.52 2.5.26 3.75.11 2.12-.25 4.23-1.07 6.31-.97 6.93.33 7.03.36 8.72-6.73-.14-.28-.27-.57-.44-.83-1.31-1.91-2.69-3.78-3.82-5.79-.09-.16 1.89-2.07 2.41-1.87 2.37.92 4.75 2.06 6.75 3.6 1.28.98 1.9 2.8 2.86 4.3 6.09-4.84 8.37-4.65 13.82.91-1.14.86-2.25 1.69-3.46 2.6 2.22 7.16 4.42 14.3 6.63 21.44-.52-.39-1.05-.78-1.57-1.17-.64 1.3-1.57 2.54-1.88 3.92-1.12 5.02-4.83 5.62-9.05 5.83-3.25.16-6.48.71-9.72 1.09-.47.05-1.2.35-1.36.17-3.66-4.45-4.77-1.11-5.79 2.56-.43-.25-.85-.5-1.27-.74z" fill="white"/><path d="M84.59 123.54c6.03.45 12.05 1.09 18.08 1.3 3.74.13 7.51-.68 11.25-.52 3.25.14 5.87 2.23 5.85 5.55-.02 3.68-.34 7.52-4.53 9.71-6.82 3.55-12.57-.11-15.2-5.69-2.03 2.84-4.15 5.81-6.05 8.48-2.25-.53-4.25-.92-6.21-1.48-5.51-1.58-6.9-7.24-10.36-10.85-.32-.33 1.02-2.79 2.05-3.77 1.58-1.49 3.57-2.56 5.39-3.8-.09.35-.18.71-.27 1.07z" fill="white"/><path d="M1008.76 151.84c1.48 2.06 2.96 4.13 4.35 6.05-2.24 1.8-5.79 4.3-4.57 9.85 1.24 5.62-1.14 9.89-5.95 12.19-2.51 1.2-10.19-1.1-12.43-3.73-.32-.37-.51-.87-.86-1.2-1.46-1.41-2.96-2.78-4.44-4.16 2.33-2.24 4.51-4.67 7.05-6.65 1.21-.94 3.2-.81 4.65-1.55 2.27-1.15 4.52-1.89 4.69-5.57.18-4.08 3.7-5.5 7.69-5.06l-.18-.17z" fill="white"/><path d="M1313.8 139.46c-1.71 2.82-1.71 2.82-6.64.09.43-2.55.74-4.89 1.26-7.19.29-1.27.83-2.53 1.46-3.68 1.41-2.57 2.88-5.11 4.44-7.59 2.93-4.65 13.47-4.8 16.57-.25 1.29 1.9 2.62 3.81 3.58 5.88 1.18 2.54.91 5.02-2.64 4.49-5.32-.78-9.44.18-12.23 5.24-.3.54-3.04-.4-4.66-.44-1.31-.03-2.63.25-3.95.39.82.91 1.65 1.8 2.81 3.06z" fill="white"/><path d="M1218.98 170.98c.06 5.79-6.89 10.7-12.3 8.39-3.83-1.64-7.51-3.72-10.94-6.08-.66-.45-.42-3.62.45-4.63 4.28-4.96 10.3-6.77 16.5-7.5 3.54-.42 6.23 4.27 6.29 9.82z" fill="white"/><path d="M1343.68 122.57c.51-2.34.39-4.86 1.57-6.36 1.31-1.67 3.81-2.42 5.79-3.56.68 1.39 1.36 2.77 2.37 4.81 2.69-.96 7.96 3.56 9.88-3.38 5.92 3.91 5.86 11.5-.08 14.71-7.37 3.98-7.32 3.93-13.76-2.06-1.67-1.55-3.7-2.69-5.77-4.16z" fill="white"/><path d="M748.62 106.5c-.93 1.13-1.82 2.22-3.09 3.75 3.65 1.71 3.01 9.03 9.62 6.15 1.1 6.2-4.11 10.99-9.93 9.09-7.66-2.5-7.7-2.64-7.36-10.89.09-2.27-.28-4.57-.48-7.28 3.5-.89 6.74-5.54 11.24-.82z" fill="white"/><path d="M1165.07 141.11c3-2.2 3.48-8.53 9.65-5.87-.31 1.22-.62 2.42-1.06 4.15 2.46 1.01 4.77 2.35 7.24 2.82 1.41.27 3.09-.89 4.82-1.46 3.54 5.86.91 10.91-6.04 12.58-5.67 1.36-8.27-.73-10.28-5.48-.94-2.23-2.63-4.15-4.33-6.74z" fill="white"/><path d="M526.93 134.15c4.56-6.57 4.56-6.57 8.16-6.29.82 2.05 1.28 5.02 2.2 5.17 3.1.51 6.44 6.17 9.34-.24 3.27 5.26 2.58 9.53-1.69 12.17-5.53 3.43-10.52 2.39-13.37-2.76-1.41-2.56-2.92-5.08-4.64-8.05z" fill="white"/><path d="M209.7 139.66c.51-5.68-3.35-6.18-6.7-6.11-2.84.05-3.84-.43-3.96-3.36-.05-1.18-1.69-2.28-3.12-3.03-.1-.31-.32-.63-.29-.92.83-7.4 2.71-7.96 9.97-5.57 5.81 1.91 8.39 4.83 9.18 10.97.61 4.69-1.86 5.97-5.08 8.02z" fill="white"/><path d="M926.08 155.52c1.76-5.32 3.01-10.38 5.21-14.99.74-1.56 4.12-3.04 5.88-2.66 2.84.62 4.56 3.05 3.16 6.55-1.68 4.21-2.78 8.69-4.78 12.73-.93 1.87-3.41 2.98-5.18 4.43-1.36-1.91-2.71-3.82-4.29-6.06z" fill="white"/><path d="M30.85 99.15c.27-4.79 5.69-14.88 10.99-16.38 1.29-.37 3.61.08 4.28 1 .99 1.37 1.88 4.17 1.16 5.2-3.08 4.4-6.65 8.48-10.31 12.43-.84.9-3.1 1.53-4.04 1.03-1.16-.62-1.66-2.54-2.08-3.28z" fill="white"/><path d="M50.89 99.17c.04-4.49 5.58-14.81 10.85-16.36 1.3-.38 3.63-.01 4.32.89 1.03 1.36 2 4.18 1.3 5.19-3.06 4.41-6.61 8.51-10.3 12.43-.89.95-3.19 1.35-4.47.92-.98-.33-1.36-2.39-1.7-3.07z" fill="white"/><path d="M716.1 91.86c1.45-2.2 2.45-5.55 4.45-6.31 2.6-1 4.86 1.49 7.26 3.51 6.03 5.06 1.79 9.84.8 14.7-.15.76-2.06 1.73-3.04 1.62-2.09-.23-8.79-10.69-9.47-13.52z" fill="white"/><path d="M505.6 122.07c5.99.08 13.06 9.05 11.46 14.67-.22.79-1.08 1.78-1.82 1.96-3.68.89-14.15-5.99-15.09-9.74-.93-3.73 1.6-6.94 5.45-6.89z" fill="white"/><path d="M689.4 118.95c-2.75 3.48-4.8 8.06-8.28 9.85-2.57 1.33-7.01-.97-10.62-1.65.74-2.51.86-5.51 2.36-7.41 2.41-3.07 11.89-3.35 16.54-.79z" fill="white"/><path d="M885.27 176.73c-4.15 1.67-8.26 3.43-12.47 4.9-.72.25-2.04-.6-2.79-1.26-.83-.73-1.37-1.81-1.99-2.78-.99-1.55-3-4.28-2.75-4.51 1.87-1.7 4.51-4.37 6.29-3.98 4.82 1.07 9.33 3.51 13.96 5.4-.09.75-.17 1.49-.25 2.23z" fill="white"/><path d="M181 151.03c-.32 3.51-2.02 5.33-5.77 5.26-1.31-.03-2.62 1.22-3.95 1.26-1.57.05-3.15-.57-4.73-.9 1-.98 1.96-2.01 3.03-2.91.45-.38 1.13-.46 3.06-1.19-2.36-2.53-4.28-4.51-6.09-6.58-.67-.76-1.07-1.76-1.59-2.64 1.13-.37 2.31-1.15 3.37-1.01 1.84.25 3.58 1.2 5.42 1.61 2.37.52 4.49.85 4.61 4.14.04 1.07 1.82 2.09 2.8 3.13 0-.03-.16-.17-.16-.17z" fill="white"/><path d="M987.64 192.46c-.63 1.43-1.5 2.89-1.93 4.47-1.29 4.71-3.54 6.39-7.28 5.2-4.39-1.4-3.96-4.92-3.24-8.16.81-3.66 4.66-5.22 8.32-3.69 1.41.58 2.73 1.43 4.13 2.18z" fill="white"/><path d="M1197.7 192.45c-.61 1.32-1.53 2.76-1.96 4.34-1.31 4.83-3.42 6.49-7.18 5.38-3.35-.99-4.76-4.64-3.31-8.55 1.31-3.51 4.89-4.88 8.56-3.2 1.42.64 2.77 1.44 3.89 2.03z" fill="white"/><path d="M69.7 76.67c.1-6.21 2.64-8.41 7.72-8.33 4.09.07 4.32 3.81 4.28 6.09-.06 3.46-2.46 6.66-6.34 6.05-2.34-.36-4.34-2.87-5.66-3.81z" fill="white"/><path d="M1306.87 166.89c-1.27-.31-3.34-.81-5.4-1.31-2.3.01-2.98 5.81-6.93 2.06-.5-.48 1.34-3.44 2.54-5.07-.73-6.09.98-6.97 9.79-4.81v9.13z" fill="white"/><path d="M93.3 147.57c-1.11 1.26-2.38 2.55-3.46 3.96-2.01 2.6-4.24 4.34-7.53 2.17-3.56-2.35-2.62-5.5-.86-8.25 2.04-3.18 5.07-3.53 8.13-1.34 1.49 1.07 2.71 2.51 3.72 3.46z" fill="white"/><path d="M1351.74 103.43c-.12-.1-1.32-1.82-2.41-1.76-3.3.21-4.81-1.67-4.97-4.2-.08-1.22 2-2.56 3.06-3.88.29-.35.46-.8.11-.18 4.05.62 7.6 1.1 11.12 1.74.98.18 1.88.8 2.81 1.22-.73.92-1.29 2.09-2.21 2.71-2.22 1.49-4.63 2.71-7.51 4.35z" fill="white"/><path d="M73.3 147.57c-1.1 1.25-2.38 2.52-3.45 3.94-2.15 2.85-4.58 4.43-7.92 1.91-3.17-2.39-2.13-5.4-.49-7.95 2.03-3.18 5.05-3.56 8.13-1.37 1.48 1.07 2.7 2.51 3.73 3.47z" fill="white"/><path d="M540.31 119.66c-.76-.62-2.33-1.41-3.11-2.68-.99-1.61-1.34-3.62-1.97-5.46 1.39-.23 2.99-1 4.15-.58 3.8 1.38 7.43 3.2 12.13 5.3-1.48.97-2.49 2.02-3.68 2.31-2.36.59-4.83.75-7.52 1.11z" fill="white"/><path d="M191.04 153.5c.94-6.31 1.79-6.43 10.04-1.8-.88 3.24-2.73 4.64-6.33 4.57-2.74-.05-5.49 1.25-8.27 1.45-1.07.08-2.25-1.25-3.37-1.93 1.1-.62 2.13-1.47 3.31-1.8 1.4-.39 2.92-.33 4.62-.49z" fill="white"/><path d="M767.25 103.93c-2.29 3.06-3.48-.2-5.34-.94-1.76-.7-4-.15-5.39-.15-.56-2.2-1.11-4.36-1.96-7.71.34-.45 1.48-1.95 2.62-3.46 1.64 1.26 3.61 2.26 4.84 3.84 1.97 2.55 3.45 5.49 5.23 8.42z" fill="white"/><path d="M308.45 129.73c-1.26-2.7 2.51-6.27-1.46-8.51 1.28-.78 3.02-2.52 3.76-2.16 2.45 1.17 4.55 3.1 6.57 4.57-1.45 5.13-3.62 8.12-8.92 5.96l.05.14z" fill="white"/><path d="M483.73 155.49c-2.27.93-4.55 1.86-6.81 2.81-1.28.54-2.52 1.5-3.83 1.59-1.38.09-2.81-.63-4.22-.99.74-1 1.37-2.12 2.25-2.96.52-.49 2.02-.45 2.1-.84 2.02-10 6.63-.63 9.73-2.12.26.83.52 1.67.78 2.51z" fill="white"/><path d="M1111.7 161.96c1.1-5.37 2.55-5.59 10.16-.81-1.23 2.94-2.84 5.1-6.6 4.3-.7-.15-1.52.32-2.29.5-1.6.37-3.2.83-4.83.99-.25.03-1.05-1.83-.89-1.96 1.27-1.05 2.71-1.89 4.45-3.02z" fill="white"/><path d="M1414.33 88.75c-1.38 1.66-3.2 2.96-3 3.77.75 3.11-.77 4.23-3.21 3.9-.7-.09-1.03-2.81-1.19-3.27-1.87-2.57-3.21-4.42-4.56-6.27 2.42-.16 4.87-.6 7.26-.36 1.49.13 2.88 1.31 4.7 2.23z" fill="white"/><path d="M1225.8 135.7c3.96 3.91 3.77 9.14-.57 12.81-.43.36-.57 1.06-1.01 1.4-1.01.8-2.04 1.74-3.22 2.09-.48.15-2.05-1.26-1.94-1.63.31-1.12 1.34-2.01 1.83-3.1 1.67-3.75 3.22-7.55 4.91-11.57z" fill="white"/><path d="M599.49 126.32c-3.95-.04-2.97 8.35-8.72 4.65.62-1.21 1.22-2.4 1.37-2.7-.89-2.65-1.59-4.7-2.28-6.76 2.32.66 4.72 1.12 6.92 2.06 1.09.47 1.81 1.81 2.71 2.75z" fill="white"/><path d="M804.49 137.63c-3.48.69-5.98 1.28-8.52 1.59-.46.06-1.06-1.06-2.01-2.07l4.01-2.34c-.22-.63-.76-1.43-.68-2.15.17-1.45.67-2.87 1.03-4.3 1.26.86 2.95 1.46 3.66 2.65 1.15 1.91 1.64 4.21 2.51 6.62z" fill="white"/><path d="M1067.87 168.86c-2.28-2.57-4.46-3.89-4.6-5.4-.35-3.72 3.09-4 5.57-3.89 1.42.06 2.75 1.93 4.12 2.98-1.43 1.78-2.86 3.56-5.09 6.31z" fill="white"/><path d="M1230.51 135.64c-.83-3.06-1.4-5.12-1.96-7.19 2.19.67 4.48 1.12 6.52 2.11 1.22.59 2.04 2.01 4.14 4.2-5.26-1.66-4.07 6.81-9.85 3.39.6-1.31 1.17-2.56 1.15-2.51z" fill="white"/><path d="M455.11 144.42c2.4 2.23 3.94 3.65 5.48 5.08-1.5 1.2-3.13 3.49-4.46 3.32-1.79-.22-3.34-2.34-4.99-3.65 1.1-1.31 2.19-2.62 3.97-4.75z" fill="white"/><path d="M308.4 129.6c-.16 1.6-.17 3.23-.52 4.79-.33 1.44-.78 2.99-1.66 4.11-.37.46-2.54.32-2.92-.22-.68-.97-.98-2.51-.79-3.72.41-2.69 1.21-5.31 1.85-7.96.59-.61 1.18-1.21 1.77-1.82.77 1.64 1.53 3.28 2.31 4.94a.84.84 0 0 0-.04-.12z" fill="white"/><path d="M152.76 142c2.48 2.53 4 4.08 5.52 5.62-1.37 1.12-2.92 3.33-4.06 3.13-1.87-.33-3.71-2.01-5.01-3.58-.28-.34 1.75-2.6 3.55-5.17z" fill="white"/><path d="M1407.29 107.9c-1.29-.16-2.93-.36-4.32-.53-.5-4.32-.94-8.1-1.4-12.07 3.66-.12 4.6 1.92 4.78 4.89.15 2.36.57 4.72.94 7.71z" fill="white"/><path d="M793.43 133.78c-.76 1.88-1.05 4.32-2.42 5.48-1.64 1.39-4.21 1.67-6.38 2.43.64 1.03 1.27 2.06 1.91 3.09-.9-1.32-1.8-2.63-2.7-3.95.49.27.98.54 1.47.82 2.34-2.67 4.68-5.34 7.01-8.01.37.04.74.09 1.11.14z" fill="white"/><path d="M587.68 141.45c-1.27-.58-2.53-1.16-3.73-1.71.9-3.95 1.73-7.53 2.61-11.37 6.9 3.4-.27 8.53 1.12 13.08z" fill="white"/><path d="M285.58 138.86c-3.65-.9-3.65-.9-1.09-12.48 2.91 1.04 3.57 2.94 2.69 5.77-.68 2.18-1.07 4.45-1.6 6.71z" fill="white"/><path d="M42.26 72.29c3.22 4-.27 4.7-2.13 5.75-1.86 1.06-4.03 1.57-6.07 2.32 1.35-2.07 2.51-4.32 4.14-6.14.9-.99 2.6-1.27 4.06-1.93z" fill="white"/><path d="M63.45 72.99c-.51 1.37-.78 2.92-1.61 4.06-.72 1-2.01 1.68-3.17 2.24-1.33.64-2.81.99-4.22 1.47.49-1.52.56-3.42 1.55-4.46 1.64-1.71 3.86-2.86 5.84-4.25.54.32 1.07.63 1.61.94z" fill="white"/><path d="M1434.98 86.51c-2.94 1.46-4.58 2.74-6.35 2.96-.85.11-1.95-1.79-2.94-2.77 1.54-1.23 2.94-2.84 4.7-3.52.7-.27 2.2 1.53 4.59 3.33z" fill="white"/><path d="M614.29 133.76c-1.86-1.88-3-3.04-4.15-4.19 1.39-.95 2.71-2.48 4.2-2.67 1.06-.13 2.35 1.54 3.53 2.41-1 1.23-1.99 2.47-3.58 4.45z" fill="white"/><path d="M820.57 148.07c-2.74 1.41-4.39 2.92-5.24 2.56-1.57-.67-2.67-2.43-3.96-3.74 1.09-.73 2.31-2.2 3.24-2.03 1.64.29 3.1 1.58 5.96 3.21z" fill="white"/><path d="M1105.21 154.35c-.56 2.61-1.12 5.22-1.68 7.82-1-.34-2.6-.42-2.89-1.07-1.53-3.46.58-5.43 4.57-6.75z" fill="white"/><path d="M1008.94 152.01c.27-5.23 1.29-5.74 7.01-3.32-.84 4.64-4.26 3.37-7.19 3.15l.18.17z" fill="white"/><path d="M185.28 146.19c-.39-2.21-.77-4.43-1.16-6.64.35-.28.69-.56 1.04-.84 1.57 1.75 3.13 3.5 4.7 5.26-1.58.69-3.16 1.38-4.74 2.06l.16.16z" fill="white"/><path d="M960.63 132.88c.89 1.96 1.95 3.19 1.67 3.87-.5 1.24-1.81 2.16-2.78 3.21-.85-1-2.51-2.16-2.35-2.95.26-1.24 1.75-2.22 3.46-4.13z" fill="white"/><path d="M706.68 73.65c-3.18 2.56-5.39 4.35-7.61 6.13l-1.11-1.35c1.73-2.38 2.2-6.25 8.72-4.78z" fill="white"/><path d="M710.37 108c1.03-1.58 2.05-3.16 3.82-5.88 1.12 1.9 1.96 3.32 2.8 4.74-1.96.9-3.91 1.79-5.87 2.69-.26-.52-.5-1.04-.75-1.55z" fill="white"/><path d="m697.39 88.6 3-5.7c.84.84 2.53 2.06 2.36 2.45-.76 1.72-2.06 3.19-3.16 4.76-.73-.5-1.47-1-2.2-1.51z" fill="white"/><path d="M482.63 121.87c-.96 2.7-1.92 5.4-2.89 8.11-.67-.22-1.33-.43-2-.65.82-2.76-.97-6.34 4.89-7.46z" fill="white"/><path d="M185.11 146.03c-.42 2.45-.36 5.3-4.12 5 0 0 .16.15.17.15-.49-1.89-.98-3.78-1.71-6.57 2.73.74 4.27 1.16 5.82 1.58.01 0-.16-.16-.16-.16z" fill="white"/><path d="m1422.34 96.28 6-1.23c-.01 1 .21 2.79-.06 2.87-1.77.51-3.66.65-5.5.91-.15-.85-.29-1.7-.44-2.55z" fill="white"/><path d="M1334.02 91.83c5.74-3.15 4.81 2.03 6.78 3.62-5.3 3.29-4.3-1.98-6.78-3.62z" fill="white"/></g><defs><clipPath id="clip0_401_5514"><rect width="1490" height="202.5" fill="white"/></clipPath></defs></svg>