<svg width="851" height="3" viewBox="0 0 851 3" fill="none" xmlns="http://www.w3.org/2000/svg"><path d="m171.917 1.46.38-.095c-6.77.17-14.414-.004-21.593.07l.48-.033c-18.188-.037-34.953.12-53 .196.282-.01.38-.038.662-.05-.873.033-1.83.095-2.815.087-.25-.02.27-.046.594-.054-3.815-.155-11.19.1-13.57-.02-1.07.02-1.548.086-.943.135-14.12.042-29.237.07-43.623.192-.69-.02-.817-.063-.634-.117-12.29.253-25.183.153-37.767.11-.48.068 1.28.072.042.143 4.04.083 7.404-.162 11.078-.042l-.464.07c2.676.04.537-.163 3.31-.08 1.097.054-.27.083.238.087 5.673-.025 11.585.033 16.934-.125 1.323.143 6.095.005 8.193.138 1.464-.054 2.942-.04 3.505-.133 19.848.075 40.132-.062 60.473-.05 9.515-.27 20.917.055 32.207-.037.084.008.07.02-.014.03 3.688-.067 9.05-.1 13.443-.067l3.715-.116c26.45.237 53.477.07 80.335.167 30.53.067 57.262.262 86.992-.095-.042.024.197.04-.563.053 8.585-.055 16.4.04 24.48-.013l-.03.025c20.044-.224 41.722.03 61.05-.21 23.52.022 50.126-.002 75.03-.073l-.06.053c19.933-.112 39.19.17 59.066.087 20.44.12 42.047-.308 62.67-.146 12.752.262 29.517-.304 41.497-.03 24.62.412 48.507.146 73.127-.1 22.707.146 45.384-.228 67.37.07 10.418-.19 21.933.238 33.53.184l-.406-.066c4.167.204 9.276-.283 11.866.016l-.435.013c2.21.156 5.124-.355 6.46-.177l.353-.075c2.675-.02.31.09 2.38.118.773-.01.295-.137 1.913-.096.355.307 6.535-.067 6.718.278-1.464 0 2.28.133-.985.207.93.038 5.406.017 4.998-.128.381-.16 2.126-.29-.589-.413l-.55.112c-.914-.113-.69-.06-1.027-.14-3.547-.02-4.026-.18-6.574-.25.027.003.056.007.013.01-1.745.137-4.152.054-5.532.038l-.55-.063c-.829-.133-4.039.258-2.954.033-7.22.06-15.498.055-23.564.06-1.126.086-6.18-.01-4.406.157-2.013-.192-8.024-.237-10.248-.23.085-.016.183-.036.52-.028-4.32-.245-5.123.23-9.177-.075-.633.213-7.362-.065-9.656.184-.507-.046-.662-.09-.48-.13-7.29-.003-15.356-.082-21.522-.09-5.279.187-12.766-.083-17.299.174-3.759-.054-9.839-.162-15.089-.058l.508-.034c-5.913.016-13.317.03-17.37.19-1.746-.244-4.308-.194-6.87-.273-3.956.112-11.923.08-17.962.183-.93-.113-4.97.05-5.28-.117-16.89.32-37.78.207-55.826-.034l.266-.013c-2.336.092-5.04.29-7.418.408-.24-.01-.21-.04.295-.04-3.293.03-6.376-.133-9.67-.1.028-.03.028-.03.563-.054-3.083.075-6.377-.133-10.023-.004l-.197-.04-2.322.063c.056-.054.14-.137 1.38-.12-28.28-.054-57.49.228-86.53.187l1.07-.05-5.63.09c.028-.03.295-.042.563-.055-7.18-.09-14.61.062-21.607.038.027-.025 1.082-.08.11-.11-5.178.15-8.318-.19-10.908.118-.24-.012-.407-.082.128-.107-14.4.104-29.18.095-43.68.046-12.078.277-25.577.023-38.134.248l.056-.055c-16.244.195-33.473-.013-50.31.025-6.994-.02-11.71.04-18.734.046l-.183-.07c-11.825.265-24.86-.238-37.19.053l.844-.098c-1.916.146-7.462-.05-6.73.2l-2.182-.075c-8.376.333-15.26-.154-25.535.062l.676-.06c-2.732.046-5.913.083-7.94.03.31-.01.17-.026.816-.042-8.56-.237-18.075.025-27.098.016l1.026-.112c-4.362.13-12.36.01-18.1.068l.35-.053-2.9.074-.07-.103c-7.43-.02-14.455.07-21.75.084z" fill="white"/></svg>