<svg width="260" height="2" viewBox="0 0 260 2" fill="none" xmlns="http://www.w3.org/2000/svg"><path d="m52.57.528.116-.096c-2.064.17-4.393-.004-6.58.07L46.25.47C40.71.432 35.6.59 30.1.665c.085-.008.115-.037.2-.05-.265.033-.557.096-.857.088-.078-.02.08-.046.18-.055-1.163-.157-3.41.1-4.136-.02-.326.016-.472.083-.287.133-4.303.044-8.91.073-13.295.194-.21-.02-.25-.062-.193-.116C7.967 1.09 4.037.99.202.95c-.146.065.39.07.013.14 1.23.082 2.256-.163 3.376-.042l-.14.066c.817.042.165-.162 1.01-.08.334.055-.082.084.073.088 1.73-.025 3.53.034 5.16-.124.406.14 1.86.004 2.5.137.445-.054.896-.042 1.067-.133 6.05.075 12.23-.063 18.43-.05 2.9-.27 6.374.054 9.815-.038.026.01.02.02-.004.03 1.125-.067 2.76-.1 4.098-.067L46.73.76c8.06.24 16.298.073 24.483.17 9.305.066 17.452.262 26.512-.096-.013.026.06.043-.17.055 2.616-.055 4.997.04 7.46-.013l-.01.025c6.11-.225 12.717.03 18.607-.212 7.17.025 15.277 0 22.866-.07l-.018.053c6.075-.112 11.944.17 18 .088 6.23.12 12.816-.307 19.1-.145 3.887.263 8.997-.302 12.647-.028 7.503.41 14.784.145 22.287-.1 6.92.146 13.83-.228 20.532.07 3.174-.19 6.684.238 10.218.184l-.124-.07c1.27.204 2.827-.282 3.617.017l-.133.012c.673.152 1.56-.36 1.97-.18l.106-.075c.815-.02.094.087.725.116.237-.006.09-.135.584-.093.106.307 1.99-.067 2.045.278-.445 0 .696.133-.3.208.284.037 1.648.017 1.523-.13.115-.157.647-.29-.18-.41l-.168.112c-.28-.112-.21-.058-.313-.142-1.08-.016-1.228-.178-2.005-.25.008.005.016.01.004.014-.533.137-1.267.054-1.687.037l-.17-.064c-.253-.132-1.23.258-.9.034-2.2.058-4.724.054-7.182.058-.343.087-1.883-.008-1.343.158-.613-.19-2.445-.237-3.123-.23.026-.014.056-.035.16-.027-1.318-.245-1.563.23-2.798-.075-.193.212-2.244-.066-2.943.183-.152-.043-.2-.09-.143-.126-2.222-.005-4.68-.084-6.56-.092-1.608.188-3.89-.082-5.272.176-1.145-.054-3-.162-4.6-.06l.156-.032c-1.802.017-4.06.03-5.294.19C214.363.03 213.582.08 212.8 0c-1.204.112-3.632.08-5.473.183-.283-.112-1.514.05-1.61-.116-5.146.32-11.513.207-17.013-.034l.082-.012c-.712.094-1.536.294-2.26.41-.074-.012-.065-.04.09-.04-1.005.03-1.944-.134-2.948-.1.01-.03.01-.03.172-.055-.94.075-1.944-.133-3.055-.004l-.06-.042-.708.062c.017-.056.043-.14.42-.122-8.618-.055-17.52.228-26.37.186l.326-.05-1.716.092c.01-.03.09-.042.172-.055-2.19-.09-4.456.065-6.59.04.01-.024.33-.08.036-.107-1.58.15-2.536-.19-3.325.116-.072-.014-.123-.085.04-.11-4.39.105-8.894.097-13.312.047-3.68.278-7.796.025-11.623.25l.017-.055c-4.95.197-10.2-.01-15.332.026-2.132-.02-3.57.042-5.71.046l-.056-.07c-3.602.263-7.574-.24-11.332.05L85.92.44c-.584.146-2.274-.05-2.05.2l-.666-.075c-2.553.333-4.65-.153-7.782.063l.206-.058c-.834.045-1.803.083-2.42.03.093-.01.05-.027.248-.044C70.85.32 67.95.582 65.2.574l.313-.113c-1.33.13-3.767.01-5.517.07l.107-.054-.884.075-.024-.104c-2.265-.02-4.406.07-6.628.083z" fill="#523333"/></svg>