<svg width="48" height="50" viewBox="0 0 48 50" fill="none" xmlns="http://www.w3.org/2000/svg">
<path d="M37.9098 19.2643C37.8927 18.0893 37.675 16.9235 37.2583 15.8245C36.5291 13.9478 35.0442 12.4638 33.1644 11.7373C32.0775 11.3291 30.9285 11.1102 29.7654 11.0854C28.2697 11.0186 27.7954 11 23.9984 11C20.2015 11 19.7148 11 18.2299 11.0854C17.0684 11.1102 15.9194 11.3291 14.8325 11.7373C12.9527 12.4638 11.4662 13.9478 10.7386 15.8245C10.3296 16.9095 10.1088 18.0567 10.0871 19.2162C10.0202 20.7111 10 21.1845 10 24.9752C10 28.7658 10 29.2501 10.0871 30.7341C10.1104 31.8952 10.3296 33.0408 10.7386 34.129C11.4678 36.0041 12.9527 37.4881 14.8341 38.2146C15.9163 38.6368 17.0653 38.8758 18.2315 38.9131C19.7288 38.9798 20.203 39 24 39C27.797 39 28.2837 39 29.7685 38.9131C30.93 38.8898 32.0791 38.6709 33.1675 38.2627C35.0473 37.5347 36.5322 36.0507 37.2614 34.1755C37.6704 33.0889 37.8896 31.9433 37.9129 30.7807C37.9798 29.2874 38 28.8139 38 25.0217C37.9969 21.2311 37.9969 20.7499 37.9098 19.2643ZM23.9891 32.1436C20.018 32.1436 16.801 28.9319 16.801 24.9674C16.801 21.0029 20.018 17.7912 23.9891 17.7912C27.9571 17.7912 31.1773 21.0029 31.1773 24.9674C31.1773 28.9319 27.9571 32.1436 23.9891 32.1436ZM31.4634 19.1991C30.5351 19.1991 29.7872 18.4509 29.7872 17.5258C29.7872 16.6006 30.5351 15.8524 31.4634 15.8524C32.3885 15.8524 33.1379 16.6006 33.1379 17.5258C33.1379 18.4509 32.3885 19.1991 31.4634 19.1991Z" fill="#523333"/>
<path d="M23.9891 29.6287C26.5678 29.6287 28.6583 27.5416 28.6583 24.9672C28.6583 22.3927 26.5678 20.3057 23.9891 20.3057C21.4103 20.3057 19.3198 22.3927 19.3198 24.9672C19.3198 27.5416 21.4103 29.6287 23.9891 29.6287Z" fill="#523333"/>
</svg>
