<svg width="48" height="50" viewBox="0 0 48 50" fill="none" xmlns="http://www.w3.org/2000/svg">
<path fill-rule="evenodd" clip-rule="evenodd" d="M23.0382 36.8995H25.6085C25.6085 36.8995 26.3849 36.8161 26.7812 36.3981C27.1461 36.0143 27.1344 35.2935 27.1344 35.2935C27.1344 35.2935 27.0842 31.9193 28.6849 31.4225C30.2628 30.933 32.289 34.6836 34.4366 36.1256C36.0606 37.2171 37.2947 36.9778 37.2947 36.9778L43.0371 36.8995C43.0371 36.8995 46.0411 36.7185 44.6167 34.4077C44.5 34.2187 43.7872 32.6983 40.3471 29.5743C36.7465 26.3046 37.2287 26.8335 41.566 21.1777C44.2075 17.7332 45.2635 15.6303 44.9337 14.7297C44.619 13.8718 42.6763 14.0986 42.6763 14.0986L36.2106 14.138C36.2106 14.138 35.7314 14.074 35.3759 14.2819C35.0285 14.4858 34.805 14.961 34.805 14.961C34.805 14.961 33.7816 17.6264 32.4168 19.8932C29.5377 24.6763 28.3866 24.9288 27.9161 24.6318C26.8215 23.9396 27.0947 21.851 27.0947 20.3672C27.0947 15.732 27.8133 13.7993 25.6955 13.299C24.9926 13.1328 24.4754 13.0232 22.678 13.0055C20.371 12.982 18.4184 13.0123 17.3127 13.5423C16.5772 13.8947 16.0098 14.68 16.3554 14.7251C16.7827 14.7811 17.7506 14.9804 18.2637 15.664C18.9262 16.5458 18.9029 18.5265 18.9029 18.5265C18.9029 18.5265 19.2835 23.983 18.0138 24.6609C17.1423 25.1258 15.9468 24.1766 13.38 19.8372C12.0648 17.6144 11.0718 15.1574 11.0718 15.1574C11.0718 15.1574 10.8803 14.6983 10.5389 14.4527C10.1244 14.1551 9.5453 14.0603 9.5453 14.0603L3.40128 14.0997C3.40128 14.0997 2.47895 14.1249 2.14037 14.5172C1.83916 14.8662 2.11644 15.5881 2.11644 15.5881C2.11644 15.5881 6.92658 26.5982 12.373 32.1466C17.367 37.2336 23.0382 36.8995 23.0382 36.8995Z" fill="#523333"/>
</svg>
