<svg width="28" height="28" viewBox="0 0 28 28" fill="none" xmlns="http://www.w3.org/2000/svg"><rect width="28" height="28" rx="14" fill="#E73C58"/><g clip-path="url(#clip0_352_1993)"><path d="M21.622 10.854c-.036-.812-.167-1.37-.355-1.853a3.728 3.728 0 0 0-.884-1.352 3.76 3.76 0 0 0-1.35-.88c-.487-.188-1.042-.32-1.854-.355-.82-.037-1.08-.046-3.154-.046s-2.333.01-3.147.044c-.81.037-1.37.168-1.853.356a3.727 3.727 0 0 0-1.354.883A3.76 3.76 0 0 0 6.793 9c-.19.486-.32 1.04-.355 1.853-.038.818-.047 1.078-.047 3.15 0 2.076.01 2.335.047 3.15.036.81.168 1.37.355 1.853.195.513.497.972.885 1.354.38.388.844.69 1.35.88.487.188 1.042.32 1.854.355.814.037 1.074.046 3.148.046 2.073 0 2.333-.007 3.147-.043.812-.034 1.37-.166 1.853-.354a3.907 3.907 0 0 0 2.235-2.234c.188-.488.32-1.043.356-1.854.034-.816.043-1.075.043-3.15 0-2.07-.003-2.33-.038-3.145zm-1.376 6.235c-.033.743-.158 1.146-.262 1.415a2.534 2.534 0 0 1-1.45 1.45c-.27.104-.675.23-1.418.262-.805.035-1.047.044-3.084.044-2.038 0-2.283-.01-3.085-.044-.746-.034-1.15-.16-1.418-.263a2.35 2.35 0 0 1-.88-.57 2.375 2.375 0 0 1-.57-.877c-.104-.27-.23-.675-.26-1.418-.038-.806-.047-1.048-.047-3.086s.01-2.282.045-3.085c.032-.746.157-1.15.26-1.418a2.32 2.32 0 0 1 .574-.878 2.37 2.37 0 0 1 .877-.57c.27-.104.675-.23 1.42-.262.803-.036 1.045-.045 3.082-.045 2.04 0 2.283.01 3.085.046.745.033 1.148.16 1.417.263.33.122.632.316.877.57.254.248.448.546.57.877.105.27.23.674.263 1.417.036.806.045 1.047.045 3.085s-.01 2.277-.045 3.082z" fill="white"/><path d="M14.028 10.078a3.924 3.924 0 0 0 0 7.847 3.924 3.924 0 0 0 0-7.847zm0 6.468a2.545 2.545 0 1 1 0-5.09 2.545 2.545 0 0 1 0 5.09z" fill="white"/><path d="M19.023 9.923a.916.916 0 1 1-1.832 0 .916.916 0 0 1 1.835 0z" fill="white"/></g><defs><clipPath id="clip0_352_1993"><rect width="15.273" height="15.273" fill="white" transform="translate(6.36377 6.36353)"/></clipPath></defs></svg>