<svg width="28" height="28" viewBox="0 0 28 28" fill="none" xmlns="http://www.w3.org/2000/svg"><rect width="28" height="28" rx="14" fill="#0369DE"/><path fill-rule="evenodd" clip-rule="evenodd" d="M13.81 19.048h1.063s.32-.035.486-.212c.15-.163.144-.47.144-.47s-.02-1.43.642-1.64c.654-.21 1.494 1.382 2.384 1.994.674.463 1.185.362 1.185.362l2.38-.034s1.244-.076.654-1.057c-.05-.08-.346-.722-1.77-2.05-1.49-1.384-1.293-1.16.504-3.56 1.095-1.462 1.532-2.354 1.396-2.736-.13-.364-.935-.268-.935-.268l-2.68.017s-.198-.027-.345.06c-.143.088-.236.29-.236.29s-.424 1.13-.99 2.092c-1.192 2.03-1.67 2.136-1.864 2.01-.454-.294-.34-1.18-.34-1.81 0-1.966.297-2.786-.58-2.998-.292-.07-.506-.117-1.25-.125-.957-.007-1.766.005-2.224.23-.305.15-.54.483-.397.5.174.026.576.11.79.4.273.374.263 1.215.263 1.215s.158 2.315-.368 2.602c-.362.197-.857-.206-1.92-2.047-.546-.942-.957-1.985-.957-1.985s-.08-.194-.22-.3a1.12 1.12 0 0 0-.414-.165l-2.546.016s-.38.01-.52.176c-.126.148-.01.454-.01.454s1.992 4.67 4.25 7.025c2.07 2.158 4.42 2.016 4.42 2.016z" fill="white"/></svg>