<!--version="1.0" encoding="utf-8"--><!-- Generator: Adobe Illustrator 25.2.1, SVG Export Plug-In . SVG Version: 6.00 Build 0)  --><svg version="1.1" xmlns="http://www.w3.org/2000/svg" x="0" y="0" viewBox="0 0 81 57" xml:space="preserve"><style type="text/css">.st0 { fill: rgb(238, 221, 224); }.st1 { fill: rgb(82, 51, 51); }</style><g id="Слой_1"><path class="st0" d="M39.8 16.9c1.8-.9 4.6-.8 7 0-2-2.3-2.3-6.2-6.2-5.9-.1 0-.2-.1-.1-.2 2.8-2.9 6.9-5.2 11-4.9 2 .1 4 .9 5.4 2.3 2.9-.9 6.2-.7 8.5 1.5 1.7 1.7 2.4 4.6.9 6.7.1.1.1.1.1.2.1-.4.5-.7.9-.7.3 0 .6.3.7.6l.2-.2c.2-.2.5-.2.8-.2.5.1.8.7.6 1.2v.1c2.8.7 4.6 3.2 5.2 5.9.8 3.8-.8 7.6-2.7 10.8-.1.1-.3.1-.3-.1.9-3.5-3-3.9-5.8-3.9 1.8 1.6 2.4 4.1 2 6.5-.6 3.3-3 5.9-5.3 8.1-.1.1-.3 0-.3-.2 0-2.4-1.8-3.8-3.6-4.9-1.7 2.8-4.6 4.6-7.9 5-1.7.2-3.4 0-5-.5-2.3-.7-4.1-2.2-6.2-3.4-.1-.1-.1-.3.1-.3 5.4-.8 4.1-7.9 5.4-11.7.2-.6.5-1.2.9-1.7-1.5.5-2.9-.3-4.4-.4-3.5-.4-4.9 3.2-5.8 6 0 .1-.2.1-.3 0-2-2.3-1.5-6.7-.7-9.4.6-2.7 2.4-5.1 4.9-6.3z"/><path class="st1" d="M39.8 16.9c1.8-.9 4.6-.8 7 0-2-2.3-2.3-6.2-6.2-5.9-.1 0-.2-.1-.1-.2 2.8-2.9 6.9-5.2 11-4.9 2 .1 4 .9 5.4 2.3 2.9-.9 6.2-.7 8.5 1.5 1.7 1.7 2.4 4.6.9 6.7.1.1.1.1.1.2.1-.4.5-.7.9-.7.3 0 .6.3.7.6l.2-.2c.2-.2.5-.2.8-.2.5.1.8.7.6 1.2v.1c2.8.7 4.6 3.2 5.2 5.9.9 3.8-.8 7.6-2.7 10.8-.1.1-.3.1-.3-.1.9-3.5-3-3.9-5.8-3.9 1.8 1.6 2.4 4.1 2 6.5-.6 3.3-3 5.9-5.3 8.1-.1.1-.3 0-.3-.2 0-2.4-1.8-3.8-3.6-4.9-1.7 2.8-4.6 4.6-7.9 5-1.7.2-3.4 0-5-.5-2.3-.7-4.1-2.3-6.2-3.4-.1-.1-.1-.3 0-.3 5.4-.8 4.1-7.9 5.4-11.7.2-.6.5-1.2.9-1.7-1.5.5-2.9-.3-4.4-.4-3.5-.4-4.9 3.2-5.8 6 0 .1-.2.1-.3 0-2-2.3-1.5-6.7-.7-9.4.7-2.7 2.5-5.1 5-6.3zm3.6-8.1c-.4.2-2.4 1.6-2.3 1.9 0 0 1 .1 1.1.1.6.1 1.1.4 1.5.7 1.8 1.4 1.9 4 3.5 5.5 1.8.7 3.4 1.9 4 3.5 1.2-2.7 3.7-5.2 6.4-6.8-.3-.5-.2-1.2.4-1.3.2-.1.5 0 .7.2 0-.1 0-.1.1-.2C57.1 5 48.5 5.2 43.4 8.8zm23.7 8.3c-2.7.1-5.4.7-7.9 1.7-2.8 1.2-5 2.9-7.4 4.8l-.1.1h.4v-.1c4-3.8 9.5-5.5 15-6.5zm-3.2 1c.1.3.3.6.6.5.3-.1.4-.5.4-.8-.4.1-.7.2-1 .3zm2.3-.7c-.3.1-.7.2-1 .3l.1.1c0 .2 0 .4.2.5.1.1.3.2.5.1.3-.1.4-.6.2-1 0 .1 0 0 0 0zm-2.7-.2c.4-.1.9-.1 1.3-.2v-.1c0-.3-.2-.7-.6-.6-.4.1-.6.5-.7.9zm-12.1 6.5c1.7-1.9 6.2-4.8 6.2-4.8 1.2-1.3 1.9-2.8 1.7-4.5 0 0-.1 0-.1-.1 0 .2-.1.5-.3.6-.1.1-.4.1-.6.1-.1-.1-.3-.2-.4-.3-2.6 2.1-4.7 4.7-6.2 7.7-.1.4-.1.8-.3 1.3zm9-10.9c.2.3.4.6.8.6.5 0 .8-.4.8-.9 0-.5-.5-.8-.9-.6-.3 0-.9.2-.7.9zm-.5.3-.9.6s.4.9 1.1.5c.4-.3.2-.9-.2-1.1zm-.9.7c-.3.2-.6.4-.9.7.1.1.1.2.3.2.2.1.3.1.5 0 .2-.2.2-.6.1-.9zm.8-.7s0-.1 0 0c-1.7.9-3.3 1.8-4.7 3.1-1.5 1.4-2.6 3-3.7 4.7.1.3.2.6.2.9 1.9-3.7 4.6-6.8 8.2-8.7zm-.8 0c.3-.1.6-.2.9-.4.1-.4-.3-.7-.7-.5-.4.4-.2.8-.2.9zm-.2.1v-.3c-.1-.2-.4-.3-.7-.2-.4.2-.4.7-.2 1 .3-.2.6-.3.9-.5zm5.8-3.8c-2.2-1.7-4.9-1.6-7.4-1 1 1 1.6 2.3 1.8 3.8.1-.2.3-.3.5-.3.3 0 .5.1.6.4 0-.1 0-.3.2-.4.2-.2.5-.4.8-.4.6-.1 1.1.5 1.1 1.1 0 .5-.3 1-.9 1.1-.2 0-.5-.1-.8-.2.2.3.2.8-.2 1-.2.1-.4.2-.7.1.2 1.7-.5 3.4-1.8 4.5 1.8-.8 5.4-1.7 5.4-1.8.1-.5.5-1 1-1 .3 0 .6.3.7.5.1-.3.4-.5.7-.5.2 0 .4 0 .6.2 1.1-2.7.6-5.3-1.6-7.1zm1.6 7.1s-.1 0 0 0c-.2-.2-.3-.2-.5-.2-.4.1-.5.4-.5.7.4 0 .9-.1 1.3-.1-.1-.1-.2-.3-.3-.4zm1.6.3c.1-.4-.2-.8-.6-.7-.4.1-.5.4-.6.8.4 0 .8 0 1.2-.1 0 .1 0 .1 0 0zm0 .3h-.3l-1.2.3s.5 1.1 1.1.7c.6-.4.4-1 .4-1zm1.1-.7c-.2 0-.4 0-.6.1l-.3.3c0 .3.1.6.5.8.3.1.6 0 .8-.2 0 0 0-.1.1-.1.1-.3-.1-.8-.5-.9zm-.1 13.5c1.9.4 3 1.5 3.5 3.4v.1l.3-.6c.4-.7.7-1.4 1-2.1.7-1.7 1.1-3.4 1.1-5.3 0-3.4-1.9-6.6-5.2-7.8-.2.3-.6.5-1 .4-.2-.1-.3-.2-.5-.3 0 .3-.2.5-.5.6-.3.1-.5 0-.8-.2-.1-.1-.2-.2-.2-.3 0 .3-.2.6-.6.7-.3.1-.7-.1-.9-.4-.1.3-.3.5-.6.6s-.6 0-.7-.3c-.1-.1-.2-.2-.2-.4v-.1c-4.1 1.2-8 2.8-11.2 5.7.5.1 1 .3 1.4.5 1.7-.8 3.6-1.4 5.6-1.6.1-.5.4-1.1 1-1 .2 0 .5.2.6.4.2-.3.5-.5.9-.4.2 0 .4.2.5.4.2-.2.5-.4.8-.3.2.1.3.3.4.5.2-.3.6-.4.9-.3.4.1.6.6.5 1-.1.4-.5.7-.9.6-.2 0-.3-.2-.5-.3-.1.3-.3.6-.6.6-.2 0-.5-.1-.6-.3v-.1c-.1.3-.4.6-.8.6-.3 0-.5-.2-.6-.4-.1.2-.2.4-.5.4-.4.1-.8-.3-.9-.7-.1 0-.2 0-.3.1-1.4.3-2.7 1-4 1.5.9.6 1.8 1.4 2.5 2.2l.6.6c.1 0 .1 0 .2.1 1.2 1.5 3.9 1.6 5.7 1.8 1.4.3 3 .1 4.6.4zM63 22.6c.2-.2.1-.6-.2-.6-.4 0-.5.3-.6.6h.8zm-.8.4c0 .1 0 .2.1.3.1.1.2.2.4.2.3 0 .5-.4.4-.6-.3.1-.6.1-.9.1zm-.3.1c-.4 0-.7.1-1.1.1 0 .1 0 .3.1.4.1.2.3.3.5.3.4-.1.6-.5.5-.8zm0-.5c.2-.4 0-.7-.4-.7-.3.1-.5.4-.5.6.3.1.6.1.9.1zm-1.4.6c-.3 0-.6.1-.9.2 0 .3.3.6.6.5.3 0 .4-.4.3-.7zm-.4-.2c-2 .2-4 .7-5.9 1.5.2.1.5.2.7.4 1.5-1 3.3-1.7 5.2-1.9zm.6-.4s.1-.7-.5-.7c-.4 0-.5.4-.6.8.3-.1.7-.1 1.1-.1zm2.7.2c-.1.2.2.4.4.5.3.1.6 0 .7-.3.1-.2 0-.6-.3-.7-.7-.2-.8.5-.8.5zm-4.5 16.5c1.3.7 4.1 2.3 3.8 4.5 5.5-5.5 6.6-10.1 2.9-13.6h-1.3c-1.8-.1-4.3-.2-5.8-1.5.3.4.5.8.7 1.2 1.6 2.9 1.3 6.5-.3 9.4zm-13.9-9c-.5 2.5.4 8.9-4.7 10.4 10.9 7.9 17.9 1.3 19.2-4.2 1.2-5.2-2.7-11.8-8.2-12.5-3.4.6-5.6 3-6.3 6.3zm-10.3-4c-.1 1-.1 4.5.8 5.8.6-1.8 1.5-3.7 2.7-4.8.8-.7 1.7-1.1 2.7-1.2 1.8-.1 3.4 1.1 5.2.5h.1c1.2-1.5 2.9-2.5 4.8-2.8h.2c1.4-5.1-5.6-7.6-9.5-6.8-4.4.8-6.8 5.2-7 9.3z"/><path class="st1" d="m58.6 28.5.3.3c2.5.7 4.6 1.8 5.8 4.1 1.2 2.1 1.1 4.6.2 6.8 1-2.4.8-5-.6-7.2-1.1-1.7-2.8-2.6-4.6-3.2 2.1 1.7 3.3 4.2 3.5 6.9h-.1c-.4-2.7-1.7-5.1-3.9-6.8.4.6.6 1.3.9 1.8.5 1.2.9 2.5 1.2 3.9-.3-1-.6-2-1-3-.4-1-.9-2.7-1.9-3.2-.1 0-.1-.1-.1-.2l-.1-.1c0-.1.3-.3.4-.1z"/><path class="st1" d="M52.2 24.1c.1-.1.2-.2.4-.1 0 0 .1 0 .1.1 0-.1 0-.2.1-.3 2.4-1.3 5.1-2.9 7.9-3.1 2.5-.1 4.9.9 7.1 1.9 0 0 0 .1 0 0-2.4-1-5-2.1-7.6-1.6-2.5.4-5 2-7.3 3.1h-.1c5.4 3.9 4.7 11.5.3 15.9 4.1-4.4 4.7-11.6-.4-15.4 2 5.6-1.1 11.9-6 14.8 0 0-.1 0 0-.1 2.5-1.6 4.5-4 5.4-6.8.9-2.7.6-5.3.1-8.1-.2 3.5-2.2 7.2-4.3 9.9 2.2-2.8 4.1-6.6 4.1-10.2-.2-.1.1-.1.2 0z"/><path class="st1" d="M53.3 12.1c.9 1.3 1.3 2.9 1.1 4.4 0 .2-.3.1-.3 0 .2-1.5-.1-3-.8-4.4-.1 0 0 0 0 0z"/><path class="st1" d="M57.6 19.1c1.4-1.1 2.7-2.2 3.8-3.6 0 0 .1 0 .1.1-1.1 1.4-2.3 2.7-3.7 3.7-.2.1-.3-.1-.2-.2z"/><path class="st1" d="M40.4 21.7c2.6-1.6 8.7-2.5 10.6.5-1.2-3.4-4.9-4.4-8.3-3.5-.1 0-.1-.1 0-.1 3.7-1.5 8.3.2 9 4.4.1-.1.2-.1.3-.2.6-.8 1.2-1.5 1.7-2.4.5-1 .6-2 .8-3.1 0-.1.1-.1.1 0 .1 1.5-.5 3.2-1.4 4.5 1.8-1.4 3.3-3.7 3.9-5.9h.1c-.5 2.4-2.1 5.1-4.2 6.4h-.2c-.3.3-.5.6-.8.8h-.2v.1c-.1.1-.1.2-.2.3 0 .2-.2.3-.3.2h-.2c-2.6-1.6-6.4-.7-9 .4 0 0-.1 0 0-.1 2.5-1.3 6.3-2.5 8.9-1-.6-1.9-3.2-2.6-5-2.7-1.9.2-3.8.6-5.6 1.4 0 .2 0 .1 0 0z"/><path class="st1" d="M55 24.9c.6-.4 1.8-.1 2.5 0 1.2.2 2.3.5 3.4.9-.9-.2-1.8-.4-2.7-.5-.5-.1-2.9-.5-3 0 0 .1-.2.1-.2 0v-.1c-.1-.2-.1-.3 0-.3z"/><path class="st1" d="M48.9 12.7c1.5 2 3.3 5.4 2.6 7.9 0 .1-.3.1-.2 0 .4-2.7-1.1-5.8-2.4-7.9-.1 0-.1-.1 0 0z"/><path class="st1" d="M63.4 38c.3 2 .3 4.2-.6 6-.1.2-.3.1-.3-.1.7-2 1.1-3.8.9-5.9z"/><path class="st1" d="M70.7 24.3c1.7 2.6 3.4 6.2 1.7 9.2-.1.1-.3.1-.2-.1 1-3.4.2-6.2-1.5-9.1-.1 0-.1-.1 0 0z"/><path class="st1" d="M45.2 9.6s0 .1 0 0c-.8-.4-1.7-.4-2.5-.1-.7.3-1.2.7-1.8 1.2-.1.1-.2 0-.1-.1 1-1.3 3-1.9 4.4-1z"/><path class="st1" d="M63.9 8.9c.9 1.2.3 3.2-.4 4.4.6-1.2 1.1-3.1.3-4.3-.1-.1 0-.2.1-.1z"/><path class="st1" d="M65.3 13.3c-.8 1.3-1.8 2.2-3.1 3 1.2-.8 2.3-1.8 3.1-3z"/><path class="st1" d="M61 13.7c0-.1.1-.1 0 0 0 .9-.3 1.6-.8 2.3 0 0-.1 0 0 0 .4-.7.7-1.5.8-2.3z"/><path class="st1" d="M61.9 19.6c4.1-.6 8.4 1.1 11.3 4.1-3.1-3.1-7-4.2-11.2-3.9-.2 0-.2-.1-.1-.2z"/><path class="st1" d="M66.2 24.1c1.3.5 2.3 1.3 3 2.4-.7-1-1.8-1.8-3-2.4z"/><path class="st1" d="M58.9 27c2.2 1 4.4 1.5 6.8 1.3-2.3.3-4.7 0-6.8-1.2-.1 0 0-.1 0-.1z"/><path class="st1" d="M65.7 32.4c.6 1.2.9 2.5 1 3.9-.1-1.4-.5-2.7-1-3.9-.1 0-.1 0 0 0z"/><path class="st1" d="M63.3 33.5c.5.8.9 1.6 1.1 2.5-.3-.9-.6-1.7-1.1-2.5-.1 0 0 0 0 0z"/><path class="st1" d="M61.4 34.3c.7 1.9.9 3.8.6 5.8 0 0-.1 0 0 0 .2-2 0-3.9-.6-5.8-.1 0 0 0 0 0z"/><path class="st1" d="M56.6 27.5c2 3.7 1.9 8.5-.5 12H56c2.2-3.8 2.5-8 .6-12z"/><path class="st1" d="M46 42.9c4.2-.6 7.9-1.7 9.8-5.8-1.7 4.1-5.6 5.6-9.8 5.8-.1.1-.1 0 0 0z"/><path class="st1" d="M49.5 39.2c2.8-2.2 4.3-5.2 5.3-8.5h.1c-.8 3.2-2.4 6.6-5.4 8.5 0 .1 0 0 0 0z"/><path class="st1" d="M50.3 32.4c0-.1 0-.1 0 0-.5 2-1.8 3.6-3.2 5H47c1.3-1.6 2.6-3.1 3.3-5z"/><path class="st1" d="M49.9 26.5s.1.1 0 0c-2.1 2.3-3.4 5-4 8.1 0 .1-.1.1-.1 0 .4-3.1 1.9-5.8 4.1-8.1z"/><path class="st1" d="M45.6 8c4 .8 6.8 4.2 7.2 8.2-.5-4.1-3.3-7-7.2-8.1-.1 0 0-.1 0-.1z"/><path class="st1" d="M49.7 8.5c3.1.1 5.9 1.8 6.6 5-.8-3.1-3.5-4.6-6.5-4.9-.2 0-.2-.1-.1-.1z"/><path class="st1" d="M49.9 7.4c1.3-.3 2.7 0 4 .5-1.3-.6-2.6-.7-4-.5-.1 0-.1 0 0 0z"/><path class="st1" d="M46.1 11.3c1.6.9 2.6 2.6 2.9 4.4h-.1c-.4-1.8-1.5-3.1-2.8-4.4-.1.1-.1 0 0 0z"/><path class="st1" d="M60.9 8.4c.4.5.7 1.2.9 1.8 0 0 0 .1 0 0l-.9-1.8c-.1 0 0 0 0 0z"/><path class="st1" d="M59.9 8.8c.3.3.5.8.5 1.2 0 .1-.1.1-.1 0-.1-.4-.2-.8-.5-1.1 0-.1.1-.1.1-.1z"/></g><g id="Слой_2"><path class="st1" d="M38.5 22.3s.1.1 0 0c-2.8 2.5-3.9 6.2-2.9 9.8.1.3-.3.4-.4.2-1-3.7.3-7.6 3.3-10z"/><path class="st1" d="M41.8 25.8c2-.1 3.9-.5 5.7-1.4-1.8 1-3.7 1.5-5.7 1.4 0 .1 0 0 0 0z"/><path class="st1" d="M45 22s.1 0 0 0c-2.7.7-5.4 1.3-7.6 3.2 0 0-.1 0 0-.1 2-2 4.9-2.6 7.6-3.1z"/><path class="st1" d="M43.3 19.6c-3.2-.1-5.9 1.5-7.8 4.1h-.1c1.6-2.7 4.8-4.2 7.9-4.1z"/><path class="st1" d="M40.9 18.2c.7-.6 1.7-.8 2.6-.8-1 0-1.8.3-2.6.8 0 .1-.1 0 0 0z"/><path class="st0" d="M7.8 24.8c.6-1.8-.2-3.5 1.3-5 1-1 2.5-1.5 3.9-1.8-.1-.1 1.4-3 3.3-3.6-.4-.1-.6-.5-.6-.8-.2.1-.5.2-.7.1-.3-.1-.4-.4-.4-.7-.2.1-.5.2-.7.1-.5-.1-.8-.6-.7-1.1.1-.5.6-.9 1.1-.8.4.1.8.5.8 1 .2-.4.8-.7 1.2-.4.2.1.3.3.3.5.2-.1.5-.2.7 0 .2.1.3.4.3.6v.2c.3-.3.7-.4 1.1-.1.1.1.2.3.2.4 1.3-.5 2.8-.6 4.2-.1-.8-1.4-1.7-2.7-2.6-4-.2.4-.9.5-1.2.2-.4-.3-.4-.7-.2-1.1-.3.1-.7.1-.9-.2-.1-.2-.1-.5-.1-.7-.2.1-.5 0-.7-.2-.4-.4-.4-1.1 0-1.5.4-.4 1.1-.5 1.5 0 .1.2.2.4.1.7.3-.1.6-.1.8.1.2.2.2.5.2.8.3-.1.7-.1.9.2.3.3.3 1 0 1.3 1.3 1.3 2.5 2.9 3.5 4.5 1.3.5 2.2 1.3 2.9 3.3v.1c0-.1.1-.2.1-.4-.2-1.4-.5-2.7-.9-4-.2.1-.4 0-.5 0-.2-.1-.5-.2-.6-.5-.2-.4 0-.9.4-1.1-.4.1-.8 0-1-.5-.1-.3 0-.6.3-.8-.2-.1-.4-.3-.5-.5-.2-.4.1-.9.6-1 .4-.1.9.1 1 .5.1.2.1.5 0 .7.3 0 .5.1.7.3.2.3.1.7-.1 1 .3 0 .7.2.8.5.1.3 0 .6-.1.8-.1.1-.3.3-.4.3.5 1.2.9 2.4 1.2 3.6 1.4-3.4 5.1-4.8 8.5-5.3 1.6-.2 3.3-.2 4.7.4 1.5.7 2.1 1.9 2.6 3.4.4 1.3 1 2.1 2 3 .5.5 1.1 1 1.2 1.8.2 1-.6 1.7-1.5 2.1-.2.1-.5.1-.7.2 3.7 2.2 5.1 7.3 3.8 11.3-.3.9-1.2 3.4-2.6 2.6-.9-.5-1.5-1.8-2.2-2.6-1.4-1.5-3.2-2.5-5.2-2.4h-.1c1.3 3.5 1.4 7.5.1 10.9-1.6 4-6 7.7-10.5 7.1-.1 0-.1 0-.2-.1l-.1-.1c.1-.3.3-.7.5-1 .8-2.6-2.3-5.7-3.9-7.4-.7-.7-1.4-1.5-2.1-2.3-2.7 3.1-2.4 6.9-1.2 10.7.1.2-.1.3-.3.3-7.2-1.1-12.6-8.8-10-15.9-1 .8-2.1 1.6-3.2 1.4-1.3-.2-2-1.6-2.2-2.8-.2-.9-.2-2 .1-3 .6-1.3 1.6-2.1 2-3.2z"/><path class="st1" d="M6 27.8c.4-1.1 1.4-1.9 1.8-3 .6-1.8-.2-3.5 1.3-5 1-1 2.5-1.5 3.9-1.8-.1-.1 1.4-3 3.3-3.6-.4-.1-.6-.5-.6-.8-.2.1-.5.2-.7.1-.3-.1-.4-.4-.4-.7-.2.1-.5.2-.7.1-.5-.1-.8-.6-.7-1.1.1-.5.6-.9 1.1-.8.4.1.8.5.8 1 .2-.4.8-.7 1.2-.4.2.1.3.3.3.5.2-.1.5-.2.7 0 .2.1.3.4.3.6v.2c.3-.3.7-.4 1.1-.1.1.1.2.3.2.4 1.3-.5 2.8-.6 4.2-.1-.8-1.4-1.7-2.7-2.6-4-.2.4-.9.5-1.2.2-.4-.3-.4-.7-.2-1.1-.5 0-.9-.1-1.1-.4-.1-.2-.1-.5-.1-.7-.2.1-.5 0-.7-.2-.4-.4-.4-1.1 0-1.5.4-.4 1.1-.5 1.5 0 .1.2.2.4.1.7.3-.1.6-.1.8.1.2.2.2.5.2.8.3-.1.7-.1 1 .2s.3 1 0 1.3c1.3 1.3 2.5 2.9 3.5 4.5 1.3.5 2.2 1.3 2.9 3.3v.1c0-.1.1-.3.1-.4-.2-1.4-.5-2.7-.9-4-.2.1-.4 0-.5 0-.2-.1-.5-.2-.6-.5-.2-.4 0-.9.4-1.1-.4.1-.8 0-1-.5-.1-.3 0-.6.3-.8-.2-.1-.4-.3-.5-.5-.2-.4.1-.9.6-1 .4-.1.9.1 1 .5.1.2.1.5 0 .7.2 0 .5.1.7.3.2.3.1.7-.1 1 .3 0 .7.2.8.5.1.3 0 .6-.1.8-.1.1-.3.3-.4.3.5 1.2.9 2.4 1.2 3.6 1.4-3.4 5.1-4.8 8.5-5.3 1.6-.2 3.3-.2 4.7.4 1.5.7 2.1 1.9 2.6 3.4.4 1.3 1 2.1 2 3 .5.5 1.1 1 1.2 1.8.2 1.1-.6 1.7-1.5 2.1-.2.1-.5.1-.7.2 3.7 2.2 5.1 7.3 3.8 11.3-.3.9-1.2 3.4-2.6 2.6-.9-.5-1.5-1.8-2.2-2.6-1.4-1.5-3.1-2.5-5.2-2.4h-.1c1.3 3.5 1.4 7.5.1 10.9-1.6 4-6 7.7-10.4 7.1-.1 0-.1 0-.2-.1l-.1-.1c.1-.3.3-.7.5-1 .8-2.6-2.3-5.7-3.9-7.4-.7-.7-1.4-1.5-2.1-2.3-2.7 3.1-2.4 6.9-1.2 10.7.1.2-.1.3-.3.3-7.2-1.1-12.6-8.8-10-15.9-1 .8-2.1 1.6-3.2 1.4-1.3-.2-2-1.6-2.2-2.8 0-1 0-2.1.3-3zm8.2-16.3c-.4-.1-.7.2-.7.6-.2.8 1 1.1 1.3.3l.1-.1c-.1-.4-.3-.8-.7-.8zm5-2.3c.3.2.8.1 1-.2-.3-.3-.5-.7-.8-1l-.2.2c-.2.3-.3.7 0 1zm-1-1.3c.3.3.8.2 1-.1-.2-.3-.4-.6-.7-.8.1 0-.5.6-.3.9zm.1-2.2c-.3-.3-.8 0-1 .3-.2.3-.1.8.2 1 .3.2 1.7-.5.8-1.3zm1.2 1c-.4-.4-.8.1-.8.1v.1c.3.2.5.4.8.6 0-.1.1-.7 0-.8zm1.1.9c-.2-.3-.7-.2-.9-.1v.1c.3.3.7.6 1 .9.1-.1.1-.2.1-.3 0-.2 0-.4-.2-.6zm5 4.1c.1.2.3.3.5.3h.3c-.1-.4-.2-.8-.4-1.2-.4.1-.6.5-.4.9zm-.6-1.4c.2.3.6.3.8.2l-.3-.9c-.4-.1-.7.3-.5.7zm.8-1.7c-.1-.3-.3-.4-.6-.3-.3.1-.5.3-.4.6.1.3.5.5.6.4.4-.2.5-.5.4-.7zm.7.9c-.1-.1-.3-.2-.4-.2-.1 0-.2 0-.3.1h-.1c.1.3.3.6.4.9.4-.1.6-.5.4-.8zm.6 2.1c.1-.2.2-.4.2-.6-.1-.4-.6-.5-.9-.4.2.4.3.8.5 1.2 0-.1.1-.1.2-.2zM13.3 18c3.9-.5 8.1.7 11.1 3.3-.5-.8-.9-1.6-1.5-2.4-1.3-1.8-2.8-3.3-4.5-4.4 0 .1-.1.2-.2.3-.2.2-.5.3-.8.2-.3-.1-.5-.4-.5-.6-1.8 1-3 2.2-3.6 3.6zM25 21.8c.7 1.4 1.4 2.9 1.9 4.3.1 0 .2 0 .3-.1-.8-3.2-2.3-6.1-4.5-8.5-.8-.8-1.6-1.5-2.4-2.2 1.3 1.2 2.4 2.5 3.3 4 .5.7.9 1.4 1.3 2.2 0 .2 0 .2.1.3zm-9.9-9.3c0 .1-.6.6-.1.9.6.4.7-.4.7-.6-.1-.1-.3-.2-.6-.3.1 0 0 0 0 0zm1-.6c-.5-.4-.8.3-.9.5l.9.3s.4-.4 0-.8zm0 1.1c0 .1-.1.2-.2.3v.4c.1.2.3.4.6.4s.5-.3.6-.6c-.3-.1-.7-.3-1-.5zm1-.6c-.2-.1-.5-.1-.6.1 0 .1-.1.2-.1.3.3.1.6.2.8.3.1-.1.1-.2.1-.3 0-.1 0-.3-.2-.4zm.2 1.3c-.1.2-.1.3-.2.4 0 .2.1.4.3.5.2.1.4 0 .6-.1.1-.1.1-.2.1-.3-.3-.2-.5-.3-.8-.5zm1.1-.6c-.3-.2-.7-.1-.9.2.4.2.7.3 1 .5.1-.3.1-.5-.1-.7zm.4.6c0 .1 0 .1-.1.2 4.1 2.3 7.2 6.7 8.5 11.1-.7-4.2-2.1-8-4.1-11.5-1.5-.3-2.9-.3-4.3.2zm2.4-4c3.5 4.7 5.7 10.5 6.4 16.2.1 0 .2-.1.3-.1-.5-6.2-2.9-11.4-6.7-16.1zm5.9 7.2c-.3-.6-.6-1.6-1-2.1-.4-.5-.9-.8-1.5-1.1.9 1.6 1.7 3.3 2.2 5.1 0-.6.1-1.3.3-1.9zm.1.8c-.1.5-.1 1-.2 1.5.7 2.2 1 4.4 1.1 6.6-.1-3.1-.9-8.4-.9-8.1zm.3-2.5c.7 3.5.8 7.1.9 10.5.2-.1.4-.2.5-.3 0-3.6-.5-6.9-1.4-10.2zm17.9 5.6c2.4-1.2.8-2.6.5-3.1-.4-.5-1-.8-1.4-1.3-.8-1.1-.9-2.5-1.5-3.6-1-1.8-3.1-2.2-5-2.1-4 .1-7.9 1.6-9.7 5.3.8 3 1.1 6.2 1 9.2.5-.3 2.3-1.6 2.9-1.6 0 0 .4-2.3 6.5-2.8 1.7-.1 6.4.1 6.7 0zm-6.7 9c1.6 0 3 .5 4.2 1.4.8.6 2.6 2.6 2.7 2.8 1.2 2.1 2.2-.2 2.6-1.3 1.7-4.5-.3-8.5-3.8-11.3-1.7.3-3.7-.1-5.3-.2-2.5 0-5.1.4-6.8 2.4 1.8.3 3.5 1.9 4.6 3.3.7.9 1.2 1.9 1.6 2.9h.2zm-15.1 7.7c1.7 2.1 6.2 5.9 5.3 9.1v.1c0 .1-.1.1-.1.2-.1.3-.2.5-.4.8 2.7-.3 5.1-1 7.1-3 2.3-2.2 3.5-5.3 3.6-8.5.1-3-.7-6.1-2.3-8.7-.9-1.3-2-2.5-3.5-3.2-2-.9-2.7.5-4.2 1.4-.9.5-1.8.8-2.8.8-2 .1-4-.7-5.5 1.1-2.5 3.3.8 7.5 2.8 9.9zM13 42.6c1.9 2.7 4.8 4.4 7.9 4.9-1.1-3.6-1.6-8 1.6-10.6-1-1.2-1.8-2.5-2.4-3.9-.7-1.7-.8-3.7.2-5.3-2.9-.1-5.3 1.3-7.5 3-.4.3-.8.7-1.3 1.2v.1c-.9 3.7-.7 7.4 1.5 10.6zM6.2 30c0 .5.4 4.2 3.3 2.9 4.9-4.2 7.7-5.6 10.9-5.5h.1c1.5-1.9 3.7-1.1 5.8-1.2h.3c-.7-1.5-1.3-3-2.1-4.4-3-2.2-6.5-3.6-10.3-3.4-1.8.1-3.9.5-5.1 1.9-1.3 1.5-.5 3.4-1.2 5.1-.6 1.6-1.8 2.5-1.7 4.6z"/><path class="st1" d="M28.5 47.4c1.6-.9 3.2-1.6 4.1-3.4.8-1.6.9-3.3.9-5.1 0-.1.1-.1.1 0 .5 4.2-1 7.3-4.9 8.8-.3.2-.4-.2-.2-.3z"/><path class="st1" d="M27.9 26.6c.3 3.6 3.7 5.6 4.8 8.9-1.3-3.2-5-5.2-5.1-8.9 0-.3.3-.3.3 0z"/><path class="st1" d="M32.6 23.1s.1 0 0 0c4.5-1.9 9.6-.7 13 2.7-3.2-3.1-7.8-4.1-12-2.7 5.2.1 10.1 3.2 12.7 7.7 0 0 0 .1-.1 0-2.4-3.9-6.4-6.4-10.8-7 1.9.8 3.7 2.3 4.8 3.9 0 0 0 .1-.1 0-1.3-1.8-3.6-3.5-5.9-4-.5 0-1.1-.1-1.6-.1-.3 0-.3-.5 0-.5z"/><path class="st1" d="M29.1 25c1-2.2 1.7-4.5 3.6-6.2 1.6-1.4 3.5-2.3 5.6-2.6-2.2.5-4.1 1.5-5.7 3.2-1.6 1.7-2.1 3.8-3.1 5.7-.1.3-.5.1-.4-.1z"/><path class="st1" d="M20.2 27.5c.2-.1.5.2.2.4-4.1 2.5-4.6 7.5-3.8 11.8 0 .1-.1.1-.1 0-1-4.4-.6-9.6 3.7-12.2z"/><path class="st1" d="M11.7 24.3c2.4-1.3 5.2-1.6 8-1.4 2.6.1 4.4 1.3 6.3 2.9-2.2-3.6-5.9-5.8-10-6.1-.1 0-.1-.1 0-.1 4.6.1 8.8 2.8 10.8 7 .1.1-.1.3-.2.1 0-.1-.1-.1-.1-.2h-.3c-2.3-2-4.3-3.2-7.3-3.2-2.4-.1-4.8.2-7 1.1-.2 0-.2-.1-.2-.1z"/><path class="st1" d="M21.7 15.2c2.8 2.3 4.7 5.6 5.5 9.2 0 .2-.2.3-.3.1-.8-3.7-2.5-6.7-5.2-9.3-.1 0 0-.1 0 0z"/><path class="st1" d="M46.9 32.6c.2.8.2 1.6 0 2.4 0 .1-.1 0-.1 0 .3-.8.3-1.6.1-2.4z"/><path class="st1" d="M29.9 24.8c1.2-1.8 2.5-3.5 4.5-4.5 2-.9 4.2-1 6.4-1-2.1 0-4.4.1-6.3 1.1-1.9 1-3.1 2.7-4.3 4.5 5 3.3 7.3 9.2 6.1 15 1.1-5.8-1.3-11.5-6.2-14.7-.1-.1-.1-.2-.1-.2-.1 0-.2-.1-.1-.2z"/><path class="st1" d="M28.6 19.4c.8-3 2.9-4.7 5.5-6.1-2.5 1.5-4.5 3.2-5.3 6.1 0 .2-.3.1-.2 0z"/><path class="st1" d="M22.8 26.3c.1-.2.4 0 .3.2-1.8 3.1 1.8 5.5 3.5 7.6 1.4 1.7 2.3 3.7 2.9 5.8 0 0-.1.1-.1 0-1-3.4-3-5.6-5.3-8.2-1.4-1.5-2.4-3.4-1.3-5.4z"/><path class="st1" d="M20 32.8c0-.1.1 0 .1 0-.5 1.4-.8 2.9-1 4.4.1-1.5.5-2.9.9-4.4z"/><path class="st1" d="M17 28.1c.2-.1.3.1.2.3-2.8 2.1-4.3 5.7-3.7 9.2 0 0-.1.1-.1 0-.7-3.7.6-7.3 3.6-9.5z"/><path class="st1" d="M10.6 28.8c3.2-3 8-4.2 12.2-2.8.2.1.1.4-.1.3-4.3-1-8.5-.2-12.1 2.5 0 .1 0 0 0 0z"/><path class="st1" d="M17 16.5c2.9.6 5.8 2.3 7.6 4.6 0 .1 0 .1-.1.1-2.3-2.1-4.5-3.6-7.5-4.7-.1.1-.1 0 0 0z"/><path class="st1" d="M42.6 25.2c2.3 1.1 4.1 2.9 5.2 5.3-1.2-2.3-2.9-4.1-5.2-5.3z"/><path class="st1" d="M39.4 21.9c3.1.3 6.5 1.1 8.2 3.9-1.9-2.9-5.2-3.2-8.2-3.8-.1 0-.1-.1 0-.1z"/><path class="st1" d="M39.5 25.7c1.5.8 2.7 2 3.6 3.5 0 0 0 .1-.1 0-.9-1.4-2.1-2.5-3.5-3.5-.1 0-.1 0 0 0z"/><path class="st1" d="M37.1 26.5c1.2.5 2.2 1.4 2.9 2.4 0 0 0 .1 0 0-.8-1-1.8-1.7-3-2.4-.1.1 0 0 .1 0z"/><path class="st1" d="M40.7 15.6c1.1-.2 2.2-.1 3.3 0-1.1-.1-2.2 0-3.3 0 0 .1 0 0 0 0z"/><path class="st1" d="M31.5 17.7c2.7-3 7-4.3 10.9-3.8-4.2-.5-7.8 1-10.9 3.8 0 .1-.1 0 0 0z"/><path class="st1" d="M32.1 12.8c1.3-.8 2.7-1.2 4.2-1.3-1.5.3-2.9.7-4.2 1.3 0 .1-.1.1 0 0z"/><path class="st1" d="M36.1 17.9c2.5-.5 5-.3 7.4.4-2.4-.6-4.8-.7-7.4-.4 0 .1 0 0 0 0z"/><path class="st1" d="M33.2 30.8c1.8 3.5 2.3 7.4 1.6 11.3.6-3.9 0-7.7-1.6-11.3-.1 0 0-.1 0 0z"/><path class="st1" d="M35.3 27.4c1.8 2.9 2.6 6.1 2.6 9.5 0-3.4-.9-6.6-2.6-9.5 0 0 0-.1 0 0z"/><path class="st1" d="M26.3 30.5c3.3 3.4 6.3 7.8 4.7 12.7 1.5-5-1.7-9.1-4.7-12.7-.1 0-.1-.1 0 0z"/><path class="st1" d="M22.4 31.8c.8 2.4 2.1 4.5 3.9 6.3 0 0 0 .1 0 0-1.8-1.7-3.2-3.9-3.9-6.3-.1-.1 0-.1 0 0z"/><path class="st1" d="M16.9 41.4c.9 2.2 2 4.8 4 6.2.2.1 0 .5-.2.3-2-1.5-3-4.2-3.8-6.5-.1 0 0 0 0 0z"/><path class="st1" d="M17.9 38.5c.4 1.7.8 3.4 1.4 5.1-.6-1.7-1.1-3.4-1.4-5.1z"/><path class="st1" d="M18.4 32.3c0 1.2-.2 2.5-.5 3.7.2-1.2.3-2.5.5-3.7z"/><path class="st1" d="M14.8 34.1c0-.1 0-.1 0 0-.4 1.7-.5 3-.1 4.7.4 1.5.8 2.9 1.3 4.4-1.1-3.1-2.2-5.9-1.2-9.1z"/><path class="st1" d="M12.3 32.2c.1 0 .1 0 0 0-.5 2.4-.6 4.8.1 7.2-.7-2.4-.7-4.8-.1-7.2z"/><path class="st1" d="M7.6 25.9c.1-.3.5-.6.8-.7.4-.2.8-.4 1.2-.5.1 0 .1.1 0 .1-.4.2-.8.4-1.1.6-.2.2-.5.6-.8.6-.1 0-.1 0-.1-.1z"/><path class="st1" d="M9.6 22.8c1.7-1.6 5.2-2.2 7.5-1.6 0 0 0 .1 0 0-2.2-.4-5.7.2-7.5 1.6.1.2 0 .1 0 0z"/><path class="st1" d="M10.8 19.9c.6-.2 1.3-.4 1.9-.7 0 0 .1.1 0 .1-.6.3-1.2.5-1.9.6 0 .1 0 0 0 0z"/><path class="st1" d="M6.6 29.4c2.5-3.4 6.6-5.3 10.7-5.5-4.3.4-7.9 2.4-10.7 5.5 0 .2-.1.1 0 0z"/><path class="st1" d="M10.8 29.6c.9-.7 2-1.2 3.1-1.5-1 .4-2 1-3.1 1.5 0 .1 0 .1 0 0z"/><path class="st1" d="M17.5 15.7c.9.2 1.7.5 2.4.9 0 0 0 .1 0 0-.8-.4-1.6-.7-2.4-.9z"/><path class="st1" d="M20.4 14.1c.3.2.6.5.8.8-.2-.3-.5-.5-.8-.8z"/><path class="st1" d="M22.3 14.2c.7.4 1.2 1 1.5 1.8 0 0 0 .1-.1 0-.3-.7-.8-1.3-1.4-1.8-.1 0-.1 0 0 0z"/></g></svg>