<svg width="32" height="32" viewBox="0 0 32 32" fill="none" xmlns="http://www.w3.org/2000/svg">
<rect width="32" height="32" rx="16" fill="white"/>
<path fill-rule="evenodd" clip-rule="evenodd" d="M15.7815 21.7693H16.9987C16.9987 21.7693 17.3664 21.7289 17.5541 21.5262C17.7269 21.3401 17.7213 20.9906 17.7213 20.9906C17.7213 20.9906 17.6976 19.3546 18.4556 19.1137C19.2028 18.8764 20.1624 20.6949 21.1795 21.3941C21.9485 21.9232 22.533 21.8072 22.533 21.8072L25.2524 21.7693C25.2524 21.7693 26.675 21.6815 26.0005 20.5611C25.9452 20.4695 25.6076 19.7324 23.9785 18.2177C22.2734 16.6324 22.5017 16.8888 24.5557 14.1466C25.8067 12.4765 26.3068 11.457 26.1506 11.0203C26.0016 10.6044 25.0816 10.7143 25.0816 10.7143L22.0196 10.7334C22.0196 10.7334 21.7926 10.7024 21.6243 10.8032C21.4598 10.902 21.3539 11.1324 21.3539 11.1324C21.3539 11.1324 20.8693 12.4247 20.2229 13.5238C18.8595 15.8429 18.3143 15.9653 18.0915 15.8213C17.5732 15.4857 17.7025 14.473 17.7025 13.7536C17.7025 11.5062 18.0428 10.5692 17.0399 10.3266C16.707 10.246 16.4621 10.1929 15.6109 10.1843C14.5184 10.1729 13.5937 10.1876 13.0701 10.4446C12.7217 10.6154 12.453 10.9962 12.6167 11.0181C12.819 11.0452 13.2774 11.1418 13.5204 11.4733C13.8342 11.9008 13.8231 12.8612 13.8231 12.8612C13.8231 12.8612 14.0034 15.5067 13.4021 15.8354C12.9893 16.0608 12.4232 15.6006 11.2076 13.4967C10.5848 12.4189 10.1145 11.2277 10.1145 11.2277C10.1145 11.2277 10.0239 11.005 9.86213 10.886C9.66585 10.7417 9.39161 10.6957 9.39161 10.6957L6.48197 10.7148C6.48197 10.7148 6.04518 10.727 5.88484 10.9173C5.74219 11.0865 5.8735 11.4365 5.8735 11.4365C5.8735 11.4365 8.15145 16.7747 10.7307 19.4649C13.0958 21.9313 15.7815 21.7693 15.7815 21.7693Z" fill="#1A232D"/>
</svg>
