<svg width="32" height="32" viewBox="0 0 32 32" fill="none" xmlns="http://www.w3.org/2000/svg">
<rect width="32" height="32" rx="16" fill="white"/>
<g clip-path="url(#clip0_283_4174)">
<path d="M24.7105 12.4044C24.6696 11.477 24.5196 10.8394 24.3048 10.2869C24.0832 9.70043 23.7422 9.17538 23.2955 8.7389C22.859 8.29563 22.3305 7.95119 21.7508 7.73302C21.1951 7.51818 20.5609 7.3682 19.6334 7.32731C18.6991 7.28296 18.4025 7.27271 16.0327 7.27271C13.6629 7.27271 13.3663 7.28296 12.4354 7.32385C11.508 7.36474 10.8704 7.51485 10.318 7.72956C9.73143 7.95119 9.20638 8.29217 8.7699 8.7389C8.32664 9.17538 7.98233 9.70389 7.76403 10.2835C7.54919 10.8394 7.39921 11.4735 7.35832 12.4009C7.31397 13.3353 7.30371 13.6319 7.30371 16.0017C7.30371 18.3715 7.31397 18.6681 7.35486 19.599C7.39575 20.5264 7.54586 21.164 7.7607 21.7165C7.98233 22.3029 8.32664 22.828 8.7699 23.2645C9.20638 23.7077 9.73489 24.0522 10.3145 24.2703C10.8704 24.4852 11.5045 24.6352 12.4321 24.6761C13.3628 24.7171 13.6596 24.7272 16.0293 24.7272C18.3991 24.7272 18.6958 24.7171 19.6266 24.6761C20.5541 24.6352 21.1917 24.4852 21.744 24.2703C22.9171 23.8168 23.8445 22.8894 24.298 21.7165C24.5127 21.1607 24.6628 20.5264 24.7037 19.599C24.7446 18.6681 24.7549 18.3715 24.7549 16.0017C24.7549 13.6319 24.7514 13.3353 24.7105 12.4044ZM23.1387 19.5308C23.1011 20.3832 22.9579 20.8435 22.8386 21.1504C22.5453 21.9108 21.9418 22.5143 21.1814 22.8076C20.8745 22.927 20.4109 23.0701 19.5618 23.1076C18.6411 23.1486 18.365 23.1587 16.0361 23.1587C13.7073 23.1587 13.4277 23.1486 12.5104 23.1076C11.6579 23.0701 11.1976 22.927 10.8907 22.8076C10.5123 22.6678 10.1679 22.4461 9.88833 22.1563C9.5985 21.8733 9.37687 21.5323 9.23701 21.1539C9.11767 20.847 8.97449 20.3832 8.93706 19.5342C8.89604 18.6136 8.88592 18.3374 8.88592 16.0085C8.88592 13.6796 8.89604 13.4 8.93706 12.4828C8.97449 11.6304 9.11767 11.1701 9.23701 10.8632C9.37687 10.4847 9.5985 10.1404 9.89179 9.86066C10.1747 9.57083 10.5157 9.34919 10.8942 9.20947C11.2011 9.09013 11.6649 8.94695 12.5138 8.90939C13.4345 8.8685 13.7107 8.85824 16.0395 8.85824C18.3718 8.85824 18.6479 8.8685 19.5652 8.90939C20.4177 8.94695 20.878 9.09013 21.1849 9.20947C21.5633 9.34919 21.9077 9.57083 22.1873 9.86066C22.4771 10.1437 22.6987 10.4847 22.8386 10.8632C22.9579 11.1701 23.1011 11.6337 23.1387 12.4828C23.1796 13.4035 23.1898 13.6796 23.1898 16.0085C23.1898 18.3374 23.1796 18.6101 23.1387 19.5308Z" fill="#1A232D"/>
<path d="M16.0327 11.5178C13.5573 11.5178 11.5488 13.5261 11.5488 16.0017C11.5488 18.4772 13.5573 20.4855 16.0327 20.4855C18.5082 20.4855 20.5165 18.4772 20.5165 16.0017C20.5165 13.5261 18.5082 11.5178 16.0327 11.5178ZM16.0327 18.9102C14.4267 18.9102 13.1241 17.6077 13.1241 16.0017C13.1241 14.3956 14.4267 13.0931 16.0327 13.0931C17.6387 13.0931 18.9412 14.3956 18.9412 16.0017C18.9412 17.6077 17.6387 18.9102 16.0327 18.9102Z" fill="#1A232D"/>
<path d="M21.7407 11.341C21.7407 11.919 21.2719 12.3877 20.6937 12.3877C20.1157 12.3877 19.647 11.919 19.647 11.341C19.647 10.7628 20.1157 10.2942 20.6937 10.2942C21.2719 10.2942 21.7407 10.7628 21.7407 11.341Z" fill="#1A232D"/>
</g>
<defs>
<clipPath id="clip0_283_4174">
<rect width="17.4545" height="17.4545" fill="white" transform="translate(7.27295 7.27271)"/>
</clipPath>
</defs>
</svg>
