<svg width="1490" height="228" viewBox="0 0 1490 228" fill="none" xmlns="http://www.w3.org/2000/svg">
<g clip-path="url(#clip0_401_5590)">
<path d="M0 213.55C2.05 212.55 4.41 211.91 6.08 210.47C10.1 207.01 13.8 203.16 17.65 199.5C17.85 199.31 18.29 199.37 18.62 199.31C21.66 198.75 25.3 199.02 27.56 197.38C29.72 195.81 30.44 192.26 32.72 189.61C32.56 193.14 32.41 196.68 32.22 200.8C37.44 199.84 42.12 199.29 46.58 197.98C48.05 197.55 49.12 195.27 50.05 193.65C50.77 192.39 50.97 190.85 51.4 189.43C51.86 189.51 52.33 189.59 52.79 189.67C52.59 193.12 52.4 196.58 52.16 200.69C54.1 200.51 55.61 199.99 56.88 200.34C59.07 200.95 61.23 201.91 63.17 203.1C64.37 203.84 64.99 205.93 66.17 206.22C68.13 206.71 70.33 206.25 72.43 206.18C72 202.91 71.98 199.5 70.97 196.41C70.47 194.86 68.17 193.9 66.39 192.43C63.87 194.67 61.67 194.11 60.13 190.72C59.06 188.36 57.44 186.15 56.85 183.68C56.3 181.34 56.79 178.76 56.78 176.29C56.77 174.91 57.19 172.95 56.47 172.31C55.63 171.57 53.76 171.98 52.36 171.89C52.62 176.43 53.03 180.13 52.98 183.84C52.94 186.58 46.89 192.98 44.13 193.53C43.41 193.67 42 193.45 41.88 193.08C40 187.34 32.49 183.15 37 175.55C37.47 174.75 37.04 172.74 36.31 172.12C35.65 171.56 33.98 171.97 32.84 172.26C31.92 172.49 31.17 173.44 30.25 173.64C26.53 174.48 24.85 176.38 26.91 180.44C20.47 177.46 17.18 172.94 18.16 168.83C19.68 162.46 21.69 160.46 27.09 160.27C24.21 157.82 20.81 155.54 24.5 151.47C27.43 148.24 30.7 149.43 33.35 151.52C38.4 155.5 33.31 158.3 31.62 161.76C34.28 162.69 36.94 163.62 40 164.69C40.7 162.21 42.27 159.1 47.58 160.6C44.35 157.95 41.2 156.03 44 152C46.37 148.58 49.62 149.24 52.43 150.76C57.11 153.29 55.51 156.86 52.76 160.15C60.55 160.29 56.95 168.55 61.5 170.75C64.97 171.32 71.28 161.8 71.75 173.55C78.57 174.53 83.84 172.33 89.22 168.47C92.56 166.08 97.6 165.11 101.86 165.18C108.96 165.29 111.91 160.68 115.15 155.92C115.8 154.97 116.35 153.96 116.94 152.98C116.69 152.69 116.53 152.38 116.27 152.21C113.95 150.67 111.62 149.15 109.29 147.63C110.96 145.19 112.65 142.75 114.31 140.3C114.95 139.36 115.74 138.46 116.14 137.42C117.73 133.29 119.8 129.82 124.5 128.45C134.6 125.5 144.2 121.28 154.24 115.24C154.12 117.98 153.74 119.6 154.07 121.08C154.33 122.26 155.43 123.26 156.16 124.35C157.11 123.59 158.31 123 158.95 122.03C160.85 119.19 160.66 116.87 157.71 114.38C154.49 111.66 153.98 107.77 156.1 103.94C157.94 100.61 160.52 98.8599 164.69 99.7599C166.44 100.14 168.47 99.2199 170.73 98.8399C168.74 104.37 171.03 108.6 174.88 112.45C175.1 110.13 174.97 107.7 175.61 105.5C176.79 101.45 179.36 99.7199 184.02 99.4999C187.58 99.3299 191.01 96.6699 194.05 95.3199C193.69 100.2 193.25 106.17 192.8 112.2C196.26 111.69 199.55 111.39 202.73 110.63C203.57 110.43 204.64 108.83 204.63 107.89C204.56 103.88 206.04 100.73 209.39 98.7199C210.19 98.2399 212.85 99.0999 212.85 99.2899C212.75 102.72 212.99 106.35 211.9 109.5C210.27 114.18 211.47 117.95 217.25 120.51C211.03 128.31 208.6 139.75 194.66 138.49C195.3 143.19 195.82 147.04 196.34 150.87C201.35 150.7 201.82 151.2 200.67 156C199.12 154.83 197.77 153.81 195.59 152.16C194.9 154.58 193.99 156.6 193.81 158.67C193.37 163.83 189.65 166.56 184.88 164.91C180.95 163.55 179.64 164.45 180.16 168.46C180.55 171.45 180.87 174.59 182.11 177.26C182.69 178.51 185.32 178.9 187.1 179.44C187.99 179.71 189.08 179.24 190.01 179.44C200.18 181.6 201.38 178.46 206.68 173.52C206.93 177.41 208.37 178.22 212.13 176.99C214.58 176.19 217.78 177.68 221.52 178.29C222.59 177.31 224.47 175.59 225.38 174.76C227.69 175.7 229.47 177.09 231.16 176.98C234.93 176.75 235.6 173.81 234.57 170.85C233.79 168.61 232.44 166.36 230.77 164.68C228.45 162.35 227.3 160.39 228.42 156.83C229.36 153.83 228.71 150.36 228.96 147.11C229.08 145.53 229.66 143.99 230.3 141.3C231.87 143.18 232.61 144.42 233.67 145.25C234.89 146.19 236.33 147.17 237.8 147.41C241.09 147.96 244.46 148.08 248.5 148.43C248.79 147.33 249.41 144.89 250.29 141.48C252.11 143.5 253.37 144.88 255.05 146.75C255.98 144.91 256.81 143.27 257.63 141.67C265.19 141.43 265.6 140.76 264.79 132.72C264.53 130.14 265.13 127.46 265.35 124.79C272.17 120.79 274.75 122.44 276.94 132.37C277.26 133.83 277.32 135.34 277.5 136.83C277.8 139.28 277.88 142.76 281.42 141.32C283.37 140.53 284.83 137.43 285.55 135.08C286.17 133.07 285.69 130.58 285.21 128.41C284.37 124.57 286.57 123.22 289.59 122.72C292.98 122.16 294.33 124.27 294.67 127.34C294.74 127.96 295.18 128.54 295.63 129.53C304.8 122.7 295.28 117.28 294.58 111.44C301.45 105.73 310.67 105.19 314.15 109.96C318.4 108.96 322.48 107.78 326.64 107.06C332.22 106.1 333.55 107.66 333.23 113.18C333.15 114.56 334.25 116.8 335.4 117.31C338.51 118.69 340.5 120.12 339.72 124C339.52 125.02 341.02 127.39 341.61 127.35C343.17 127.23 345.23 126.55 346.08 125.36C350.32 119.43 352.66 119.87 356.85 125.71C360.13 130.28 359.87 133.61 356.61 137.53C356.1 138.14 356.15 139.22 355.98 140.1C355.7 141.51 355.45 142.93 355.05 145.1C356.64 147.26 358.96 146.36 361.68 144.7C363.96 143.31 366.61 142.52 369.09 141.47C369.25 141.92 369.42 142.37 369.58 142.83C367.72 143.65 365.9 144.55 364.01 145.28C359.69 146.95 359.83 150.97 359.4 154.47C359.3 155.32 361.43 156.37 362.41 157.45C363.37 158.51 364.89 159.69 364.91 160.85C364.99 164.46 364.48 168.09 364.18 171.87C367.11 171.23 368.87 170.85 370.98 170.39C370.8 172.06 370.69 173.03 370.55 174.34C373.44 174.84 376.36 175.34 379.27 175.84C380.18 173.95 380.73 172.18 381.78 170.79C382.75 169.5 384.25 168.6 385.52 167.53C386.19 169.03 386.87 170.53 387.85 172.72C391.72 172.84 390.87 169.02 391.13 166.06C394.37 164.63 397.41 163.26 400.05 166.94C400.33 167.33 401.28 167.41 401.88 167.35C408.15 166.66 413.99 165.15 417.08 158.78C417.71 157.48 418.43 156.22 419.29 154.61C417.65 154.17 415.8 154.21 414.92 153.31C413.52 151.88 412.37 149.93 411.87 148C411.41 146.23 411.93 144.19 412.03 142.02C416.56 144.56 417.59 141.08 419.38 137.25C420.78 134.24 423.93 132.04 425.6 130.23C424.29 128.11 421.07 125.27 421.5 123.15C422.64 117.5 427.86 116.79 433.37 116.5C433.37 120.36 433.37 124.03 433.37 128.11C437.25 126 442.09 127.48 445.08 122.24C446.46 119.82 452.06 119.8 456.09 118.59C456.09 120.46 455.69 122.48 456.21 124.23C456.67 125.79 458.15 127.06 459.97 129.53C461.25 123.62 464.59 119.61 459.14 115.44C455.83 112.92 456.48 108.67 458.64 105.4C460.37 102.78 462.69 100.78 466.61 101.88C468.44 102.39 470.7 101.34 471.72 101.17C472.68 105.59 473.64 110.05 474.56 114.29C478.43 113.79 481.59 113.67 484.57 112.85C485.57 112.58 486.2 110.61 486.82 109.34C488.1 106.73 488.81 103.71 490.58 101.53C492.52 99.1499 495.58 100.34 495.78 103.46C495.94 105.83 495.75 108.49 494.8 110.6C492.14 116.52 493.02 119.72 499.42 122.75C493.21 130.56 490.51 141.83 477.34 140.87C477.34 143.44 476.91 145.52 477.43 147.34C478.49 151.08 478.76 154.08 476.15 157.75C472.26 163.23 472.77 163.58 465.97 165.72C466.33 167.59 464.74 170.21 468.8 170.38C470.14 170.43 471.51 171.33 472.69 172.1C472.95 172.27 472.5 174.22 472.34 174.23C470.82 174.29 469.29 174.14 467.78 173.96C467.15 173.89 466.55 173.61 465.41 173.26C465.56 176.07 462.04 178.87 466.51 180.98C471.38 174.59 482 176.07 486.17 181.49C490.8 175.28 496.74 176.45 503.02 178.22C504.61 178.67 506.67 177.45 508.93 176.9C509.4 178.82 510.41 180.81 514.51 179.07C516.46 178.24 520.2 179.64 522.15 181.23C527.05 185.23 531.48 185.95 534.65 182.28C538.27 178.09 537.82 169.85 533.2 167.09C529.65 164.97 529.77 162.72 530.47 159.34C531.13 156.2 530.75 152.85 531.04 149.61C531.19 147.89 531.8 146.21 532.46 143.45C534.05 145.35 534.81 146.57 535.86 147.44C536.94 148.34 538.71 149.8 539.48 149.46C543.79 147.51 546.67 149.85 549.85 152.06C553.78 154.78 555.78 153.95 557.44 149.35C558.11 147.5 558.87 145.67 559.57 143.87C567.43 143.3 567.84 142.65 566.94 135.01C566.64 132.45 567.26 129.78 567.47 127.03C573.93 122.89 575.68 123.93 578.98 133.71C579.65 135.71 580.81 137.56 581.97 139.94C577.34 147.6 580.65 153.23 590.91 153.61C599.08 153.92 603.47 151.14 602.98 145.43C602.77 142.93 601.37 140.4 600.07 138.15C598.3 135.07 597.02 132.63 600.3 129.38C602.32 127.38 602.8 124.17 600.56 121.18C598.83 118.85 597.74 116.05 595.55 111.92C601.78 110.87 606.84 109.75 611.96 109.25C614.95 108.96 616.77 110.67 615.57 114.01C614.44 117.14 615.42 118.75 618.52 120.16C620.1 120.88 620.86 123.48 621.89 125.3C622.69 126.72 623.33 128.23 624.05 129.7C625.52 128.9 627.52 128.46 628.38 127.23C632.02 121.98 635.11 122.62 639.05 127.8C643.07 133.11 641.24 136.57 637.94 140.85C636.83 142.29 636.3 145.43 637.14 146.82C638.68 149.39 641.28 148.4 643.67 146.97C646.03 145.56 648.69 144.67 651.22 143.54C651.39 143.91 651.55 144.28 651.72 144.66C648.77 146.2 645.82 147.73 644.19 148.58C643.35 151.16 643.08 152.52 642.48 153.71C641.13 156.38 640.36 158.51 644.39 159.64C645.54 159.96 646.92 161.99 646.96 163.28C647.07 166.73 646.52 170.2 646.19 174.21C649.13 173.34 650.72 172.87 652.88 172.23C652.8 173.98 652.75 175.03 652.75 175.08C656.2 177.29 659.09 179.62 662.38 181.02C663.68 181.57 667.19 180.39 667.4 179.46C668.38 175.28 671.03 173.88 675.1 173.86C674.29 171.81 673.64 170.18 672.94 168.42C676.14 167.18 679.45 166.57 681.91 164.79C686.47 161.49 686.18 158.02 681.5 155.18C678.53 153.38 678 152.06 681.21 149.82C682.51 148.91 682.94 146.77 683.77 145.18C682.31 144.97 680.84 144.76 679.38 144.56C678.9 144.49 678.43 144.45 676.95 144.29C677.51 140.57 678.2 136.98 678.53 133.36C678.65 132.03 678.4 130.17 677.55 129.33C674.87 126.68 671.82 124.4 668.83 121.9C673.69 119.25 676.75 120.75 682.99 125.56C687.87 129.32 683.6 134.96 686.23 138.85C686.68 138.77 687.12 138.68 687.57 138.6C687.57 137.61 687.15 136.18 687.65 135.72C689.36 134.12 691.32 131.84 693.31 131.71C696.82 131.49 696.06 134.53 695.6 136.85C695.16 139.09 694.74 141.33 694.31 143.57C694.77 143.69 695.22 143.81 695.68 143.93C696.26 142.68 696.51 141.01 697.48 140.27C698.91 139.19 701.88 137.73 702.39 138.24C706.21 142.06 712.81 139.72 715.94 145.11C714.99 145.82 713.79 146.7 712.59 147.59C712.65 147.89 712.71 148.19 712.78 148.49C716.07 148.25 719.36 148.02 724.21 147.67C725.24 145.81 726.8 142.27 729.03 139.23C730.46 137.28 732.94 136.1 734.86 134.47C735.37 134.04 735.98 133.13 735.85 132.62C734.74 128.28 737.7 127.98 740.33 128.66C747.53 130.51 753.96 127.35 760.7 126.2C762.15 125.95 763.92 125.59 765.11 126.18C772.61 129.86 772.56 129.94 778.31 124.34C778.72 123.94 779.38 123.81 780.75 124.22C778.79 127.22 776.83 130.22 775.07 132.92C775.32 133.63 775.33 133.88 775.43 133.92C780.05 135.82 784.11 137.98 783.22 144.23C782.54 148.96 782.56 153.69 779.2 157.73C775.51 162.17 772.31 167.01 768.72 171.93C769.23 172 770.46 171.97 771.56 172.35C773.65 173.08 776.61 173.45 777.55 174.99C781.12 180.83 786.57 182.26 792.66 182.66C797.12 182.95 798.06 181.36 797.57 176.94C797.06 172.39 795.39 167.13 801.6 164.67C800.48 161.65 799.46 158.9 797.96 154.85C800.28 155.85 801.11 156.21 801.94 156.57C803.53 157.26 806.44 158.67 806.53 158.52C808.06 155.76 810.41 152.72 810.2 149.92C809.96 146.83 809.25 142.8 805.34 141.12C804.67 140.83 804.27 139.94 802.74 138.15C805.86 137.56 808.04 137.16 810.52 136.69C810.42 136.26 810.1 135.07 809.89 133.86C809.16 129.79 812.45 126.87 816.19 128.73C825.44 133.34 835.39 134.57 845.42 135.78C847.8 136.07 850.43 136.75 852.33 138.11C858.28 142.38 863.55 139.67 868.94 137.14C869.96 136.66 870.95 136.1 872.28 135.41C871.69 134.63 871.11 134.08 870.8 133.41C869.84 131.33 867.72 128.54 868.39 127.26C869.42 125.3 872.34 124.25 874.58 123.03C878.74 120.76 883.65 119.37 886.97 116.25C889.6 113.78 891.16 110.67 895.39 110.34C896.91 110.22 898.31 108.46 898.8 108.11C901.44 112.33 904.02 116.45 906.62 120.63C910.74 118.11 914.33 115.92 916.43 114.65C916.91 109.58 917.04 105.77 917.77 102.07C917.97 101.06 919.87 99.9099 921.11 99.7599C921.93 99.6599 923.51 101.07 923.78 102.07C924.52 104.8 924.78 107.67 925.18 110.49C925.43 112.24 925.57 114 925.94 117.47C932.77 107.84 939.19 113.13 944.67 116.03C943.28 119.96 941.71 124.37 940.23 128.55C943.84 130.09 946.47 131.52 949.28 132.27C950.39 132.57 952.02 131.53 953.21 130.78C955.78 129.14 958 126.69 960.76 125.69C963.76 124.61 965.66 127.13 964.07 129.98C962.78 132.3 960.88 134.48 958.76 136.08C954.56 139.25 953.77 143.26 957.33 147.56C955.14 149.38 953.18 151.65 950.7 152.88C948.23 154.1 945.24 154.28 942.63 154.89C943.58 158.05 944.87 160.85 945.06 163.73C945.14 164.88 942.83 166.23 941.55 167.42C938.87 169.92 936.31 168.68 934.81 166.34C932.23 162.31 934.68 159.23 938.14 156.28C935 155.16 932.16 154.14 928.38 152.78C927.48 156.23 926.63 159.45 925.78 162.68C925.55 162.23 925.32 161.77 925.09 161.32C924.62 162.63 923.68 163.98 923.78 165.25C924.22 171.07 919.34 172.79 915.92 175.32C913.27 177.28 912.67 179.05 914.57 181.43C917.03 184.5 918.04 188.73 922.06 190.67C922.72 190.99 922.48 192.99 922.88 194.13C923.37 195.53 923.98 196.95 924.84 198.13C925 198.34 926.63 197.17 927.58 197.17C937.04 197.11 939.74 188.78 944.81 183.32C945.63 182.44 946.96 181.6 948.11 181.53C955.66 181.05 960.34 177.29 962.01 169.75C964.05 169.65 965.99 169.55 968.4 169.43C965.05 167.4 962.22 165.53 964.73 161.48C966.95 157.9 970.31 158.58 973.08 159.97C977.04 161.96 977.19 165.27 974.16 168.86C977.11 169.97 979.71 171.55 982.44 171.84C986.53 172.27 990.01 170.67 991.26 166.19C992.62 161.32 989.83 154.33 985.33 152.6C981.09 150.97 978.1 149.32 978.52 143.81C978.72 141.15 976.47 138.36 975.67 135.53C975.16 133.71 975.26 131.72 974.99 128.62C977.31 130.13 978.53 131.35 979.97 131.77C981.56 132.23 984.21 132.7 984.92 131.88C987.68 128.73 990.65 129.99 993.62 130.73C1000.94 132.55 1002.08 131.72 1002.12 124.25C1002.13 122.6 1002.12 120.95 1002.12 119.41C1009.74 116.72 1010.42 114.93 1006.5 108.4C1003.83 103.95 1003.96 98.3599 1006.94 96.5699C1009.4 95.0899 1011.73 94.5499 1013.61 97.8299C1016.78 103.37 1020.43 108.64 1023.55 114.19C1026.35 119.16 1028.21 120.11 1032.85 118.79C1033.07 115.45 1032.51 112.2 1033.72 109.9C1034.48 108.46 1038.59 107.26 1040 108.06C1041.79 109.07 1042.37 112.22 1043.45 114.4C1047.97 111.6 1048.72 107.29 1044.64 102.77C1043.31 101.3 1041.72 100.05 1040.18 98.7799C1037.64 96.6699 1035.71 94.8499 1037.68 90.8499C1039.11 87.9499 1038.59 84.4599 1035.17 82.1299C1032.62 80.3899 1030.47 78.0499 1028.06 75.9099C1031.59 70.1699 1036.9 67.8599 1042.34 65.8899C1045.18 64.8599 1047.36 65.8299 1047.5 69.2399C1047.66 73.1399 1049.43 74.6999 1053.46 74.7499C1054.96 74.7699 1056.52 76.9499 1057.9 78.2999C1059.19 79.5599 1060.26 81.0299 1061.43 82.4099C1062.7 80.9099 1064.09 79.4999 1065.21 77.8999C1066.35 76.2599 1067.03 73.1499 1068.25 72.9599C1070.5 72.6199 1073.17 73.6099 1075.38 74.6599C1082.22 77.9099 1081.82 83.1299 1079.33 89.1999C1078.74 90.6399 1079.59 93.6399 1080.83 94.6599C1083.05 96.4999 1085.28 95.3399 1087.14 93.0099C1089.11 90.5499 1091.59 88.4899 1093.84 86.2499C1094.23 86.6699 1094.62 87.0899 1095.01 87.5099C1093.61 88.7699 1092.25 90.0999 1090.79 91.2899C1086.98 94.3999 1087.87 98.4299 1088.77 102.32C1089 103.31 1090.57 104.88 1091.2 104.74C1096.93 103.43 1097.15 107.18 1097.19 110.82C1102.06 109.57 1106.85 108.34 1111.68 107.1C1110.31 114.23 1110.78 115.07 1118.34 119.37C1125.66 116 1129.23 111.15 1124.07 102.31C1127.07 101.39 1129.88 99.6699 1132.32 100.1C1133.9 100.37 1134.94 103.77 1136.46 106.14C1136.59 105.4 1136.51 104.19 1137.01 103.32C1137.82 101.9 1139.01 100.7 1140.05 99.4099C1140.83 100.48 1141.92 101.45 1142.32 102.65C1143.48 106.13 1144.36 109.7 1145.43 113.51C1140.01 115.72 1138.83 111.22 1136.64 108.53C1133.56 113.98 1136.83 119.26 1144.23 119.78C1143.59 122.83 1142.98 125.79 1142.25 129.27C1143.93 129.82 1145.7 130.39 1148.55 131.32C1147.49 125.93 1151.87 121.14 1146.96 116.61C1146.66 116.33 1148.62 112.2 1149.57 112.19C1154.49 112.11 1156.29 109.87 1155.86 105.25C1155.84 105.08 1156.35 104.86 1157.05 104.34C1160.16 106.67 1163.49 108.99 1166.62 111.56C1170.26 114.54 1174 115.34 1178.56 113.72C1180.28 113.11 1182.77 113.48 1184.5 114.28C1189.72 116.7 1191.7 116.01 1194.47 111.13C1196 108.45 1198.35 106.19 1200.55 103.95C1201.2 103.29 1202.59 103.35 1204.79 102.8C1202.04 106.26 1200.18 108.61 1197.62 111.82C1200.79 111.63 1202.73 111.51 1205 111.38C1203.38 106.66 1205.24 105.41 1209.47 105.7C1211.37 105.83 1213.35 104.77 1215.75 104.13C1214.57 102 1213.88 100.75 1213.21 99.5499C1218.74 94.1299 1220.4 94.2099 1226.56 101.14C1225.47 96.4999 1224.67 93.0599 1223.81 89.3899C1222.87 89.3899 1221.14 89.3899 1219.41 89.3899C1219.47 88.4299 1219.34 86.7099 1219.62 86.6499C1221.26 86.2499 1222.99 86.2299 1225.19 86.0299C1226.11 79.6799 1230.93 77.3699 1236.97 75.1899C1242.36 73.2399 1247.96 69.8199 1251.54 65.4699C1255.7 60.4199 1260.02 61.4199 1264.84 62.0099C1267.65 62.3499 1270.42 62.9799 1273.56 63.5299C1274.57 64.2699 1276.05 65.3599 1277.54 66.4599C1278.44 64.7199 1279.26 62.9299 1280.25 61.2399C1280.81 60.2899 1281.67 59.5199 1282.39 58.6799C1282.75 58.9399 1283.11 59.1999 1283.46 59.4599C1283 61.0799 1282.46 62.6899 1282.11 64.3399C1281.95 65.0899 1281.94 65.9999 1282.21 66.6999C1282.62 67.7499 1283.33 68.6799 1283.92 69.6699C1282.6 70.0599 1281.29 70.4499 1280.21 70.7799C1283.23 72.9899 1287.45 74.8599 1289.69 78.0999C1291.44 80.6299 1296.77 83.1999 1292.49 88.1299C1291.85 87.2599 1291.25 86.4399 1290.66 85.6199C1290.35 85.6999 1290.04 85.7799 1289.72 85.8699C1289.98 87.6599 1290.24 89.4499 1290.51 91.2399C1293.18 90.3799 1296 94.1399 1298.73 90.7299C1300.13 88.9799 1302.31 87.8599 1304.14 86.4599C1304.43 86.8199 1304.72 87.1899 1305 87.5499C1303.64 88.7399 1302.28 89.9299 1300.17 91.7799C1308.21 94.8499 1305.45 101.96 1306.95 107.54C1307.93 111.18 1308.93 114.82 1309.96 118.57C1312.62 117 1313.95 116.01 1315.45 115.5C1315.73 115.4 1316.67 117.21 1317.81 118.89C1320.35 118.23 1323.58 117.63 1326.63 116.53C1330.69 115.06 1334.19 116.52 1335.85 120.51C1336.9 123.02 1338.35 125.36 1340.56 127.3C1340.09 129.41 1339.61 131.52 1339.14 133.63C1339.63 133.72 1340.13 133.8 1340.62 133.89C1342.34 131.76 1343.71 129.1 1345.88 127.66C1347.95 126.29 1350.86 126.19 1353.68 125.46C1353.95 126.48 1353.98 127.33 1354.38 127.97C1355.01 128.97 1355.87 129.83 1356.63 130.74C1357.36 129.64 1358.84 128.4 1358.67 127.48C1357.98 123.81 1361.5 119.25 1356.6 116.31C1356.55 116.28 1357.62 113.33 1358.73 112.63C1360.58 111.48 1363.36 111.55 1364.85 110.15C1365.99 109.08 1365.73 106.53 1366.25 103.8C1370.12 106.69 1373.46 108.99 1376.58 111.56C1380.21 114.55 1383.95 115.35 1388.51 113.76C1390.25 113.15 1392.73 113.49 1394.46 114.29C1399.7 116.72 1401.72 116.03 1404.45 111.2C1405.97 108.51 1408.32 106.25 1410.52 104.01C1411.18 103.33 1412.58 103.37 1414.85 102.75C1412.05 106.27 1410.19 108.61 1407.62 111.84C1410.78 111.66 1412.71 111.55 1415.01 111.42C1413.33 106.71 1415.37 106.17 1419.4 105.61C1425.09 104.81 1430.56 102.44 1436.41 100.66C1435.69 96.4499 1435.07 92.7799 1434.51 89.5099C1432.73 89.5099 1431.11 89.5099 1429.5 89.5099C1429.51 88.5599 1429.31 86.8499 1429.56 86.7799C1431.17 86.3199 1432.88 86.2299 1435.17 85.9399C1436.41 78.2799 1442.32 75.1299 1449.88 75.5499C1452.8 75.7099 1456.8 78.0199 1458.18 80.5199C1462.44 88.2399 1462.75 95.9999 1453.76 102.2C1455.73 102.78 1457.17 103.2 1458.85 103.69C1458.63 107.22 1459.57 109.66 1463.51 111.07C1465.18 111.67 1466.26 115.31 1466.53 117.68C1466.63 118.54 1463.69 120.04 1461.94 120.77C1455.9 123.27 1449.62 125.22 1443.73 128.02C1439.17 130.18 1437.18 136.86 1438.6 141.99C1439.03 143.54 1439.06 145.21 1439.44 148.07C1444.82 148.94 1450.6 149.75 1456.31 150.89C1457.94 151.21 1459.73 152.18 1460.82 153.4C1464.25 157.24 1472.22 158.67 1476.83 156.8C1478.9 155.96 1481.77 156.73 1484.18 157.24C1486.24 157.68 1488.16 158.8 1490.14 159.61C1490.14 165.61 1490.14 171.61 1490.14 177.61C1484.55 176.61 1478.97 175.62 1473.04 174.56C1472.96 175.78 1473.62 178.5 1472.55 179.81C1470.03 182.89 1471.73 183.93 1473.96 185.6C1474.85 186.27 1475.29 188.04 1475.26 189.3C1475.18 192.44 1475.76 194 1479.52 193.15C1480.96 192.83 1483.81 193.91 1484.3 195.07C1488.11 204.08 1482.7 211.79 1472.6 211C1474.59 214.97 1476.39 218.56 1478.2 222.16C1478.66 222.23 1479.11 222.29 1479.57 222.36C1481.14 216.77 1483.73 212.57 1490.15 213.61C1490.15 218.28 1490.15 222.94 1490.15 227.61C1018.48 227.61 546.82 227.61 75.15 227.61C73.09 224.61 71.03 221.61 68.6 218.1C68.43 221.69 68.29 224.65 68.15 227.61C45.48 227.61 22.82 227.61 0.15 227.61C0 222.82 0 218.19 0 213.55ZM1255.85 112.31C1258.87 107.29 1254.82 100.92 1248.57 98.3499C1247.1 99.5199 1245.61 100.7 1243.69 102.24C1245.71 102.8 1247.19 103.21 1248.94 103.69C1247.01 110.17 1252.94 109.85 1255.85 112.31Z" fill="white"/>
<path d="M1490 213.55C1483.58 212.51 1481 216.71 1479.42 222.3C1478.96 222.23 1478.51 222.17 1478.05 222.1C1476.25 218.51 1474.45 214.91 1472.45 210.94C1482.55 211.73 1487.96 204.03 1484.15 195.01C1483.66 193.85 1480.8 192.77 1479.37 193.09C1475.61 193.94 1475.03 192.38 1475.11 189.24C1475.14 187.99 1474.69 186.21 1473.81 185.54C1471.59 183.86 1469.89 182.82 1472.4 179.75C1473.47 178.44 1472.81 175.72 1472.89 174.5C1478.82 175.56 1484.41 176.55 1489.99 177.55C1490 189.55 1490 201.55 1490 213.55Z" fill="white"/>
<path d="M68 227.55C68.14 224.59 68.28 221.63 68.45 218.04C70.87 221.56 72.93 224.56 75 227.55C72.67 227.55 70.33 227.55 68 227.55Z" fill="white"/>
<path d="M0 183.55C2.76 184.14 5.53 184.73 8.29 185.32C8.21 186.06 8.14 186.81 8.06 187.55C5.37 187.55 2.69 187.55 0 187.55C0 186.21 0 184.88 0 183.55Z" fill="white"/>
<path d="M0 146.55C5.2 146.46 4.96 150.58 6.44 155.12C3.61 153.11 1.8 151.83 0 150.55C0 149.21 0 147.88 0 146.55Z" fill="white"/>
<path d="M384.27 96.0901C380.99 94.2301 378.2 92.6501 375.38 91.0401C372.37 97.5401 372.37 97.5401 366.45 93.3101C361.61 99.3701 358.99 90.0401 354.8 91.6001C352.86 97.6901 352.49 97.8701 347.46 93.7701C344.2 91.1201 340.98 89.0401 336.45 89.0501C333.98 89.0601 331.51 87.4601 329.18 85.5001C328.31 85.8901 327.26 86.0901 326.59 86.7001C323.58 89.4201 321.95 91.0501 318.78 85.7901C316.22 81.5301 310.34 79.2501 305 75.4201C305 72.6901 306.15 68.1801 304.67 64.8301C303.24 61.6201 299.09 59.6201 295.96 56.9401C299.06 52.3401 303.84 50.4301 307.25 51.9101C312.56 54.2101 317.5 50.4201 322.25 52.5601C329.16 55.6701 335.91 50.9001 342.79 52.4601C345.86 53.1601 349.09 53.2001 352.24 53.5601C352.55 53.6001 352.86 53.7801 353.12 53.9501C357.69 56.9901 357.69 56.9901 361.32 52.9601C360.91 54.2801 360.54 55.6001 360.09 56.9001C359.6 58.3001 359.04 59.6701 358.29 61.6401C359.96 62.3201 361.55 62.9601 363.14 63.6201C366.61 65.0601 366.78 67.4001 364.04 69.9701C363.25 70.7201 363.49 72.6201 363.41 74.0101C363.4 74.1901 364.45 74.3101 364.63 74.6501C367.84 80.8801 372.84 82.8401 379.84 83.1801C385.04 83.4701 386.69 89.4201 384.27 96.0901Z" fill="white"/>
<path d="M1232.82 19.55C1233.64 17.41 1234.18 15.09 1235.37 13.19C1236.6 11.23 1238.16 8.8 1240.12 8.11C1245.1 6.36 1250.38 5.45 1255.55 4.24C1255.84 4.17 1256.27 4.25 1256.48 4.44C1263.35 10.46 1262.19 3.59 1263.06 0C1263.48 0.08 1263.91 0.17 1264.33 0.25C1264.33 1.78 1264.47 3.32 1264.3 4.83C1263.89 8.58 1264.02 11.53 1269.26 10.65C1270.55 10.43 1272.6 11.31 1273.37 12.37C1274.25 13.58 1276.04 16.03 1272.41 16.7C1273.09 18.14 1273.47 19.9 1274.54 20.94C1275.7 22.08 1277.89 22.2 1278.95 23.38C1282.52 27.37 1286.55 26.2 1290.45 24.59C1295.99 22.3 1302.83 26.34 1302.76 32.44C1302.75 33.31 1300.28 34.87 1298.95 34.86C1296.62 34.85 1294.3 33.88 1291.31 33.14C1291.52 35 1291.6 35.88 1291.72 36.75C1292.18 40.15 1290.57 41.03 1287.61 40.03C1284.37 38.94 1281.18 37.73 1277.47 36.39C1273.84 37.95 1269.78 40.9 1264.73 37.9C1264.15 37.56 1261.86 38.82 1261.38 39.82C1259.31 44.2 1257.78 45.8 1253.52 41.24C1251.51 39.08 1246.82 39.52 1243.43 38.5C1240.14 37.51 1235.86 37.93 1234.84 33.17C1234.36 30.94 1233.77 28.74 1233.28 26.51C1232.77 24.19 1232.33 21.85 1231.86 19.52C1232.19 19.54 1232.51 19.55 1232.82 19.55Z" fill="white"/>
<path d="M1067.68 36.2501C1063.45 38.4201 1059.05 40.7601 1053.88 37.4701C1053.42 37.7801 1052.72 38.0101 1052.4 38.4901C1049.98 42.2601 1048.77 46.5101 1042.78 40.9901C1039.45 37.9201 1032.45 39.2101 1027.84 37.0001C1025.49 35.8701 1024.44 31.4401 1023.41 28.3001C1022.48 25.4501 1022.38 22.3201 1022.61 19.8201C1023.5 17.5201 1024.01 14.9501 1025.39 13.0001C1026.9 10.8801 1028.95 8.57009 1031.26 7.75009C1034.75 6.51009 1038.69 6.58009 1042.4 5.89009C1043.58 5.67009 1044.64 4.79009 1045.76 4.21009C1051.17 8.10009 1051.41 7.97009 1054.53 0.0900879C1054.44 1.74009 1054.23 3.39009 1054.28 5.04009C1054.37 7.82009 1053.24 11.1901 1058.5 10.6701C1064.06 10.1201 1064.66 11.6601 1062.44 16.9601C1062.05 17.8901 1063.26 19.9701 1064.3 20.8901C1065.65 22.0901 1067.95 22.2801 1069.14 23.5601C1072.62 27.2801 1076.57 26.1301 1080.26 24.7401C1085.39 22.8201 1090.88 25.0401 1092.34 30.3101C1092.7 31.6301 1093.05 33.6801 1092.37 34.3501C1091.6 35.1101 1089.65 34.9101 1088.25 34.7301C1086.08 34.4601 1083.95 33.8801 1081.58 33.3801C1082 41.1601 1081.68 41.4201 1075 39.1601C1072.7 38.3901 1070.48 37.3801 1067.68 36.2501Z" fill="white"/>
<path d="M666.53 98.23C663.21 96.4 660.29 94.78 657.31 93.13C654.55 100.22 651.38 99.58 645.4 92.41C639.69 91.13 635.31 90.15 630.93 89.17C630.98 88.63 631.03 88.09 631.07 87.55C630.08 88.09 628.89 88.43 628.14 89.2C625.22 92.24 623.71 92.88 621.14 88.16C619.22 84.62 614.93 81.52 611.01 80.11C604.72 77.84 607.11 73.62 607.42 69.79C607.64 66.96 608.41 64.17 608.69 62.69C610.88 60.37 612.19 58.45 613.98 57.25C616.04 55.87 618.51 54.34 620.83 54.3C625.29 54.23 629.77 55.16 634.24 55.69C634.55 55.73 635 55.83 635.12 56.05C638.91 63.07 640.69 58.16 642.56 53.74C642.92 54.18 643.27 54.63 643.63 55.07C643.04 56.67 642.5 58.3 641.84 59.87C640.66 62.65 640.14 64.69 644.25 65.64C648.91 66.72 649.01 68.4 645.37 72.13C644.98 72.53 644.75 73.46 644.94 73.98C645.28 74.95 645.96 75.8 646.52 76.69C650 82.31 654.25 85.51 661.67 85.22C666.58 85.02 668.68 91.34 666.53 98.23Z" fill="white"/>
<path d="M779.69 112.57C776.29 107.25 775.32 101.89 778.54 99.57C781.68 97.31 784.11 91.83 790.06 95.61C789.01 91.47 788.54 87.29 793.78 87.36C796.07 87.39 799.42 89.6 800.38 91.69C803.16 97.76 796.79 97.61 793.23 100.04C795.13 101.5 796.73 102.72 798.29 103.92C797.96 106.78 797.64 109.62 797.23 113.24C799.13 113.24 800.73 113.51 802.19 113.19C805.75 112.39 807.01 114.08 806.09 117.08C804.82 121.25 803.15 125.34 801.27 129.27C799.97 131.99 790.6 134.7 788.02 133.43C787.5 133.17 786.74 132.42 786.82 132.04C788.04 126.02 783.53 118.45 791.63 114.19C792.36 113.81 792.32 111.97 792.64 110.8C789.55 110.15 786.48 109.13 783.37 109.03C782.26 109.01 781.07 111.17 779.69 112.57Z" fill="white"/>
<path d="M1220.7 70.48C1219.79 69.23 1218.49 67.45 1217.03 65.45C1220.12 61.27 1224.84 60.17 1229.17 61.24C1231.43 61.8 1233.17 65.61 1234.44 68.29C1234.82 69.08 1233.06 71.4 1231.79 72.35C1229.22 74.27 1227.38 78.15 1223.03 76.31C1222.78 76.21 1222.19 76.74 1221.84 77.07C1216.91 81.77 1216.68 81.75 1211.33 74.96C1214.39 73.49 1217.2 72.15 1220.7 70.48Z" fill="white"/>
<path d="M406.22 130.59C404.32 128.1 401.61 126.1 401.26 123.75C400.68 119.83 404.88 117.53 414.03 116.43C413.81 118.9 413.56 121.07 413.44 123.25C413.32 125.6 413.52 127.98 413.22 130.29C412.9 132.74 412.33 135.21 411.37 137.46C411.24 137.76 407.14 137.29 406.75 136.38C405.92 134.42 406.29 131.93 406.22 130.59Z" fill="white"/>
<path d="M999.87 32.6399C996.96 31.0199 993.88 29.6099 991.3 27.5699C990.89 27.2499 992.4 23.7899 993.63 22.2599C997.21 17.7899 1002.21 17.0299 1005.56 20.5199C1007.15 22.1799 1009.14 24.8499 1008.81 26.6799C1008.12 30.5599 1004.65 32.1399 999.87 32.6399Z" fill="white"/>
<path d="M1209.84 32.6601C1206.93 31.0301 1203.86 29.6101 1201.29 27.5601C1200.88 27.2301 1202.41 23.7801 1203.64 22.2401C1207.22 17.7701 1212.22 17.0201 1215.58 20.5201C1217.17 22.1801 1219.37 25.2901 1218.78 26.6001C1217.35 29.7301 1215.47 33.9701 1209.84 32.6601Z" fill="white"/>
<path d="M285.23 51.2599C291.43 50.1299 292.18 55.2799 293.63 58.5099C295.29 62.2199 291.12 64.0499 289.08 64.1999C286.16 64.4199 282 63.3399 280.46 61.2699C279.4 59.8499 273.7 58.0399 277.96 54.5199C279.94 52.8899 282.78 52.3099 285.23 51.2599Z" fill="white"/>
<path d="M590.47 52.72C592.27 55.25 594.22 57.46 595.48 60.03C596 61.09 595.49 63.72 594.64 64.2C592.4 65.47 589.18 67.24 587.33 66.46C584.21 65.14 581.76 62.11 579.27 59.56C578.92 59.2 579.62 56.89 580.34 56.55C583.22 55.18 586.31 54.24 590.47 52.72Z" fill="white"/>
<path d="M1152.76 50.3801C1146.08 54.6201 1142.14 54.7601 1139.96 50.9701C1137.57 46.8301 1141.03 42.0401 1149.43 38.3401C1150.16 40.3101 1151.01 42.2201 1151.57 44.2201C1152.1 46.1201 1152.33 48.1001 1152.76 50.3801Z" fill="white"/>
<path d="M1359.63 37.9299C1360.83 42.2999 1361.9 46.1899 1362.93 49.9599C1356.92 54.5199 1352.58 54.8999 1350.17 51.2599C1347.58 47.3699 1350.55 42.8499 1359.63 37.9299Z" fill="white"/>
<path d="M716.01 118.42C715.64 122.73 715.32 126.44 714.89 131.45C711.19 130.89 707.73 130.68 704.54 129.64C703.73 129.37 703.08 126.2 703.57 124.77C705.37 119.42 710.29 119.23 716.01 118.42Z" fill="white"/>
<path d="M213.74 159.27C214.07 164.48 210.1 165.05 206.97 165.07C205.55 165.08 203.01 162.12 202.9 160.39C202.68 156.94 205.11 154.75 208.8 154.61C212.16 154.48 214.22 155.76 213.74 159.27Z" fill="white"/>
<path d="M491.37 156.7C495.15 156.81 496.04 158.92 495.83 162.33C495.53 167.01 491.73 167.33 488.82 167.36C487.52 167.37 485.11 164.02 485.1 162.18C485.08 158.67 487.72 156.72 491.37 156.7Z" fill="white"/>
<path d="M923.02 174.32C928.21 172.52 932.32 171.22 934.95 175.43C935.75 176.72 934.87 180.49 933.6 181.28C931.85 182.38 928.25 182.72 926.81 181.61C924.88 180.11 924.27 176.93 923.02 174.32Z" fill="white"/>
<path d="M1421.1 75.9999C1424.59 72.5099 1427.18 70.4199 1431.2 72.3399C1432.11 72.7699 1433.61 71.7599 1434.84 71.7499C1436.03 71.7499 1437.31 71.9999 1438.36 72.5299C1438.78 72.7399 1439.06 74.3499 1438.75 74.6699C1437.91 75.5199 1436.58 76.6899 1435.68 76.5099C1433.12 75.9899 1431.8 76.5499 1430.63 79.0299C1430.24 79.8699 1427.38 80.2199 1426.02 79.7499C1424.28 79.1199 1422.91 77.4499 1421.1 75.9999Z" fill="white"/>
<path d="M487.47 169.54C488.65 169.33 490.51 168.56 490.87 169C491.82 170.18 492.12 171.88 492.67 173.37C491.25 173.74 489.85 174.27 488.41 174.41C487.39 174.51 486.13 173.59 485.3 173.93C479.22 176.4 479.14 176.41 476.67 168.03C480.54 168.34 483.88 168.6 487.22 168.86C487.31 169.09 487.39 169.31 487.47 169.54Z" fill="white"/>
<path d="M119.06 97.9299C119.84 99.3299 121.69 101.15 121.68 102.97C121.67 106.54 119.09 109.05 115.56 108.5C113.86 108.23 111.36 105.49 111.32 103.81C111.25 100.35 113.92 98.4099 119.06 97.9299Z" fill="white"/>
<path d="M400.72 99.5799C401.81 101.36 403.73 103.11 403.81 104.93C403.96 108.53 401.4 111.08 397.88 110.67C396.15 110.47 393.15 107.26 393.46 106.27C394.25 103.73 396.58 101.67 398.29 99.4199C399.1 99.4799 399.91 99.5299 400.72 99.5799Z" fill="white"/>
<path d="M99.18 97.99C99.92 99.39 101.72 101.25 101.68 103.06C101.6 106.61 99 109.11 95.47 108.49C93.78 108.19 91.34 105.39 91.33 103.72C91.33 100.27 93.99 98.33 99.18 97.99Z" fill="white"/>
<path d="M880.78 76.6699C882.22 78.4799 884.68 80.1899 884.87 82.1199C885.22 85.6499 882.23 87.1499 878.99 87.3899C875.83 87.6299 873.93 85.9899 873.83 82.7799C873.7 78.8399 876.63 78.0699 880.78 76.6699Z" fill="white"/>
<path d="M1354.96 113.55C1350.31 114.44 1346.88 111.72 1346.56 107.08C1346.45 105.48 1346.13 103.74 1346.6 102.29C1346.98 101.15 1348.29 100.02 1349.45 99.55C1350.15 99.27 1352.08 100.07 1352.24 100.7C1353.33 104.93 1354.09 109.26 1354.96 113.55Z" fill="white"/>
<path d="M1347.59 64.5999C1344.97 66.4199 1343.05 68.6199 1342.03 68.2599C1340.09 67.5799 1338.66 65.4399 1337.02 63.8999C1338.79 62.2399 1340.56 60.5699 1342.34 58.9099C1343.8 60.4899 1345.26 62.0799 1347.59 64.5999Z" fill="white"/>
<path d="M1137.86 64.2299C1134.99 66.2499 1133.2 68.4799 1131.85 68.2299C1130.06 67.9099 1128.61 65.6699 1127.02 64.2499C1128.67 62.4799 1130.08 60.1599 1132.11 59.2299C1132.88 58.8799 1135.12 61.7699 1137.86 64.2299Z" fill="white"/>
<path d="M1204.29 42.4601C1202.25 45.7901 1204.27 51.7201 1197.87 50.4201C1196.59 50.1601 1194.85 46.4601 1195.24 44.7901C1196.34 39.9901 1200 40.9801 1204.29 42.4601Z" fill="white"/>
<path d="M995.14 46.16C992.12 48.34 990.46 50.38 988.64 50.55C987.48 50.65 985.24 48.1 984.96 46.49C984.47 43.6 986.17 41 989.44 41.44C991.03 41.65 992.38 43.77 995.14 46.16Z" fill="white"/>
<path d="M1334.21 103.17C1337.75 100.44 1340.95 97.22 1344.24 101.71C1345.04 102.8 1343.77 107.15 1342.45 107.74C1338.46 109.53 1336.63 105.8 1334.21 103.17Z" fill="white"/>
<path d="M571 81.4001C569.02 78.4301 566.92 76.5601 567.27 75.5501C567.95 73.6001 569.85 71.8801 571.65 70.6801C572.03 70.4201 575.43 73.0901 575.25 73.8901C574.74 76.0801 573.05 77.9901 571 81.4001Z" fill="white"/>
<path d="M289.11 66.4099C291.2 69.0799 293.38 70.8999 293.06 71.6499C292.15 73.7499 290.21 75.4099 288.68 77.2399C287.44 75.9499 285.09 74.5299 285.21 73.3799C285.43 71.4099 287.2 69.6099 289.11 66.4099Z" fill="white"/>
<path d="M269.17 79.1999C267.08 76.3899 264.92 74.6599 265.21 73.6299C265.78 71.6699 267.54 69.8099 269.27 68.5799C269.71 68.2699 273.24 70.7499 273.09 71.4899C272.64 73.7099 271.07 75.7099 269.17 79.1999Z" fill="white"/>
<path d="M1215.63 80.5401C1212.92 83.1301 1211.2 84.7801 1209.48 86.4301C1208.13 84.8501 1205.78 83.3101 1205.72 81.6901C1205.67 80.3501 1208.14 78.2601 1209.86 77.7501C1211.07 77.4001 1212.9 79.1401 1215.63 80.5401Z" fill="white"/>
<path d="M758.19 69.8499C751.67 59.9299 751.67 59.9299 746.43 59.6999C746.39 59.2499 746.35 58.8099 746.31 58.3599C749.28 58.2499 752.87 57.0399 755.09 58.2899C759.1 60.5399 761.38 64.5099 758.19 69.8499Z" fill="white"/>
<path d="M395.89 133.07C392.82 135.35 391.04 137.69 389.41 137.58C387.95 137.49 386.67 134.69 385.31 133.09C387.01 131.81 388.56 130 390.48 129.46C391.46 129.18 393.09 131.12 395.89 133.07Z" fill="white"/>
<path d="M371.13 166.07C374.38 164.71 378.02 162.7 379.85 167.69C380.28 168.85 377.88 171.06 376.78 172.78C374.57 171.17 372.36 169.55 370.15 167.94C370.48 167.31 370.81 166.69 371.13 166.07Z" fill="white"/>
<path d="M716.81 131.24C718.93 133.38 720.2 134.66 721.46 135.94C720.24 137.09 719.07 139.06 717.77 139.15C716.55 139.24 714.46 137.54 714.11 136.26C713.82 135.18 715.47 133.57 716.81 131.24Z" fill="white"/>
<path d="M1176.63 89.9299C1181.85 92.5399 1181.72 99.3099 1177.19 102.65C1177.03 98.8799 1176.83 94.4899 1176.63 89.9299Z" fill="white"/>
<path d="M1385.89 103.19C1390.49 98.7901 1386.03 94.2601 1385.85 89.6101C1391.86 92.4101 1391.83 98.9201 1385.89 103.19Z" fill="white"/>
<path d="M756.29 100.69C758.01 103.23 759.72 105.77 761.44 108.32C761.24 108.75 761.05 109.17 760.85 109.6C758.65 108.65 756.22 108 754.36 106.59C753.59 106.01 754.02 103.83 753.9 102.37C754.69 101.82 755.49 101.25 756.29 100.69Z" fill="white"/>
<path d="M1194.53 99.96C1196.66 98.39 1198.77 96.78 1200.99 95.34C1201.08 95.28 1202.13 96.68 1202.74 97.41C1200.65 99.08 1198.56 100.75 1196.47 102.42C1195.82 101.6 1195.17 100.78 1194.53 99.96Z" fill="white"/>
<path d="M1404.54 99.85C1406.7 98.33 1408.85 96.78 1411.09 95.38C1411.16 95.34 1412.69 97.39 1412.65 97.43C1410.62 99.15 1408.49 100.77 1406.37 102.39C1405.76 101.53 1405.15 100.69 1404.54 99.85Z" fill="white"/>
<path d="M19.03 182.84C22.38 183.81 25.31 184.65 29.14 185.75C22.72 189.21 19.83 188.4 19.03 182.84Z" fill="white"/>
<path d="M720.54 120.86C721.67 122.86 722.8 124.86 723.93 126.87C722.58 127.16 720.17 127.93 720.06 127.68C719.24 125.81 718.87 123.74 718.36 121.73C719.09 121.44 719.82 121.15 720.54 120.86Z" fill="white"/>
<path d="M1255.85 112.31C1252.94 109.85 1247.01 110.17 1248.94 103.69C1247.19 103.21 1245.71 102.8 1243.69 102.24C1245.62 100.71 1247.11 99.5201 1248.57 98.3501C1254.83 100.91 1258.87 107.29 1255.85 112.31Z" fill="white"/>
</g>
<defs>
<clipPath id="clip0_401_5590">
<rect width="1490" height="227.55" fill="white"/>
</clipPath>
</defs>
</svg>
