<svg width="1490" height="203" viewBox="0 0 1490 203" fill="none" xmlns="http://www.w3.org/2000/svg">
<g clip-path="url(#clip0_401_5514)">
<path d="M0 67C0 55.67 0 44.33 0 33C2.56 30.68 5.12 28.36 7.85 25.88C5.94 21.89 0.75 19.57 0.93 14.16C0.93 14.12 0.32 14.05 0 14C0 9.33 0 4.66 0 0C496.67 0 993.33 0 1490 0C1490 13.33 1490 26.66 1490 39.99C1487.53 39.41 1485.06 38.82 1482.59 38.24C1482.69 37.79 1482.79 37.34 1482.89 36.9C1480.02 37.62 1477.07 38.13 1474.3 39.13C1472.88 39.64 1471.4 40.76 1470.59 42.02C1468.3 45.59 1466.37 49.39 1464.25 53.07C1462.7 55.76 1462.36 57.98 1465.84 59.52C1467.09 60.08 1468.03 61.32 1469.12 62.26C1467.9 63.24 1466.83 64.6 1465.44 65.14C1461.93 66.51 1461.31 64.49 1461.07 61.39C1460.67 56.26 1454.54 51.24 1450.08 51.95C1442.61 53.14 1439.5 56.97 1440.63 63.32C1442.75 63.32 1444.83 63.32 1447.54 63.32C1442.45 70.76 1434.33 70.54 1428.51 74.21C1428.19 71.07 1427.91 68.41 1427.64 65.75C1427.21 65.67 1426.78 65.59 1426.35 65.51C1424.31 68.38 1422.26 71.24 1419.65 74.9C1420.99 78.44 1418.27 79 1414.26 78.21C1414.49 79.65 1414.65 80.71 1414.93 82.46C1408.78 82.46 1402.96 82.46 1397.63 82.46C1398.03 82.97 1398.97 84.2 1400.86 86.66C1394.81 89.37 1388.74 90.93 1384.18 94.45C1379.24 98.26 1373.35 99.35 1368.29 102.43C1367 103.22 1365.8 104.17 1364.57 105.04C1364.24 104.71 1363.91 104.39 1363.58 104.06C1365.62 101.27 1367.66 98.48 1370.43 94.68C1359.87 94.98 1360.75 86.91 1359.32 81.25C1360.67 78.4 1362.06 75.48 1363.73 71.97C1361.37 71.97 1359.84 71.97 1358.86 71.97C1358.5 73.88 1358.22 75.36 1357.93 76.85C1356.45 76.36 1354.97 75.87 1353.29 75.32C1350.27 82.63 1342.7 80.8 1336.96 82.15C1332.91 83.1 1330.95 84.03 1332.19 88.3C1332.92 90.84 1333.06 93.55 1333.54 96.65C1333.88 96.84 1335.3 97.53 1336.54 98.45C1336.73 98.59 1336.05 100.5 1335.86 100.48C1333.96 100.34 1332.08 99.96 1330.16 99.65C1328.04 106.2 1327.8 108.23 1328.86 110.87C1327.83 111.17 1326.82 111.47 1325.18 111.96C1327.18 112.88 1328.4 113.45 1330.24 114.3C1328.73 115.65 1327.69 116.56 1327.6 116.65C1324.34 115.91 1322.17 115.46 1320.02 114.91C1319.12 114.68 1317.9 114.53 1317.44 113.89C1314.75 110.16 1311.29 111.17 1308.95 113.4C1305.41 116.78 1301.96 119.52 1296.86 120.01C1295.39 120.15 1294.08 122.07 1292.57 123.28C1297.5 126.43 1296.07 132.97 1292.97 136.17C1295.26 138.69 1297.55 141.22 1299.21 143.06C1298.85 145.18 1298.72 146.68 1298.32 148.1C1297.65 150.43 1297.26 153.05 1295.9 154.94C1293.97 157.63 1289.03 157.75 1289.27 162.56C1289.28 162.85 1287.88 163.17 1287.17 163.54C1284.59 164.88 1282.02 166.24 1278.66 168.01C1278.64 168 1276.79 167.84 1276.06 166.85C1273.5 163.37 1264.42 168.65 1266.88 159.46C1264.52 159.66 1262.75 159.87 1260.98 159.94C1256.82 160.12 1253.07 160.31 1249.33 163.39C1247.26 165.1 1241.98 164.88 1239.27 163.43C1233.6 160.39 1234.73 153.83 1240.66 150.75C1241.79 150.16 1242.29 148.22 1242.91 146.83C1243.42 145.69 1243.29 143.97 1244.1 143.32C1251.04 137.74 1252.23 130.51 1249.51 121.51C1248.17 123.2 1246.83 124.88 1245.37 126.73C1244.36 126.13 1243.27 125.49 1241.93 124.7C1241.52 126.03 1241.2 127.04 1240.9 128.01C1240.32 128.01 1239.97 128.07 1239.66 128C1234.03 126.67 1228.33 123.07 1222.95 128.69C1222.63 129.02 1221.72 128.76 1221.1 128.82C1216.82 129.26 1212.54 129.71 1207.9 130.2C1208.69 133.57 1206.88 135.42 1203.28 136.21C1200.56 136.8 1197.99 138.13 1195.26 138.7C1188.27 140.16 1188.25 140.07 1188.46 133.21C1188.47 132.92 1188.2 132.63 1188.42 133.08C1184.59 131.16 1180.83 130.13 1178.32 127.76C1175.68 125.27 1176.3 124.95 1172.81 126.53C1171.79 126.99 1168.9 125.96 1168.75 125.21C1167.92 121.24 1167.57 117.16 1167.36 113.1C1167.33 112.46 1168.82 111.43 1169.77 111.17C1170.47 110.98 1171.77 112.29 1172.22 112C1177.2 108.85 1178.9 113.58 1179.94 116.09C1181.52 119.87 1183.7 121.88 1187.49 121.91C1191.97 121.96 1190.47 118.03 1191.15 115.63C1191.86 113.11 1192.41 110.55 1193.14 107.54C1192.2 106.46 1190.65 104.66 1188.8 102.52C1187.41 103.79 1186.15 105.53 1184.46 106.29C1182.98 106.95 1180.96 106.74 1179.26 106.47C1177.78 106.24 1176.44 105.18 1174.96 104.84C1170.75 103.89 1166.49 102.45 1162.27 102.53C1159.7 102.58 1156.33 104.51 1154.88 106.65C1153.36 108.9 1153.41 112.39 1157.7 113.46C1160.35 114.12 1160.83 115.98 1159.41 118.48C1158.45 120.16 1158.38 122.42 1157.24 123.9C1155.17 126.57 1156.86 132.96 1149.96 131.05C1154.66 132.67 1154.41 136.52 1155.06 140.01C1156.14 145.79 1155.97 146.08 1150.97 145.77C1149.15 149.73 1147.74 153.59 1145.66 157.04C1144.52 158.93 1142.25 160.15 1140.49 161.67C1139.35 159.26 1137.23 156.83 1137.29 154.46C1137.39 150.67 1139.12 146.95 1139.79 143.14C1140.13 141.17 1139.65 139.05 1139.55 137.22C1137.35 138.14 1136 138.7 1134.66 139.26C1134.61 137.65 1134 135.76 1134.63 134.48C1135.92 131.88 1137.88 129.61 1139.77 126.92C1138.67 126.08 1137.4 124.32 1136.06 124.26C1131.94 124.07 1127.79 124.54 1124.15 124.72C1124.15 126.81 1124.94 129.41 1123.98 130.77C1122.27 133.2 1119.5 134.88 1116.03 137.86C1119.48 138.4 1121.25 138.5 1122.88 139.02C1123.55 139.24 1124.44 140.45 1124.33 141.04C1124.19 141.75 1123 142.89 1122.44 142.8C1119.36 142.26 1116.34 141.4 1112.54 140.46C1111.62 141.24 1109.9 142.71 1108.27 144.1C1101.48 140.57 1099.73 141.46 1096.14 150C1098.85 151.48 1100.2 156.45 1097.89 159.17C1094.94 162.63 1091.29 165.53 1087.73 168.41C1087.16 168.87 1085.23 168.25 1084.42 167.55C1084.02 167.21 1084.41 165.35 1084.99 164.58C1085.61 163.75 1086.86 163.39 1087.94 162.77C1084.83 156.07 1092.3 154.91 1094.47 150.21C1090.18 150.3 1086.77 149.54 1085.92 144.93C1085.86 144.58 1083.27 144.22 1082.15 144.65C1080.1 145.42 1078.26 146.77 1076.37 147.86C1075.7 146.95 1075.46 146.49 1075.11 146.17C1073.9 145.08 1072.66 144.03 1071.43 142.97C1070.63 144.17 1069.53 145.27 1069.1 146.59C1068.01 149.92 1067.22 153.34 1066.19 157.16C1063.88 157.33 1059.68 158.64 1058.91 157.55C1053.55 149.91 1051.36 156.7 1048.23 159.44C1047.66 159.94 1047.01 160.33 1046.4 160.78C1046.41 160.29 1046.42 159.79 1046.43 159.3C1044 158.79 1041.37 157.42 1039.18 157.93C1032.87 159.4 1029.38 157.05 1029.77 150.61C1029.01 150.42 1028.2 149.96 1027.44 150.05C1021.18 150.78 1018 146 1014.08 142.6C1013.71 142.28 1014.07 141.11 1014.09 140.34C1017.88 140.71 1017.89 136.31 1020.56 135.23C1027.19 132.55 1033.72 132.17 1040.83 136.26C1040.83 130.85 1041.32 125.74 1040.54 120.83C1040.3 119.31 1036.31 117.01 1034.51 117.37C1029.75 118.33 1025.11 120.27 1020.68 122.37C1016.89 124.16 1013.8 127.63 1008.9 125.24C1007.87 124.74 1005.54 125.33 1004.72 126.24C1002.23 129.02 996.02 128.22 996.87 134.28C996.92 134.64 995.75 135.35 995.04 135.6C991.92 136.68 988.82 137.91 985.61 138.6C978.44 140.16 978.42 140.04 978.47 133.05C978.47 132.77 978.17 132.49 978.01 132.21C974.84 131.44 972.3 129.87 969.69 128.43C966.25 126.52 961.62 125.53 959.52 122.67C956 117.87 951.55 117.7 946.66 117.15C942.36 116.67 941.05 118.74 941.86 122.38C942.56 125.53 941.85 127.4 938.76 128.61C934.11 130.44 929.64 132.57 927.53 137.71C927.21 138.49 925.59 138.73 924.57 139.21C924.34 138.03 923.63 136.68 923.98 135.69C924.73 133.52 926.01 131.53 927.35 128.94C919.41 130.24 916 135.99 912.05 140.75C910.12 143.08 909.58 146.52 908.22 149.37C907.73 150.4 906.89 151.56 905.91 152C901.98 153.76 897.94 155.26 894.73 156.54C892.1 155.69 890.06 155.03 888.03 154.38C887.89 154.83 887.74 155.27 887.6 155.72C892.56 158.75 892.74 159.69 889.41 165.09C884.71 163.99 880.58 162.47 883.01 156.53C880.69 154.82 878.8 153.14 876.64 151.95C875.19 151.15 873.29 150.56 871.69 150.74C867.81 151.18 863.98 152.16 860.12 152.86C857.31 153.37 855.39 154.38 856.36 157.82C856.7 159.03 856.52 160.39 856.57 161.69C855.17 161.49 853.63 161.59 852.4 161.02C848.89 159.37 850.01 157.7 852.24 155.45C855.72 151.93 855.59 144.51 852.43 141.81C846.9 137.08 842.65 137.15 838.61 141.91C839.88 143.34 841.14 144.76 842.4 146.17C842 146.78 841.6 147.39 841.19 148C835.13 145.27 829.08 142.53 825.71 141.01C827 139.24 828.51 137.16 830.03 135.07C829.52 134.35 829.02 133.62 828.51 132.9C823.05 131.56 817.12 136.66 811.66 132.48C807.05 136.57 806.45 130.78 804.44 128.99C802.17 126.97 800.48 124.3 799.15 122.65C798.42 123.34 796.77 125.77 796 125.51C791.25 123.92 786.81 121.39 782.05 119.84C776.97 118.18 772.03 116.47 767.73 113.19C767.16 112.76 766.07 113.09 765.29 112.83C764.37 112.52 763.53 111.96 762.65 111.5C762.72 111.21 762.79 110.91 762.86 110.62C766.03 110.41 769.2 110.19 773.39 109.91C770.2 104.79 770.02 101.23 774.18 96.64C777.57 92.9 782.34 94.25 785.56 90.9C784.66 89.62 783.85 88.45 783.2 87.53C781.51 88.5 780.13 89.3 778.74 90.11C778.33 88.82 777.92 87.54 777.46 86.08C773.84 86.46 770.55 86.35 768.05 82.53C766.28 79.83 763.38 77.68 760.61 75.87C756.08 72.91 751.24 70.43 746.04 67.46C745.23 71.5 741.66 75.26 745.4 80.09C747.59 82.92 745.27 84.35 742.82 84.96C741.7 85.24 740.35 84.63 738.89 84.39C738.31 86.43 737.8 88.18 737.55 89.05C733.63 86.8 729.94 84.69 726.08 82.47C726.34 82.2 727.16 81.34 728.02 80.44C727.22 79.49 726.65 78.14 725.71 77.8C718.79 75.33 711.87 72.79 704.78 70.89C702.55 70.29 699.81 71.57 698.21 71.84C697.19 73.57 696.41 74.76 695.77 76.02C694.95 77.65 693.17 80.34 693.66 80.86C698.25 85.8 693.96 89.48 691.25 91.67C686.83 95.24 686.75 98.17 689.95 101.81C688.88 103.28 688.22 104.85 687.04 105.64C685.47 106.69 683.54 107.53 681.69 107.7C680.61 107.8 678.94 106.71 678.31 105.68C675.88 101.73 667.32 100.54 663.99 103.76C661.41 106.25 658.59 108.49 655.86 110.83C653.52 112.84 651.47 114.78 655.15 117.52C656.02 118.17 656.37 119.5 656.96 120.52C655.84 121.07 654.76 121.96 653.59 122.09C650.05 122.5 648.89 121.23 649.92 117.42C651.22 112.62 647.3 106.33 643.21 105.61C636.06 104.34 632.39 106.56 631.43 112.62C633.27 113.23 635.1 113.84 636.92 114.44C636.89 115.15 636.85 115.86 636.82 116.57C630.19 117.33 623.56 118.08 616.95 118.84C617.7 115.73 618.32 113.18 619.11 109.91C612.5 111.66 610.49 119.97 603.38 118.15C602.91 119.06 602.13 120.86 601.98 120.81C596.95 119.09 590.75 120.43 586.86 115.23C587.29 116.54 587.72 117.86 588.63 120.65C575.59 122.19 563.13 123.66 550.66 125.13C550.56 124.81 550.47 124.49 550.37 124.17C553 122.38 555.63 120.59 558.55 118.59C546.69 109.87 554.21 102.89 560.19 95.7C558.38 95 557.04 94.49 556.06 94.11C555.14 95.81 554.41 97.17 553.68 98.52C552.58 97.55 551.48 96.57 550.6 95.8C548.6 96.7 546.59 98.42 544.73 98.28C538.12 97.78 531.72 95.53 524.93 95.93C521.41 96.14 517.83 95.4 512.55 94.94C514.33 97.34 515.02 98.83 516.18 99.69C517.4 100.6 519.06 100.9 520.53 101.47C520.46 101.9 520.38 102.32 520.31 102.75C518.92 103.2 517.52 103.65 516.09 104.12C523.3 110.15 523.31 110.43 516.29 114.28C516.79 115.83 517.3 117.42 517.66 118.57C509.91 120.22 503.95 112.04 495.4 116.38C488.86 119.7 479.48 115.68 474.93 123.87C474.8 125.41 475.28 127.84 474.39 128.55C472.09 130.38 469.21 132.53 466.51 132.59C461.38 132.71 460.4 136.52 458.76 139.64C456.97 143.03 450.96 144.97 449.76 141.76C446.46 132.96 442.4 139.11 438.5 140.26C438.2 140.35 437.86 140.27 437.24 140.27C436.03 136.86 434.14 134.7 429.71 135.26C428.22 135.45 426.2 132.72 424.75 131.04C424.36 130.59 424.82 128.7 425.47 128.16C429.34 124.93 433.29 121.76 437.4 118.84C440.5 116.64 445.95 105.47 445.29 101.78C445.18 101.16 444.82 100.16 444.44 100.09C439.68 99.21 434.89 98.46 430.11 97.68C426.45 103.5 421.66 99.03 417.75 98.43C414.8 97.98 412.19 95.31 409.29 98.27C407.38 100.21 405.69 102.37 403.24 105.2C401.97 105.2 398.18 106.17 397.37 105.03C394.11 100.44 389.43 102.3 385.8 101.78C384.46 103.51 382.99 104.6 381.38 105.39C378.72 106.69 375.76 107.5 373.35 109.13C372.17 109.93 371.94 112.13 371.28 113.7C372.83 114.22 374.36 115.09 375.94 115.19C379.52 115.42 383.12 115.26 387.3 115.26C381.94 126.15 379.18 128.36 372.63 128.12C375.04 129.85 377.45 131.58 379.85 133.31L379.69 133.12C378.24 135.62 376.23 137.98 378.73 141.08C379.02 141.44 378.1 143.15 377.38 143.87C376.02 145.22 374.4 146.3 372.56 147.74C374.27 148.88 375.02 149.38 375.39 149.62C373.97 151.32 372.87 153.31 371.19 154.48C368.99 156 366.37 156.96 363.82 157.84C363.63 157.91 362.56 155.44 361.52 153.43C360.65 154.35 359.48 155.04 359.26 155.96C359.01 156.98 359.63 158.21 360.09 160.4C358.73 159.21 357.95 158.87 357.83 158.37C356.82 154.09 354.97 152.46 350.98 155.72C350.36 156.23 349.01 156.18 348.12 155.94C345.57 155.26 343.09 154.35 340.37 153.46C340.1 155.93 339.91 157.64 339.66 159.91C338.72 159.14 337.94 158.84 337.83 158.37C336.79 154.11 335.33 153.37 330.85 155.49C327.36 157.14 322.47 156.54 318.39 155.85C316.85 155.59 315.83 152.25 314.44 150.12C312.87 151.33 311.17 152.56 309.55 153.89C306.15 156.68 302.09 156.88 298.99 154.49C296.9 152.88 295.09 149.22 295.31 146.66C295.66 142.47 299.11 141.84 303.33 142.1C307.57 142.36 312.1 141.4 316.16 140C318.6 139.16 320.08 135.65 322.52 134.72C328.08 132.6 327.34 129.36 325.09 125.22C320.7 125.3 317.31 124.03 318.19 118.94C309.71 114.09 302.61 118.33 295.16 121.07C295.97 122.49 296.65 123.71 297.04 124.38C295.65 126.05 294.77 127.43 293.57 128.45C292.72 129.18 291.47 129.65 290.36 129.76C289.98 129.8 288.88 128.01 289.08 127.7C292.9 121.93 286.88 124.74 285.29 123.41C285.82 122.61 286.34 121.81 286.87 121.02C286.66 120.78 286.46 120.53 286.25 120.29C284.58 121.38 282.91 122.47 280.97 123.74C276.24 117.24 270.74 125.03 264.64 123.41C266.62 122.31 267.95 121.57 269.29 120.83C269.1 120.43 268.91 120.04 268.72 119.64C266.83 120.43 264.98 121.38 263.03 121.96C261.78 122.33 260.05 122.67 259.1 122.1C255.63 120.02 253.33 121.7 251.53 123.14C252.47 125.83 253.19 127.89 254.08 130.46C256.17 131.36 258.99 132.58 261.48 133.66C263.13 132.29 264.55 131.12 266.56 129.46C266.75 139.85 266.06 142.4 262.49 143.21C259.38 143.91 255.63 145.14 253.08 144.04C250.55 142.95 249.15 139.23 247.21 136.59C246.56 137.92 246.05 139.32 245.25 140.52C242.04 145.32 232.78 146.7 230.98 142.2C228.21 135.3 222.3 132.62 217.27 129.48C217 122.85 220.04 119.63 226.08 119.23C225.96 119.66 225.83 120.09 225.71 120.52C227.45 121.03 229.19 121.53 230.93 122.03C232 124.45 232.98 126.92 234.17 129.28C234.64 130.21 235.44 131.09 236.3 131.69C240.59 134.65 243.9 132.81 246.72 129.3C247.92 127.81 248.96 126.19 250.71 123.75C249.94 123.5 248.87 123.16 247.25 122.64C250.83 120.28 253.4 118.59 256.17 116.77C255.17 115.59 254.36 114.63 253.53 113.69C249.12 112.22 250.44 108.46 250.16 105.34C251.85 102.06 252.8 98.36 255.56 95.38C253.85 95.73 252.15 96.07 250.44 96.42C249.75 95.33 249.12 94.34 248.19 92.87C243.79 99.86 237.08 92.68 231.65 96.53C234.57 101.01 237.35 105.35 240.24 109.61C240.46 109.94 241.45 109.76 242.08 109.81C244.91 114.17 249.24 113.96 253.63 113.62C252.57 115.66 253.03 119.68 248.73 117.61C244.74 115.69 241.01 114.75 237.81 120.2C237.67 118.16 237.6 117.07 237.52 115.82C235.68 116.57 234.24 117.15 232.65 117.8C233.32 118.56 234.1 119.43 235.44 120.93C233.42 121.48 232.09 121.84 230.77 122.2C229.77 120.22 229.26 117.37 227.65 116.46C224.55 114.69 220.87 113.77 217.31 113.1C216.66 112.98 215.48 115.73 214.44 117.3C206.24 113.72 198.55 114.66 192.53 121.75C192.53 123.31 193.15 125.8 192.43 126.28C188.1 129.17 183.44 131.56 178.96 134.23C178.07 134.76 177.52 135.83 176.77 136.61C175.36 138.09 174.1 140.5 172.46 140.8C169.56 141.33 166.54 140.67 165.63 136.7C165.42 135.78 162.88 134.42 162.16 134.78C159.86 135.91 157.64 137.5 155.89 139.38C152.8 142.71 148.01 141.32 147.33 139.4C144.8 132.3 141.53 135.12 137.78 137.6C137.14 138.02 136.26 138.08 135.21 138.39C133.83 134.78 131.83 132.69 127.49 133.09C125.94 133.23 123.74 130.63 122.64 128.8C122.28 128.21 124.47 126.07 125.52 124.65C126.45 123.39 127.41 122.15 128.01 121.37C126.86 119.67 125.87 118.6 125.43 117.34C125.29 116.95 126.93 115.34 127.29 115.48C128.88 116.1 130.3 117.15 132.08 118.22C134.34 116.5 137.8 114.99 139.41 112.35C141.42 109.06 142.12 104.89 142.9 101C143.11 99.97 141.76 97.81 140.71 97.48C137.45 96.46 134 95.58 130.63 95.58C127.44 95.58 123.7 95.91 121.18 97.58C116.34 100.79 106 100.91 101.2 96.83C98.71 101.02 88.98 101.33 82.06 97.34C82.73 95.42 83.41 93.47 83.89 92.08C81.99 90.48 80.57 89.28 79.14 88.08C80.41 86.88 81.51 85 82.99 84.62C87.36 83.5 91.88 82.99 96.33 82.23C97.3 82.07 98.27 81.89 99.25 81.71C99.25 81.28 99.26 80.85 99.26 80.42C95.02 81.04 90.58 81.11 89.94 76.03C89.66 73.77 91.48 69.58 93.13 69.12C95.96 68.34 100.68 66.38 101.52 71.52C104.08 71.52 106.23 71.2 108.23 71.61C110.3 72.03 112.22 73.16 115.24 74.4C109.36 68.19 109.35 68.21 103.17 68C102.4 67.97 101.53 67.69 100.89 67.27C97.03 64.75 93.36 64.48 89.31 67.15C86.3 69.13 84.35 67.93 83.97 64.21C83.78 62.39 83.11 60.62 82.61 58.6C78.73 61.71 76.06 61.26 72.95 57.75C70.29 54.74 71.62 51.88 73.86 50.02C76.35 47.95 79.7 46.5 82.5 50.14C85.61 54.17 88.47 49.88 91.46 49.92C90.97 48.11 90.87 46.05 89.89 44.56C88.5 42.46 86.47 40.78 84.56 38.77C83 40.41 82.05 41.96 80.67 42.71C79.47 43.36 77.78 43.11 76.31 43.25C76.39 41.63 75.87 39.58 76.67 38.49C78.09 36.56 80.3 35.2 83.07 32.85C80.49 31.44 79.07 29.97 77.7 30.01C66.45 30.39 63.32 39.77 59.62 46.38C61.09 49.29 63.27 51.66 63.18 53.95C63.1 56.29 60.8 58.56 59.47 60.85C56.16 58.68 52.84 56.51 48.68 53.78C46.93 55.2 42.07 55.4 41.34 60.78C40.89 64.13 40.36 67.64 38.98 70.67C36.49 76.16 29.56 76.76 25.45 72.32C24 70.76 22.25 69.48 20.55 67.99C19.67 69.52 19.05 70.88 18.18 72.06C15.64 75.51 9.53 76.43 6.65 73.76C4.35 71.54 2.21 69.23 0 67ZM957.55 112.41C961.09 112.41 964.55 112.57 967.98 112.32C969.15 112.23 970.63 111.32 971.21 110.34C971.57 109.73 970.6 108.24 970.1 107.21C968.06 103.02 965.21 99.02 964.3 94.6C963.96 92.94 968.26 90.5 970.09 88.13C970.68 87.37 970.59 84.99 970.01 84.62C967.7 83.15 964.62 80.71 962.66 81.32C958.32 82.67 954.48 85.64 950.45 87.96C950.35 88.02 950.31 88.28 950.34 88.43C951.57 93.58 951.49 99.78 954.46 103.58C957.21 107.08 958.09 109.76 957.55 112.41ZM368.01 123.41C367.88 120.44 367.28 118.06 367.78 115.94C368.83 111.46 366.93 108.12 364.18 105.18C363.35 104.29 360.93 103.77 359.96 104.33C357.17 105.92 354.74 108.16 351.6 110.58C354.53 111.37 356.08 112.72 353.6 115.74C357.45 114.17 361.3 112.61 366.05 110.67C369.38 113.95 361.93 115.53 362.94 119.26C364.15 120.25 365.65 121.48 368.01 123.41ZM335.5 113.82C330.07 115.08 325.63 116.12 321.02 117.19C324.81 118.42 328.49 119.61 332.2 120.81C333.94 116.47 335.49 112.58 337.05 108.69C336.66 108.43 336.26 108.17 335.87 107.91C334.77 108.38 333.67 108.85 332.23 109.47C333.26 110.83 334 111.82 335.5 113.82ZM980.43 108.91C982.93 109.7 985.82 113.07 988.21 109.03C989.25 107.27 988.33 104.35 988.28 100.93C984.85 104.42 982.68 106.62 980.43 108.91ZM60.54 22.72C59.45 21.83 57.8 20.48 56.15 19.13C53.69 21.91 51.67 24.18 49.73 26.37C53.31 25.16 56.85 23.96 60.54 22.72Z" fill="white"/>
<path d="M0 13.99C0.32 14.04 0.93 14.11 0.93 14.15C0.74 19.56 5.94 21.88 7.85 25.87C5.12 28.35 2.56 30.67 0 33C0 26.66 0 20.33 0 13.99Z" fill="white"/>
<path d="M1490 64C1487.98 63.38 1484.58 63.19 1484.22 62.04C1483.26 58.96 1483.36 55.4 1486.79 53.22C1487.89 52.52 1488.93 51.74 1490 51C1490 55.33 1490 59.66 1490 64Z" fill="white"/>
<path d="M379.85 133.26C380.56 131.54 380.83 129.33 382.08 128.24C383.61 126.92 385.96 126.55 387.92 125.78C387.13 114.58 397.35 114.02 406.8 116.24C406.27 117.28 406.02 118.54 405.26 119.13C399.35 123.7 401.57 130.04 401.21 135.93C400.99 139.49 400.21 143.31 394.91 142.89C394.05 142.82 393.06 144.46 392.38 145.08C389.91 143.41 387.59 142.05 385.52 140.38C384.45 139.52 383.83 138.1 382.95 136.98C381.9 135.65 380.78 134.36 379.69 133.05C379.69 133.06 379.85 133.26 379.85 133.26Z" fill="white"/>
<path d="M957.55 112.41C958.08 109.76 957.2 107.09 954.47 103.59C951.5 99.7901 951.59 93.5901 950.35 88.4401C950.32 88.3001 950.36 88.0301 950.46 87.9701C954.49 85.6401 958.33 82.6801 962.67 81.3301C964.63 80.7201 967.71 83.1601 970.02 84.6301C970.6 85.0001 970.69 87.3801 970.1 88.1401C968.27 90.5001 963.96 92.9501 964.31 94.6101C965.22 99.0201 968.07 103.03 970.11 107.22C970.61 108.25 971.59 109.74 971.22 110.35C970.64 111.33 969.15 112.25 967.99 112.33C964.55 112.57 961.09 112.41 957.55 112.41Z" fill="white"/>
<path d="M230.77 122.08C232.1 121.72 233.42 121.36 235.44 120.81C234.1 119.3 233.32 118.43 232.65 117.68C234.24 117.03 235.68 116.45 237.52 115.7C237.6 116.94 237.68 118.04 237.81 120.08C241.01 114.63 244.74 115.57 248.73 117.49C253.02 119.56 252.56 115.54 253.61 113.51C253.6 113.52 253.53 113.57 253.53 113.57C254.34 114.53 255.15 115.48 256.15 116.67C253.38 118.49 250.81 120.18 247.23 122.54C248.85 123.06 249.92 123.4 250.69 123.65C248.94 126.09 247.9 127.71 246.7 129.2C243.87 132.71 240.57 134.55 236.28 131.59C235.42 130.99 234.61 130.11 234.15 129.18C232.96 126.82 231.98 124.35 230.91 121.93L230.77 122.08Z" fill="white"/>
<path d="M242.08 109.69C241.45 109.64 240.46 109.82 240.24 109.49C237.35 105.23 234.57 100.89 231.65 96.41C237.08 92.56 243.8 99.74 248.19 92.75C249.12 94.22 249.75 95.22 250.44 96.3C252.14 95.95 253.85 95.61 255.56 95.26C252.8 98.24 251.85 101.94 250.16 105.22C244.84 101.98 244.36 107.47 242.08 109.69Z" fill="white"/>
<path d="M368.01 123.41C365.65 121.48 364.14 120.24 362.94 119.26C361.93 115.53 369.38 113.94 366.05 110.67C361.3 112.6 357.45 114.17 353.6 115.74C356.07 112.72 354.52 111.37 351.6 110.58C354.74 108.16 357.17 105.92 359.96 104.33C360.94 103.77 363.35 104.29 364.18 105.18C366.93 108.12 368.83 111.46 367.78 115.94C367.28 118.06 367.88 120.44 368.01 123.41Z" fill="white"/>
<path d="M242.08 109.69C244.36 107.46 244.84 101.98 250.15 105.22C250.43 108.34 249.11 112.11 253.52 113.57C253.54 113.56 253.6 113.5 253.61 113.5C249.24 113.85 244.91 114.05 242.08 109.69Z" fill="white"/>
<path d="M335.5 113.82C334 111.81 333.26 110.83 332.23 109.46C333.67 108.84 334.77 108.37 335.87 107.9C336.26 108.16 336.66 108.42 337.05 108.68C335.49 112.57 333.93 116.47 332.2 120.8C328.49 119.6 324.81 118.41 321.02 117.18C325.62 116.12 330.07 115.09 335.5 113.82Z" fill="white"/>
<path d="M980.43 108.91C982.68 106.62 984.85 104.42 988.28 100.93C988.32 104.35 989.25 107.27 988.21 109.03C985.82 113.07 982.93 109.7 980.43 108.91Z" fill="white"/>
<path d="M60.54 22.7199C56.85 23.9599 53.31 25.1599 49.72 26.3699C51.66 24.1799 53.68 21.9099 56.14 19.1299C57.8 20.4799 59.45 21.8299 60.54 22.7199Z" fill="white"/>
<path d="M1447.93 72.8299C1446.44 65.4699 1449.47 62.5099 1457.47 62.4199C1457.31 63.8499 1457.15 65.2499 1456.98 66.7999C1464.52 69.9199 1471.89 72.9799 1478.82 75.8499C1478.96 77.9099 1478.46 79.9799 1479.28 81.0499C1482.16 84.7899 1480.64 87.7899 1478.47 90.9699C1476.19 94.3199 1474.04 97.7699 1471.84 101.17C1471.67 101.44 1471.48 101.93 1471.3 101.93C1464.98 101.91 1467.13 105.31 1469.18 108.58C1468.21 108.64 1467.51 108.87 1467.35 108.66C1464.38 104.91 1462.24 103 1457.93 108.18C1454.77 111.98 1453.25 106.93 1452.01 104.43C1447.98 105.8 1444.17 107.1 1440.01 108.52C1441.06 110.69 1441.83 112.46 1437.76 113.15C1434.72 113.67 1432.21 117.59 1429.21 117.96C1426.5 118.3 1422.74 116.53 1420.8 114.44C1419.41 112.94 1420.13 109.36 1420.23 106.72C1420.25 106.17 1421.58 105.49 1422.42 105.16C1426.88 103.46 1431.43 101.98 1435.82 100.12C1436.95 99.6399 1437.69 98.0999 1438.45 96.9399C1439.72 95.0199 1440.56 92.7199 1442.11 91.0899C1446.98 85.9599 1447.09 85.7599 1442.75 80.1199C1442.55 79.8599 1442.31 79.6399 1442.1 79.4199C1441.9 79.4199 1441.73 79.4299 1441.57 79.4199C1439.09 79.2599 1436.6 79.1599 1434.15 78.7599C1433.98 78.7299 1433.76 75.6099 1434.28 75.3499C1436.82 74.0799 1439.55 73.0599 1442.32 72.4299C1443.9 72.0799 1445.68 72.6399 1447.93 72.8299Z" fill="white"/>
<path d="M627.91 128.72C624.72 126.88 622.6 125.86 620.8 124.44C620.47 124.18 621.36 121.33 621.85 121.28C624.5 121.01 627.22 121.04 629.87 121.37C631.33 121.55 632.69 122.53 634.16 123.17C636.36 116.18 638.54 115.08 646.26 116.79C645.8 118.15 645.35 119.46 644.81 121.04C650.27 126 655.81 131.04 661.08 135.83C659.93 141.03 658.86 145.88 657.94 150.02C655.49 150.72 653.51 151.37 651.5 151.85C648.27 152.62 647.29 158.04 642.76 156.05C642.35 157.85 641.94 159.66 641.45 161.82C640.87 161.14 639.99 160.57 639.79 159.81C638.74 155.91 637.18 154.96 633.47 157.53C630.38 159.67 628.55 157.86 628.04 152.35C622.04 153.53 615.06 150.18 610.34 156.91C609.81 157.67 608.22 157.88 607.1 157.98C603.33 158.32 600.37 156.88 598.16 153.74C596.19 150.93 596.97 148.36 598.79 146.03C599.53 145.08 600.94 144.18 602.1 144.11C606.38 143.84 610.69 144.07 614.96 143.77C616.23 143.68 617.51 142.62 618.63 141.8C620.35 140.55 621.78 138.79 623.63 137.82C629.71 134.65 629.89 134.42 627.91 128.72Z" fill="white"/>
<path d="M821.84 188.93C821.98 187.53 822.54 186.01 822.15 184.78C821.75 183.51 820.57 181.7 819.52 181.54C813.21 180.62 812.91 180.31 815.47 174.44C809.81 172.06 805.53 166.69 797.83 169.12C794.21 170.26 790.71 166.84 789.46 162.32C788.22 157.82 790.28 155.4 793.93 153.81C794.88 153.4 796.42 153.52 797.36 154.01C801.28 156.07 805.02 158.47 808.95 160.5C809.96 161.02 811.45 160.76 812.7 160.61C814.82 160.36 816.93 159.54 819.01 159.64C825.94 159.97 826.04 160 827.73 152.91C827.59 152.63 827.46 152.34 827.29 152.08C825.98 150.17 824.6 148.3 823.47 146.29C823.38 146.13 825.36 144.22 825.88 144.42C828.25 145.34 830.63 146.48 832.63 148.02C833.91 149 834.53 150.82 835.49 152.32C841.58 147.48 843.86 147.67 849.31 153.23C848.17 154.09 847.06 154.92 845.85 155.83C848.07 162.99 850.27 170.13 852.48 177.27C851.96 176.88 851.43 176.49 850.91 176.1C850.27 177.4 849.34 178.64 849.03 180.02C847.91 185.04 844.2 185.64 839.98 185.85C836.73 186.01 833.5 186.56 830.26 186.94C829.79 186.99 829.06 187.29 828.9 187.11C825.24 182.66 824.13 186 823.11 189.67C822.68 189.42 822.26 189.17 821.84 188.93Z" fill="white"/>
<path d="M84.59 123.54C90.62 123.99 96.64 124.63 102.67 124.84C106.41 124.97 110.18 124.16 113.92 124.32C117.17 124.46 119.79 126.55 119.77 129.87C119.75 133.55 119.43 137.39 115.24 139.58C108.42 143.13 102.67 139.47 100.04 133.89C98.01 136.73 95.89 139.7 93.99 142.37C91.74 141.84 89.74 141.45 87.78 140.89C82.27 139.31 80.88 133.65 77.42 130.04C77.1 129.71 78.44 127.25 79.47 126.27C81.05 124.78 83.04 123.71 84.86 122.47C84.77 122.82 84.68 123.18 84.59 123.54Z" fill="white"/>
<path d="M1008.76 151.84C1010.24 153.9 1011.72 155.97 1013.11 157.89C1010.87 159.69 1007.32 162.19 1008.54 167.74C1009.78 173.36 1007.4 177.63 1002.59 179.93C1000.08 181.13 992.4 178.83 990.16 176.2C989.84 175.83 989.65 175.33 989.3 175C987.84 173.59 986.34 172.22 984.86 170.84C987.19 168.6 989.37 166.17 991.91 164.19C993.12 163.25 995.11 163.38 996.56 162.64C998.83 161.49 1001.08 160.75 1001.25 157.07C1001.43 152.99 1004.95 151.57 1008.94 152.01L1008.76 151.84Z" fill="white"/>
<path d="M1313.8 139.46C1312.09 142.28 1312.09 142.28 1307.16 139.55C1307.59 137 1307.9 134.66 1308.42 132.36C1308.71 131.09 1309.25 129.83 1309.88 128.68C1311.29 126.11 1312.76 123.57 1314.32 121.09C1317.25 116.44 1327.79 116.29 1330.89 120.84C1332.18 122.74 1333.51 124.65 1334.47 126.72C1335.65 129.26 1335.38 131.74 1331.83 131.21C1326.51 130.43 1322.39 131.39 1319.6 136.45C1319.3 136.99 1316.56 136.05 1314.94 136.01C1313.63 135.98 1312.31 136.26 1310.99 136.4C1311.81 137.31 1312.64 138.2 1313.8 139.46Z" fill="white"/>
<path d="M1218.98 170.98C1219.04 176.77 1212.09 181.68 1206.68 179.37C1202.85 177.73 1199.17 175.65 1195.74 173.29C1195.08 172.84 1195.32 169.67 1196.19 168.66C1200.47 163.7 1206.49 161.89 1212.69 161.16C1216.23 160.74 1218.92 165.43 1218.98 170.98Z" fill="white"/>
<path d="M1343.68 122.57C1344.19 120.23 1344.07 117.71 1345.25 116.21C1346.56 114.54 1349.06 113.79 1351.04 112.65C1351.72 114.04 1352.4 115.42 1353.41 117.46C1356.1 116.5 1361.37 121.02 1363.29 114.08C1369.21 117.99 1369.15 125.58 1363.21 128.79C1355.84 132.77 1355.89 132.72 1349.45 126.73C1347.78 125.18 1345.75 124.04 1343.68 122.57Z" fill="white"/>
<path d="M748.62 106.5C747.69 107.63 746.8 108.72 745.53 110.25C749.18 111.96 748.54 119.28 755.15 116.4C756.25 122.6 751.04 127.39 745.22 125.49C737.56 122.99 737.52 122.85 737.86 114.6C737.95 112.33 737.58 110.03 737.38 107.32C740.88 106.43 744.12 101.78 748.62 106.5Z" fill="white"/>
<path d="M1165.07 141.11C1168.07 138.91 1168.55 132.58 1174.72 135.24C1174.41 136.46 1174.1 137.66 1173.66 139.39C1176.12 140.4 1178.43 141.74 1180.9 142.21C1182.31 142.48 1183.99 141.32 1185.72 140.75C1189.26 146.61 1186.63 151.66 1179.68 153.33C1174.01 154.69 1171.41 152.6 1169.4 147.85C1168.46 145.62 1166.77 143.7 1165.07 141.11Z" fill="white"/>
<path d="M526.93 134.15C531.49 127.58 531.49 127.58 535.09 127.86C535.91 129.91 536.37 132.88 537.29 133.03C540.39 133.54 543.73 139.2 546.63 132.79C549.9 138.05 549.21 142.32 544.94 144.96C539.41 148.39 534.42 147.35 531.57 142.2C530.16 139.64 528.65 137.12 526.93 134.15Z" fill="white"/>
<path d="M209.7 139.66C210.21 133.98 206.35 133.48 203 133.55C200.16 133.6 199.16 133.12 199.04 130.19C198.99 129.01 197.35 127.91 195.92 127.16C195.82 126.85 195.6 126.53 195.63 126.24C196.46 118.84 198.34 118.28 205.6 120.67C211.41 122.58 213.99 125.5 214.78 131.64C215.39 136.33 212.92 137.61 209.7 139.66Z" fill="white"/>
<path d="M926.08 155.52C927.84 150.2 929.09 145.14 931.29 140.53C932.03 138.97 935.41 137.49 937.17 137.87C940.01 138.49 941.73 140.92 940.33 144.42C938.65 148.63 937.55 153.11 935.55 157.15C934.62 159.02 932.14 160.13 930.37 161.58C929.01 159.67 927.66 157.76 926.08 155.52Z" fill="white"/>
<path d="M30.85 99.1499C31.12 94.3599 36.54 84.2699 41.84 82.7699C43.13 82.3999 45.45 82.8499 46.12 83.7699C47.11 85.1399 48 87.9399 47.28 88.9699C44.2 93.3699 40.63 97.4499 36.97 101.4C36.13 102.3 33.87 102.93 32.93 102.43C31.77 101.81 31.27 99.8899 30.85 99.1499Z" fill="white"/>
<path d="M50.89 99.1701C50.93 94.6801 56.47 84.3601 61.74 82.8101C63.04 82.4301 65.37 82.8001 66.06 83.7001C67.09 85.0601 68.06 87.8801 67.36 88.8901C64.3 93.3001 60.75 97.4001 57.06 101.32C56.17 102.27 53.87 102.67 52.59 102.24C51.61 101.91 51.23 99.8501 50.89 99.1701Z" fill="white"/>
<path d="M716.1 91.86C717.55 89.66 718.55 86.31 720.55 85.55C723.15 84.55 725.41 87.04 727.81 89.06C733.84 94.12 729.6 98.9 728.61 103.76C728.46 104.52 726.55 105.49 725.57 105.38C723.48 105.15 716.78 94.69 716.1 91.86Z" fill="white"/>
<path d="M505.6 122.07C511.59 122.15 518.66 131.12 517.06 136.74C516.84 137.53 515.98 138.52 515.24 138.7C511.56 139.59 501.09 132.71 500.15 128.96C499.22 125.23 501.75 122.02 505.6 122.07Z" fill="white"/>
<path d="M689.4 118.95C686.65 122.43 684.6 127.01 681.12 128.8C678.55 130.13 674.11 127.83 670.5 127.15C671.24 124.64 671.36 121.64 672.86 119.74C675.27 116.67 684.75 116.39 689.4 118.95Z" fill="white"/>
<path d="M885.27 176.73C881.12 178.4 877.01 180.16 872.8 181.63C872.08 181.88 870.76 181.03 870.01 180.37C869.18 179.64 868.64 178.56 868.02 177.59C867.03 176.04 865.02 173.31 865.27 173.08C867.14 171.38 869.78 168.71 871.56 169.1C876.38 170.17 880.89 172.61 885.52 174.5C885.43 175.25 885.35 175.99 885.27 176.73Z" fill="white"/>
<path d="M181 151.03C180.68 154.54 178.98 156.36 175.23 156.29C173.92 156.26 172.61 157.51 171.28 157.55C169.71 157.6 168.13 156.98 166.55 156.65C167.55 155.67 168.51 154.64 169.58 153.74C170.03 153.36 170.71 153.28 172.64 152.55C170.28 150.02 168.36 148.04 166.55 145.97C165.88 145.21 165.48 144.21 164.96 143.33C166.09 142.96 167.27 142.18 168.33 142.32C170.17 142.57 171.91 143.52 173.75 143.93C176.12 144.45 178.24 144.78 178.36 148.07C178.4 149.14 180.18 150.16 181.16 151.2C181.16 151.17 181 151.03 181 151.03Z" fill="white"/>
<path d="M987.64 192.46C987.01 193.89 986.14 195.35 985.71 196.93C984.42 201.64 982.17 203.32 978.43 202.13C974.04 200.73 974.47 197.21 975.19 193.97C976 190.31 979.85 188.75 983.51 190.28C984.92 190.86 986.24 191.71 987.64 192.46Z" fill="white"/>
<path d="M1197.7 192.45C1197.09 193.77 1196.17 195.21 1195.74 196.79C1194.43 201.62 1192.32 203.28 1188.56 202.17C1185.21 201.18 1183.8 197.53 1185.25 193.62C1186.56 190.11 1190.14 188.74 1193.81 190.42C1195.23 191.06 1196.58 191.86 1197.7 192.45Z" fill="white"/>
<path d="M69.7 76.67C69.8 70.46 72.34 68.26 77.42 68.34C81.51 68.41 81.74 72.15 81.7 74.43C81.64 77.89 79.24 81.09 75.36 80.48C73.02 80.12 71.02 77.61 69.7 76.67Z" fill="white"/>
<path d="M1306.87 166.89C1305.6 166.58 1303.53 166.08 1301.47 165.58C1299.17 165.59 1298.49 171.39 1294.54 167.64C1294.04 167.16 1295.88 164.2 1297.08 162.57C1296.35 156.48 1298.06 155.6 1306.87 157.76C1306.87 160.46 1306.87 163.11 1306.87 166.89Z" fill="white"/>
<path d="M93.3 147.57C92.19 148.83 90.92 150.12 89.84 151.53C87.83 154.13 85.6 155.87 82.31 153.7C78.75 151.35 79.69 148.2 81.45 145.45C83.49 142.27 86.52 141.92 89.58 144.11C91.07 145.18 92.29 146.62 93.3 147.57Z" fill="white"/>
<path d="M1351.74 103.43C1351.62 103.33 1350.42 101.61 1349.33 101.67C1346.03 101.88 1344.52 100 1344.36 97.47C1344.28 96.25 1346.36 94.91 1347.42 93.59C1347.71 93.24 1347.88 92.79 1347.53 93.41C1351.58 94.03 1355.13 94.51 1358.65 95.15C1359.63 95.33 1360.53 95.95 1361.46 96.37C1360.73 97.29 1360.17 98.46 1359.25 99.08C1357.03 100.57 1354.62 101.79 1351.74 103.43Z" fill="white"/>
<path d="M73.3001 147.57C72.2001 148.82 70.9201 150.09 69.8501 151.51C67.7001 154.36 65.2701 155.94 61.9301 153.42C58.7601 151.03 59.8001 148.02 61.4401 145.47C63.4701 142.29 66.4901 141.91 69.5701 144.1C71.0501 145.17 72.2701 146.61 73.3001 147.57Z" fill="white"/>
<path d="M540.31 119.66C539.55 119.04 537.98 118.25 537.2 116.98C536.21 115.37 535.86 113.36 535.23 111.52C536.62 111.29 538.22 110.52 539.38 110.94C543.18 112.32 546.81 114.14 551.51 116.24C550.03 117.21 549.02 118.26 547.83 118.55C545.47 119.14 543 119.3 540.31 119.66Z" fill="white"/>
<path d="M191.04 153.5C191.98 147.19 192.83 147.07 201.08 151.7C200.2 154.94 198.35 156.34 194.75 156.27C192.01 156.22 189.26 157.52 186.48 157.72C185.41 157.8 184.23 156.47 183.11 155.79C184.21 155.17 185.24 154.32 186.42 153.99C187.82 153.6 189.34 153.66 191.04 153.5Z" fill="white"/>
<path d="M767.25 103.93C764.96 106.99 763.77 103.73 761.91 102.99C760.15 102.29 757.91 102.84 756.52 102.84C755.96 100.64 755.41 98.4799 754.56 95.1299C754.9 94.6799 756.04 93.1799 757.18 91.6699C758.82 92.9299 760.79 93.9299 762.02 95.5099C763.99 98.0599 765.47 101 767.25 103.93Z" fill="white"/>
<path d="M308.45 129.73C307.19 127.03 310.96 123.46 306.99 121.22C308.27 120.44 310.01 118.7 310.75 119.06C313.2 120.23 315.3 122.16 317.32 123.63C315.87 128.76 313.7 131.75 308.4 129.59L308.45 129.73Z" fill="white"/>
<path d="M483.73 155.49C481.46 156.42 479.18 157.35 476.92 158.3C475.64 158.84 474.4 159.8 473.09 159.89C471.71 159.98 470.28 159.26 468.87 158.9C469.61 157.9 470.24 156.78 471.12 155.94C471.64 155.45 473.14 155.49 473.22 155.1C475.24 145.1 479.85 154.47 482.95 152.98C483.21 153.81 483.47 154.65 483.73 155.49Z" fill="white"/>
<path d="M1111.7 161.96C1112.8 156.59 1114.25 156.37 1121.86 161.15C1120.63 164.09 1119.02 166.25 1115.26 165.45C1114.56 165.3 1113.74 165.77 1112.97 165.95C1111.37 166.32 1109.77 166.78 1108.14 166.94C1107.89 166.97 1107.09 165.11 1107.25 164.98C1108.52 163.93 1109.96 163.09 1111.7 161.96Z" fill="white"/>
<path d="M1414.33 88.7501C1412.95 90.4101 1411.13 91.7101 1411.33 92.5201C1412.08 95.6301 1410.56 96.7501 1408.12 96.4201C1407.42 96.3301 1407.09 93.6101 1406.93 93.1501C1405.06 90.5801 1403.72 88.7301 1402.37 86.8801C1404.79 86.7201 1407.24 86.2801 1409.63 86.5201C1411.12 86.6501 1412.51 87.8301 1414.33 88.7501Z" fill="white"/>
<path d="M1225.8 135.7C1229.76 139.61 1229.57 144.84 1225.23 148.51C1224.8 148.87 1224.66 149.57 1224.22 149.91C1223.21 150.71 1222.18 151.65 1221 152C1220.52 152.15 1218.95 150.74 1219.06 150.37C1219.37 149.25 1220.4 148.36 1220.89 147.27C1222.56 143.52 1224.11 139.72 1225.8 135.7Z" fill="white"/>
<path d="M599.49 126.32C595.54 126.28 596.52 134.67 590.77 130.97C591.39 129.76 591.99 128.57 592.14 128.27C591.25 125.62 590.55 123.57 589.86 121.51C592.18 122.17 594.58 122.63 596.78 123.57C597.87 124.04 598.59 125.38 599.49 126.32Z" fill="white"/>
<path d="M804.49 137.63C801.01 138.32 798.51 138.91 795.97 139.22C795.51 139.28 794.91 138.16 793.96 137.15C795.45 136.28 796.6 135.61 797.97 134.81C797.75 134.18 797.21 133.38 797.29 132.66C797.46 131.21 797.96 129.79 798.32 128.36C799.58 129.22 801.27 129.82 801.98 131.01C803.13 132.92 803.62 135.22 804.49 137.63Z" fill="white"/>
<path d="M1067.87 168.86C1065.59 166.29 1063.41 164.97 1063.27 163.46C1062.92 159.74 1066.36 159.46 1068.84 159.57C1070.26 159.63 1071.59 161.5 1072.96 162.55C1071.53 164.33 1070.1 166.11 1067.87 168.86Z" fill="white"/>
<path d="M1230.51 135.64C1229.68 132.58 1229.11 130.52 1228.55 128.45C1230.74 129.12 1233.03 129.57 1235.07 130.56C1236.29 131.15 1237.11 132.57 1239.21 134.76C1233.95 133.1 1235.14 141.57 1229.36 138.15C1229.96 136.84 1230.53 135.59 1230.51 135.64Z" fill="white"/>
<path d="M455.11 144.42C457.51 146.65 459.05 148.07 460.59 149.5C459.09 150.7 457.46 152.99 456.13 152.82C454.34 152.6 452.79 150.48 451.14 149.17C452.24 147.86 453.33 146.55 455.11 144.42Z" fill="white"/>
<path d="M308.4 129.6C308.24 131.2 308.23 132.83 307.88 134.39C307.55 135.83 307.1 137.38 306.22 138.5C305.85 138.96 303.68 138.82 303.3 138.28C302.62 137.31 302.32 135.77 302.51 134.56C302.92 131.87 303.72 129.25 304.36 126.6C304.95 125.99 305.54 125.39 306.13 124.78C306.9 126.42 307.66 128.06 308.44 129.72C308.45 129.73 308.4 129.6 308.4 129.6Z" fill="white"/>
<path d="M152.76 142C155.24 144.53 156.76 146.08 158.28 147.62C156.91 148.74 155.36 150.95 154.22 150.75C152.35 150.42 150.51 148.74 149.21 147.17C148.93 146.83 150.96 144.57 152.76 142Z" fill="white"/>
<path d="M1407.29 107.9C1406 107.74 1404.36 107.54 1402.97 107.37C1402.47 103.05 1402.03 99.2699 1401.57 95.2999C1405.23 95.1799 1406.17 97.2199 1406.35 100.19C1406.5 102.55 1406.92 104.91 1407.29 107.9Z" fill="white"/>
<path d="M793.43 133.78C792.67 135.66 792.38 138.1 791.01 139.26C789.37 140.65 786.8 140.93 784.63 141.69C785.27 142.72 785.9 143.75 786.54 144.78C785.64 143.46 784.74 142.15 783.84 140.83C784.33 141.1 784.82 141.37 785.31 141.65C787.65 138.98 789.99 136.31 792.32 133.64C792.69 133.68 793.06 133.73 793.43 133.78Z" fill="white"/>
<path d="M587.68 141.45C586.41 140.87 585.15 140.29 583.95 139.74C584.85 135.79 585.68 132.21 586.56 128.37C593.46 131.77 586.29 136.9 587.68 141.45Z" fill="white"/>
<path d="M285.58 138.86C281.93 137.96 281.93 137.96 284.49 126.38C287.4 127.42 288.06 129.32 287.18 132.15C286.5 134.33 286.11 136.6 285.58 138.86Z" fill="white"/>
<path d="M42.2601 72.29C45.4801 76.29 41.9901 76.99 40.1301 78.04C38.2701 79.1 36.1001 79.61 34.0601 80.36C35.4101 78.29 36.5701 76.04 38.2001 74.22C39.1001 73.23 40.8001 72.95 42.2601 72.29Z" fill="white"/>
<path d="M63.45 72.99C62.94 74.36 62.67 75.91 61.84 77.05C61.12 78.05 59.8299 78.73 58.6699 79.29C57.3399 79.93 55.86 80.28 54.45 80.76C54.94 79.24 55.01 77.34 56 76.3C57.64 74.59 59.86 73.44 61.84 72.05C62.38 72.37 62.91 72.68 63.45 72.99Z" fill="white"/>
<path d="M1434.98 86.5101C1432.04 87.9701 1430.4 89.2501 1428.63 89.4701C1427.78 89.5801 1426.68 87.6801 1425.69 86.7001C1427.23 85.4701 1428.63 83.8601 1430.39 83.1801C1431.09 82.9101 1432.59 84.7101 1434.98 86.5101Z" fill="white"/>
<path d="M614.29 133.76C612.43 131.88 611.29 130.72 610.14 129.57C611.53 128.62 612.85 127.09 614.34 126.9C615.4 126.77 616.69 128.44 617.87 129.31C616.87 130.54 615.88 131.78 614.29 133.76Z" fill="white"/>
<path d="M820.57 148.07C817.83 149.48 816.18 150.99 815.33 150.63C813.76 149.96 812.66 148.2 811.37 146.89C812.46 146.16 813.68 144.69 814.61 144.86C816.25 145.15 817.71 146.44 820.57 148.07Z" fill="white"/>
<path d="M1105.21 154.35C1104.65 156.96 1104.09 159.57 1103.53 162.17C1102.53 161.83 1100.93 161.75 1100.64 161.1C1099.11 157.64 1101.22 155.67 1105.21 154.35Z" fill="white"/>
<path d="M1008.94 152.01C1009.21 146.78 1010.23 146.27 1015.95 148.69C1015.11 153.33 1011.69 152.06 1008.76 151.84L1008.94 152.01Z" fill="white"/>
<path d="M185.28 146.19C184.89 143.98 184.51 141.76 184.12 139.55C184.47 139.27 184.81 138.99 185.16 138.71C186.73 140.46 188.29 142.21 189.86 143.97C188.28 144.66 186.7 145.35 185.12 146.03L185.28 146.19Z" fill="white"/>
<path d="M960.63 132.88C961.52 134.84 962.58 136.07 962.3 136.75C961.8 137.99 960.49 138.91 959.52 139.96C958.67 138.96 957.01 137.8 957.17 137.01C957.43 135.77 958.92 134.79 960.63 132.88Z" fill="white"/>
<path d="M706.68 73.6501C703.5 76.2101 701.29 78.0001 699.07 79.7801C698.7 79.3301 698.33 78.8801 697.96 78.4301C699.69 76.0501 700.16 72.1801 706.68 73.6501Z" fill="white"/>
<path d="M710.37 108C711.4 106.42 712.42 104.84 714.19 102.12C715.31 104.02 716.15 105.44 716.99 106.86C715.03 107.76 713.08 108.65 711.12 109.55C710.86 109.03 710.62 108.51 710.37 108Z" fill="white"/>
<path d="M697.39 88.5999C698.39 86.6999 699.39 84.7999 700.39 82.8999C701.23 83.7399 702.92 84.9599 702.75 85.3499C701.99 87.0699 700.69 88.5399 699.59 90.1099C698.86 89.6099 698.12 89.1099 697.39 88.5999Z" fill="white"/>
<path d="M482.63 121.87C481.67 124.57 480.71 127.27 479.74 129.98C479.07 129.76 478.41 129.55 477.74 129.33C478.56 126.57 476.77 122.99 482.63 121.87Z" fill="white"/>
<path d="M185.11 146.03C184.69 148.48 184.75 151.33 180.99 151.03C180.99 151.03 181.15 151.18 181.16 151.18C180.67 149.29 180.18 147.4 179.45 144.61C182.18 145.35 183.72 145.77 185.27 146.19C185.28 146.19 185.11 146.03 185.11 146.03Z" fill="white"/>
<path d="M1422.34 96.28C1424.34 95.87 1426.34 95.46 1428.34 95.05C1428.33 96.05 1428.55 97.84 1428.28 97.92C1426.51 98.43 1424.62 98.57 1422.78 98.83C1422.63 97.98 1422.49 97.13 1422.34 96.28Z" fill="white"/>
<path d="M1334.02 91.8299C1339.76 88.6799 1338.83 93.8599 1340.8 95.4499C1335.5 98.7399 1336.5 93.4699 1334.02 91.8299Z" fill="white"/>
</g>
<defs>
<clipPath id="clip0_401_5514">
<rect width="1490" height="202.5" fill="white"/>
</clipPath>
</defs>
</svg>
