<svg width="851" height="3" viewBox="0 0 851 3" fill="none" xmlns="http://www.w3.org/2000/svg">
<path d="M171.917 1.46061L172.297 1.36501C165.527 1.53542 157.883 1.36086 150.704 1.43568L151.183 1.40242C132.996 1.36501 116.231 1.52296 98.1844 1.59777C98.4659 1.58946 98.5645 1.56037 98.846 1.5479C97.9733 1.58115 97.0161 1.64349 96.0307 1.63518C95.7773 1.6144 96.2982 1.58947 96.6219 1.58116C92.8071 1.42321 85.431 1.6809 83.0521 1.56037C81.9822 1.57699 81.5037 1.6435 82.1089 1.69338C67.9902 1.73494 52.8719 1.76403 38.4857 1.88457C37.796 1.86379 37.6693 1.82223 37.8522 1.76819C25.5634 2.02173 12.6693 1.92199 0.0848389 1.88043C-0.393738 1.94693 1.36584 1.95108 0.127136 2.02174C4.16705 2.10487 7.53137 1.85964 11.2053 1.98018L10.7408 2.04668C13.4153 2.08824 11.2758 1.88458 14.0488 1.96771C15.1468 2.02174 13.7814 2.05083 14.2881 2.05499C19.961 2.03005 25.8731 2.08824 31.2222 1.9303C32.5453 2.07162 37.3173 1.93445 39.4147 2.06745C40.8787 2.01342 42.3568 2.02589 42.9198 1.93445C62.7678 2.00926 83.0521 1.8721 103.393 1.88457C112.908 1.6144 124.31 1.9386 135.6 1.84716C135.684 1.85547 135.67 1.86794 135.586 1.87625C139.274 1.80975 144.637 1.7765 149.029 1.80975L152.745 1.69337C179.195 1.93028 206.222 1.76402 233.08 1.85962C263.612 1.92612 290.343 2.12147 320.073 1.76402C320.031 1.78896 320.27 1.80557 319.51 1.81804C328.097 1.76401 335.909 1.85961 343.989 1.80557L343.961 1.83051C364.006 1.60606 385.684 1.85961 405.011 1.61854C428.533 1.64347 455.138 1.61853 480.039 1.54787L479.983 1.6019C499.915 1.48968 519.172 1.77231 539.048 1.68918C559.487 1.80971 581.095 1.38161 601.717 1.54371C614.47 1.80556 631.235 1.24028 643.215 1.51461C667.834 1.92609 691.722 1.66007 716.342 1.41484C739.048 1.56031 761.725 1.18624 783.713 1.4855C794.129 1.2943 805.644 1.72241 817.243 1.66838L816.835 1.60187C821.002 1.80553 826.111 1.31924 828.701 1.6185L828.265 1.63097C830.475 1.78475 833.389 1.27352 834.726 1.45225L835.078 1.37742C837.753 1.35664 835.388 1.4647 837.457 1.4938C838.231 1.48549 837.753 1.35665 839.371 1.39821C839.723 1.70578 845.903 1.3317 846.086 1.67668C844.622 1.67668 848.366 1.80969 845.101 1.8845C846.03 1.92191 850.506 1.90113 850.098 1.75565C850.478 1.59771 852.223 1.46471 849.507 1.34417L848.958 1.45639C848.043 1.34417 848.268 1.3982 847.93 1.31508C844.383 1.29845 843.904 1.13635 841.356 1.06569C841.384 1.06985 841.413 1.074 841.37 1.07816C839.625 1.21532 837.218 1.13219 835.838 1.11557L835.289 1.05322C834.459 0.920217 831.249 1.31093 832.333 1.08648C825.112 1.14467 816.835 1.14051 808.769 1.14467C807.643 1.23195 802.589 1.13636 804.363 1.30261C802.35 1.11142 796.339 1.0657 794.115 1.07402C794.2 1.05739 794.298 1.0366 794.636 1.04492C790.315 0.79969 789.512 1.27352 785.458 0.970106C784.825 1.18208 778.096 0.903605 775.802 1.15299C775.295 1.10727 775.14 1.06155 775.323 1.02414C768.031 1.01999 759.966 0.941015 753.8 0.932703C748.521 1.11974 741.033 0.849569 736.5 1.10727C732.741 1.05323 726.66 0.945174 721.41 1.04908L721.917 1.01583C716.004 1.03245 708.6 1.04492 704.546 1.20702C702.801 0.961791 700.239 1.01168 697.677 0.932708C693.721 1.04493 685.754 1.01167 679.715 1.11558C678.786 1.00336 674.746 1.16546 674.436 0.999201C657.545 1.31925 636.655 1.20703 618.609 0.96596L618.876 0.953491C616.54 1.04493 613.837 1.24444 611.458 1.36082C611.219 1.34835 611.247 1.31926 611.753 1.31926C608.46 1.34835 605.377 1.18624 602.083 1.2195C602.111 1.1904 602.111 1.19041 602.646 1.16547C599.563 1.24029 596.269 1.03246 592.623 1.16131L592.426 1.11975L590.104 1.18209C590.16 1.12806 590.245 1.04494 591.483 1.06156C563.203 1.00753 533.995 1.29016 504.955 1.2486L506.024 1.19873L500.394 1.29017C500.422 1.26107 500.689 1.2486 500.957 1.23613C493.778 1.14469 486.345 1.29848 479.349 1.27354C479.378 1.2486 480.433 1.19458 479.462 1.16548C474.282 1.31511 471.143 0.97429 468.553 1.28186C468.313 1.26939 468.144 1.19873 468.679 1.17379C454.279 1.2777 439.499 1.26939 425 1.21951C412.922 1.49799 399.423 1.24445 386.866 1.4689L386.923 1.41487C370.678 1.61022 353.449 1.40241 336.613 1.43982C329.617 1.41904 324.901 1.48138 317.877 1.48554L317.694 1.41487C305.87 1.68088 292.835 1.17796 280.504 1.46891L281.349 1.37332C279.434 1.5188 273.888 1.32344 274.62 1.57282L272.438 1.49801C264.062 1.83052 257.179 1.34422 246.903 1.56035L247.579 1.50217C244.848 1.54789 241.667 1.58529 239.64 1.53126C239.949 1.52294 239.809 1.50633 240.456 1.4897C231.898 1.25279 222.382 1.51463 213.359 1.50632L214.386 1.3941C210.023 1.52295 202.027 1.40242 196.284 1.46061L196.636 1.40657L193.736 1.48139L193.666 1.37748C186.233 1.3567 179.209 1.44814 171.917 1.46061Z" fill="white"/>
</svg>
