<svg width="260" height="2" viewBox="0 0 260 2" fill="none" xmlns="http://www.w3.org/2000/svg">
<path d="M52.57 0.527953L52.6858 0.432351C50.6223 0.602764 48.2928 0.428201 46.1049 0.503016L46.2508 0.469758C40.7081 0.432351 35.5987 0.590295 30.099 0.665111C30.1848 0.656798 30.2148 0.627705 30.3006 0.615236C30.0346 0.648487 29.7429 0.71083 29.4426 0.702517C29.3654 0.681735 29.5241 0.656807 29.6228 0.648494C28.4602 0.490551 26.2122 0.74824 25.4872 0.627705C25.1612 0.644331 25.0153 0.710836 25.1998 0.760713C20.8969 0.802277 16.2895 0.831369 11.9051 0.951905C11.6949 0.931123 11.6563 0.889559 11.7121 0.835526C7.96689 1.08907 4.03725 0.989322 0.20199 0.947758C0.0561299 1.01426 0.592392 1.01842 0.214872 1.08907C1.4461 1.1722 2.47141 0.926972 3.5911 1.04751L3.44952 1.11401C4.26462 1.15558 3.61255 0.951911 4.45768 1.03504C4.7923 1.08907 4.37617 1.11816 4.53061 1.12232C6.25947 1.09738 8.06126 1.15558 9.69146 0.997632C10.0947 1.13895 11.549 1.00178 12.1882 1.13479C12.6344 1.08075 13.0848 1.09322 13.2564 1.00178C19.3053 1.07659 25.4872 0.939434 31.6863 0.951903C34.5863 0.681737 38.0612 1.00594 41.5018 0.914496C41.5275 0.922809 41.5232 0.935281 41.4975 0.943594C42.6215 0.877091 44.2559 0.843839 45.5944 0.87709L46.727 0.760711C54.7879 0.997625 63.0247 0.831366 71.21 0.926962C80.515 0.993464 88.6617 1.18882 97.7221 0.831371C97.7093 0.856309 97.7822 0.872924 97.5506 0.885393C100.167 0.83136 102.548 0.926957 105.011 0.872924L105.002 0.897861C111.111 0.673415 117.718 0.926964 123.608 0.685892C130.777 0.71083 138.885 0.685885 146.474 0.615226L146.456 0.669261C152.531 0.557038 158.4 0.839669 164.457 0.75654C170.686 0.877075 177.272 0.448976 183.556 0.611075C187.443 0.872927 192.553 0.307654 196.203 0.581976C203.706 0.993459 210.987 0.72744 218.49 0.482212C225.41 0.627685 232.321 0.253614 239.022 0.552874C242.196 0.36168 245.706 0.789789 249.24 0.735756L249.116 0.669252C250.386 0.872915 251.943 0.38662 252.733 0.685881L252.6 0.698349C253.273 0.852136 254.161 0.340902 254.569 0.519627L254.676 0.444802C255.491 0.42402 254.77 0.532086 255.401 0.561181C255.637 0.552868 255.491 0.424028 255.984 0.465592C256.092 0.773165 257.975 0.399082 258.031 0.744063C257.585 0.744063 258.726 0.877068 257.73 0.951883C258.014 0.989291 259.378 0.96851 259.253 0.823036C259.369 0.665093 259.901 0.532092 259.073 0.411556L258.906 0.523775C258.627 0.411552 258.696 0.465587 258.593 0.382459C257.512 0.365833 257.366 0.203731 256.589 0.133072C256.598 0.137229 256.606 0.141385 256.594 0.145541C256.062 0.282702 255.328 0.199573 254.908 0.182947L254.74 0.120604C254.487 -0.0124008 253.509 0.378308 253.839 0.153862C251.639 0.212052 249.116 0.207889 246.658 0.212046C246.315 0.29933 244.775 0.203735 245.315 0.369991C244.702 0.178797 242.87 0.133082 242.192 0.141395C242.218 0.124769 242.248 0.103984 242.351 0.112297C241.034 -0.132931 240.789 0.340902 239.554 0.0374848C239.361 0.249461 237.31 -0.0290163 236.611 0.220368C236.456 0.174647 236.409 0.128928 236.465 0.0915203C234.243 0.0873641 231.785 0.00839226 229.905 7.96303e-05C228.297 0.187118 226.014 -0.0830551 224.633 0.174642C223.488 0.120609 221.634 0.012549 220.034 0.116459L220.189 0.0832008C218.387 0.0998266 216.13 0.112292 214.895 0.274392C214.363 0.0291646 213.582 0.0790526 212.801 8.11256e-05C211.596 0.112304 209.168 0.0790413 207.327 0.182951C207.044 0.0707287 205.813 0.232829 205.718 0.066573C200.571 0.386616 194.204 0.274399 188.704 0.0333288L188.786 0.0208601C188.074 0.112301 187.25 0.311813 186.525 0.428192C186.452 0.415723 186.461 0.386625 186.615 0.386625C185.611 0.41572 184.672 0.253612 183.668 0.286863C183.677 0.257769 183.677 0.257779 183.84 0.232841C182.9 0.307656 181.896 0.0998323 180.785 0.228681L180.725 0.187114L180.017 0.249458C180.034 0.195425 180.06 0.112306 180.438 0.128931C171.819 0.0748989 162.917 0.357527 154.067 0.315964L154.393 0.266089L152.677 0.357531C152.686 0.328436 152.767 0.315965 152.849 0.303495C150.661 0.212055 148.396 0.36584 146.263 0.340902C146.272 0.315964 146.594 0.261939 146.298 0.232844C144.719 0.382475 143.762 0.0416496 142.973 0.349223C142.9 0.336754 142.849 0.266091 143.012 0.241153C138.623 0.345063 134.118 0.336745 129.7 0.286868C126.019 0.565347 121.905 0.31181 118.078 0.536256L118.095 0.48222C113.145 0.677572 107.894 0.469764 102.763 0.507172C100.631 0.48639 99.1936 0.54873 97.0529 0.552887L96.9971 0.482222C93.3935 0.748232 89.421 0.24531 85.663 0.536258L85.9204 0.440669C85.3369 0.586143 83.6467 0.390785 83.8698 0.640169L83.2048 0.565357C80.6523 0.897869 78.5545 0.411568 75.4228 0.627701L75.6287 0.569518C74.7964 0.615238 73.8269 0.652636 73.2091 0.598603C73.3035 0.59029 73.2606 0.573675 73.4579 0.557049C70.8496 0.320135 67.9496 0.581979 65.1997 0.573666L65.5129 0.461448C64.183 0.590297 61.7462 0.469763 59.9959 0.527952L60.1032 0.473917L59.2194 0.548729L59.198 0.44482C56.9329 0.424038 54.7922 0.515484 52.57 0.527953Z" fill="#523333"/>
</svg>
