<svg width="28" height="28" viewBox="0 0 28 28" fill="none" xmlns="http://www.w3.org/2000/svg">
<rect width="28" height="28" rx="14" fill="#E73C58"/>
<g clip-path="url(#clip0_352_1993)">
<path d="M21.6216 10.8537C21.5858 10.0423 21.4546 9.48435 21.2666 9.00093C21.0726 8.48778 20.7743 8.02836 20.3834 7.64645C20.0015 7.25859 19.539 6.9572 19.0318 6.7663C18.5456 6.57832 17.9906 6.44709 17.1791 6.41131C16.3616 6.3725 16.102 6.36353 14.0285 6.36353C11.9549 6.36353 11.6954 6.3725 10.8808 6.40828C10.0693 6.44406 9.51145 6.5754 9.02814 6.76327C8.51488 6.9572 8.05546 7.25556 7.67354 7.64645C7.28569 8.02836 6.98442 8.49081 6.7934 8.99801C6.60542 9.48435 6.47419 10.0392 6.43841 10.8507C6.3996 11.6683 6.39062 11.9278 6.39062 14.0014C6.39062 16.0749 6.3996 16.3345 6.43538 17.149C6.47116 17.9605 6.6025 18.5184 6.79049 19.0018C6.98442 19.515 7.28569 19.9744 7.67354 20.3563C8.05546 20.7442 8.51791 21.0456 9.02511 21.2365C9.51145 21.4244 10.0663 21.5557 10.8779 21.5915C11.6923 21.6273 11.952 21.6362 14.0256 21.6362C16.0991 21.6362 16.3587 21.6273 17.1732 21.5915C17.9847 21.5557 18.5426 21.4244 19.0259 21.2365C20.0523 20.8396 20.8638 20.0281 21.2606 19.0018C21.4485 18.5155 21.5798 17.9605 21.6156 17.149C21.6514 16.3345 21.6604 16.0749 21.6604 14.0014C21.6604 11.9278 21.6573 11.6683 21.6216 10.8537ZM20.2462 17.0893C20.2134 17.8352 20.0881 18.238 19.9837 18.5065C19.727 19.1719 19.199 19.6999 18.5336 19.9566C18.2651 20.061 17.8594 20.1863 17.1164 20.219C16.3109 20.2549 16.0693 20.2638 14.0315 20.2638C11.9937 20.2638 11.7491 20.2549 10.9465 20.219C10.2006 20.1863 9.7978 20.061 9.52928 19.9566C9.19818 19.8342 8.89679 19.6403 8.65217 19.3867C8.39857 19.139 8.20464 18.8407 8.08227 18.5096C7.97784 18.241 7.85256 17.8352 7.81981 17.0924C7.78391 16.2868 7.77505 16.0451 7.77505 14.0073C7.77505 11.9695 7.78391 11.7249 7.81981 10.9224C7.85256 10.1765 7.97784 9.77373 8.08227 9.50521C8.20464 9.17399 8.39857 8.87273 8.6552 8.62798C8.90274 8.37438 9.20109 8.18045 9.53231 8.0582C9.80083 7.95377 10.2066 7.82849 10.9495 7.79562C11.755 7.75984 11.9968 7.75087 14.0344 7.75087C16.0752 7.75087 16.3168 7.75984 17.1195 7.79562C17.8653 7.82849 18.2681 7.95377 18.5366 8.0582C18.8677 8.18045 19.1691 8.37438 19.4138 8.62798C19.6674 8.87564 19.8613 9.17399 19.9837 9.50521C20.0881 9.77373 20.2134 10.1794 20.2462 10.9224C20.282 11.7279 20.291 11.9695 20.291 14.0073C20.291 16.0451 20.282 16.2838 20.2462 17.0893Z" fill="white"/>
<path d="M14.0283 10.0781C11.8624 10.0781 10.105 11.8354 10.105 14.0015C10.105 16.1676 11.8624 17.9248 14.0283 17.9248C16.1944 17.9248 17.9517 16.1676 17.9517 14.0015C17.9517 11.8354 16.1944 10.0781 14.0283 10.0781ZM14.0283 16.5465C12.6232 16.5465 11.4834 15.4068 11.4834 14.0015C11.4834 12.5962 12.6232 11.4565 14.0283 11.4565C15.4336 11.4565 16.5733 12.5962 16.5733 14.0015C16.5733 15.4068 15.4336 16.5465 14.0283 16.5465V16.5465Z" fill="white"/>
<path d="M19.0229 9.923C19.0229 10.4288 18.6128 10.8389 18.1068 10.8389C17.601 10.8389 17.1909 10.4288 17.1909 9.923C17.1909 9.41708 17.601 9.00708 18.1068 9.00708C18.6128 9.00708 19.0229 9.41708 19.0229 9.923V9.923Z" fill="white"/>
</g>
<defs>
<clipPath id="clip0_352_1993">
<rect width="15.2727" height="15.2727" fill="white" transform="translate(6.36377 6.36353)"/>
</clipPath>
</defs>
</svg>
