<svg width="28" height="28" viewBox="0 0 28 28" fill="none" xmlns="http://www.w3.org/2000/svg">
<rect width="28" height="28" rx="14" fill="#0369DE"/>
<path fill-rule="evenodd" clip-rule="evenodd" d="M13.8086 19.0484H14.8736C14.8736 19.0484 15.1953 19.013 15.3596 18.8356C15.5108 18.6728 15.5059 18.367 15.5059 18.367C15.5059 18.367 15.4851 16.9356 16.1484 16.7248C16.8022 16.5171 17.6419 18.1083 18.5318 18.7201C19.2047 19.1831 19.7161 19.0816 19.7161 19.0816L22.0956 19.0484C22.0956 19.0484 23.3404 18.9716 22.7502 17.9912C22.7018 17.911 22.4064 17.2661 20.981 15.9407C19.489 14.5536 19.6888 14.7779 21.486 12.3785C22.5806 10.9172 23.0182 10.0251 22.8815 9.64298C22.7511 9.27905 21.9461 9.37525 21.9461 9.37525L19.2669 9.39196C19.2669 9.39196 19.0683 9.36483 18.921 9.45302C18.7771 9.53952 18.6844 9.74111 18.6844 9.74111C18.6844 9.74111 18.2604 10.8719 17.6948 11.8336C16.5018 13.8628 16.0248 13.9699 15.8298 13.8439C15.3763 13.5502 15.4895 12.6642 15.4895 12.0347C15.4895 10.0682 15.7872 9.24828 14.9097 9.03603C14.6184 8.96553 14.4041 8.91901 13.6593 8.91149C12.7033 8.90156 11.8942 8.9144 11.4361 9.13925C11.1313 9.28875 10.8961 9.6219 11.0394 9.64104C11.2164 9.66479 11.6175 9.74935 11.8301 10.0394C12.1047 10.4135 12.095 11.2538 12.095 11.2538C12.095 11.2538 12.2527 13.5686 11.7266 13.8562C11.3654 14.0535 10.87 13.6508 9.80642 11.8098C9.26143 10.8668 8.84997 9.82446 8.84997 9.82446C8.84997 9.82446 8.77063 9.62965 8.62912 9.52547C8.45737 9.39923 8.21741 9.35901 8.21741 9.35901L5.67148 9.37573C5.67148 9.37573 5.28929 9.38639 5.14899 9.55285C5.02417 9.70089 5.13907 10.0071 5.13907 10.0071C5.13907 10.0071 7.13228 14.6781 9.38915 17.032C11.4586 19.1901 13.8086 19.0484 13.8086 19.0484Z" fill="white"/>
</svg>
